<?xml version="1.0" encoding="utf-8"?>
<!-- Generator: Adobe Illustrator 26.1.0, SVG Export Plug-In . SVG Version: 6.00 Build 0)  -->
<svg version="1.1" id="Layer_1" xmlns="http://www.w3.org/2000/svg" xmlns:xlink="http://www.w3.org/1999/xlink" x="0px" y="0px"
	 viewBox="0 0 277.3 233.2" style="enable-background:new 0 0 277.3 233.2;" xml:space="preserve">
<style type="text/css">
	.st0{fill:#B7A47E;}
	.st1{fill:#C4B186;}
	.st2{fill:#DEE0E1;}
	.st3{fill:#2B271D;}
	.st4{fill:#FFFFFF;}
	.st5{fill:url(#SVGID_1_);fill-opacity:3.000000e-02;}
	.st6{fill:#C3B086;}
</style>
<rect y="0" class="st0" width="277.3" height="233.2"/>
<rect y="3" class="st1" width="274.3" height="230.2"/>
<polyline class="st2" points="277.3,233.2 0,233.2 0,0 "/>
<path class="st3" d="M62,28.2v148.2h189.7V28.2H62z"/>
<polygon class="st4" points="277.3,233.2 0,233.2 0,0 "/>
<linearGradient id="SVGID_1_" gradientUnits="userSpaceOnUse" x1="67.975" y1="790.475" x2="142.925" y2="715.525" gradientTransform="matrix(1 0 0 1 0 -608)">
	<stop  offset="0" style="stop-color:#FFFFFF"/>
	<stop  offset="1" style="stop-color:#000000"/>
</linearGradient>
<path class="st5" d="M163.8,136.1L62,50.5v126h149.9l-12.6-10.6"/>
<g>
	<path class="st6" d="M93.3,40.8v3.3h-9.4v3.8h8.6V51h-8.6v4.4h9.6v3.3H80V40.8H93.3z"/>
	<path class="st6" d="M112,45.6c-0.2-0.4-0.5-0.7-0.9-1c-0.3-0.3-0.7-0.5-1.2-0.7s-0.9-0.2-1.4-0.2c-0.9,0-1.6,0.2-2.2,0.5
		c-0.6,0.3-1.1,0.8-1.5,1.4c-0.4,0.6-0.7,1.2-0.8,2c-0.2,0.7-0.3,1.5-0.3,2.3c0,0.8,0.1,1.5,0.3,2.2c0.2,0.7,0.5,1.3,0.8,1.9
		c0.4,0.6,0.9,1,1.5,1.4c0.6,0.3,1.4,0.5,2.2,0.5c1.2,0,2.1-0.4,2.8-1.1c0.7-0.7,1.1-1.7,1.2-2.9h3.8c-0.1,1.1-0.4,2.1-0.8,3
		s-1,1.7-1.6,2.3c-0.7,0.6-1.5,1.1-2.4,1.4c-0.9,0.3-1.9,0.5-3,0.5c-1.4,0-2.6-0.2-3.7-0.7c-1.1-0.5-2-1.1-2.8-2s-1.3-1.8-1.7-2.9
		c-0.4-1.1-0.6-2.3-0.6-3.6c0-1.3,0.2-2.6,0.6-3.7c0.4-1.1,1-2.1,1.7-3c0.8-0.9,1.7-1.5,2.8-2c1.1-0.5,2.3-0.7,3.7-0.7
		c1,0,1.9,0.1,2.8,0.4c0.9,0.3,1.7,0.7,2.3,1.2s1.3,1.2,1.7,2c0.4,0.8,0.7,1.7,0.8,2.8h-3.8C112.4,46.3,112.2,45.9,112,45.6z"/>
	<path class="st6" d="M123.2,46.1c0.4-1.1,1-2.1,1.7-3c0.8-0.9,1.7-1.5,2.8-2s2.3-0.7,3.7-0.7c1.4,0,2.6,0.2,3.7,0.7s2,1.1,2.8,2
		c0.8,0.8,1.3,1.8,1.7,3c0.4,1.1,0.6,2.4,0.6,3.7c0,1.3-0.2,2.5-0.6,3.6c-0.4,1.1-1,2.1-1.7,2.9s-1.7,1.5-2.8,2s-2.3,0.7-3.7,0.7
		c-1.4,0-2.6-0.2-3.7-0.7s-2-1.1-2.8-2s-1.3-1.8-1.7-2.9c-0.4-1.1-0.6-2.3-0.6-3.6C122.6,48.5,122.8,47.2,123.2,46.1z M126.8,52
		c0.2,0.7,0.5,1.3,0.8,1.9c0.4,0.6,0.9,1,1.5,1.4c0.6,0.3,1.4,0.5,2.2,0.5c0.9,0,1.6-0.2,2.2-0.5c0.6-0.3,1.1-0.8,1.5-1.4
		c0.4-0.6,0.7-1.2,0.8-1.9c0.2-0.7,0.3-1.4,0.3-2.2c0-0.8-0.1-1.5-0.3-2.3s-0.5-1.4-0.8-2c-0.4-0.6-0.9-1-1.5-1.4
		c-0.6-0.3-1.4-0.5-2.2-0.5c-0.9,0-1.6,0.2-2.2,0.5c-0.6,0.3-1.1,0.8-1.5,1.4c-0.4,0.6-0.7,1.2-0.8,2s-0.3,1.5-0.3,2.3
		C126.5,50.5,126.6,51.3,126.8,52z"/>
	<path class="st6" d="M151.2,40.8l7.5,12h0v-12h3.7v17.9h-3.9l-7.4-12h0v12h-3.7V40.8H151.2z"/>
	<path class="st6" d="M170.2,46.1c0.4-1.1,1-2.1,1.7-3c0.8-0.9,1.7-1.5,2.8-2s2.3-0.7,3.7-0.7c1.4,0,2.6,0.2,3.7,0.7s2,1.1,2.8,2
		c0.8,0.8,1.3,1.8,1.7,3c0.4,1.1,0.6,2.4,0.6,3.7c0,1.3-0.2,2.5-0.6,3.6c-0.4,1.1-1,2.1-1.7,2.9s-1.7,1.5-2.8,2s-2.3,0.7-3.7,0.7
		c-1.4,0-2.6-0.2-3.7-0.7s-2-1.1-2.8-2s-1.3-1.8-1.7-2.9c-0.4-1.1-0.6-2.3-0.6-3.6C169.6,48.5,169.8,47.2,170.2,46.1z M173.7,52
		c0.2,0.7,0.5,1.3,0.8,1.9c0.4,0.6,0.9,1,1.5,1.4c0.6,0.3,1.4,0.5,2.2,0.5c0.9,0,1.6-0.2,2.2-0.5c0.6-0.3,1.1-0.8,1.5-1.4
		c0.4-0.6,0.7-1.2,0.8-1.9c0.2-0.7,0.3-1.4,0.3-2.2c0-0.8-0.1-1.5-0.3-2.3s-0.5-1.4-0.8-2c-0.4-0.6-0.9-1-1.5-1.4
		c-0.6-0.3-1.4-0.5-2.2-0.5c-0.9,0-1.6,0.2-2.2,0.5c-0.6,0.3-1.1,0.8-1.5,1.4c-0.4,0.6-0.7,1.2-0.8,2s-0.3,1.5-0.3,2.3
		C173.5,50.5,173.6,51.3,173.7,52z"/>
	<path class="st6" d="M199.8,40.8l4.2,12.3h0l4-12.3h5.5v17.9h-3.7V46h-0.1l-4.4,12.6h-3L198,46.1h0v12.5h-3.7V40.8H199.8z"/>
	<path class="st6" d="M219.6,40.8h4.4l4.2,7.1l4.2-7.1h4.4l-6.6,11v6.9h-3.9v-7L219.6,40.8z"/>
</g>
</svg>
