<?xml version="1.0" encoding="utf-8"?>
<!-- Generator: Adobe Illustrator 21.1.0, SVG Export Plug-In . SVG Version: 6.00 Build 0)  -->
<svg version="1.1" id="Layer_1" xmlns="http://www.w3.org/2000/svg" xmlns:xlink="http://www.w3.org/1999/xlink" x="0px" y="0px"
	 viewBox="0 0 277.3 233.2" style="enable-background:new 0 0 277.3 233.2;" xml:space="preserve">
<style type="text/css">
	.st0{fill:#B7A47E;}
	.st1{fill:#C4B186;}
	.st2{fill:#DEE0E1;}
	.st3{fill:#2B271D;}
	.st4{fill:#FFFFFF;}
	.st5{fill:url(#SVGID_1_);fill-opacity:3.000000e-02;}
</style>
<rect y="0" class="st0" width="277.3" height="233.2"/>
<rect x="0" y="3" class="st1" width="274.3" height="230.2"/>
<polyline class="st2" points="277.3,233.2 0,233.2 0,0 "/>
<path class="st3" d="M62,28.2v148.2h189.7V28.2H62z"/>
<g>
	<path class="st1" d="M209.2,165.9V83.5h-31.9V64.1c4.5,0.1,8.8-0.2,13-1c4.2-0.8,7.9-2.2,11.3-4.2c3.3-2,6.1-4.6,8.4-7.9
		c2.3-3.3,3.8-7.3,4.5-12.2H235v127H209.2z"/>
</g>
<polygon class="st4" points="277.3,233.2 0,233.2 0,0 "/>
<linearGradient id="SVGID_1_" gradientUnits="userSpaceOnUse" x1="67.975" y1="51.415" x2="142.925" y2="126.365" gradientTransform="matrix(1 0 0 -1 0 233.89)">
	<stop  offset="0" style="stop-color:#FFFFFF"/>
	<stop  offset="1" style="stop-color:#000000"/>
</linearGradient>
<path class="st5" d="M163.8,136.1L62,50.5v126h149.9l-12.6-10.6"/>
</svg>
