<?xml version="1.0" encoding="utf-8"?>
<!-- Generator: Adobe Illustrator 21.1.0, SVG Export Plug-In . SVG Version: 6.00 Build 0)  -->
<svg version="1.1" id="Layer_1" xmlns="http://www.w3.org/2000/svg" xmlns:xlink="http://www.w3.org/1999/xlink" x="0px" y="0px"
	 viewBox="0 0 17.5 14.5" style="enable-background:new 0 0 17.5 14.5;" xml:space="preserve">
<style type="text/css">
	.st0{fill:#0B0B0B;}
</style>
<path class="st0" d="M8.6,3.9l5.3,8.6H3.5L8.6,3.9 M8.6,0L0,14.5h17.5L8.6,0L8.6,0z"/>
<g>
	<circle class="st0" cx="8.8" cy="10.9" r="1.1"/>
	<path d="M8.8,9.8c-0.6,0-1.1,0.5-1.1,1.1c0,0.6,0.5,1.1,1.1,1.1s1.1-0.5,1.1-1.1C9.8,10.3,9.4,9.8,8.8,9.8L8.8,9.8z"/>
</g>
<polygon class="st0" points="8.2,6.4 9.3,6.4 9.7,6.8 9.6,9.3 8.7,9.1 8,9.3 7.8,6.9 "/>
<g>
</g>
<g>
</g>
<g>
</g>
<g>
</g>
<g>
</g>
<g>
</g>
</svg>
