<?xml version="1.0" encoding="utf-8"?>
<!-- Generator: Adobe Illustrator 26.1.0, SVG Export Plug-In . SVG Version: 6.00 Build 0)  -->
<svg version="1.1" xmlns="http://www.w3.org/2000/svg" xmlns:xlink="http://www.w3.org/1999/xlink" x="0px" y="0px"
	 viewBox="0 0 425.2 428" style="enable-background:new 0 0 425.2 428;" xml:space="preserve">
<style type="text/css">
	.st0{fill:#1D70B8;}
	.st1{opacity:0.8;}
	.st2{fill:#FFFFFF;}
	.st3{fill:#0B0C0C;}
	.st4{fill:#FFDD00;}
	.st5{opacity:0.2;fill:#1D2F3A;enable-background:new    ;}
	.st6{opacity:0.5;fill:#F4F4F4;enable-background:new    ;}
	.st7{display:none;}
	.st8{display:inline;}
	.st9{clip-path:url(#SVGID_00000062175871107986474280000003588235060774534804_);fill:#FFDD00;}
	
		.st10{opacity:0.2;clip-path:url(#SVGID_00000155836831598571387340000010611191892800054165_);fill:#1D2F3A;enable-background:new    ;}
	.st11{clip-path:url(#SVGID_00000181076064768104383310000017573742154698906258_);fill:#FFDD00;}
	.st12{opacity:0.5;clip-path:url(#SVGID_00000155859438025722585380000012945452015912183425_);}
	.st13{fill:#F4F4F4;}
	.st14{display:inline;fill:#206FAB;}
</style>
<g id="Layer_2">
	<g id="Layer_1_00000060020919154510870270000017419125553287177361_">
		<circle class="st0" cx="212.6" cy="212.6" r="212.6"/>
	</g>
</g>
<g id="Layer_3_00000126300406669686540970000002961657999934516627_">
	<g class="st1">
		<path class="st2" d="M93.5,244c0.7,2.8-0.9,5.6-3.7,6.3c-2.8,0.7-5.6-0.9-6.3-3.7c-0.8-3.3-1.6-6.5-2.2-9.9
			c-0.6-3.3-1.1-6.6-1.4-9.9c-0.2-2.1-0.4-4.3-0.5-6.5c-0.1-2.4-0.2-4.6-0.2-6.6c0-36.8,14.9-72.2,39.1-96.3
			c24.1-24.1,57.5-39.1,94.3-39.1s70.2,14.8,94.4,38.9c24.1,24,39,59.2,39,96c0,2.8-2.3,5.2-5.2,5.2c-2.8,0-5.2-2.3-5.2-5.2
			c0-34-13.7-66.6-36-88.7c-22.3-22.2-53.1-35.9-87.1-35.9c-34,0-64.7,13.8-87,36c-22.3,22.3-36,55-36,89c0,2.3,0,4.3,0.1,6.1
			c0.1,2,0.2,4,0.4,5.9c0.3,3,0.8,6.1,1.3,9.1C92,237.9,92.7,240.9,93.5,244L93.5,244z M107.4,299.7c-2.1,1.9-5.4,1.6-7.3-0.5
			c-1.9-2.1-1.6-5.4,0.5-7.3c1.3-1.1,2.5-2.5,3.4-4c1-1.6,1.9-3.5,2.5-5.6c3.5-11,1.4-31.4-0.7-43.1c-1.4-7.9-2.9-15.9-2.8-24.2
			c0.3-42.6,26.9-79.2,61.7-97c14.6-7.5,30.7-11.9,47-12.8c16.3-0.8,32.7,2,47.9,9.2c33.9,16.1,61.4,55.8,67.2,122.6
			c0.2,2.8-1.9,5.3-4.7,5.6c-2.8,0.2-5.3-1.9-5.6-4.7c-5.4-62.5-30.4-99.5-61.2-114.1c-13.6-6.5-28.3-9-43-8.3
			c-14.7,0.8-29.4,4.9-42.8,11.7c-31.7,16.2-55.9,49.5-56.1,87.9c0,7.4,1.3,14.9,2.7,22.3c2.3,12.9,4.6,34.6,0.5,48
			c-0.9,3-2.2,5.7-3.7,8.1C111.3,295.8,109.4,297.9,107.4,299.7L107.4,299.7z M316.3,258.5c0-2.9,2.3-5.2,5.2-5.2
			c2.8,0,5.2,2.3,5.2,5.2v30.7c0,2.9-2.3,5.2-5.2,5.2c-2.8,0-5.2-2.3-5.2-5.2V258.5L316.3,258.5z M122.7,320.8
			c-2.1,1.9-5.4,1.7-7.3-0.4c-1.9-2.1-1.7-5.4,0.4-7.3c6.4-5.6,11.1-12.9,13.8-22.1c2.8-9.4,3.5-29.9,1.8-43.6
			c-3-14.7-3.5-30.3-1.8-42.6c1.8-12.8,6.2-24.2,12.8-33.9c1.6-2.3,4.8-3,7.2-1.3c2.3,1.6,3,4.8,1.3,7.2
			c-5.7,8.4-9.5,18.3-11.1,29.6c-1.6,11.1-1.1,25.5,1.7,39.1c0.1,0.3,0.1,0.5,0.2,0.8c1.8,15.1,1,37-2.2,47.8
			C136.2,305,130.5,313.8,122.7,320.8L122.7,320.8z M175.1,154.3c-2.5,1.4-5.6,0.6-7.1-1.9c-1.4-2.5-0.6-5.6,1.9-7.1
			c5.8-3.3,11.9-6,18.3-7.9c17.5-5.3,36.4-5.1,53.6,0.9c17.3,6.1,32.9,18.1,43.5,36.4c3.5,6.1,6.5,12.9,8.8,20.5
			c3.3,10.8,5.5,24.9,6.7,38.1c1.1,13,1.2,36.4,0.2,52c0,0.2,0,0.3,0,0.4l-3.6,35.6c-0.3,2.8-2.8,4.9-5.6,4.6
			c-2.8-0.3-4.9-2.8-4.6-5.6l3.6-35.6v0c1-15,0.9-37.9-0.2-50.5c-1.1-12.6-3.2-26-6.2-36c-2-6.8-4.7-12.9-7.9-18.3
			c-9.3-16.1-22.9-26.6-37.9-31.8c-15.2-5.3-31.9-5.4-47.3-0.8C185.7,149.1,180.3,151.4,175.1,154.3L175.1,154.3z M163.8,302.5
			c-0.5,2.8-3.2,4.7-6,4.2c-2.8-0.5-4.7-3.2-4.2-6c1.2-6.7,1.9-14.2,2.1-22.3c0.2-8.3,0-26.3-0.5-36c-0.1-2.1-0.3-4.7-0.5-7.2
			c-1.2-16.5-2.1-31.8,7.5-48.9c2.1-3.8,4.7-7.3,7.7-10.5c3-3.2,6.5-6.1,10.5-8.7c0.3-0.2,0.5-0.3,0.8-0.4c5.9-2.8,11.7-5,17.6-6.4
			c6-1.5,12-2.1,17.9-1.8c2.8,0.2,5,2.6,4.9,5.4c-0.2,2.8-2.6,5-5.4,4.9c-4.9-0.3-9.9,0.3-14.9,1.5c-5,1.2-10.2,3.2-15.5,5.7
			c-3.2,2.1-6,4.4-8.3,6.9c-2.4,2.6-4.5,5.4-6.2,8.5c-8.1,14.5-7.3,28.4-6.3,43.1c0.2,2.2,0.3,4.4,0.5,7.3
			c0.6,9.9,0.8,28.2,0.5,36.9C165.7,287.5,165,295.5,163.8,302.5L163.8,302.5z M236.5,175.1c-2.4-1.5-3.2-4.7-1.7-7.1
			c1.5-2.4,4.6-3.2,7.1-1.7c1.6,1,3.1,2,4.6,3.1c1.5,1.1,2.9,2.3,4.4,3.6c19.7,17.9,26.3,48.6,26.8,78.6
			c0.4,29.3-5.1,68.8-10.1,91.3c-0.6,2.8-3.4,4.5-6.1,3.9c-2.8-0.6-4.5-3.4-3.9-6.1c4.9-22,10.3-60.7,9.9-89
			c-0.4-27.5-6.3-55.5-23.4-71.1c-1.2-1.1-2.4-2.1-3.7-3C239,176.7,237.8,175.8,236.5,175.1L236.5,175.1z M172.9,349.3
			c-1.6,2.3-4.9,2.9-7.2,1.2c-2.3-1.7-2.9-4.9-1.2-7.2c3.6-5.1,6.7-10.8,9.2-16.9c2.5-6.2,4.5-12.9,5.8-20.1
			c2.5-13.5,1.3-39.8,0.2-56c-0.4-5.5-0.8-10.9-1-16.4c-0.3-8.1-0.5-18,1-25.1c1.6-7.8,5.1-14.6,12.2-19.6c1.6-1.1,3.3-2.1,5.1-3
			c1.8-0.8,3.8-1.6,6-2.2c1.6-0.5,3.2-0.8,4.7-1.1c10.6-1.8,19,0.9,25.4,6.6c6.1,5.4,10.3,15.3,12.9,24.2c0.8,2.7,1.4,5.5,1.9,8.4
			c0.3,1.6,0.5,3.1,0.7,4.7c0.2,1.6,0.3,3.2,0.4,4.8c1.1,16.4,0.4,45.8-1.8,65.8c-2.1,19.2-5.6,38.1-10.3,52.8
			c-0.9,2.7-3.8,4.2-6.5,3.4c-2.7-0.9-4.2-3.8-3.4-6.5c4.4-14,7.8-32.2,9.9-50.8c2.1-19.4,2.8-48.2,1.8-64c-0.1-1.4-0.2-2.8-0.4-4.3
			c-0.2-1.4-0.4-2.8-0.6-4.1c-0.4-2.5-1-4.9-1.6-7.3c-2-7.2-5.2-15.4-9.7-19.3c-4.2-3.6-9.7-5.4-16.9-4.1c-1.2,0.2-2.4,0.5-3.6,0.8
			c-1.7,0.5-3.2,1-4.5,1.6c-1.3,0.6-2.5,1.3-3.6,2c-4.5,3.2-6.9,9.8-8,15.2c-1.3,6.1-1.1,13.2-0.8,20.6c0.2,4.9,0.6,10.4,1,16.1
			c1.2,16.9,2.4,43.8-0.3,58.6c-1.5,7.9-3.6,15.3-6.4,22.1C180.5,337.2,177,343.5,172.9,349.3L172.9,349.3z M208.3,215.4
			c-0.5-2.8,1.3-7.5,4.1-8c2.8-0.5,5.5,3.3,6,6.1c2.6,14.2,3.9,28.5,3.9,42.8c0,14.3-1.1,37.7-3.3,52.1c-0.4,2.8-3.1,4.7-5.9,4.3
			c-2.8-0.4-4.7-3.1-4.3-5.9c2.1-13.9,3.3-36.7,3.2-50.5C212,242.6,210.8,228.9,208.3,215.4L208.3,215.4z M202.4,324.6
			c0.6-2.8,3.4-4.5,6.1-3.9c2.8,0.6,4.5,3.4,3.9,6.1l-4.5,20.3c-0.6,2.8-3.4,4.5-6.1,3.9c-2.8-0.6-4.5-3.4-3.9-6.1L202.4,324.6
			L202.4,324.6z"/>
	</g>
</g>
<g id="Layer_1">
	<g id="Layer_2_00000081627441928594518190000011193059873677547454_">
		
			<rect x="91.9" y="248.6" transform="matrix(0.7071 -0.7071 0.7071 0.7071 -164.702 181.3286)" class="st3" width="89.3" height="81.7"/>
		
			<rect x="76.9" y="258.5" transform="matrix(0.7071 -0.7071 0.7071 0.7071 -150.6698 163.1059)" class="st4" width="89.3" height="9.9"/>
		
			<rect x="90.6" y="272.2" transform="matrix(0.7071 -0.7071 0.7071 0.7071 -156.3441 176.8057)" class="st4" width="89.3" height="9.9"/>
		
			<rect x="104.3" y="285.9" transform="matrix(0.7071 -0.7071 0.7071 0.7071 -162.0184 190.5056)" class="st4" width="89.3" height="9.9"/>
		
			<rect x="118" y="299.6" transform="matrix(0.7071 -0.7071 0.7071 0.7071 -167.6928 204.2055)" class="st4" width="89.3" height="9.9"/>
		
			<rect x="131.9" y="227.1" transform="matrix(0.7071 -0.7071 0.7071 0.7071 -143.1314 190.3147)" class="st5" width="52.5" height="81.7"/>
	</g>
	<g id="Layer_5">
		<polygon class="st6" points="116.8,275.2 108.5,283.4 103,274.9 111.3,266.7 		"/>
		<polygon class="st6" points="127.6,291.8 119.3,300 113.8,291.5 122.1,283.3 		"/>
		<polygon class="st6" points="138.3,308.4 130.1,316.7 124.6,308.2 132.8,299.9 		"/>
		<polygon class="st6" points="149.1,325 140.9,333.3 135.4,324.8 143.6,316.6 		"/>
	</g>
	<g id="Layer_6">
	</g>
	<g id="Layer_4" class="st7">
		<g class="st8">
			<defs>
				
					<ellipse id="SVGID_1_" transform="matrix(0.1602 -0.9871 0.9871 0.1602 88.6253 398.8911)" cx="278.7" cy="147.4" rx="23.7" ry="23.7"/>
			</defs>
			<clipPath id="SVGID_00000149341469264008635350000003456655862365629116_">
				<use xlink:href="#SVGID_1_"  style="overflow:visible;"/>
			</clipPath>
			
				<ellipse transform="matrix(0.8112 -0.5847 0.5847 0.8112 -33.5425 190.772)" style="clip-path:url(#SVGID_00000149341469264008635350000003456655862365629116_);fill:#FFDD00;" cx="278.7" cy="147.3" rx="23.7" ry="23.7"/>
		</g>
		<g class="st8">
			<defs>
				
					<ellipse id="SVGID_00000173853255767507944800000010005278694285754530_" transform="matrix(0.1602 -0.9871 0.9871 0.1602 88.6253 398.8911)" cx="278.7" cy="147.4" rx="23.7" ry="23.7"/>
			</defs>
			<clipPath id="SVGID_00000076573869363274720120000012028581080515934638_">
				<use xlink:href="#SVGID_00000173853255767507944800000010005278694285754530_"  style="overflow:visible;"/>
			</clipPath>
			
				<ellipse transform="matrix(0.8112 -0.5847 0.5847 0.8112 -33.5425 190.772)" style="opacity:0.2;clip-path:url(#SVGID_00000076573869363274720120000012028581080515934638_);fill:#1D2F3A;enable-background:new    ;" cx="278.7" cy="147.3" rx="23.7" ry="23.7"/>
		</g>
		<g class="st8">
			<defs>
				
					<ellipse id="SVGID_00000068660059039814568720000009528209564414127750_" transform="matrix(0.8112 -0.5847 0.5847 0.8112 -33.5425 190.772)" cx="278.7" cy="147.3" rx="23.7" ry="23.7"/>
			</defs>
			<clipPath id="SVGID_00000005255303908193020830000016297075762633084809_">
				<use xlink:href="#SVGID_00000068660059039814568720000009528209564414127750_"  style="overflow:visible;"/>
			</clipPath>
			<path style="clip-path:url(#SVGID_00000005255303908193020830000016297075762633084809_);fill:#FFDD00;" d="M264.8,127.7
				c15.8,2.7,30.8,17.7,33.5,33.5s-7.9,26.4-23.7,23.7s-30.8-17.7-33.5-33.5C238.4,135.6,249,125,264.8,127.7z"/>
		</g>
		<g class="st8">
			<defs>
				
					<ellipse id="SVGID_00000091706263838962606160000002077027029954548107_" transform="matrix(0.8112 -0.5847 0.5847 0.8112 -33.5425 190.772)" cx="278.7" cy="147.3" rx="23.7" ry="23.7"/>
			</defs>
			<clipPath id="SVGID_00000123442187796042376400000008128545228467043225_">
				<use xlink:href="#SVGID_00000091706263838962606160000002077027029954548107_"  style="overflow:visible;"/>
			</clipPath>
			<g style="opacity:0.5;clip-path:url(#SVGID_00000123442187796042376400000008128545228467043225_);">
				
					<rect x="260.6" y="117.2" transform="matrix(0.842 -0.5395 0.5395 0.842 -44.6553 168.5858)" class="st13" width="9.8" height="86.7"/>
			</g>
		</g>
	</g>
	<g id="Layer_9" class="st7">
		
			<ellipse transform="matrix(0.7071 -0.7071 0.7071 0.7071 -22.5533 240.2274)" class="st14" cx="278.7" cy="147.3" rx="15.8" ry="15.8"/>
	</g>
	<g id="Layer_3">
		<path class="st3" d="M278,74.5l-168,168l73.6,73.6l168-168L278,74.5z M262,164c-9.2-9.2-9.2-24.2,0-33.5c9.2-9.3,24.2-9.2,33.5,0
			s9.2,24.2,0,33.5S271.3,173.3,262,164z"/>
	</g>
	<g id="Layer_8">
	</g>
	<g id="Layer_10">
	</g>
</g>
</svg>
