<svg xmlns="http://www.w3.org/2000/svg" width="572" height="100" viewBox="0 0 572 100"><path fill="#FFF" d="M1 1h570v98H1z"/><path d="M24.2 23.348c0 .996-.124 1.903-.371 2.723-.248.819-.625 1.52-1.132 2.101-.507.582-1.143 1.031-1.907 1.35-.764.319-1.662.478-2.695.478h-4.268V16.696h4.268c1.033 0 1.931.159 2.695.478.764.319 1.399.769 1.907 1.35.507.582.884 1.282 1.132 2.101.247.82.371 1.728.371 2.723zm-1.754-.26c0-.692-.087-1.342-.26-1.948-.173-.606-.438-1.133-.793-1.582-.356-.449-.811-.803-1.364-1.062-.553-.26-1.21-.39-1.971-.39H15.46V28.59h2.598c.761 0 1.418-.128 1.971-.385.554-.257 1.008-.609 1.364-1.058.355-.449.62-.976.793-1.582.173-.606.26-1.255.26-1.948v-.529zm5.344 2.654c.031.445.121.857.269 1.234.148.377.351.704.608.979.256.275.56.489.909.641.349.151.737.227 1.164.227.525 0 .988-.088 1.387-.264.399-.177.766-.397 1.1-.664l.798 1.123c-.427.34-.92.62-1.479.84-.56.219-1.187.329-1.879.329-.687 0-1.308-.122-1.865-.366-.557-.245-1.031-.585-1.424-1.021-.393-.437-.694-.956-.904-1.559-.21-.604-.315-1.26-.315-1.972 0-.724.104-1.387.311-1.99.208-.603.5-1.122.877-1.559.377-.436.829-.776 1.354-1.021.525-.244 1.11-.366 1.753-.366.625 0 1.188.122 1.688.366.501.245.928.585 1.28 1.021.353.437.623.956.812 1.559.188.604.283 1.261.283 1.972v.492H27.79zm2.607-4.045c-.396 0-.749.078-1.058.232-.31.155-.574.362-.793.622-.219.26-.393.558-.52.895-.126.337-.199.686-.218 1.044h5.019c-.013-.365-.076-.716-.19-1.053-.115-.337-.275-.634-.482-.891-.208-.257-.458-.462-.752-.617-.293-.155-.629-.232-1.006-.232zm11.68 7.357c-.278.322-.654.591-1.127.807-.473.216-1.028.325-1.665.325-.47 0-.906-.066-1.308-.199s-.751-.323-1.048-.571c-.297-.247-.529-.547-.696-.9s-.25-.751-.25-1.197c0-.371.061-.709.181-1.016.121-.306.291-.573.511-.802.219-.229.483-.416.793-.561.309-.146.655-.246 1.039-.302l3.349-.455v-.603c0-.358-.056-.66-.167-.904-.111-.245-.261-.438-.45-.58-.189-.142-.412-.244-.668-.306-.257-.062-.534-.093-.831-.093-.532 0-1.028.074-1.489.223-.461.148-.877.322-1.248.52l-.584-1.234c.544-.309 1.115-.532 1.711-.668.597-.136 1.186-.204 1.768-.204 1.156 0 2.032.261 2.625.784.594.522.891 1.285.891 2.287v4.37c0 .315.062.58.186.793.124.214.321.382.594.506l-.881 1.113c-.297-.074-.552-.206-.766-.395-.213-.188-.363-.416-.45-.682l-.02-.056zm-2.774-3.275c-.26.037-.496.09-.71.158-.213.068-.394.159-.542.273-.148.115-.264.255-.348.422-.083.167-.125.371-.125.612 0 .278.052.526.158.742.105.217.247.399.427.547.179.148.388.261.626.339.238.077.487.116.747.116.291 0 .575-.04.854-.121.278-.08.525-.196.742-.348.216-.152.391-.335.524-.552.133-.216.2-.464.2-.742v-1.828l-2.553.382zm11.782-3.869h-.25c-.402 0-.786.046-1.15.139-.365.093-.687.26-.965.501s-.501.571-.668.988c-.167.418-.25.951-.25 1.601V30h-1.559v-9.481h1.559v1.503c.117-.278.275-.522.473-.733.198-.21.422-.385.672-.524.251-.14.52-.243.808-.311.287-.068.58-.102.876-.102h.455v1.558z" fill="#0B0C0C"/><path fill="#2E8ACA" d="M57.871 12s-3 0-3 3v19s0 3 3 3h71.298s3 0 3-3V15s0-3-3-3H57.871z"/><path d="M59.478 24.981c0 .835.097 1.625.292 2.371.194.745.474 1.446.839 2.101s.81 1.266 1.336 1.833c.525.565 1.119 1.081 1.781 1.544l-.798 1.085-.473-.343c-.848-.606-1.569-1.245-2.166-1.916-.597-.671-1.086-1.369-1.466-2.092-.381-.724-.659-1.474-.835-2.25-.177-.776-.265-1.573-.265-2.389s.088-1.613.265-2.389c.176-.776.454-1.526.835-2.25.38-.724.869-1.421 1.466-2.092s1.318-1.309 2.166-1.916l.473-.343.798 1.085c-.662.464-1.256.979-1.781 1.544-.526.566-.971 1.177-1.336 1.833-.365.656-.645 1.358-.839 2.106-.195.749-.292 1.537-.292 2.366v.112zm6.768 0c0 .835.097 1.625.292 2.371.194.745.474 1.446.839 2.101s.81 1.266 1.336 1.833c.525.565 1.119 1.081 1.781 1.544l-.798 1.085-.473-.343c-.848-.606-1.569-1.245-2.166-1.916-.597-.671-1.086-1.369-1.466-2.092-.381-.724-.659-1.474-.835-2.25-.177-.776-.265-1.573-.265-2.389s.088-1.613.265-2.389c.176-.776.454-1.526.835-2.25.38-.724.869-1.421 1.466-2.092s1.318-1.309 2.166-1.916l.473-.343.798 1.085c-.662.464-1.256.979-1.781 1.544-.526.566-.971 1.177-1.336 1.833-.365.656-.645 1.358-.839 2.106-.195.749-.292 1.537-.292 2.366v.112z" fill="#ABD0EA"/><path d="M71.999 20.519h1.559v1.085c.321-.439.719-.761 1.192-.965.473-.204 1-.306 1.582-.306.525 0 .986.087 1.382.26.396.173.727.408.993.705s.465.64.598 1.03c.133.39.2.801.2 1.234V30h-1.559v-5.947c0-.414-.051-.769-.153-1.062-.103-.294-.241-.532-.418-.715-.176-.182-.383-.315-.621-.398-.238-.084-.494-.125-.766-.125-.297 0-.589.054-.877.163-.287.108-.547.271-.779.487-.231.217-.419.489-.561.816-.143.328-.213.714-.213 1.16V30h-1.559v-9.481zm15.669 8.535c-.278.322-.654.591-1.127.807-.473.216-1.028.325-1.665.325-.47 0-.906-.066-1.308-.199s-.751-.323-1.048-.571c-.297-.247-.529-.547-.696-.9s-.25-.751-.25-1.197c0-.371.061-.709.181-1.016.121-.306.291-.573.511-.802.219-.229.483-.416.793-.561.309-.146.655-.246 1.039-.302l3.349-.455v-.603c0-.358-.056-.66-.167-.904-.111-.245-.261-.438-.45-.58-.189-.142-.412-.244-.668-.306-.257-.062-.534-.093-.831-.093-.532 0-1.028.074-1.489.223-.461.148-.877.322-1.248.52l-.584-1.234c.544-.309 1.115-.532 1.711-.668.597-.136 1.186-.204 1.768-.204 1.156 0 2.032.261 2.625.784.594.522.891 1.285.891 2.287v4.37c0 .315.062.58.186.793.124.214.321.382.594.506l-.881 1.113c-.297-.074-.552-.206-.766-.395-.213-.188-.363-.416-.45-.682l-.02-.056zm-2.774-3.275c-.26.037-.496.09-.71.158-.213.068-.394.159-.542.273-.148.115-.264.255-.348.422-.083.167-.125.371-.125.612 0 .278.052.526.158.742.105.217.247.399.427.547.179.148.388.261.626.339.238.077.487.116.747.116.291 0 .575-.04.854-.121.278-.08.525-.196.742-.348.216-.152.391-.335.524-.552.133-.216.2-.464.2-.742v-1.828l-2.553.382zM98.94 30h-1.559v-5.965c0-.42-.051-.776-.153-1.067-.102-.291-.238-.525-.408-.705-.17-.179-.371-.309-.603-.39-.232-.08-.478-.121-.738-.121s-.515.051-.765.153c-.251.103-.474.262-.668.478-.195.217-.353.49-.474.821-.12.331-.181.729-.181 1.192V30h-1.559v-9.481h1.559v1.085c.315-.439.682-.761 1.1-.965.417-.204.879-.306 1.387-.306.21 0 .439.029.687.088.247.059.49.15.729.274.238.124.458.286.658.487.201.201.363.444.487.729.173-.291.373-.537.599-.737.226-.201.464-.363.714-.487.251-.124.511-.213.779-.269.27-.056.537-.083.803-.083.513 0 .968.087 1.364.26.396.173.729.405 1.002.696.272.291.478.628.617 1.011.14.384.209.786.209 1.206V30h-1.559v-5.965c0-.42-.053-.776-.158-1.067-.105-.291-.248-.525-.427-.705-.18-.179-.387-.309-.622-.39-.235-.08-.479-.121-.733-.121-.26 0-.515.051-.765.153-.251.103-.474.262-.668.478-.195.217-.353.49-.474.821-.12.331-.181.729-.181 1.192V30zm9.416-4.258c.031.445.121.857.269 1.234.148.377.351.704.608.979.256.275.56.489.909.641.349.151.737.227 1.164.227.525 0 .988-.088 1.387-.264.399-.177.766-.397 1.1-.664l.798 1.123c-.427.34-.92.62-1.479.84-.56.219-1.187.329-1.879.329-.687 0-1.308-.122-1.865-.366-.557-.245-1.031-.585-1.424-1.021-.393-.437-.694-.956-.904-1.559-.21-.604-.315-1.26-.315-1.972 0-.724.104-1.387.311-1.99.208-.603.5-1.122.877-1.559.377-.436.829-.776 1.354-1.021.525-.244 1.11-.366 1.753-.366.625 0 1.188.122 1.688.366.501.245.928.585 1.28 1.021.353.437.623.956.812 1.559.188.604.283 1.261.283 1.972v.492h-6.727zm2.607-4.045c-.396 0-.749.078-1.058.232-.31.155-.574.362-.793.622-.219.26-.393.558-.52.895-.126.337-.199.686-.218 1.044h5.019c-.013-.365-.076-.716-.19-1.053-.115-.337-.275-.634-.482-.891-.208-.257-.458-.462-.752-.617-.293-.155-.629-.232-1.006-.232z" fill="#FFF"/><path d="M119.989 24.87c0-.829-.098-1.617-.292-2.366-.195-.748-.475-1.45-.84-2.106-.365-.655-.811-1.266-1.336-1.833-.526-.565-1.123-1.081-1.791-1.544l.798-1.085.473.343c.847.606 1.569 1.245 2.166 1.916.597.671 1.086 1.369 1.466 2.092.381.724.659 1.474.835 2.25.177.776.265 1.573.265 2.389s-.088 1.613-.265 2.389c-.176.776-.454 1.526-.835 2.25-.38.724-.869 1.421-1.466 2.092s-1.319 1.309-2.166 1.916l-.473.343-.798-1.085c.668-.464 1.265-.979 1.791-1.544.525-.566.971-1.177 1.336-1.833.365-.655.645-1.356.84-2.101.194-.746.292-1.536.292-2.371v-.112zm6.768 0c0-.829-.098-1.617-.292-2.366-.195-.748-.475-1.45-.84-2.106-.365-.655-.811-1.266-1.336-1.833-.526-.565-1.123-1.081-1.791-1.544l.798-1.085.473.343c.847.606 1.569 1.245 2.166 1.916.597.671 1.086 1.369 1.466 2.092.381.724.659 1.474.835 2.25.177.776.265 1.573.265 2.389s-.088 1.613-.265 2.389c-.176.776-.454 1.526-.835 2.25-.38.724-.869 1.421-1.466 2.092s-1.319 1.309-2.166 1.916l-.473.343-.798-1.085c.668-.464 1.265-.979 1.791-1.544.525-.566.971-1.177 1.336-1.833.365-.655.645-1.356.84-2.101.194-.746.292-1.536.292-2.371v-.112z" fill="#ABD0EA"/><path d="M134.672 28.024c.173 0 .339.034.496.102.158.068.294.162.408.283.115.12.206.268.274.44.068.173.102.362.102.566 0 .223-.041.452-.121.687-.081.235-.204.458-.371.668-.167.21-.377.402-.631.575-.254.173-.554.306-.9.399l-.204.065-.195-.631.121-.037c.284-.099.535-.238.751-.417.216-.18.365-.377.445-.594h-.195c-.148 0-.286-.026-.413-.079-.126-.052-.238-.125-.334-.218-.096-.093-.171-.203-.227-.329-.056-.127-.083-.265-.083-.413s.028-.288.083-.417.131-.243.227-.338c.096-.096.21-.172.344-.228.134-.056.275-.084.423-.084zm9.965-.38c0 .161.011.311.032.45.022.139.074.261.158.366.083.105.205.189.366.25.161.062.38.093.659.093.074 0 .163-.003.264-.009.103-.006.209-.014.32-.023.111-.009.219-.021.325-.037.105-.015.195-.029.269-.042l.167 1.364c-.18.024-.365.046-.557.065-.161.019-.34.034-.538.046-.198.012-.396.019-.594.019-.377 0-.716-.039-1.016-.116-.3-.077-.556-.202-.766-.375-.21-.173-.371-.4-.482-.682-.111-.281-.167-.623-.167-1.025v-6.095h-1.791V20.52h1.791v-3.1l1.559-.547v3.646h2.635v1.373h-2.635v5.752zm4.564-10.948h1.559v4.908c.321-.439.719-.761 1.192-.965.473-.204 1-.306 1.582-.306.525 0 .986.087 1.382.26.396.173.727.408.993.705s.465.64.598 1.03c.133.39.2.801.2 1.234V30h-1.559v-5.947c0-.414-.051-.769-.153-1.062-.103-.294-.241-.532-.418-.715-.176-.182-.383-.315-.621-.398-.238-.084-.494-.125-.766-.125-.297 0-.591.054-.881.163-.291.108-.551.271-.779.487-.229.217-.415.489-.557.816-.143.328-.213.714-.213 1.16V30h-1.559V16.696zm15.67 12.358c-.278.322-.654.591-1.127.807-.473.216-1.028.325-1.665.325-.47 0-.906-.066-1.308-.199s-.751-.323-1.048-.571c-.297-.247-.529-.547-.696-.9s-.25-.751-.25-1.197c0-.371.061-.709.181-1.016.121-.306.291-.573.511-.802.219-.229.483-.416.793-.561.309-.146.655-.246 1.039-.302l3.349-.455v-.603c0-.358-.056-.66-.167-.904-.111-.245-.261-.438-.45-.58-.189-.142-.412-.244-.668-.306-.257-.062-.534-.093-.831-.093-.532 0-1.028.074-1.489.223-.461.148-.877.322-1.248.52l-.584-1.234c.544-.309 1.115-.532 1.711-.668.597-.136 1.186-.204 1.768-.204 1.156 0 2.032.261 2.625.784.594.522.891 1.285.891 2.287v4.37c0 .315.062.58.186.793.124.214.321.382.594.506l-.881 1.113c-.297-.074-.552-.206-.766-.395-.213-.188-.363-.416-.45-.682l-.02-.056zm-2.774-3.275c-.26.037-.496.09-.71.158-.213.068-.394.159-.542.273-.148.115-.264.255-.348.422-.083.167-.125.371-.125.612 0 .278.052.526.158.742.105.217.247.399.427.547.179.148.388.261.626.339.238.077.487.116.747.116.291 0 .575-.04.854-.121.278-.08.525-.196.742-.348.216-.152.391-.335.524-.552.133-.216.2-.464.2-.742v-1.828l-2.553.382zm6.939-5.26h1.559v1.085c.321-.439.719-.761 1.192-.965.473-.204 1-.306 1.582-.306.525 0 .986.087 1.382.26.396.173.727.408.993.705s.465.64.598 1.03c.133.39.2.801.2 1.234V30h-1.559v-5.947c0-.414-.051-.769-.153-1.062-.103-.294-.241-.532-.418-.715-.176-.182-.383-.315-.621-.398-.238-.084-.494-.125-.766-.125-.297 0-.589.054-.877.163-.287.108-.547.271-.779.487-.231.217-.419.489-.561.816-.143.328-.213.714-.213 1.16V30h-1.559v-9.481zm11.838 4.657l4.462-4.657h1.958l-3.609 3.767L187.461 30h-1.902l-2.978-4.676-1.707 1.753V30h-1.559V16.696h1.559v8.48zm14.629 2.199c0 .445-.098.843-.292 1.192-.195.35-.454.645-.775.886-.322.241-.691.424-1.109.547-.417.124-.846.186-1.285.186-.693 0-1.359-.119-2-.357-.64-.238-1.208-.58-1.702-1.025l.854-1.104c.148.13.32.266.515.408.195.143.413.273.654.395.241.12.501.219.779.297.278.077.572.116.881.116.253 0 .497-.033.728-.097.232-.065.435-.161.608-.288.173-.126.311-.278.413-.454.103-.177.153-.376.153-.599 0-.247-.054-.455-.162-.622-.108-.167-.255-.309-.441-.427-.186-.117-.402-.219-.649-.306-.248-.086-.507-.173-.779-.26l-.594-.195c-.334-.111-.656-.238-.965-.38-.31-.142-.583-.317-.821-.524-.238-.207-.427-.453-.566-.737-.139-.284-.208-.625-.208-1.021 0-.321.068-.642.204-.96.136-.319.345-.604.626-.858.281-.253.638-.459 1.071-.617.433-.157.943-.236 1.531-.236.649 0 1.251.108 1.804.325.554.217 1.022.486 1.406.807l-.816 1.123c-.136-.13-.297-.253-.482-.371-.186-.117-.384-.221-.594-.311-.21-.089-.43-.162-.659-.218-.229-.056-.455-.083-.677-.083-.34 0-.628.039-.863.116-.235.078-.424.178-.566.302-.143.124-.246.263-.311.417-.064.155-.097.306-.097.455 0 .217.046.397.139.543.093.145.215.271.366.375.152.105.325.195.52.269.195.074.397.148.608.223l.779.26c.371.124.711.255 1.021.395.309.139.581.298.816.478.297.235.527.507.691.816.164.306.246.68.246 1.119zm8.11-6.856h1.883v1.373h-1.883V30h-1.559v-8.108h-1.577v-1.373h1.577v-1.763c0-.408.065-.754.195-1.039.13-.284.311-.515.543-.691.231-.176.507-.303.825-.38.319-.078.667-.116 1.044-.116.383 0 .702.017.956.051.253.034.442.061.566.079l-.121 1.336c-.093-.006-.2-.015-.32-.028-.121-.012-.245-.021-.371-.028-.127-.006-.25-.012-.367-.019-.118-.006-.213-.009-.288-.009-.223 0-.405.033-.547.097-.143.065-.255.15-.338.255-.084.105-.141.226-.172.362-.031.136-.046.278-.046.427v1.466zm7.503-.186c.655 0 1.252.122 1.791.366.538.245.997.585 1.378 1.021.38.437.675.956.886 1.559.21.604.315 1.267.315 1.99 0 .711-.105 1.368-.315 1.972-.21.603-.506 1.122-.886 1.559-.381.436-.84.776-1.378 1.021-.538.244-1.135.366-1.791.366-.656 0-1.251-.122-1.786-.366-.535-.245-.995-.585-1.378-1.021-.384-.437-.681-.956-.891-1.559-.21-.604-.315-1.26-.315-1.972 0-.724.105-1.387.315-1.99.21-.603.507-1.122.891-1.559.383-.436.843-.776 1.378-1.021.535-.244 1.13-.366 1.786-.366zm0 8.489c.451 0 .849-.094 1.192-.283.344-.189.631-.444.863-.766.231-.321.406-.694.524-1.118.117-.423.176-.867.176-1.331v-.111c0-.476-.059-.928-.176-1.354-.118-.427-.292-.799-.524-1.118-.232-.318-.52-.572-.863-.761-.343-.188-.741-.283-1.192-.283-.452 0-.849.094-1.192.283-.344.189-.631.442-.863.761-.231.319-.407.691-.524 1.118-.118.427-.176.878-.176 1.354v.111c0 .464.059.908.176 1.331.117.424.292.797.524 1.118.232.322.52.577.863.766.343.189.74.283 1.192.283zm11.494-6.912h-.25c-.402 0-.786.046-1.15.139-.365.093-.687.26-.965.501s-.501.571-.668.988c-.167.418-.25.951-.25 1.601V30h-1.559v-9.481h1.559v1.503c.117-.278.275-.522.473-.733.198-.21.422-.385.672-.524.251-.14.52-.243.808-.311.287-.068.58-.102.876-.102h.455v1.558zm11.559 5.465c0 .445-.098.843-.292 1.192-.195.35-.454.645-.775.886-.322.241-.691.424-1.109.547-.417.124-.846.186-1.285.186-.693 0-1.359-.119-2-.357-.64-.238-1.208-.58-1.702-1.025l.854-1.104c.148.13.32.266.515.408.195.143.413.273.654.395.241.12.501.219.779.297.278.077.572.116.881.116.253 0 .497-.033.728-.097.232-.065.435-.161.608-.288.173-.126.311-.278.413-.454.103-.177.153-.376.153-.599 0-.247-.054-.455-.162-.622-.108-.167-.255-.309-.441-.427-.186-.117-.402-.219-.649-.306-.248-.086-.507-.173-.779-.26l-.594-.195c-.334-.111-.656-.238-.965-.38-.31-.142-.583-.317-.821-.524-.238-.207-.427-.453-.566-.737-.139-.284-.208-.625-.208-1.021 0-.321.068-.642.204-.96.136-.319.345-.604.626-.858.281-.253.638-.459 1.071-.617.433-.157.943-.236 1.531-.236.649 0 1.251.108 1.804.325.554.217 1.022.486 1.406.807l-.816 1.123c-.136-.13-.297-.253-.482-.371-.186-.117-.384-.221-.594-.311-.21-.089-.43-.162-.659-.218-.229-.056-.455-.083-.677-.083-.34 0-.628.039-.863.116-.235.078-.424.178-.566.302-.143.124-.246.263-.311.417-.064.155-.097.306-.097.455 0 .217.046.397.139.543.093.145.215.271.366.375.152.105.325.195.52.269.195.074.397.148.608.223l.779.26c.371.124.711.255 1.021.395.309.139.581.298.816.478.297.235.527.507.691.816.164.306.246.68.246 1.119zm3.452-1.633c.031.445.121.857.269 1.234.148.377.351.704.608.979.256.275.56.489.909.641.349.151.737.227 1.164.227.525 0 .988-.088 1.387-.264.399-.177.766-.397 1.1-.664l.798 1.123c-.427.34-.92.62-1.479.84-.56.219-1.187.329-1.879.329-.687 0-1.308-.122-1.865-.366-.557-.245-1.031-.585-1.424-1.021-.393-.437-.694-.956-.904-1.559-.21-.604-.315-1.26-.315-1.972 0-.724.104-1.387.311-1.99.208-.603.5-1.122.877-1.559.377-.436.829-.776 1.354-1.021.525-.244 1.11-.366 1.753-.366.625 0 1.188.122 1.688.366.501.245.928.585 1.28 1.021.353.437.623.956.812 1.559.188.604.283 1.261.283 1.972v.492h-6.727zm2.607-4.045c-.396 0-.749.078-1.058.232-.31.155-.574.362-.793.622-.219.26-.393.558-.52.895-.126.337-.199.686-.218 1.044h5.019c-.013-.365-.076-.716-.19-1.053-.115-.337-.275-.634-.482-.891-.208-.257-.458-.462-.752-.617-.294-.155-.63-.232-1.006-.232zm6.29-1.178h1.559v1.085c.321-.439.719-.761 1.192-.965.473-.204 1-.306 1.582-.306.525 0 .986.087 1.382.26.396.173.727.408.993.705s.465.64.598 1.03c.133.39.2.801.2 1.234V30h-1.559v-5.947c0-.414-.051-.769-.153-1.062-.103-.294-.241-.532-.418-.715-.176-.182-.383-.315-.621-.398-.238-.084-.494-.125-.766-.125-.297 0-.589.054-.877.163-.287.108-.547.271-.779.487-.231.217-.419.489-.561.816-.143.328-.213.714-.213 1.16V30h-1.559v-9.481zm16.523 8.396c-.278.39-.657.699-1.136.928-.479.229-1.025.343-1.638.343s-1.166-.122-1.661-.366c-.495-.245-.918-.585-1.271-1.021-.353-.437-.623-.954-.812-1.554-.189-.6-.283-1.258-.283-1.976 0-.717.094-1.378.283-1.98.188-.604.459-1.124.812-1.563.353-.439.776-.781 1.271-1.025.495-.244 1.048-.366 1.661-.366s1.158.115 1.638.343c.479.229.858.538 1.136.928v-4.908h1.559V30h-1.559v-1.085zm-5.187-3.609c0 .495.059.956.176 1.382.117.427.291.796.52 1.109.229.312.51.558.844.737.334.18.72.269 1.16.269.414 0 .778-.071 1.09-.213.312-.142.573-.337.784-.584.21-.247.368-.54.473-.876.105-.337.158-.704.158-1.1v-1.54c0-.396-.053-.762-.158-1.1-.105-.337-.263-.629-.473-.876-.21-.247-.472-.442-.784-.584-.312-.142-.676-.213-1.09-.213-.439 0-.826.09-1.16.269-.334.18-.616.425-.844.737-.229.312-.402.682-.52 1.109-.118.427-.176.888-.176 1.382v.092zm9.315-7.524c0-.148.029-.288.088-.417.059-.13.136-.244.231-.343.096-.099.21-.178.344-.237.133-.059.273-.088.422-.088s.288.029.417.088c.13.059.243.138.338.237.096.099.173.213.232.343.059.13.088.269.088.417s-.029.289-.088.422-.136.247-.232.343c-.096.096-.208.173-.338.232-.13.059-.269.088-.417.088s-.289-.029-.422-.088-.248-.136-.344-.232c-.096-.096-.173-.21-.231-.343-.059-.133-.088-.274-.088-.422zM269.015 30h-1.559v-9.481h1.559V30zm2.848-9.481h1.559v1.085c.321-.439.719-.761 1.192-.965.473-.204 1-.306 1.582-.306.525 0 .986.087 1.382.26.396.173.727.408.993.705s.465.64.598 1.03c.133.39.2.801.2 1.234V30h-1.559v-5.947c0-.414-.051-.769-.153-1.062-.103-.294-.241-.532-.418-.715-.176-.182-.383-.315-.621-.398-.238-.084-.494-.125-.766-.125-.297 0-.589.054-.877.163-.287.108-.547.271-.779.487-.231.217-.419.489-.561.816-.143.328-.213.714-.213 1.16V30h-1.559v-9.481zm9.741 4.221c0-.625.089-1.206.269-1.744.179-.538.436-1.003.77-1.396s.737-.702 1.211-.928c.473-.226 1.003-.339 1.591-.339.52 0 1.014.101 1.484.302.47.201.869.524 1.197.969v-1.085h1.559V30c0 .587-.119 1.081-.357 1.479-.238.399-.549.719-.933.96s-.818.414-1.304.52c-.485.105-.979.158-1.479.158-.278 0-.567-.016-.867-.046-.3-.031-.602-.078-.905-.139-.303-.062-.602-.141-.895-.236-.294-.096-.574-.209-.84-.339l.566-1.308c.186.086.38.171.584.255.204.083.425.159.663.227.238.068.493.124.766.167.272.043.569.065.891.065.396 0 .753-.041 1.071-.121.319-.081.586-.206.803-.375.216-.17.383-.387.501-.649.117-.263.176-.577.176-.942v-1.8c-.328.445-.727.769-1.197.969-.47.201-.965.302-1.484.302-.588 0-1.118-.113-1.591-.339-.474-.226-.877-.536-1.211-.932-.334-.396-.591-.861-.77-1.396-.179-.536-.269-1.115-.269-1.74zm6.56-.037c0-.427-.046-.821-.139-1.183-.093-.361-.238-.677-.436-.946-.198-.269-.45-.479-.756-.631-.306-.151-.672-.227-1.099-.227-.433 0-.807.078-1.123.232-.315.155-.577.366-.784.636-.207.269-.36.586-.459.951-.099.365-.148.755-.148 1.169v.074c0 .415.049.802.148 1.165.099.361.252.677.459.946.208.269.469.481.784.635.315.155.689.232 1.123.232.427 0 .793-.076 1.099-.228.307-.151.558-.36.756-.626.198-.266.343-.581.436-.946.093-.365.139-.757.139-1.178v-.075zm6.688-4.184h1.763l2.338 7.83 2.227-7.83h1.744l-3.451 10.91c-.105.334-.241.607-.408.821-.167.213-.357.383-.571.51-.213.127-.45.215-.709.265-.26.049-.535.074-.826.074-.26 0-.529-.014-.807-.042-.278-.027-.572-.066-.881-.116l.232-1.364c.124.024.256.046.399.065.117.019.25.034.399.046.148.012.3.019.455.019.34 0 .604-.074.793-.223.189-.148.323-.39.404-.724l.093-.436-3.194-9.805zm13.579-.186c.655 0 1.252.122 1.791.366.538.245.997.585 1.378 1.021.38.437.675.956.886 1.559.21.604.315 1.267.315 1.99 0 .711-.105 1.368-.315 1.972-.21.603-.506 1.122-.886 1.559-.381.436-.84.776-1.378 1.021-.538.244-1.135.366-1.791.366-.656 0-1.251-.122-1.786-.366-.535-.245-.995-.585-1.378-1.021-.384-.437-.681-.956-.891-1.559-.21-.604-.315-1.26-.315-1.972 0-.724.105-1.387.315-1.99.21-.603.507-1.122.891-1.559.383-.436.843-.776 1.378-1.021.535-.244 1.13-.366 1.786-.366zm0 8.489c.451 0 .849-.094 1.192-.283.344-.189.631-.444.863-.766.231-.321.406-.694.524-1.118.117-.423.176-.867.176-1.331v-.111c0-.476-.059-.928-.176-1.354-.118-.427-.292-.799-.524-1.118-.232-.318-.52-.572-.863-.761-.343-.188-.741-.283-1.192-.283-.452 0-.849.094-1.192.283-.344.189-.631.442-.863.761-.231.319-.407.691-.524 1.118-.118.427-.176.878-.176 1.354v.111c0 .464.059.908.176 1.331.117.424.292.797.524 1.118.232.322.52.577.863.766.343.189.74.283 1.192.283zM322.504 30h-1.559v-1.085c-.322.439-.719.761-1.192.965-.473.204-1 .306-1.582.306-.526 0-.987-.087-1.382-.26-.396-.173-.727-.408-.993-.705s-.465-.64-.598-1.03c-.133-.39-.2-.801-.2-1.234v-6.438h1.559v5.947c0 .421.051.776.153 1.067.103.291.241.527.418.71.176.182.383.315.621.398.238.084.493.125.766.125.321 0 .629-.054.923-.163.294-.108.552-.27.775-.487.223-.216.4-.488.534-.816.133-.328.199-.714.199-1.16v-5.622h1.559V30zm7.701-8.09h-.25c-.402 0-.786.046-1.15.139-.365.093-.687.26-.965.501s-.501.571-.668.988c-.167.418-.25.951-.25 1.601V30h-1.559v-9.481h1.559v1.503c.117-.278.275-.522.473-.733.198-.21.422-.385.672-.524.251-.14.52-.243.808-.311.287-.068.58-.102.876-.102h.455v1.558z" fill="#0B0C0C"/><path fill="#2E8ACA" d="M336.941 12s-3 0-3 3v19s0 3 3 3h110.163s3 0 3-3V15s0-3-3-3H336.941z"/><path d="M338.548 24.981c0 .835.097 1.625.292 2.371.194.745.474 1.446.839 2.101s.81 1.266 1.336 1.833c.525.565 1.119 1.081 1.781 1.544L342 33.915l-.473-.343c-.848-.606-1.569-1.245-2.166-1.916-.597-.671-1.086-1.369-1.466-2.092-.381-.724-.659-1.474-.835-2.25-.177-.776-.265-1.573-.265-2.389s.088-1.613.265-2.389c.176-.776.454-1.526.835-2.25.38-.724.869-1.421 1.466-2.092s1.318-1.309 2.166-1.916l.473-.342.798 1.085c-.662.464-1.256.979-1.781 1.544-.526.566-.971 1.177-1.336 1.833-.365.656-.645 1.358-.839 2.106-.195.749-.292 1.537-.292 2.366v.111zm6.768 0c0 .835.097 1.625.292 2.371.194.745.474 1.446.839 2.101s.81 1.266 1.336 1.833c.525.565 1.119 1.081 1.781 1.544l-.798 1.085-.473-.343c-.848-.606-1.569-1.245-2.166-1.916-.597-.671-1.086-1.369-1.466-2.092-.381-.724-.659-1.474-.835-2.25-.177-.776-.265-1.573-.265-2.389s.088-1.613.265-2.389c.176-.776.454-1.526.835-2.25.38-.724.869-1.421 1.466-2.092s1.318-1.309 2.166-1.916l.473-.343.798 1.085c-.662.464-1.256.979-1.781 1.544-.526.566-.971 1.177-1.336 1.833-.365.656-.645 1.358-.839 2.106-.195.749-.292 1.537-.292 2.366v.112z" fill="#ABD0EA"/><path d="M357.065 28.915c-.278.39-.657.699-1.136.928-.479.229-1.025.343-1.638.343s-1.166-.122-1.661-.366c-.495-.245-.918-.585-1.271-1.021-.353-.437-.623-.954-.812-1.554-.189-.6-.283-1.258-.283-1.976 0-.717.094-1.378.283-1.98.188-.604.459-1.124.812-1.563.353-.439.776-.781 1.271-1.025.495-.244 1.048-.366 1.661-.366s1.158.115 1.638.343c.479.229.858.538 1.136.928v-4.908h1.559V30h-1.559v-1.085zm-5.186-3.609c0 .495.059.956.176 1.382.117.427.291.796.52 1.109.229.312.51.558.844.737.334.18.72.269 1.16.269.414 0 .778-.071 1.09-.213.312-.142.573-.337.784-.584.21-.247.368-.54.473-.876.105-.337.158-.704.158-1.1v-1.54c0-.396-.053-.762-.158-1.1-.105-.337-.263-.629-.473-.876-.21-.247-.472-.442-.784-.584-.312-.142-.676-.213-1.09-.213-.439 0-.826.09-1.16.269-.334.18-.616.425-.844.737-.229.312-.402.682-.52 1.109-.118.427-.176.888-.176 1.382v.092zm13.397-4.973c.655 0 1.252.122 1.791.366.538.245.997.585 1.378 1.021.38.437.675.956.886 1.559.21.604.315 1.267.315 1.99 0 .711-.105 1.368-.315 1.972-.21.603-.506 1.122-.886 1.559-.381.436-.84.776-1.378 1.021-.538.244-1.135.366-1.791.366-.656 0-1.251-.122-1.786-.366-.535-.245-.995-.585-1.378-1.021-.384-.437-.681-.956-.891-1.559-.21-.604-.315-1.26-.315-1.972 0-.724.105-1.387.315-1.99.21-.603.507-1.122.891-1.559.383-.436.843-.776 1.378-1.021.535-.244 1.13-.366 1.786-.366zm0 8.489c.451 0 .849-.094 1.192-.283.344-.189.631-.444.863-.766.231-.321.406-.694.524-1.118.117-.423.176-.867.176-1.331v-.111c0-.476-.059-.928-.176-1.354-.118-.427-.292-.799-.524-1.118-.232-.318-.52-.572-.863-.761-.343-.188-.741-.283-1.192-.283-.452 0-.849.094-1.192.283-.344.189-.631.442-.863.761-.231.319-.407.691-.524 1.118-.118.427-.176.878-.176 1.354v.111c0 .464.059.908.176 1.331.117.424.292.797.524 1.118.232.322.52.577.863.766.343.189.74.283 1.192.283zm7.691-3.516c0 .477.059.928.176 1.354.117.427.291.799.52 1.118.229.318.515.572.858.761.344.188.744.283 1.202.283.297 0 .571-.042.821-.125.251-.083.477-.196.678-.338.201-.142.38-.311.538-.505.157-.195.295-.404.413-.626l1.299.742c-.161.334-.367.639-.617.914-.251.275-.537.509-.858.701-.322.192-.674.34-1.058.445-.384.105-.789.158-1.215.158-.656 0-1.251-.122-1.786-.366-.535-.245-.995-.585-1.378-1.021-.384-.437-.681-.954-.891-1.554-.21-.6-.315-1.258-.315-1.976 0-.724.105-1.387.315-1.99.21-.603.507-1.122.891-1.559.383-.436.843-.776 1.378-1.021.535-.244 1.13-.366 1.786-.366.427 0 .832.053 1.215.158.383.105.736.254 1.058.445.321.192.607.425.858.701.25.275.456.58.617.914l-1.299.742c-.118-.223-.255-.431-.413-.626-.158-.194-.337-.363-.538-.505-.201-.142-.427-.255-.678-.338-.25-.084-.524-.125-.821-.125-.458 0-.858.094-1.202.283-.343.189-.629.442-.858.761-.229.319-.402.691-.52 1.118-.118.427-.176.878-.176 1.354v.089zM389.063 30h-1.559v-1.085c-.322.439-.719.761-1.192.965-.473.204-1 .306-1.582.306-.526 0-.987-.087-1.382-.26-.396-.173-.727-.408-.993-.705s-.465-.64-.598-1.03c-.133-.39-.2-.801-.2-1.234v-6.438h1.559v5.947c0 .421.051.776.153 1.067.103.291.241.527.418.71.176.182.383.315.621.398.238.084.493.125.766.125.321 0 .629-.054.923-.163.294-.108.552-.27.775-.487.223-.216.4-.488.534-.816.133-.328.199-.714.199-1.16v-5.622h1.559V30zm9.964 0h-1.559v-5.965c0-.42-.051-.776-.153-1.067-.102-.291-.238-.525-.408-.705-.17-.179-.371-.309-.603-.39-.232-.08-.478-.121-.738-.121s-.515.051-.765.153c-.251.103-.474.262-.668.478-.195.217-.353.49-.474.821-.12.331-.181.729-.181 1.192V30h-1.559v-9.481h1.559v1.085c.315-.439.682-.761 1.1-.965.417-.204.879-.306 1.387-.306.21 0 .439.029.687.088.247.059.49.15.729.274.238.124.458.286.658.487.201.201.363.444.487.729.173-.291.373-.537.599-.737.226-.201.464-.363.714-.487.251-.124.511-.213.779-.269.27-.056.537-.083.803-.083.513 0 .968.087 1.364.26.396.173.729.405 1.002.696.272.291.478.628.617 1.011.14.384.209.786.209 1.206V30h-1.559v-5.965c0-.42-.053-.776-.158-1.067-.105-.291-.248-.525-.427-.705-.18-.179-.387-.309-.622-.39-.235-.08-.479-.121-.733-.121-.26 0-.515.051-.765.153-.251.103-.474.262-.668.478-.195.217-.353.49-.474.821-.12.331-.181.729-.181 1.192V30zm9.416-4.258c.031.445.121.857.269 1.234.148.377.351.704.608.979.256.275.56.489.909.641.349.151.737.227 1.164.227.525 0 .988-.088 1.387-.264.399-.177.766-.397 1.1-.664l.798 1.123c-.427.34-.92.62-1.479.84-.56.219-1.187.329-1.879.329-.687 0-1.308-.122-1.865-.366-.557-.245-1.031-.585-1.424-1.021-.393-.437-.694-.956-.904-1.559-.21-.604-.315-1.26-.315-1.972 0-.724.104-1.387.311-1.99.208-.603.5-1.122.877-1.559.377-.436.829-.776 1.354-1.021.525-.244 1.11-.366 1.753-.366.625 0 1.188.122 1.688.366.501.245.928.585 1.28 1.021.353.437.623.956.812 1.559.188.604.283 1.261.283 1.972v.492h-6.727zm2.607-4.045c-.396 0-.749.078-1.058.232-.31.155-.574.362-.793.622-.219.26-.393.558-.52.895-.126.337-.199.686-.218 1.044h5.019c-.013-.365-.076-.716-.19-1.053-.115-.337-.275-.634-.482-.891-.208-.257-.458-.462-.752-.617-.293-.155-.629-.232-1.006-.232zm6.29-1.178h1.559v1.085c.321-.439.719-.761 1.193-.965.473-.204 1-.306 1.582-.306.525 0 .986.087 1.381.26.396.173.727.408.994.705.266.297.465.64.598 1.03s.199.801.199 1.234V30h-1.559v-5.947c0-.414-.051-.769-.152-1.062-.104-.294-.242-.532-.418-.715-.176-.182-.385-.315-.621-.398-.238-.084-.494-.125-.766-.125-.297 0-.59.054-.877.163-.287.108-.547.271-.78.487-.231.217-.419.489-.561.816-.143.328-.213.714-.213 1.16V30h-1.559v-9.481zm12.729 7.125c0 .161.011.311.032.45s.074.261.158.366c.083.105.205.189.366.25.161.062.38.093.659.093.074 0 .162-.003.264-.009.103-.006.209-.014.32-.023.111-.009.22-.021.324-.037.105-.015.195-.029.27-.042l.167 1.364c-.18.024-.365.046-.557.065-.161.019-.34.034-.538.046-.198.012-.396.019-.594.019-.377 0-.716-.039-1.016-.116-.301-.077-.556-.202-.766-.375-.21-.173-.371-.4-.482-.682-.111-.281-.167-.623-.167-1.025v-6.095h-1.79V20.52h1.79v-3.1l1.559-.547v3.646h2.635v1.373h-2.635v5.752z" fill="#FFF"/><path d="M437.952 24.87c0-.829-.098-1.617-.292-2.366-.195-.748-.475-1.45-.84-2.106-.365-.655-.811-1.266-1.336-1.833-.525-.565-1.122-1.081-1.79-1.544l.797-1.085.474.343c.848.606 1.569 1.245 2.166 1.916.597.671 1.086 1.369 1.466 2.092.381.724.659 1.474.835 2.25.177.776.265 1.573.265 2.389s-.088 1.613-.265 2.389c-.176.776-.454 1.526-.835 2.25-.38.724-.869 1.421-1.466 2.092s-1.318 1.309-2.166 1.916l-.474.343-.797-1.085c.668-.464 1.265-.979 1.79-1.544.525-.566.971-1.177 1.336-1.833s.645-1.356.84-2.101c.194-.746.292-1.536.292-2.371v-.112zm6.768 0c0-.829-.098-1.617-.292-2.366-.195-.748-.475-1.45-.84-2.106-.365-.655-.811-1.266-1.336-1.833-.525-.565-1.122-1.081-1.79-1.544l.797-1.085.474.343c.848.606 1.569 1.245 2.166 1.916.597.671 1.086 1.369 1.466 2.092.381.724.659 1.474.835 2.25.177.776.265 1.573.265 2.389s-.088 1.613-.265 2.389c-.176.776-.454 1.526-.835 2.25-.38.724-.869 1.421-1.466 2.092s-1.318 1.309-2.166 1.916l-.474.343-.797-1.085c.668-.464 1.265-.979 1.79-1.544.525-.566.971-1.177 1.336-1.833s.645-1.356.84-2.101c.194-.746.292-1.536.292-2.371v-.112z" fill="#ABD0EA"/><path fill="#0B0C0C" d="M451.522 29.109c0-.148.029-.289.088-.422s.136-.248.232-.344c.096-.096.208-.173.339-.231.129-.059.269-.088.417-.088s.289.029.422.088.247.136.344.231c.096.096.173.21.231.344.059.133.088.273.088.422s-.029.288-.088.417-.136.243-.231.338c-.097.096-.211.173-.344.232-.133.059-.273.088-.422.088s-.288-.029-.417-.088c-.131-.059-.243-.136-.339-.232-.097-.096-.174-.208-.232-.338s-.088-.268-.088-.417zM24.247 52.647h.093L26.603 41.7h1.67l-2.959 13.304h-1.939l-2.83-10.864-2.82 10.864h-1.948L12.826 41.7h1.651l2.301 10.947h.111L19.784 41.7h1.577l2.886 10.947zm6.626-1.901c.031.445.121.857.269 1.234.148.377.351.704.608.979.256.275.56.489.909.641.349.151.737.227 1.164.227.525 0 .988-.088 1.387-.264.399-.177.766-.397 1.1-.664l.798 1.123c-.427.34-.92.62-1.479.84-.56.219-1.187.329-1.879.329-.687 0-1.308-.122-1.865-.366-.557-.245-1.031-.585-1.424-1.021-.393-.437-.694-.956-.904-1.559-.21-.604-.315-1.26-.315-1.972 0-.724.104-1.387.311-1.99.208-.603.5-1.122.877-1.559.377-.436.829-.776 1.354-1.021.525-.244 1.11-.366 1.753-.366.625 0 1.188.122 1.688.366.501.245.928.585 1.28 1.021.353.437.623.956.812 1.559.188.604.283 1.261.283 1.972v.492h-6.727zm2.606-4.045c-.396 0-.749.078-1.058.232-.31.155-.574.362-.793.622-.219.26-.393.558-.52.895-.126.337-.199.686-.218 1.044h5.019c-.013-.365-.076-.716-.19-1.053-.115-.337-.275-.634-.482-.891-.208-.257-.458-.462-.752-.617-.293-.155-.629-.232-1.006-.232zm6.949-5.168c.173 0 .339.034.496.102.158.068.294.163.408.283.115.121.206.268.274.441.068.173.102.362.102.566 0 .223-.041.452-.121.687-.081.235-.204.458-.371.668-.167.21-.377.402-.631.575-.254.173-.554.306-.9.399l-.204.065-.195-.631.121-.037c.284-.099.535-.238.751-.417.216-.179.365-.377.445-.594h-.195c-.148 0-.286-.026-.413-.079-.126-.053-.238-.125-.334-.218-.096-.093-.171-.203-.227-.33-.056-.126-.083-.264-.083-.413s.028-.288.083-.417.131-.243.227-.339c.096-.096.21-.171.344-.227.134-.056.274-.084.423-.084zm6.123 13.471l-3.006-9.481h1.772l2.273 8.034 2.264-8.034h1.772l-3.006 9.481h-2.069zm7.845-4.258c.031.445.121.857.269 1.234.148.377.351.704.608.979.256.275.56.489.909.641.349.151.737.227 1.164.227.525 0 .988-.088 1.387-.264.399-.177.766-.397 1.1-.664l.798 1.123c-.427.34-.92.62-1.479.84-.56.219-1.187.329-1.879.329-.687 0-1.308-.122-1.865-.366-.557-.245-1.031-.585-1.424-1.021-.393-.437-.694-.956-.904-1.559-.21-.604-.315-1.26-.315-1.972 0-.724.104-1.387.311-1.99.208-.603.5-1.122.877-1.559.377-.436.829-.776 1.354-1.021.525-.244 1.11-.366 1.753-.366.625 0 1.188.122 1.688.366.501.245.928.585 1.28 1.021.353.437.623.956.812 1.559.188.604.283 1.261.283 1.972v.492h-6.727zm2.606-4.045c-.396 0-.749.078-1.058.232-.31.155-.574.362-.793.622-.219.26-.393.558-.52.895-.126.337-.199.686-.218 1.044h5.019c-.013-.365-.076-.716-.19-1.053-.115-.337-.275-.634-.482-.891-.208-.257-.458-.462-.752-.617-.293-.155-.629-.232-1.006-.232zm16.44 5.677c0 .445-.098.843-.292 1.192-.195.35-.454.645-.775.886-.322.241-.691.424-1.109.547-.417.124-.846.186-1.285.186-.693 0-1.359-.119-2-.357-.64-.238-1.208-.58-1.702-1.025l.854-1.104c.148.13.32.266.515.408.195.143.413.273.654.395.241.12.501.219.779.297.278.077.572.116.881.116.253 0 .497-.033.728-.097.232-.065.435-.161.608-.288.173-.126.311-.278.413-.454.103-.177.153-.376.153-.599 0-.247-.054-.455-.162-.622-.108-.167-.255-.309-.441-.427-.186-.117-.402-.219-.649-.306-.248-.086-.507-.173-.779-.26l-.594-.195c-.334-.111-.656-.238-.965-.38-.31-.142-.583-.317-.821-.524-.238-.207-.427-.453-.566-.737-.139-.284-.208-.625-.208-1.021 0-.321.068-.642.204-.96.136-.319.345-.604.626-.858.281-.253.638-.459 1.071-.617.433-.157.943-.236 1.531-.236.649 0 1.251.108 1.804.325.554.217 1.022.486 1.406.807l-.816 1.123c-.136-.13-.297-.253-.482-.371-.186-.117-.384-.221-.594-.311-.21-.089-.43-.162-.659-.218-.229-.056-.455-.083-.677-.083-.34 0-.628.039-.863.116-.235.078-.424.178-.566.302-.143.124-.246.263-.311.417-.064.155-.097.306-.097.455 0 .217.046.397.139.543.093.145.215.271.366.375.152.105.325.195.52.269.195.074.397.148.608.223l.779.26c.371.124.711.255 1.021.395.309.139.581.298.816.478.297.235.527.507.691.816.164.306.246.68.246 1.119zm4.843.269c0 .161.011.311.032.45.022.139.074.261.158.366.083.105.205.189.366.25.161.062.38.093.659.093.074 0 .163-.003.264-.009.103-.006.209-.014.32-.023.111-.009.219-.021.325-.037.105-.015.195-.029.269-.042l.167 1.364c-.18.024-.365.046-.557.065-.161.019-.34.034-.538.046-.198.012-.396.019-.594.019-.377 0-.716-.039-1.016-.116-.3-.077-.556-.202-.766-.375-.21-.173-.371-.4-.482-.682-.111-.281-.167-.623-.167-1.025v-6.095h-1.791v-1.373h1.791v-3.099l1.559-.547v3.646h2.635v1.373h-2.635v5.751zm9.954 1.411c-.278.322-.654.591-1.127.807-.473.216-1.028.325-1.665.325-.47 0-.906-.066-1.308-.199s-.751-.323-1.048-.571c-.297-.247-.529-.547-.696-.9s-.25-.751-.25-1.197c0-.371.061-.709.181-1.016.121-.306.291-.573.511-.802.219-.229.483-.416.793-.561.309-.146.655-.246 1.039-.302l3.349-.455v-.603c0-.358-.056-.66-.167-.904-.111-.245-.261-.438-.45-.58-.189-.142-.412-.244-.668-.306-.257-.062-.534-.093-.831-.093-.532 0-1.028.074-1.489.223-.461.148-.877.322-1.248.52l-.584-1.234c.544-.309 1.115-.532 1.711-.668.597-.136 1.186-.204 1.768-.204 1.156 0 2.032.261 2.625.784.594.522.891 1.285.891 2.287v4.37c0 .315.062.58.186.793.124.214.321.382.594.506l-.881 1.113c-.297-.074-.552-.206-.766-.395-.213-.188-.363-.416-.45-.682l-.02-.056zm-2.774-3.275c-.26.037-.496.09-.71.158-.213.068-.394.159-.542.273-.148.115-.264.255-.348.422-.083.167-.125.371-.125.612 0 .278.052.526.158.742.105.217.247.399.427.547.179.148.388.261.626.339.238.077.487.116.747.116.291 0 .575-.04.854-.121.278-.08.525-.196.742-.348.216-.152.391-.335.524-.552.133-.216.2-.464.2-.742v-1.828l-2.553.382zm11.783-3.869h-.25c-.402 0-.786.046-1.15.139-.365.093-.687.26-.965.501s-.501.571-.668.988c-.167.418-.25.951-.25 1.601v4.861h-1.559v-9.481h1.559v1.503c.117-.278.275-.522.473-.733.198-.21.422-.385.672-.524.251-.14.52-.243.808-.311.287-.068.58-.102.876-.102h.455v1.558zm4.276 5.733c0 .161.011.311.032.45.022.139.074.261.158.366.083.105.205.189.366.25.161.062.38.093.659.093.074 0 .163-.003.264-.009.103-.006.209-.014.32-.023.111-.009.219-.021.325-.037.105-.015.195-.029.269-.042l.167 1.364c-.18.024-.365.046-.557.065-.161.019-.34.034-.538.046-.198.012-.396.019-.594.019-.377 0-.716-.039-1.016-.116-.3-.077-.556-.202-.766-.375-.21-.173-.371-.4-.482-.682-.111-.281-.167-.623-.167-1.025v-6.095h-1.791v-1.373h1.791v-3.099l1.559-.547v3.646h2.635v1.373h-2.635v5.751zm5.622-1.901c.031.445.121.857.269 1.234.148.377.351.704.608.979.256.275.56.489.909.641.349.151.737.227 1.164.227.525 0 .988-.088 1.387-.264.399-.177.766-.397 1.1-.664l.798 1.123c-.427.34-.92.62-1.479.84-.56.219-1.187.329-1.879.329-.687 0-1.308-.122-1.865-.366-.557-.245-1.031-.585-1.424-1.021-.393-.437-.694-.956-.904-1.559-.21-.604-.315-1.26-.315-1.972 0-.724.104-1.387.311-1.99.208-.603.5-1.122.877-1.559.377-.436.829-.776 1.354-1.021.525-.244 1.11-.366 1.753-.366.625 0 1.188.122 1.688.366.501.245.928.585 1.28 1.021.353.437.623.956.812 1.559.188.604.283 1.261.283 1.972v.492h-6.727zm2.607-4.045c-.396 0-.749.078-1.058.232-.31.155-.574.362-.793.622-.219.26-.393.558-.52.895-.126.337-.199.686-.218 1.044h5.019c-.013-.365-.076-.716-.19-1.053-.115-.337-.275-.634-.482-.891-.208-.257-.458-.462-.752-.617-.293-.155-.629-.232-1.006-.232zm12.534 7.217c-.278.39-.657.699-1.136.928-.479.229-1.025.343-1.638.343s-1.166-.122-1.661-.366c-.495-.245-.918-.585-1.271-1.021-.353-.437-.623-.954-.812-1.554-.189-.6-.283-1.258-.283-1.976 0-.717.094-1.378.283-1.98.188-.604.459-1.124.812-1.563.353-.439.776-.781 1.271-1.025.495-.244 1.048-.366 1.661-.366s1.158.115 1.638.343c.479.229.858.538 1.136.928V41.7h1.559v13.304h-1.559v-1.086zm-5.186-3.608c0 .495.059.956.176 1.382.117.427.291.796.52 1.109.229.312.51.558.844.737.334.18.72.269 1.16.269.414 0 .778-.071 1.09-.213.312-.142.573-.337.784-.584.21-.247.368-.54.473-.876.105-.337.158-.704.158-1.1v-1.54c0-.396-.053-.762-.158-1.1-.105-.337-.263-.629-.473-.876-.21-.247-.472-.442-.784-.584-.312-.142-.676-.213-1.09-.213-.439 0-.826.09-1.16.269-.334.18-.616.425-.844.737-.229.312-.402.682-.52 1.109-.118.427-.176.888-.176 1.382v.092zm14.964-4.788v1.085c.278-.39.655-.699 1.132-.928.476-.229 1.023-.343 1.642-.343.612 0 1.166.122 1.661.366.495.245.918.586 1.271 1.025.353.439.623.96.812 1.563.188.603.283 1.263.283 1.98 0 .718-.094 1.376-.283 1.976-.189.6-.459 1.118-.812 1.554-.353.436-.776.776-1.271 1.021-.495.244-1.048.366-1.661.366-.619 0-1.166-.115-1.642-.343-.477-.229-.854-.538-1.132-.928v3.971h-1.559V45.522h1.559zm5.186 4.695c0-.495-.059-.956-.176-1.382-.118-.427-.291-.796-.52-1.109-.229-.312-.512-.558-.849-.737-.337-.179-.723-.269-1.155-.269-.415 0-.778.071-1.09.213-.312.143-.574.337-.784.584-.21.248-.37.54-.478.876-.108.337-.163.704-.163 1.1v1.54c0 .396.054.762.163 1.1.108.337.267.629.478.876.21.248.472.442.784.584.312.143.675.213 1.09.213.433 0 .818-.089 1.155-.269.337-.179.62-.425.849-.737.229-.312.402-.682.52-1.109.117-.427.176-.887.176-1.382v-.092zm8.758-3.303h-.25c-.402 0-.786.046-1.15.139-.365.093-.687.26-.965.501s-.501.571-.668.988c-.167.418-.25.951-.25 1.601v4.861h-1.559v-9.481h1.559v1.503c.117-.278.275-.522.473-.733.198-.21.422-.385.672-.524.251-.14.52-.243.808-.311.287-.068.58-.102.876-.102h.455v1.558zm5.413-1.577c.655 0 1.252.122 1.791.366.538.245.997.585 1.378 1.021.38.437.675.956.886 1.559.21.604.315 1.267.315 1.99 0 .711-.105 1.368-.315 1.972-.21.603-.506 1.122-.886 1.559-.381.436-.84.776-1.378 1.021-.538.244-1.135.366-1.791.366-.656 0-1.251-.122-1.786-.366-.535-.245-.995-.585-1.378-1.021-.384-.437-.681-.956-.891-1.559-.21-.604-.315-1.26-.315-1.972 0-.724.105-1.387.315-1.99.21-.603.507-1.122.891-1.559.383-.436.843-.776 1.378-1.021.535-.244 1.131-.366 1.786-.366zm0 8.489c.451 0 .849-.094 1.192-.283.344-.189.631-.444.863-.766.231-.321.406-.694.524-1.118.117-.423.176-.867.176-1.331v-.111c0-.476-.059-.928-.176-1.354-.118-.427-.292-.799-.524-1.118-.232-.318-.52-.572-.863-.761-.343-.188-.741-.283-1.192-.283-.452 0-.849.094-1.192.283-.344.189-.631.442-.863.761-.231.319-.407.691-.524 1.118-.118.427-.176.878-.176 1.354v.111c0 .464.059.908.176 1.331.117.424.292.797.524 1.118.232.322.52.577.863.766.343.188.741.283 1.192.283zm7.691-3.516c0 .477.059.928.176 1.354.117.427.291.799.52 1.118.229.318.515.572.858.761.344.188.744.283 1.202.283.297 0 .571-.042.821-.125.251-.083.477-.196.678-.338.201-.142.38-.311.538-.505.157-.195.295-.404.413-.626l1.299.742c-.161.334-.367.639-.617.914-.251.275-.537.509-.858.701-.322.192-.674.34-1.058.445-.384.105-.789.158-1.215.158-.656 0-1.251-.122-1.786-.366-.535-.245-.995-.585-1.378-1.021-.384-.437-.681-.954-.891-1.554-.21-.6-.315-1.258-.315-1.976 0-.724.105-1.387.315-1.99.21-.603.507-1.122.891-1.559.383-.436.843-.776 1.378-1.021.535-.244 1.13-.366 1.786-.366.427 0 .832.053 1.215.158.383.105.736.254 1.058.445.321.192.607.425.858.701.25.275.456.58.617.914l-1.299.742c-.118-.223-.255-.431-.413-.626-.158-.194-.337-.363-.538-.505-.201-.142-.427-.255-.678-.338-.25-.084-.524-.125-.821-.125-.458 0-.858.094-1.202.283-.343.189-.629.442-.858.761-.229.319-.402.691-.52 1.118-.118.427-.176.878-.176 1.354v.089zm9.637.436c.031.445.121.857.269 1.234.148.377.351.704.608.979.256.275.56.489.909.641.349.151.737.227 1.164.227.525 0 .988-.088 1.387-.264.399-.177.766-.397 1.1-.664l.798 1.123c-.427.34-.92.62-1.479.84-.56.219-1.187.329-1.879.329-.687 0-1.308-.122-1.865-.366-.557-.245-1.031-.585-1.424-1.021-.393-.437-.694-.956-.904-1.559-.21-.604-.315-1.26-.315-1.972 0-.724.104-1.387.311-1.99.208-.603.5-1.122.877-1.559.377-.436.829-.776 1.354-1.021.525-.244 1.11-.366 1.753-.366.625 0 1.188.122 1.688.366.501.245.928.585 1.28 1.021.353.437.623.956.812 1.559.188.604.283 1.261.283 1.972v.492h-6.727zm2.607-4.045c-.396 0-.749.078-1.058.232-.31.155-.574.362-.793.622-.219.26-.393.558-.52.895-.126.337-.199.686-.218 1.044h5.019c-.013-.365-.076-.716-.19-1.053-.115-.337-.275-.634-.482-.891-.208-.257-.458-.462-.752-.617-.293-.155-.629-.232-1.006-.232zm12.636 5.677c0 .445-.098.843-.292 1.192-.195.35-.454.645-.775.886-.322.241-.691.424-1.109.547-.417.124-.846.186-1.285.186-.693 0-1.359-.119-2-.357-.64-.238-1.208-.58-1.702-1.025l.854-1.104c.148.13.32.266.515.408.195.143.413.273.654.395.241.12.501.219.779.297.278.077.572.116.881.116.253 0 .497-.033.728-.097.232-.065.435-.161.608-.288.173-.126.311-.278.413-.454.103-.177.153-.376.153-.599 0-.247-.054-.455-.162-.622-.108-.167-.255-.309-.441-.427-.186-.117-.402-.219-.649-.306-.248-.086-.507-.173-.779-.26l-.594-.195c-.334-.111-.656-.238-.965-.38-.31-.142-.583-.317-.821-.524-.238-.207-.427-.453-.566-.737-.139-.284-.208-.625-.208-1.021 0-.321.068-.642.204-.96.136-.319.345-.604.626-.858.281-.253.638-.459 1.071-.617.433-.157.943-.236 1.531-.236.649 0 1.251.108 1.804.325.554.217 1.022.486 1.406.807l-.816 1.123c-.136-.13-.297-.253-.482-.371-.186-.117-.384-.221-.594-.311-.21-.089-.43-.162-.659-.218-.229-.056-.455-.083-.677-.083-.34 0-.628.039-.863.116-.235.078-.424.178-.566.302-.143.124-.246.263-.311.417-.064.155-.097.306-.097.455 0 .217.046.397.139.543.093.145.215.271.366.375.152.105.325.195.52.269.195.074.397.148.608.223l.779.26c.371.124.711.255 1.021.395.309.139.581.298.816.478.297.235.527.507.691.816.164.306.246.68.246 1.119zm8.739 0c0 .445-.098.843-.292 1.192-.195.35-.454.645-.775.886-.322.241-.691.424-1.109.547-.417.124-.846.186-1.285.186-.693 0-1.359-.119-2-.357-.64-.238-1.208-.58-1.702-1.025l.854-1.104c.148.13.32.266.515.408.195.143.413.273.654.395.241.12.501.219.779.297.278.077.572.116.881.116.253 0 .497-.033.728-.097.232-.065.435-.161.608-.288.173-.126.311-.278.413-.454.103-.177.153-.376.153-.599 0-.247-.054-.455-.162-.622-.108-.167-.255-.309-.441-.427-.186-.117-.402-.219-.649-.306-.248-.086-.507-.173-.779-.26l-.594-.195c-.334-.111-.656-.238-.965-.38-.31-.142-.583-.317-.821-.524-.238-.207-.427-.453-.566-.737-.139-.284-.208-.625-.208-1.021 0-.321.068-.642.204-.96.136-.319.345-.604.626-.858.281-.253.638-.459 1.071-.617.433-.157.943-.236 1.531-.236.649 0 1.251.108 1.804.325.554.217 1.022.486 1.406.807l-.816 1.123c-.136-.13-.297-.253-.482-.371-.186-.117-.384-.221-.594-.311-.21-.089-.43-.162-.659-.218-.229-.056-.455-.083-.677-.083-.34 0-.628.039-.863.116-.235.078-.424.178-.566.302-.143.124-.246.263-.311.417-.064.155-.097.306-.097.455 0 .217.046.397.139.543.093.145.215.271.366.375.152.105.325.195.52.269.195.074.397.148.608.223l.779.26c.371.124.711.255 1.021.395.309.139.581.298.816.478.297.235.527.507.691.816.164.306.246.68.246 1.119zm2.106-9.592c0-.148.029-.288.088-.417.059-.13.136-.244.231-.343.096-.099.21-.178.344-.237.133-.059.273-.088.422-.088s.288.029.417.088c.13.059.243.138.338.237.096.099.173.213.232.343.059.13.088.269.088.417s-.029.289-.088.422-.136.247-.232.343c-.096.096-.208.173-.338.232-.13.059-.269.088-.417.088s-.289-.029-.422-.088-.248-.136-.344-.232c-.096-.096-.173-.21-.231-.343-.059-.133-.088-.274-.088-.422zm1.846 12.218h-1.559v-9.481h1.559v9.481zm2.848-9.482h1.559v1.085c.321-.439.719-.761 1.192-.965.473-.204 1-.306 1.582-.306.525 0 .986.087 1.382.26.396.173.727.408.993.705s.465.64.598 1.03c.133.39.2.801.2 1.234v6.438h-1.559v-5.947c0-.414-.051-.769-.153-1.062-.103-.294-.241-.532-.418-.715-.176-.182-.383-.315-.621-.398-.238-.084-.494-.125-.766-.125-.297 0-.589.054-.877.163-.287.108-.547.271-.779.487-.231.217-.419.489-.561.816-.143.328-.213.714-.213 1.16v5.622h-1.559v-9.482zm9.741 4.222c0-.625.089-1.206.269-1.744.179-.538.436-1.003.77-1.396s.737-.702 1.211-.928c.473-.226 1.003-.339 1.591-.339.52 0 1.014.101 1.484.302.47.201.869.524 1.197.969v-1.085h1.559v9.481c0 .587-.119 1.081-.357 1.479-.238.399-.549.719-.933.96s-.818.414-1.304.52c-.485.105-.979.158-1.479.158-.278 0-.567-.016-.867-.046-.3-.031-.602-.078-.905-.139-.303-.062-.602-.141-.895-.236-.294-.096-.574-.209-.84-.339l.566-1.308c.186.086.38.171.584.255.204.083.425.159.663.227.238.068.493.124.766.167.272.043.569.065.891.065.396 0 .753-.041 1.071-.121.319-.081.586-.206.803-.375.216-.17.383-.387.501-.649.117-.263.176-.577.176-.942v-1.8c-.328.445-.727.769-1.197.969-.47.201-.965.302-1.484.302-.588 0-1.118-.113-1.591-.339-.474-.226-.877-.536-1.211-.932-.334-.396-.591-.861-.77-1.396-.179-.536-.269-1.115-.269-1.74zm6.56-.037c0-.427-.046-.821-.139-1.183-.093-.361-.238-.677-.436-.946-.198-.269-.45-.479-.756-.631-.306-.151-.672-.227-1.099-.227-.433 0-.807.078-1.123.232-.315.155-.577.366-.784.636-.207.269-.36.586-.459.951-.099.365-.148.755-.148 1.169v.074c0 .415.049.802.148 1.165.099.361.252.677.459.946.208.269.469.481.784.635.315.155.689.232 1.123.232.427 0 .793-.076 1.099-.228.307-.151.558-.36.756-.626.198-.266.343-.581.436-.946.093-.365.139-.757.139-1.178v-.075zm6.688-4.185h1.763l2.338 7.83 2.227-7.83h1.744l-3.451 10.91c-.105.334-.241.607-.408.821-.167.213-.357.383-.571.51-.213.127-.45.215-.709.265-.26.049-.535.074-.826.074-.26 0-.529-.014-.807-.042-.278-.027-.572-.066-.881-.116l.232-1.364c.124.024.256.046.399.065.117.019.25.034.399.046.148.012.3.019.455.019.34 0 .604-.074.793-.223.189-.148.323-.39.404-.724l.093-.436-3.194-9.805zm13.579-.185c.655 0 1.252.122 1.791.366.538.245.997.585 1.378 1.021.38.437.675.956.886 1.559.21.604.315 1.267.315 1.99 0 .711-.105 1.368-.315 1.972-.21.603-.506 1.122-.886 1.559-.381.436-.84.776-1.378 1.021-.538.244-1.135.366-1.791.366-.656 0-1.251-.122-1.786-.366-.535-.245-.995-.585-1.378-1.021-.384-.437-.681-.956-.891-1.559-.21-.604-.315-1.26-.315-1.972 0-.724.105-1.387.315-1.99.21-.603.507-1.122.891-1.559.383-.436.843-.776 1.378-1.021.535-.244 1.13-.366 1.786-.366zm0 8.489c.451 0 .849-.094 1.192-.283.344-.189.631-.444.863-.766.231-.321.406-.694.524-1.118.117-.423.176-.867.176-1.331v-.111c0-.476-.059-.928-.176-1.354-.118-.427-.292-.799-.524-1.118-.232-.318-.52-.572-.863-.761-.343-.188-.741-.283-1.192-.283-.452 0-.849.094-1.192.283-.344.189-.631.442-.863.761-.231.319-.407.691-.524 1.118-.118.427-.176.878-.176 1.354v.111c0 .464.059.908.176 1.331.117.424.292.797.524 1.118.232.322.52.577.863.766.342.188.74.283 1.192.283zm14.073 1.178h-1.559v-1.085c-.322.439-.719.761-1.192.965-.473.204-1 .306-1.582.306-.526 0-.987-.087-1.382-.26-.396-.173-.727-.408-.993-.705s-.465-.64-.598-1.03c-.133-.39-.2-.801-.2-1.234v-6.438h1.559v5.947c0 .421.051.776.153 1.067.103.291.241.527.418.71.176.182.383.315.621.398.238.084.493.125.766.125.321 0 .629-.054.923-.163.294-.108.552-.27.775-.487.223-.216.4-.488.534-.816.133-.328.199-.714.199-1.16v-5.622h1.559v9.482zm7.701-8.09h-.25c-.402 0-.786.046-1.15.139-.365.093-.687.26-.965.501s-.501.571-.668.988c-.167.418-.25.951-.25 1.601v4.861h-1.559v-9.481h1.559v1.503c.117-.278.275-.522.473-.733.198-.21.422-.385.672-.524.251-.14.52-.243.808-.311.287-.068.58-.102.876-.102h.455v1.558zm10.603 7.144c-.278.322-.654.591-1.127.807-.473.216-1.028.325-1.665.325-.47 0-.906-.066-1.308-.199s-.751-.323-1.048-.571c-.297-.247-.529-.547-.696-.9s-.25-.751-.25-1.197c0-.371.061-.709.181-1.016.121-.306.291-.573.511-.802.219-.229.483-.416.793-.561.309-.146.655-.246 1.039-.302l3.349-.455v-.603c0-.358-.056-.66-.167-.904-.111-.245-.261-.438-.45-.58-.189-.142-.412-.244-.668-.306-.257-.062-.534-.093-.831-.093-.532 0-1.028.074-1.489.223-.461.148-.877.322-1.248.52l-.584-1.234c.544-.309 1.115-.532 1.711-.668.597-.136 1.186-.204 1.768-.204 1.156 0 2.032.261 2.625.784.594.522.891 1.285.891 2.287v4.37c0 .315.062.58.186.793.124.214.321.382.594.506l-.881 1.113c-.297-.074-.552-.206-.766-.395-.213-.188-.363-.416-.45-.682l-.02-.056zm-2.774-3.275c-.26.037-.496.09-.71.158-.213.068-.394.159-.542.273-.148.115-.264.255-.348.422-.083.167-.125.371-.125.612 0 .278.052.526.158.742.105.217.247.399.427.547.179.148.388.261.626.339.238.077.487.116.747.116.291 0 .575-.04.854-.121.278-.08.525-.196.742-.348.216-.152.391-.335.524-.552.133-.216.2-.464.2-.742v-1.828l-2.553.382zm8.498-5.261v1.085c.278-.39.655-.699 1.132-.928.476-.229 1.023-.343 1.642-.343.612 0 1.166.122 1.661.366.495.245.918.586 1.271 1.025.353.439.623.96.812 1.563.188.603.283 1.263.283 1.98 0 .718-.094 1.376-.283 1.976-.189.6-.459 1.118-.812 1.554-.353.436-.776.776-1.271 1.021-.495.244-1.048.366-1.661.366-.619 0-1.166-.115-1.642-.343-.477-.229-.854-.538-1.132-.928v3.971h-1.559V45.522h1.559zm5.186 4.695c0-.495-.059-.956-.176-1.382-.118-.427-.291-.796-.52-1.109-.229-.312-.512-.558-.849-.737-.337-.179-.723-.269-1.155-.269-.415 0-.778.071-1.09.213-.312.143-.574.337-.784.584-.21.248-.37.54-.478.876-.108.337-.163.704-.163 1.1v1.54c0 .396.054.762.163 1.1.108.337.267.629.478.876.21.248.472.442.784.584.312.143.675.213 1.09.213.433 0 .818-.089 1.155-.269.337-.179.62-.425.849-.737.229-.312.402-.682.52-1.109.117-.427.176-.887.176-1.382v-.092zm5.474-4.695v1.085c.278-.39.655-.699 1.132-.928.476-.229 1.023-.343 1.642-.343.612 0 1.166.122 1.661.366.495.245.918.586 1.271 1.025.353.439.623.96.812 1.563.188.603.283 1.263.283 1.98 0 .718-.094 1.376-.283 1.976-.189.6-.459 1.118-.812 1.554-.353.436-.776.776-1.271 1.021-.495.244-1.048.366-1.661.366-.619 0-1.166-.115-1.642-.343-.477-.229-.854-.538-1.132-.928v3.971h-1.559V45.522h1.559zm5.186 4.695c0-.495-.059-.956-.176-1.382-.118-.427-.291-.796-.52-1.109-.229-.312-.512-.558-.849-.737-.337-.179-.723-.269-1.155-.269-.415 0-.778.071-1.09.213-.312.143-.574.337-.784.584-.21.248-.37.54-.478.876-.108.337-.163.704-.163 1.1v1.54c0 .396.054.762.163 1.1.108.337.267.629.478.876.21.248.472.442.784.584.312.143.675.213 1.09.213.433 0 .818-.089 1.155-.269.337-.179.62-.425.849-.737.229-.312.402-.682.52-1.109.117-.427.176-.887.176-1.382v-.092zm3.85-8.517h1.559v11.179c0 .155.014.291.042.408.028.118.076.217.144.297.068.081.163.141.283.181.121.04.271.06.45.06.198 0 .377-.006.538-.019.161-.012.303-.024.427-.037l.158 1.308c-.18.019-.359.037-.538.056-.155.012-.325.024-.51.037-.186.012-.362.019-.529.019-.278 0-.542-.032-.789-.098-.248-.064-.462-.171-.645-.32-.183-.148-.327-.34-.432-.575-.105-.235-.158-.522-.158-.863V41.7zm4.796 1.086c0-.148.029-.288.088-.417.059-.13.136-.244.231-.343.096-.099.21-.178.344-.237.133-.059.273-.088.422-.088s.288.029.417.088c.13.059.243.138.338.237.096.099.173.213.232.343.059.13.088.269.088.417s-.029.289-.088.422-.136.247-.232.343c-.096.096-.208.173-.338.232-.13.059-.269.088-.417.088s-.289-.029-.422-.088-.248-.136-.344-.232c-.096-.096-.173-.21-.231-.343-.058-.133-.088-.274-.088-.422zm1.847 12.218h-1.559v-9.481h1.559v9.481zm3.887-4.694c0 .477.059.928.176 1.354.117.427.291.799.52 1.118.229.318.515.572.858.761.344.188.744.283 1.202.283.297 0 .571-.042.821-.125.251-.083.477-.196.678-.338.201-.142.38-.311.538-.505.157-.195.295-.404.413-.626l1.299.742c-.161.334-.367.639-.617.914-.251.275-.537.509-.858.701-.322.192-.674.34-1.058.445-.384.105-.789.158-1.215.158-.656 0-1.251-.122-1.786-.366-.535-.245-.995-.585-1.378-1.021-.384-.437-.681-.954-.891-1.554-.21-.6-.315-1.258-.315-1.976 0-.724.105-1.387.315-1.99.21-.603.507-1.122.891-1.559.383-.436.843-.776 1.378-1.021.535-.244 1.13-.366 1.786-.366.427 0 .832.053 1.215.158.383.105.736.254 1.058.445.321.192.607.425.858.701.25.275.456.58.617.914l-1.299.742c-.118-.223-.255-.431-.413-.626-.158-.194-.337-.363-.538-.505-.201-.142-.427-.255-.678-.338-.25-.084-.524-.125-.821-.125-.458 0-.858.094-1.202.283-.343.189-.629.442-.858.761-.229.319-.402.691-.52 1.118-.118.427-.176.878-.176 1.354v.089zm14.007 3.748c-.278.322-.654.591-1.127.807-.473.216-1.028.325-1.665.325-.47 0-.906-.066-1.308-.199s-.751-.323-1.048-.571c-.297-.247-.529-.547-.696-.9s-.25-.751-.25-1.197c0-.371.061-.709.181-1.016.121-.306.291-.573.511-.802.219-.229.483-.416.793-.561.309-.146.655-.246 1.039-.302l3.349-.455v-.603c0-.358-.056-.66-.167-.904-.111-.245-.261-.438-.45-.58-.189-.142-.412-.244-.668-.306-.257-.062-.534-.093-.831-.093-.532 0-1.028.074-1.489.223-.461.148-.877.322-1.248.52l-.584-1.234c.544-.309 1.115-.532 1.711-.668.597-.136 1.186-.204 1.768-.204 1.156 0 2.032.261 2.625.784.594.522.891 1.285.891 2.287v4.37c0 .315.062.58.186.793.124.214.321.382.594.506l-.881 1.113c-.297-.074-.552-.206-.766-.395-.213-.188-.363-.416-.45-.682l-.02-.056zm-2.774-3.275c-.26.037-.496.09-.71.158-.213.068-.394.159-.542.273-.148.115-.264.255-.348.422-.083.167-.125.371-.125.612 0 .278.052.526.158.742.105.217.247.399.427.547.179.148.388.261.626.339.238.077.487.116.747.116.291 0 .575-.04.854-.121.278-.08.525-.196.742-.348.216-.152.391-.335.524-.552.133-.216.2-.464.2-.742v-1.828l-2.553.382zm9.389 1.864c0 .161.011.311.032.45.022.139.074.261.158.366.083.105.205.189.366.25.161.062.38.093.659.093.074 0 .163-.003.264-.009.103-.006.209-.014.32-.023.111-.009.219-.021.325-.037.105-.015.195-.029.269-.042l.167 1.364c-.18.024-.365.046-.557.065-.161.019-.34.034-.538.046-.198.012-.396.019-.594.019-.377 0-.716-.039-1.016-.116-.3-.077-.556-.202-.766-.375-.21-.173-.371-.4-.482-.682-.111-.281-.167-.623-.167-1.025v-6.095H321.7v-1.373h1.791v-3.099l1.559-.547v3.646h2.635v1.373h-2.635v5.751zm4.277-9.861c0-.148.029-.288.088-.417.059-.13.136-.244.231-.343.096-.099.21-.178.344-.237.133-.059.273-.088.422-.088s.288.029.417.088c.13.059.243.138.338.237.096.099.173.213.232.343.059.13.088.269.088.417s-.029.289-.088.422-.136.247-.232.343c-.096.096-.208.173-.338.232-.13.059-.269.088-.417.088s-.289-.029-.422-.088-.248-.136-.344-.232c-.096-.096-.173-.21-.231-.343-.059-.133-.088-.274-.088-.422zm1.846 12.218h-1.559v-9.481h1.559v9.481zm6.642-9.667c.655 0 1.252.122 1.791.366.538.245.997.585 1.378 1.021.38.437.675.956.886 1.559.21.604.315 1.267.315 1.99 0 .711-.105 1.368-.315 1.972-.21.603-.506 1.122-.886 1.559-.381.436-.84.776-1.378 1.021-.538.244-1.135.366-1.791.366-.656 0-1.251-.122-1.786-.366-.535-.245-.995-.585-1.378-1.021-.384-.437-.681-.956-.891-1.559-.21-.604-.315-1.26-.315-1.972 0-.724.105-1.387.315-1.99.21-.603.507-1.122.891-1.559.383-.436.843-.776 1.378-1.021.535-.244 1.131-.366 1.786-.366zm0 8.489c.451 0 .849-.094 1.192-.283.344-.189.631-.444.863-.766.231-.321.406-.694.524-1.118.117-.423.176-.867.176-1.331v-.111c0-.476-.059-.928-.176-1.354-.118-.427-.292-.799-.524-1.118-.232-.318-.52-.572-.863-.761-.343-.188-.741-.283-1.192-.283-.452 0-.849.094-1.192.283-.344.189-.631.442-.863.761-.231.319-.407.691-.524 1.118-.118.427-.176.878-.176 1.354v.111c0 .464.059.908.176 1.331.117.424.292.797.524 1.118.232.322.52.577.863.766.343.188.741.283 1.192.283zm6.652-8.304h1.559v1.085c.321-.439.719-.761 1.192-.965.473-.204 1-.306 1.582-.306.525 0 .986.087 1.382.26.396.173.727.408.993.705s.465.64.598 1.03c.133.39.2.801.2 1.234v6.438h-1.559v-5.947c0-.414-.051-.769-.153-1.062-.103-.294-.241-.532-.418-.715-.176-.182-.383-.315-.621-.398-.238-.084-.494-.125-.766-.125-.297 0-.589.054-.877.163-.287.108-.547.271-.779.487-.231.217-.419.489-.561.816-.143.328-.213.714-.213 1.16v5.622h-1.559v-9.482zm10.28 8.591c0-.148.029-.289.088-.422s.136-.248.232-.344c.096-.096.208-.173.338-.231.13-.059.269-.088.417-.088s.289.029.422.088.248.136.344.231c.096.096.173.21.231.344.059.133.088.273.088.422s-.029.288-.088.417c-.059.13-.136.243-.231.338-.096.096-.21.173-.344.232-.133.059-.273.088-.422.088s-.288-.029-.417-.088c-.13-.059-.243-.136-.338-.232-.096-.096-.173-.208-.232-.338-.059-.129-.088-.268-.088-.417zm9.105-12.413l3.266 6.309h.037l3.256-6.309h1.781l-4.277 7.867v5.437h-1.633v-5.437l-4.295-7.867h1.865zm12.478 3.637c.655 0 1.252.122 1.791.366.538.245.997.585 1.378 1.021.38.437.675.956.886 1.559.21.604.315 1.267.315 1.99 0 .711-.105 1.368-.315 1.972-.21.603-.506 1.122-.886 1.559-.381.436-.84.776-1.378 1.021-.538.244-1.135.366-1.791.366-.656 0-1.251-.122-1.786-.366-.535-.245-.995-.585-1.378-1.021-.384-.437-.681-.956-.891-1.559-.21-.604-.315-1.26-.315-1.972 0-.724.105-1.387.315-1.99.21-.603.507-1.122.891-1.559.383-.436.843-.776 1.378-1.021.535-.244 1.13-.366 1.786-.366zm0 8.489c.451 0 .849-.094 1.192-.283.344-.189.631-.444.863-.766.231-.321.406-.694.524-1.118.117-.423.176-.867.176-1.331v-.111c0-.476-.059-.928-.176-1.354-.118-.427-.292-.799-.524-1.118-.232-.318-.52-.572-.863-.761-.343-.188-.741-.283-1.192-.283-.452 0-.849.094-1.192.283-.344.189-.631.442-.863.761-.231.319-.407.691-.524 1.118-.118.427-.176.878-.176 1.354v.111c0 .464.059.908.176 1.331.117.424.292.797.524 1.118.232.322.52.577.863.766.342.188.74.283 1.192.283zm14.073 1.178h-1.559v-1.085c-.322.439-.719.761-1.192.965-.473.204-1 .306-1.582.306-.526 0-.987-.087-1.382-.26-.396-.173-.727-.408-.993-.705s-.465-.64-.598-1.03c-.133-.39-.2-.801-.2-1.234v-6.438h1.559v5.947c0 .421.051.776.153 1.067.103.291.241.527.418.71.176.182.383.315.621.398.238.084.493.125.766.125.321 0 .629-.054.923-.163.294-.108.552-.27.775-.487.223-.216.4-.488.534-.816.133-.328.199-.714.199-1.16v-5.622h1.559v9.482zm13.007-2.626c0 .445-.098.843-.292 1.192-.195.35-.454.645-.775.886-.322.241-.691.424-1.109.547-.417.124-.846.186-1.285.186-.693 0-1.359-.119-2-.357-.64-.238-1.208-.58-1.702-1.025l.854-1.104c.148.13.32.266.515.408.195.143.413.273.654.395.241.12.501.219.779.297.278.077.572.116.881.116.253 0 .497-.033.728-.097.232-.065.435-.161.608-.288.173-.126.311-.278.413-.454.103-.177.153-.376.153-.599 0-.247-.054-.455-.162-.622-.108-.167-.255-.309-.441-.427-.186-.117-.402-.219-.649-.306-.248-.086-.507-.173-.779-.26l-.594-.195c-.334-.111-.656-.238-.965-.38-.31-.142-.583-.317-.821-.524-.238-.207-.427-.453-.566-.737-.139-.284-.208-.625-.208-1.021 0-.321.068-.642.204-.96.136-.319.345-.604.626-.858.281-.253.638-.459 1.071-.617.433-.157.943-.236 1.531-.236.649 0 1.251.108 1.804.325.554.217 1.022.486 1.406.807l-.816 1.123c-.136-.13-.297-.253-.482-.371-.186-.117-.384-.221-.594-.311-.21-.089-.43-.162-.659-.218-.229-.056-.455-.083-.677-.083-.34 0-.628.039-.863.116-.235.078-.424.178-.566.302-.143.124-.246.263-.311.417-.064.155-.097.306-.097.455 0 .217.046.397.139.543.093.145.215.271.366.375.152.105.325.195.52.269.195.074.397.148.608.223l.779.26c.371.124.711.255 1.021.395.309.139.581.298.816.478.297.235.527.507.691.816.164.306.246.68.246 1.119zm2.394-10.678h1.559v4.908c.321-.439.719-.761 1.192-.965.473-.204 1-.306 1.582-.306.525 0 .986.087 1.382.26.396.173.727.408.993.705s.465.64.598 1.03c.133.39.2.801.2 1.234v6.438h-1.559v-5.947c0-.414-.051-.769-.153-1.062-.103-.294-.241-.532-.418-.715-.176-.182-.383-.315-.621-.398-.238-.084-.494-.125-.766-.125-.297 0-.591.054-.881.163-.291.108-.551.271-.779.487-.229.217-.415.489-.557.816-.143.328-.213.714-.213 1.16v5.622h-1.559V41.7zm14.073 3.637c.655 0 1.252.122 1.791.366.538.245.997.585 1.378 1.021.38.437.676.956.886 1.559.21.604.315 1.267.315 1.99 0 .711-.105 1.368-.315 1.972-.21.603-.506 1.122-.886 1.559-.381.436-.84.776-1.378 1.021-.538.244-1.136.366-1.791.366-.656 0-1.251-.122-1.786-.366-.535-.245-.995-.585-1.378-1.021-.384-.437-.681-.956-.891-1.559-.21-.604-.315-1.26-.315-1.972 0-.724.105-1.387.315-1.99.21-.603.507-1.122.891-1.559.383-.436.843-.776 1.378-1.021.535-.244 1.131-.366 1.786-.366zm0 8.489c.452 0 .849-.094 1.192-.283.344-.189.631-.444.863-.766.231-.321.406-.694.524-1.118.117-.423.176-.867.176-1.331v-.111c0-.476-.059-.928-.176-1.354-.118-.427-.293-.799-.524-1.118-.232-.318-.52-.572-.863-.761-.343-.188-.74-.283-1.192-.283s-.849.094-1.192.283c-.344.189-.631.442-.863.761-.231.319-.407.691-.524 1.118-.118.427-.176.878-.176 1.354v.111c0 .464.059.908.176 1.331.117.424.292.797.524 1.118.232.322.52.577.863.766.343.188.741.283 1.192.283zm14.074 1.178h-1.559v-1.085c-.321.439-.719.761-1.192.965-.473.204-1 .306-1.582.306-.525 0-.986-.087-1.382-.26s-.727-.408-.993-.705-.465-.64-.598-1.03c-.134-.39-.199-.801-.199-1.234v-6.438h1.559v5.947c0 .421.051.776.152 1.067.103.291.241.527.418.71.176.182.383.315.621.398.238.084.493.125.766.125.321 0 .629-.054.923-.163.294-.108.552-.27.774-.487.223-.216.4-.488.534-.816.133-.328.199-.714.199-1.16v-5.622h1.559v9.482zm2.792-13.304h1.559v11.179c0 .155.015.291.042.408.028.118.076.217.144.297.068.081.163.141.283.181.121.04.271.06.45.06.198 0 .377-.006.538-.019.161-.012.303-.024.427-.037l.157 1.308c-.179.019-.358.037-.537.056-.155.012-.325.024-.511.037-.186.012-.362.019-.528.019-.279 0-.542-.032-.789-.098-.247-.064-.463-.171-.645-.32-.183-.148-.326-.34-.432-.575-.105-.235-.158-.522-.158-.863V41.7zm11.328 12.218c-.277.39-.657.699-1.136.928-.479.229-1.025.343-1.638.343s-1.166-.122-1.66-.366c-.495-.245-.919-.585-1.271-1.021-.353-.437-.623-.954-.812-1.554-.189-.6-.283-1.258-.283-1.976 0-.717.094-1.378.283-1.98.188-.604.459-1.124.812-1.563.353-.439.776-.781 1.271-1.025.494-.244 1.048-.366 1.66-.366s1.158.115 1.638.343c.479.229.858.538 1.136.928V41.7h1.559v13.304h-1.559v-1.086zm-5.185-3.608c0 .495.059.956.176 1.382.118.427.291.796.52 1.109.229.312.511.558.845.737.334.18.721.269 1.159.269.415 0 .778-.071 1.091-.213.312-.142.573-.337.784-.584.21-.247.367-.54.473-.876.105-.337.158-.704.158-1.1v-1.54c0-.396-.053-.762-.158-1.1-.105-.337-.263-.629-.473-.876-.211-.247-.473-.442-.784-.584-.312-.142-.676-.213-1.091-.213-.438 0-.825.09-1.159.269-.334.18-.615.425-.845.737-.229.312-.401.682-.52 1.109-.117.427-.176.888-.176 1.382v.092zm13.405-8.61h1.559v4.908c.321-.439.719-.761 1.192-.965.473-.204 1-.306 1.582-.306.525 0 .986.087 1.382.26.396.173.727.408.993.705s.465.64.598 1.03.199.801.199 1.234v6.438h-1.559v-5.947c0-.414-.051-.769-.152-1.062-.103-.294-.241-.532-.418-.715-.176-.182-.384-.315-.621-.398-.238-.084-.493-.125-.766-.125-.297 0-.591.054-.881.163-.291.108-.551.271-.779.487-.229.217-.415.489-.557.816-.143.328-.214.714-.214 1.16v5.622h-1.559V41.7zm11.337 9.046c.031.445.121.857.27 1.234.148.377.351.704.607.979s.56.489.909.641c.349.151.737.227 1.164.227.525 0 .988-.088 1.387-.264.399-.177.766-.397 1.1-.664l.798 1.123c-.427.34-.92.62-1.479.84-.561.219-1.187.329-1.879.329-.687 0-1.308-.122-1.864-.366-.557-.245-1.032-.585-1.425-1.021-.393-.437-.694-.956-.904-1.559-.21-.604-.315-1.26-.315-1.972 0-.724.104-1.387.311-1.99.207-.603.5-1.122.877-1.559.377-.436.829-.776 1.354-1.021.525-.244 1.11-.366 1.753-.366.625 0 1.188.122 1.689.366.5.245.928.585 1.279 1.021.354.437.623.956.812 1.559.188.604.283 1.261.283 1.972v.492h-6.727zm2.607-4.045c-.396 0-.749.078-1.059.232-.309.155-.573.362-.793.622s-.393.558-.52.895c-.127.337-.199.686-.218 1.044h5.019c-.012-.365-.075-.716-.189-1.053-.115-.337-.275-.634-.482-.891-.208-.257-.458-.462-.752-.617-.294-.155-.629-.232-1.006-.232zm11.68 7.357c-.277.322-.653.591-1.127.807-.473.216-1.028.325-1.665.325-.47 0-.906-.066-1.308-.199s-.752-.323-1.049-.571c-.297-.247-.529-.547-.695-.9-.168-.353-.251-.751-.251-1.197 0-.371.061-.709.181-1.016.121-.306.291-.573.511-.802.219-.229.483-.416.793-.561.31-.146.655-.246 1.039-.302l3.349-.455v-.603c0-.358-.055-.66-.166-.904-.111-.245-.262-.438-.45-.58-.189-.142-.412-.244-.668-.306-.257-.062-.534-.093-.831-.093-.531 0-1.028.074-1.488.223-.461.148-.877.322-1.248.52l-.584-1.234c.544-.309 1.114-.532 1.711-.668s1.187-.204 1.768-.204c1.156 0 2.031.261 2.625.784.594.522.891 1.285.891 2.287v4.37c0 .315.062.58.186.793.124.214.322.382.594.506l-.881 1.113c-.297-.074-.552-.206-.766-.395-.213-.188-.363-.416-.449-.682l-.022-.056zm-2.773-3.275c-.26.037-.496.09-.71.158-.213.068-.394.159-.542.273-.148.115-.265.255-.349.422-.083.167-.125.371-.125.612 0 .278.053.526.157.742.105.217.248.399.428.547.179.148.388.261.626.339.237.077.487.116.747.116.29 0 .574-.04.854-.121.277-.08.525-.196.742-.348.216-.152.391-.335.523-.552.133-.216.199-.464.199-.742v-1.828l-2.55.382zm11.782-3.869h-.25c-.402 0-.786.046-1.15.139-.365.093-.688.26-.965.501-.279.241-.502.571-.668.988-.168.418-.251.951-.251 1.601v4.861h-1.559v-9.481h1.559v1.503c.117-.278.275-.522.474-.733.197-.21.422-.385.672-.524.251-.14.52-.243.808-.311.287-.068.579-.102.876-.102h.455v1.558zM15.637 70.526h1.883v1.373h-1.883v8.108h-1.559v-8.108h-1.577v-1.373h1.577v-1.763c0-.408.065-.754.195-1.039.13-.284.311-.515.543-.691.231-.176.507-.303.825-.38.319-.078.667-.116 1.044-.116.383 0 .702.017.956.051.253.034.442.061.566.079l-.121 1.336c-.093-.006-.2-.015-.32-.028-.121-.012-.245-.021-.371-.028-.127-.006-.25-.012-.367-.019-.118-.006-.213-.009-.288-.009-.223 0-.405.033-.547.097-.143.065-.255.15-.338.255-.084.105-.141.226-.172.362-.031.136-.046.278-.046.427v1.466zm8.684 1.392h-.25c-.402 0-.786.046-1.15.139-.365.093-.687.26-.965.501s-.501.571-.668.988c-.167.418-.25.951-.25 1.601v4.861h-1.559v-9.481h1.559v1.503c.117-.278.275-.522.473-.733.198-.21.422-.385.672-.524.251-.14.52-.243.808-.311.287-.068.58-.102.876-.102h.455v1.558zm5.394-1.577c.655 0 1.252.122 1.791.366.538.245.997.585 1.378 1.021.38.437.675.956.886 1.559.21.604.315 1.267.315 1.99 0 .711-.105 1.368-.315 1.972-.21.603-.506 1.122-.886 1.559-.381.436-.84.776-1.378 1.021-.538.244-1.135.366-1.791.366-.656 0-1.251-.122-1.786-.366-.535-.245-.995-.585-1.378-1.021-.384-.437-.681-.956-.891-1.559-.21-.604-.315-1.26-.315-1.972 0-.724.105-1.387.315-1.99.21-.603.507-1.122.891-1.559.383-.436.843-.776 1.378-1.021.535-.244 1.13-.366 1.786-.366zm0 8.489c.451 0 .849-.094 1.192-.283.344-.189.631-.444.863-.766.231-.321.406-.694.524-1.118.117-.423.176-.867.176-1.331v-.111c0-.476-.059-.928-.176-1.354-.118-.427-.292-.799-.524-1.118-.232-.318-.52-.572-.863-.761-.343-.188-.741-.283-1.192-.283-.452 0-.849.094-1.192.283-.344.189-.631.442-.863.761-.231.319-.407.691-.524 1.118-.118.427-.176.878-.176 1.354v.111c0 .464.059.908.176 1.331.117.424.292.797.524 1.118.232.322.52.577.863.766.343.188.74.283 1.192.283zm13.758 1.178h-1.559v-5.965c0-.42-.051-.776-.153-1.067-.102-.291-.238-.525-.408-.705-.17-.179-.371-.309-.603-.39-.232-.08-.478-.121-.738-.121s-.515.051-.765.153c-.251.103-.474.262-.668.478-.195.217-.353.49-.474.821-.12.331-.181.729-.181 1.192v5.604h-1.559v-9.481h1.559v1.085c.315-.439.682-.761 1.1-.965.417-.204.879-.306 1.387-.306.21 0 .439.029.687.088.247.059.49.15.729.274.238.124.458.286.658.487.201.201.363.444.487.729.173-.291.373-.537.599-.737.226-.201.464-.363.714-.487.251-.124.511-.213.779-.269.27-.056.537-.083.803-.083.513 0 .968.087 1.364.26.396.173.729.405 1.002.696.272.291.478.628.617 1.011.14.384.209.786.209 1.206v6.494H47.5v-5.965c0-.42-.053-.776-.158-1.067-.105-.291-.248-.525-.427-.705-.18-.179-.387-.309-.622-.39-.235-.08-.479-.121-.733-.121-.26 0-.515.051-.765.153-.251.103-.474.262-.668.478-.195.217-.353.49-.474.821-.12.331-.181.729-.181 1.192v5.602zm19.585 0h-1.559v-1.085c-.322.439-.719.761-1.192.965-.473.204-1 .306-1.582.306-.526 0-.987-.087-1.382-.26-.396-.173-.727-.408-.993-.705s-.465-.64-.598-1.03c-.133-.39-.2-.801-.2-1.234v-6.438h1.559v5.947c0 .421.051.776.153 1.067.103.291.241.527.418.71.176.182.383.315.621.398.238.084.493.125.766.125.321 0 .629-.054.923-.163.294-.108.552-.27.775-.487.223-.216.4-.488.534-.816.133-.328.199-.714.199-1.16v-5.622h1.559v9.482zm9.203-2.626c0 .445-.098.843-.292 1.192-.195.35-.454.645-.775.886-.322.241-.691.424-1.109.547-.417.124-.846.186-1.285.186-.693 0-1.359-.119-2-.357-.64-.238-1.208-.58-1.702-1.025l.854-1.104c.148.13.32.266.515.408.195.143.413.273.654.395.241.12.501.219.779.297.278.077.572.116.881.116.253 0 .497-.033.728-.097.232-.065.435-.161.608-.288.173-.126.311-.278.413-.454.103-.177.153-.376.153-.599 0-.247-.054-.455-.162-.622-.108-.167-.255-.309-.441-.427-.186-.117-.402-.219-.649-.306-.248-.086-.507-.173-.779-.26l-.594-.195c-.334-.111-.656-.238-.965-.38-.31-.142-.583-.317-.821-.524-.238-.207-.427-.453-.566-.737-.139-.284-.208-.625-.208-1.021 0-.321.068-.642.204-.96.136-.319.345-.604.626-.858.281-.253.638-.459 1.071-.617.433-.157.943-.236 1.531-.236.649 0 1.251.108 1.804.325.554.217 1.022.486 1.406.807l-.816 1.123c-.136-.13-.297-.253-.482-.371-.186-.117-.384-.221-.594-.311-.21-.089-.43-.162-.659-.218-.229-.056-.455-.083-.677-.083-.34 0-.628.039-.863.116-.235.078-.424.178-.566.302-.143.124-.246.263-.311.417-.064.155-.097.306-.097.455 0 .217.046.397.139.543.093.145.215.271.366.375.152.105.325.195.52.269.195.074.397.148.608.223l.779.26c.371.124.711.255 1.021.395.309.139.581.298.816.478.297.235.527.507.691.816.164.306.246.68.246 1.119zm7.756 2.626h-1.559V66.704h1.559v4.908c.278-.39.655-.699 1.132-.928.476-.229 1.023-.343 1.642-.343.612 0 1.166.122 1.661.366.495.245.918.586 1.271 1.025.353.439.623.96.812 1.563.188.603.283 1.263.283 1.98 0 .718-.094 1.376-.283 1.976-.189.6-.459 1.118-.812 1.554-.353.436-.776.776-1.271 1.021-.495.244-1.048.366-1.661.366-.619 0-1.166-.115-1.642-.343-.477-.229-.854-.538-1.132-.928v1.087zm5.186-4.787c0-.495-.059-.956-.176-1.382-.118-.427-.291-.796-.52-1.109-.229-.312-.512-.558-.849-.737-.337-.179-.723-.269-1.155-.269-.415 0-.778.071-1.09.213-.312.143-.574.337-.784.584-.21.248-.37.54-.478.876-.108.337-.163.704-.163 1.1v1.54c0 .396.054.762.163 1.1.108.337.267.629.478.876.21.248.472.442.784.584.312.143.675.213 1.09.213.433 0 .818-.089 1.155-.269.337-.179.62-.425.849-.737.229-.312.402-.682.52-1.109.117-.427.176-.887.176-1.382v-.092zm2.734-4.695H89.7l2.338 7.83 2.227-7.83h1.744l-3.451 10.91c-.105.334-.241.607-.408.821-.167.213-.357.383-.571.51-.213.127-.45.215-.709.265-.26.049-.535.074-.826.074-.26 0-.529-.014-.807-.042-.278-.027-.572-.066-.881-.116l.232-1.364c.124.024.256.046.399.065.117.019.25.034.399.046.148.012.3.019.455.019.34 0 .604-.074.793-.223.189-.148.323-.39.404-.724l.093-.436-3.194-9.805z"/><path fill="#2E8ACA" d="M102.801 62s-3 0-3 3v19s0 3 3 3h63.328s3 0 3-3V65s0-3-3-3h-63.328z"/><path d="M104.408 74.981c0 .835.097 1.625.292 2.371.194.745.474 1.446.839 2.101s.81 1.266 1.336 1.833c.525.565 1.119 1.081 1.781 1.544l-.798 1.085-.473-.343c-.848-.606-1.569-1.245-2.166-1.916-.597-.671-1.086-1.369-1.466-2.092-.381-.724-.659-1.474-.835-2.25-.177-.776-.265-1.573-.265-2.389s.088-1.613.265-2.389c.176-.776.454-1.526.835-2.25.38-.724.869-1.421 1.466-2.092s1.318-1.309 2.166-1.916l.473-.343.798 1.085c-.662.464-1.256.979-1.781 1.544-.526.566-.971 1.177-1.336 1.833-.365.656-.645 1.358-.839 2.106-.195.749-.292 1.537-.292 2.366v.112zm6.768 0c0 .835.097 1.625.292 2.371.194.745.474 1.446.839 2.101s.81 1.266 1.336 1.833c.525.565 1.119 1.081 1.781 1.544l-.798 1.085-.473-.343c-.848-.606-1.569-1.245-2.166-1.916-.597-.671-1.086-1.369-1.466-2.092-.381-.724-.659-1.474-.835-2.25-.177-.776-.265-1.573-.265-2.389s.088-1.613.265-2.389c.176-.776.454-1.526.835-2.25.38-.724.869-1.421 1.466-2.092s1.318-1.309 2.166-1.916l.473-.343.798 1.085c-.662.464-1.256.979-1.781 1.544-.526.566-.971 1.177-1.336 1.833-.365.656-.645 1.358-.839 2.106-.195.749-.292 1.537-.292 2.366v.112z" fill="#ABD0EA"/><path d="M122.925 78.915c-.278.39-.657.699-1.136.928-.479.229-1.025.343-1.638.343s-1.166-.122-1.661-.366c-.495-.245-.918-.585-1.271-1.021-.353-.437-.623-.954-.812-1.554-.189-.6-.283-1.258-.283-1.976 0-.717.094-1.378.283-1.98.188-.604.459-1.124.812-1.563.353-.439.776-.781 1.271-1.025.495-.244 1.048-.366 1.661-.366s1.158.115 1.638.343c.479.229.858.538 1.136.928v-4.908h1.559V80h-1.559v-1.085zm-5.186-3.609c0 .495.059.956.176 1.382.117.427.291.796.52 1.109.229.312.51.558.844.737.334.18.72.269 1.16.269.414 0 .778-.071 1.09-.213.312-.142.573-.337.784-.584.21-.247.368-.54.473-.876.105-.337.158-.704.158-1.1v-1.54c0-.396-.053-.762-.158-1.1-.105-.337-.263-.629-.473-.876-.21-.247-.472-.442-.784-.584-.312-.142-.676-.213-1.09-.213-.439 0-.826.09-1.16.269-.334.18-.616.425-.844.737-.229.312-.402.682-.52 1.109-.118.427-.176.888-.176 1.382v.092zm14.992 3.748c-.278.322-.654.591-1.127.807-.473.216-1.028.325-1.665.325-.47 0-.906-.066-1.308-.199s-.751-.323-1.048-.571c-.297-.247-.529-.547-.696-.9s-.25-.751-.25-1.197c0-.371.061-.709.181-1.016.121-.306.291-.573.511-.802.219-.229.483-.416.793-.561.309-.146.655-.246 1.039-.302l3.349-.455v-.603c0-.358-.056-.66-.167-.904-.111-.245-.261-.438-.45-.58-.189-.142-.412-.244-.668-.306-.257-.062-.534-.093-.831-.093-.532 0-1.028.074-1.489.223-.461.148-.877.322-1.248.52l-.584-1.234c.544-.309 1.115-.532 1.711-.668.597-.136 1.186-.204 1.768-.204 1.156 0 2.032.261 2.625.784.594.522.891 1.285.891 2.287v4.37c0 .315.062.58.186.793.124.214.321.382.594.506l-.881 1.113c-.297-.074-.552-.206-.766-.395-.213-.188-.363-.416-.45-.682l-.02-.056zm-2.773-3.275c-.26.037-.496.09-.71.158-.213.068-.394.159-.542.273-.148.115-.264.255-.348.422-.083.167-.125.371-.125.612 0 .278.052.526.158.742.105.217.247.399.427.547.179.148.388.261.626.339.238.077.487.116.747.116.291 0 .575-.04.854-.121.278-.08.525-.196.742-.348.216-.152.391-.335.524-.552.133-.216.2-.464.2-.742v-1.828l-2.553.382zm9.388 1.865c0 .161.011.311.032.45.022.139.074.261.158.366.083.105.205.189.366.25.161.062.38.093.659.093.074 0 .163-.003.264-.009.103-.006.209-.014.32-.023.111-.009.219-.021.325-.037.105-.015.195-.029.269-.042l.167 1.364c-.18.024-.365.046-.557.065-.161.019-.34.034-.538.046-.198.012-.396.019-.594.019-.377 0-.716-.039-1.016-.116-.3-.077-.556-.202-.766-.375-.21-.173-.371-.4-.482-.682-.111-.281-.167-.623-.167-1.025v-6.095h-1.791V70.52h1.791v-3.1l1.559-.547v3.646h2.635v1.373h-2.635v5.752zm5.622-1.902c.031.445.121.857.269 1.234.148.377.351.704.608.979.256.275.56.489.909.641.349.151.737.227 1.164.227.525 0 .988-.088 1.387-.264.399-.177.766-.397 1.1-.664l.798 1.123c-.427.34-.92.62-1.479.84-.56.219-1.187.329-1.879.329-.687 0-1.308-.122-1.865-.366-.557-.245-1.031-.585-1.424-1.021-.393-.437-.694-.956-.904-1.559-.21-.604-.315-1.26-.315-1.972 0-.724.104-1.387.311-1.99.208-.603.5-1.122.877-1.559.377-.436.829-.776 1.354-1.021.525-.244 1.11-.366 1.753-.366.625 0 1.188.122 1.688.366.501.245.928.585 1.28 1.021.353.437.623.956.812 1.559.188.604.283 1.261.283 1.972v.492h-6.727zm2.607-4.045c-.396 0-.749.078-1.058.232-.31.155-.574.362-.793.622-.219.26-.393.558-.52.895-.126.337-.199.686-.218 1.044h5.019c-.013-.365-.076-.716-.19-1.053-.115-.337-.275-.634-.482-.891-.208-.257-.458-.462-.752-.617-.293-.155-.629-.232-1.006-.232z" fill="#FFF"/><path d="M156.597 74.87c0-.829-.098-1.617-.292-2.366-.195-.748-.475-1.45-.84-2.106-.365-.655-.811-1.266-1.336-1.833-.526-.565-1.123-1.081-1.791-1.544l.798-1.085.473.343c.847.606 1.569 1.245 2.166 1.916.597.671 1.086 1.369 1.466 2.092.381.724.659 1.474.835 2.25.177.776.265 1.573.265 2.389s-.088 1.613-.265 2.389c-.176.776-.454 1.526-.835 2.25-.38.724-.869 1.421-1.466 2.092s-1.319 1.309-2.166 1.916l-.473.343-.798-1.085c.668-.464 1.265-.979 1.791-1.544.525-.566.971-1.177 1.336-1.833.365-.655.645-1.356.84-2.101.194-.746.292-1.536.292-2.371v-.112zm6.768 0c0-.829-.098-1.617-.292-2.366-.195-.748-.475-1.45-.84-2.106-.365-.655-.811-1.266-1.336-1.833-.526-.565-1.123-1.081-1.791-1.544l.798-1.085.473.343c.847.606 1.569 1.245 2.166 1.916.597.671 1.086 1.369 1.466 2.092.381.724.659 1.474.835 2.25.177.776.265 1.573.265 2.389s-.088 1.613-.265 2.389c-.176.776-.454 1.526-.835 2.25-.38.724-.869 1.421-1.466 2.092s-1.319 1.309-2.166 1.916l-.473.343-.798-1.085c.668-.464 1.265-.979 1.791-1.544.525-.566.971-1.177 1.336-1.833.365-.655.645-1.356.84-2.101.194-.746.292-1.536.292-2.371v-.112z" fill="#ABD0EA"/><path fill="#0B0C0C" d="M170.546 79.109c0-.148.029-.289.088-.422s.136-.248.232-.344c.096-.096.208-.173.338-.231.13-.059.269-.088.417-.088s.289.029.422.088.248.136.344.231c.096.096.173.21.231.344.059.133.088.273.088.422s-.029.288-.088.417c-.059.13-.136.243-.231.338-.096.096-.21.173-.344.232-.133.059-.273.088-.422.088s-.288-.029-.417-.088c-.13-.059-.243-.136-.338-.232-.096-.096-.173-.208-.232-.338-.058-.129-.088-.268-.088-.417z"/><path fill="#6F777B" d="M572 100H0V0h572v100zM2 98h568V2H2v96z"/></svg>