<svg xmlns="http://www.w3.org/2000/svg" width="572" height="120" viewBox="0 0 572 120"><path fill="#FFF" d="M0 0h572v120H0z"/><path fill="#BFC1C3" d="M0 0h143v1H0zm0 1h1v29H0zm143-1h142.5v1H143zm-.5 1h1v29h-1zm143-1H428v1H285.5zm-.5 1h1v29h-1zm143-1h144v1H428zm-.5 1h1v29h-1zM571 1h1v29h-1zM0 30h143v1H0zm0 1h1v29H0zm143-1h142.5v1H143zm-.5 1h1v29h-1zm143-1H428v1H285.5zm-.5 1h1v29h-1zm143-1h144v1H428zm-.5 1h1v29h-1zM571 31h1v29h-1zM0 60h143v1H0zm0 1h1v29H0zm143-1h142.5v1H143zm-.5 1h1v29h-1zm143-1H428v1H285.5zm-.5 1h1v29h-1zm143-1h144v1H428zm-.5 1h1v29h-1zM571 61h1v29h-1zM0 90h143v1H0zm0 1h1v28H0zm143-1h142.5v1H143zm-.5 1h1v28h-1zm143-1H428v1H285.5zm-.5 1h1v28h-1zm143-1h144v1H428zm-.5 1h1v28h-1zM571 91h1v28h-1zM0 119h143v1H0zm143 0h142.5v1H143zm142.5 0H428v1H285.5zm142.5 0h144v1H428z"/><path d="M5.586 11.703h2.047v1.219c.266-.417.625-.755 1.078-1.016.453-.26.956-.391 1.508-.391.963 0 1.781.378 2.453 1.133.672.755 1.008 1.808 1.008 3.156 0 1.386-.339 2.462-1.016 3.23-.677.769-1.498 1.152-2.461 1.152-.458 0-.874-.091-1.246-.273-.373-.182-.765-.495-1.176-.938v4.18H5.586V11.703zm2.172 4.008c0 .933.185 1.621.555 2.066.37.445.82.668 1.352.668.51 0 .935-.204 1.273-.613.338-.409.508-1.079.508-2.012 0-.87-.175-1.516-.523-1.938-.349-.422-.781-.633-1.297-.633-.537 0-.982.207-1.336.621-.355.415-.532 1.028-.532 1.841zm9.851-7.164v4.211c.708-.828 1.555-1.242 2.539-1.242.505 0 .961.094 1.367.281s.712.427.918.719c.206.292.346.615.422.969.075.354.113.904.113 1.648V20h-2.195v-4.383c0-.87-.042-1.422-.125-1.656-.083-.234-.23-.42-.441-.559-.211-.138-.476-.207-.793-.207-.365 0-.69.089-.977.266-.287.177-.496.444-.629.801-.133.357-.199.884-.199 1.582V20h-2.195V8.547h2.195zm7.079 7.187c0-.729.18-1.435.539-2.117.359-.682.868-1.203 1.527-1.562.659-.359 1.395-.539 2.207-.539 1.255 0 2.284.408 3.086 1.223.802.815 1.203 1.845 1.203 3.09 0 1.255-.405 2.296-1.215 3.121-.81.826-1.83 1.238-3.059 1.238-.761 0-1.486-.172-2.176-.516-.69-.344-1.215-.848-1.574-1.512s-.538-1.472-.538-2.426zm2.25.118c0 .823.195 1.453.586 1.891s.872.656 1.445.656c.573 0 1.053-.219 1.441-.656.388-.438.582-1.073.582-1.906 0-.812-.194-1.438-.582-1.875-.388-.438-.869-.656-1.441-.656-.573 0-1.055.219-1.445.656s-.586 1.067-.586 1.89zM42.516 20H40.32v-4.234c0-.896-.047-1.475-.141-1.738-.094-.263-.246-.467-.457-.613-.211-.146-.465-.219-.762-.219-.38 0-.722.104-1.023.312-.302.208-.509.484-.621.828-.112.344-.168.979-.168 1.906V20h-2.195v-8.297h2.039v1.219c.724-.938 1.635-1.406 2.734-1.406.484 0 .927.087 1.328.262.401.175.704.397.91.668.206.271.349.578.43.922.081.344.121.836.121 1.477V20zm7.031-2.641l2.188.367c-.281.802-.726 1.413-1.332 1.832-.607.419-1.366.629-2.277.629-1.443 0-2.511-.471-3.203-1.414-.547-.755-.82-1.708-.82-2.859 0-1.375.359-2.452 1.078-3.23.719-.778 1.627-1.168 2.727-1.168 1.234 0 2.208.408 2.922 1.223.713.815 1.055 2.064 1.023 3.746h-5.5c.016.651.192 1.158.531 1.52.338.362.76.543 1.266.543.344 0 .633-.094.867-.281s.41-.491.53-.908zm.125-2.218c-.016-.635-.18-1.118-.492-1.449-.312-.331-.693-.496-1.141-.496-.479 0-.875.175-1.188.523-.312.349-.466.823-.461 1.422h3.282zM65.633 20h-2.195v-4.234c0-.896-.047-1.475-.141-1.738-.094-.263-.246-.467-.457-.613-.211-.146-.465-.219-.762-.219-.38 0-.722.104-1.023.312-.302.208-.509.484-.621.828-.112.344-.168.979-.168 1.906V20H58.07v-8.297h2.039v1.219c.724-.938 1.635-1.406 2.734-1.406.484 0 .927.087 1.328.262.401.175.704.397.91.668.206.271.349.578.43.922.081.344.121.836.121 1.477V20zm7.687 0v-1.242c-.302.443-.699.792-1.191 1.047s-1.012.383-1.559.383c-.558 0-1.058-.123-1.5-.367-.443-.245-.763-.588-.961-1.031-.198-.442-.297-1.055-.297-1.836v-5.25h2.195v3.812c0 1.167.04 1.882.121 2.145.081.263.228.472.441.625.213.154.484.23.812.23.375 0 .711-.103 1.008-.309.297-.206.5-.461.609-.766s.164-1.051.164-2.238v-3.5h2.195V20H73.32zm4.149-8.297h2.023v1.133c.724-.88 1.586-1.32 2.586-1.32.531 0 .992.109 1.383.328s.711.55.961.992c.364-.442.758-.773 1.18-.992s.872-.328 1.352-.328c.609 0 1.125.124 1.547.371.422.248.737.611.945 1.09.151.354.227.927.227 1.719V20h-2.195v-4.742c0-.823-.076-1.354-.227-1.594-.203-.312-.516-.469-.938-.469-.308 0-.597.094-.867.281-.271.188-.466.462-.586.824-.12.362-.18.934-.18 1.715V20h-2.195v-4.547c0-.807-.039-1.328-.117-1.562s-.199-.409-.363-.523c-.164-.114-.387-.172-.668-.172-.339 0-.644.091-.914.273-.271.183-.465.445-.582.789s-.176.914-.176 1.711V20H77.47v-8.297zM91.766 20V8.547h2.195v4.125c.677-.771 1.479-1.156 2.406-1.156 1.01 0 1.846.366 2.508 1.098.661.732.992 1.783.992 3.152 0 1.417-.337 2.508-1.012 3.273-.675.766-1.494 1.148-2.457 1.148-.474 0-.941-.119-1.402-.355s-.858-.587-1.191-1.051V20h-2.039zm2.179-4.328c0 .859.135 1.495.406 1.906.38.583.885.875 1.516.875.484 0 .897-.207 1.238-.621.341-.414.512-1.066.512-1.957 0-.948-.172-1.631-.516-2.051-.344-.419-.784-.629-1.32-.629-.526 0-.964.205-1.312.613-.349.41-.524 1.031-.524 1.864zm12.493 1.687l2.188.367c-.281.802-.726 1.413-1.332 1.832-.607.419-1.366.629-2.277.629-1.443 0-2.511-.471-3.203-1.414-.547-.755-.82-1.708-.82-2.859 0-1.375.359-2.452 1.078-3.23.719-.778 1.627-1.168 2.727-1.168 1.234 0 2.208.408 2.922 1.223.713.815 1.055 2.064 1.023 3.746h-5.5c.016.651.192 1.158.531 1.52.338.362.76.543 1.266.543.344 0 .633-.094.867-.281s.409-.491.53-.908zm.124-2.218c-.016-.635-.18-1.118-.492-1.449-.312-.331-.693-.496-1.141-.496-.479 0-.875.175-1.188.523-.312.349-.466.823-.461 1.422h3.282zM112.633 20h-2.195v-8.297h2.039v1.18c.349-.557.663-.924.941-1.102.278-.177.595-.266.949-.266.5 0 .981.138 1.445.414l-.68 1.914c-.37-.239-.714-.359-1.031-.359-.308 0-.568.085-.781.254-.214.169-.382.476-.504.918-.123.443-.184 1.37-.184 2.781V20zm43.058 0h-2.195v-4.234c0-.896-.047-1.475-.141-1.738-.094-.263-.246-.467-.457-.613-.211-.146-.465-.219-.762-.219-.38 0-.722.104-1.023.312-.302.208-.509.484-.621.828-.112.344-.168.979-.168 1.906V20h-2.195v-8.297h2.039v1.219c.724-.938 1.635-1.406 2.734-1.406.484 0 .927.087 1.328.262.401.175.704.397.91.668.206.271.349.578.43.922.081.344.121.836.121 1.477V20zm3.868-5.766l-1.992-.359c.224-.802.609-1.396 1.156-1.781.547-.385 1.359-.578 2.438-.578.979 0 1.708.116 2.188.348.479.232.816.526 1.012.883.195.357.293 1.012.293 1.965l-.023 2.562c0 .729.035 1.267.105 1.613.07.347.202.718.395 1.113h-2.172c-.058-.146-.128-.362-.211-.648-.037-.13-.062-.216-.078-.258-.375.365-.776.638-1.203.82-.427.182-.883.273-1.367.273-.854 0-1.527-.231-2.02-.695-.492-.463-.738-1.049-.738-1.758 0-.469.112-.887.336-1.254.224-.367.538-.648.941-.844.403-.195.985-.366 1.746-.512 1.026-.192 1.737-.372 2.133-.539v-.219c0-.422-.104-.723-.312-.902-.208-.18-.602-.27-1.18-.27-.391 0-.695.077-.914.23-.221.156-.398.425-.533.81zm2.937 1.782c-.281.094-.727.206-1.336.336-.609.13-1.008.258-1.195.383-.287.203-.43.461-.43.773 0 .308.114.573.344.797.229.224.521.336.875.336.396 0 .773-.13 1.133-.391.266-.198.44-.44.523-.727.057-.188.086-.544.086-1.07v-.437zm4.156-4.313h2.023v1.133c.724-.88 1.586-1.32 2.586-1.32.531 0 .992.109 1.383.328s.711.55.961.992c.364-.442.758-.773 1.18-.992s.872-.328 1.352-.328c.609 0 1.125.124 1.547.371.422.248.737.611.945 1.09.151.354.227.927.227 1.719V20h-2.195v-4.742c0-.823-.076-1.354-.227-1.594-.203-.312-.516-.469-.938-.469-.308 0-.597.094-.867.281-.271.188-.466.462-.586.824-.12.362-.18.934-.18 1.715V20h-2.195v-4.547c0-.807-.039-1.328-.117-1.562s-.199-.409-.363-.523c-.164-.114-.387-.172-.668-.172-.339 0-.644.091-.914.273-.271.183-.465.445-.582.789s-.176.914-.176 1.711V20h-2.195v-8.297zm19.196 5.656l2.188.367c-.281.802-.726 1.413-1.332 1.832-.607.419-1.366.629-2.277.629-1.443 0-2.511-.471-3.203-1.414-.547-.755-.82-1.708-.82-2.859 0-1.375.359-2.452 1.078-3.23.719-.778 1.627-1.168 2.727-1.168 1.234 0 2.208.408 2.922 1.223.713.815 1.055 2.064 1.023 3.746h-5.5c.016.651.192 1.158.531 1.52.338.362.76.543 1.266.543.344 0 .633-.094.867-.281s.41-.491.53-.908zm.125-2.218c-.016-.635-.18-1.118-.492-1.449-.312-.331-.693-.496-1.141-.496-.479 0-.875.175-1.188.523-.312.349-.466.823-.461 1.422h3.282zM298.25 20h-2.039v-1.219c-.339.474-.738.827-1.199 1.059s-.926.348-1.395.348c-.953 0-1.77-.384-2.449-1.152-.68-.768-1.02-1.84-1.02-3.215 0-1.406.331-2.475.992-3.207.661-.731 1.497-1.098 2.508-1.098.927 0 1.729.386 2.406 1.156V8.547h2.195V20zm-5.859-4.328c0 .886.122 1.526.367 1.922.354.573.849.859 1.484.859.505 0 .935-.215 1.289-.645.354-.43.531-1.071.531-1.926 0-.953-.172-1.639-.516-2.059-.344-.419-.784-.629-1.32-.629-.521 0-.957.207-1.309.621s-.526 1.034-.526 1.857zm7.515.062c0-.729.18-1.435.539-2.117.359-.682.868-1.203 1.527-1.562.659-.359 1.395-.539 2.207-.539 1.255 0 2.284.408 3.086 1.223.802.815 1.203 1.845 1.203 3.09 0 1.255-.405 2.296-1.215 3.121-.81.826-1.83 1.238-3.059 1.238-.761 0-1.486-.172-2.176-.516-.69-.344-1.215-.848-1.574-1.512s-.538-1.472-.538-2.426zm2.25.118c0 .823.195 1.453.586 1.891s.872.656 1.445.656c.573 0 1.053-.219 1.441-.656.388-.438.582-1.073.582-1.906 0-.812-.194-1.438-.582-1.875-.388-.438-.869-.656-1.441-.656-.573 0-1.055.219-1.445.656s-.586 1.067-.586 1.89zm15.266-1.696l-2.164.391c-.073-.432-.238-.758-.496-.977s-.593-.328-1.004-.328c-.547 0-.983.189-1.309.566-.326.378-.488 1.009-.488 1.895 0 .984.165 1.68.496 2.086.331.406.774.609 1.332.609.417 0 .758-.118 1.023-.355.266-.237.453-.645.562-1.223l2.156.367c-.224.99-.654 1.737-1.289 2.242-.636.505-1.487.758-2.555.758-1.214 0-2.181-.383-2.902-1.148-.722-.766-1.082-1.825-1.082-3.18 0-1.37.362-2.436 1.086-3.199.724-.763 1.703-1.145 2.938-1.145 1.01 0 1.813.218 2.41.652.597.436 1.025 1.099 1.286 1.989zM324.547 20v-1.242c-.302.443-.699.792-1.191 1.047s-1.012.383-1.559.383c-.558 0-1.058-.123-1.5-.367-.443-.245-.763-.588-.961-1.031-.198-.442-.297-1.055-.297-1.836v-5.25h2.195v3.812c0 1.167.04 1.882.121 2.145.081.263.228.472.441.625.213.154.484.23.812.23.375 0 .711-.103 1.008-.309.297-.206.5-.461.609-.766s.164-1.051.164-2.238v-3.5h2.195V20h-2.037zm4.148-8.297h2.023v1.133c.724-.88 1.586-1.32 2.586-1.32.531 0 .992.109 1.383.328s.711.55.961.992c.364-.442.758-.773 1.18-.992s.872-.328 1.352-.328c.609 0 1.125.124 1.547.371.422.248.737.611.945 1.09.151.354.227.927.227 1.719V20h-2.195v-4.742c0-.823-.076-1.354-.227-1.594-.203-.312-.516-.469-.938-.469-.308 0-.597.094-.867.281-.271.188-.466.462-.586.824-.12.362-.18.934-.18 1.715V20h-2.195v-4.547c0-.807-.039-1.328-.117-1.562s-.199-.409-.363-.523c-.164-.114-.387-.172-.668-.172-.339 0-.644.091-.914.273-.271.183-.465.445-.582.789s-.176.914-.176 1.711V20h-2.195v-8.297zm19.196 5.656l2.188.367c-.281.802-.726 1.413-1.332 1.832-.607.419-1.366.629-2.277.629-1.443 0-2.511-.471-3.203-1.414-.547-.755-.82-1.708-.82-2.859 0-1.375.359-2.452 1.078-3.23.719-.778 1.627-1.168 2.727-1.168 1.234 0 2.208.408 2.922 1.223.713.815 1.055 2.064 1.023 3.746h-5.5c.016.651.192 1.158.531 1.52.338.362.76.543 1.266.543.344 0 .633-.094.867-.281s.41-.491.53-.908zm.125-2.218c-.016-.635-.18-1.118-.492-1.449-.312-.331-.693-.496-1.141-.496-.479 0-.875.175-1.188.523-.312.349-.466.823-.461 1.422h3.282zM359.531 20h-2.195v-4.234c0-.896-.047-1.475-.141-1.738-.094-.263-.246-.467-.457-.613-.211-.146-.465-.219-.762-.219-.38 0-.722.104-1.023.312-.302.208-.509.484-.621.828-.112.344-.168.979-.168 1.906V20h-2.195v-8.297h2.039v1.219c.724-.938 1.635-1.406 2.734-1.406.484 0 .927.087 1.328.262.401.175.704.397.91.668.206.271.349.578.43.922.081.344.121.836.121 1.477V20zm6.031-8.297v1.75h-1.5v3.344c0 .677.014 1.072.043 1.184.028.112.094.205.195.277.102.073.225.109.371.109.203 0 .497-.07.883-.211l.188 1.703c-.511.219-1.089.328-1.734.328-.396 0-.753-.066-1.07-.199-.318-.133-.551-.305-.699-.516s-.251-.496-.309-.855c-.047-.255-.07-.771-.07-1.547v-3.617h-1.008v-1.75h1.008v-1.648l2.203-1.281v2.93h1.499zM440.746 20h-2.039v-1.219c-.339.474-.738.827-1.199 1.059s-.926.348-1.395.348c-.953 0-1.77-.384-2.449-1.152-.68-.768-1.02-1.84-1.02-3.215 0-1.406.331-2.475.992-3.207.661-.731 1.497-1.098 2.508-1.098.927 0 1.729.386 2.406 1.156V8.547h2.195V20zm-5.859-4.328c0 .886.122 1.526.367 1.922.354.573.849.859 1.484.859.505 0 .935-.215 1.289-.645s.531-1.071.531-1.926c0-.953-.172-1.639-.516-2.059-.344-.419-.784-.629-1.32-.629-.521 0-.957.207-1.309.621s-.526 1.034-.526 1.857zm9.664-1.438l-1.992-.359c.224-.802.609-1.396 1.156-1.781.547-.385 1.359-.578 2.438-.578.979 0 1.708.116 2.188.348.479.232.816.526 1.012.883.195.357.293 1.012.293 1.965l-.023 2.562c0 .729.035 1.267.105 1.613.07.347.202.718.395 1.113h-2.172c-.058-.146-.128-.362-.211-.648-.036-.13-.062-.216-.078-.258-.375.365-.776.638-1.203.82s-.883.273-1.367.273c-.854 0-1.527-.231-2.02-.695-.492-.463-.738-1.049-.738-1.758 0-.469.112-.887.336-1.254s.538-.648.941-.844.985-.366 1.746-.512c1.026-.192 1.737-.372 2.133-.539v-.219c0-.422-.104-.723-.312-.902s-.602-.27-1.18-.27c-.391 0-.695.077-.914.23-.221.156-.397.425-.533.81zm2.937 1.782c-.281.094-.727.206-1.336.336-.609.13-1.008.258-1.195.383-.286.203-.43.461-.43.773 0 .308.114.573.344.797.229.224.521.336.875.336.396 0 .773-.13 1.133-.391.266-.198.44-.44.523-.727.058-.188.086-.544.086-1.07v-.437zm8.125-4.313v1.75h-1.5v3.344c0 .677.015 1.072.043 1.184.028.112.094.205.195.277.102.073.226.109.371.109.203 0 .497-.07.883-.211l.188 1.703c-.511.219-1.089.328-1.734.328-.396 0-.753-.066-1.07-.199s-.551-.305-.699-.516-.251-.496-.309-.855c-.047-.255-.07-.771-.07-1.547v-3.617h-1.008v-1.75h1.008v-1.648l2.203-1.281v2.93h1.499zm6.328 5.656l2.188.367c-.281.802-.726 1.413-1.332 1.832-.606.419-1.366.629-2.277.629-1.442 0-2.511-.471-3.203-1.414-.547-.755-.82-1.708-.82-2.859 0-1.375.359-2.452 1.078-3.23.719-.778 1.628-1.168 2.727-1.168 1.234 0 2.208.408 2.922 1.223.714.815 1.055 2.064 1.023 3.746h-5.5c.016.651.192 1.158.531 1.52.339.362.761.543 1.266.543.344 0 .633-.094.867-.281s.41-.491.53-.908zm.125-2.218c-.016-.635-.18-1.118-.492-1.449-.312-.331-.692-.496-1.141-.496-.479 0-.875.175-1.188.523-.312.349-.466.823-.461 1.422h3.282zM5.148 44.352c0-1.354.139-2.444.418-3.27.278-.825.692-1.462 1.242-1.91.549-.448 1.241-.672 2.074-.672.614 0 1.153.124 1.617.371.463.248.846.604 1.148 1.07.302.466.539 1.034.711 1.703.172.669.258 1.572.258 2.707 0 1.344-.138 2.429-.414 3.254-.276.826-.689 1.464-1.238 1.914-.55.451-1.244.676-2.082.676-1.104 0-1.972-.396-2.602-1.188-.755-.952-1.132-2.504-1.132-4.655zm1.445 0c0 1.88.22 3.132.66 3.754.44.623.983.934 1.629.934s1.188-.312 1.629-.938c.44-.625.66-1.875.66-3.75 0-1.885-.22-3.138-.66-3.758-.44-.62-.988-.93-1.645-.93-.646 0-1.162.273-1.547.82-.484.699-.726 1.988-.726 3.868zm7.547-4.305v-1.352h7.414v1.094c-.729.776-1.452 1.808-2.168 3.094-.716 1.287-1.27 2.609-1.66 3.969-.281.958-.461 2.008-.539 3.148h-1.445c.016-.901.192-1.989.531-3.266.338-1.276.824-2.506 1.457-3.691.633-1.185 1.306-2.184 2.02-2.996h-5.61zM28.242 50h-1.406v-8.961c-.339.323-.783.646-1.332.969-.55.323-1.043.565-1.48.727v-1.359c.786-.37 1.474-.817 2.062-1.344.588-.526 1.005-1.036 1.25-1.531h.906V50zm10.992-1.352V50h-7.57c-.011-.338.044-.664.164-.977.192-.515.501-1.023.925-1.523.424-.5 1.038-1.078 1.84-1.734 1.245-1.021 2.086-1.829 2.523-2.426.438-.596.656-1.16.656-1.691 0-.557-.199-1.027-.598-1.41s-.918-.574-1.559-.574c-.677 0-1.219.203-1.625.609s-.612.969-.617 1.688l-1.445-.148c.099-1.078.471-1.899 1.117-2.465.646-.565 1.513-.848 2.602-.848 1.099 0 1.969.305 2.609.914s.961 1.365.961 2.266c0 .458-.094.909-.281 1.352-.188.443-.499.909-.934 1.398-.435.49-1.158 1.162-2.168 2.016-.844.708-1.386 1.189-1.625 1.441-.24.253-.438.507-.594.762h5.619zm1.516-1.671l1.406-.188c.161.797.436 1.371.824 1.723.388.352.86.527 1.418.527.661 0 1.22-.229 1.676-.688.456-.458.684-1.026.684-1.703 0-.646-.211-1.178-.633-1.598-.422-.419-.958-.629-1.609-.629-.266 0-.597.052-.992.156l.156-1.234c.094.011.169.016.227.016.599 0 1.138-.156 1.617-.469.479-.312.719-.794.719-1.445 0-.516-.175-.942-.523-1.281-.349-.338-.8-.508-1.352-.508-.547 0-1.003.172-1.367.516-.365.344-.599.859-.703 1.547l-1.406-.25c.172-.942.562-1.673 1.172-2.191.609-.518 1.367-.777 2.273-.777.625 0 1.2.134 1.727.402.526.269.928.634 1.207 1.098.278.464.418.956.418 1.477 0 .495-.133.945-.398 1.352s-.659.729-1.18.969c.677.156 1.203.48 1.578.973s.562 1.108.562 1.848c0 1-.365 1.848-1.094 2.543-.729.695-1.651 1.043-2.766 1.043-1.005 0-1.84-.299-2.504-.898-.665-.602-1.044-1.378-1.137-2.331zM58.593 50v-2.742h-4.969v-1.289l5.227-7.422H60v7.422h1.547v1.289H60V50h-1.407zm0-4.031v-5.164l-3.586 5.164h3.586zM62.984 47l1.477-.125c.109.719.363 1.259.762 1.621.398.362.879.543 1.441.543.677 0 1.25-.255 1.719-.766.469-.51.703-1.188.703-2.031 0-.802-.226-1.435-.676-1.898-.451-.463-1.041-.695-1.77-.695-.453 0-.862.103-1.227.309-.365.206-.651.473-.859.801l-1.32-.172 1.109-5.883h5.695v1.344h-4.57l-.617 3.078c.688-.479 1.409-.719 2.164-.719 1 0 1.844.347 2.531 1.039.688.693 1.031 1.583 1.031 2.672 0 1.037-.302 1.933-.906 2.688-.734.927-1.737 1.391-3.008 1.391-1.042 0-1.892-.292-2.551-.875-.658-.585-1.034-1.358-1.128-2.322zm16.195-5.648l-1.398.109c-.125-.552-.302-.953-.531-1.203-.38-.401-.849-.602-1.406-.602-.448 0-.841.125-1.18.375-.443.323-.792.794-1.047 1.414-.255.62-.388 1.503-.398 2.648.338-.516.752-.898 1.242-1.148.489-.25 1.002-.375 1.539-.375.938 0 1.735.345 2.395 1.035.659.69.988 1.582.988 2.676 0 .719-.155 1.387-.465 2.004-.31.617-.736 1.09-1.277 1.418-.542.328-1.156.492-1.844.492-1.172 0-2.128-.431-2.867-1.293-.74-.862-1.109-2.282-1.109-4.262 0-2.213.409-3.823 1.227-4.828.713-.875 1.674-1.312 2.883-1.312.901 0 1.639.253 2.215.758.573.505.918 1.203 1.033 2.094zm-5.742 4.937c0 .484.103.948.309 1.391.206.443.493.78.863 1.012.37.232.758.348 1.164.348.594 0 1.104-.239 1.531-.719.427-.479.641-1.13.641-1.953 0-.792-.211-1.415-.633-1.871-.422-.456-.953-.684-1.594-.684-.636 0-1.175.228-1.617.684-.443.455-.664 1.053-.664 1.792zm11.883-6.242v-1.352h7.414v1.094c-.729.776-1.452 1.808-2.168 3.094-.716 1.287-1.27 2.609-1.66 3.969-.281.958-.461 2.008-.539 3.148h-1.445c.016-.901.192-1.989.531-3.266.338-1.276.824-2.506 1.457-3.691.633-1.185 1.306-2.184 2.02-2.996h-5.61zm10.969 3.742c-.583-.213-1.016-.518-1.297-.914-.281-.396-.422-.87-.422-1.422 0-.833.299-1.534.898-2.102.599-.567 1.396-.852 2.391-.852 1 0 1.805.291 2.414.871.609.581.914 1.288.914 2.121 0 .531-.14.994-.418 1.387-.279.394-.702.697-1.27.91.703.229 1.238.599 1.605 1.109.367.511.551 1.12.551 1.828 0 .979-.347 1.802-1.039 2.469-.693.667-1.604 1-2.734 1s-2.042-.334-2.734-1.004c-.693-.669-1.039-1.504-1.039-2.504 0-.745.188-1.368.566-1.871.378-.501.915-.843 1.614-1.026zm-.735 2.906c0 .401.095.789.285 1.164.19.375.473.666.848.871.375.206.778.309 1.211.309.672 0 1.227-.216 1.664-.648.438-.432.656-.981.656-1.648 0-.677-.226-1.237-.676-1.68-.451-.442-1.015-.664-1.691-.664-.662 0-1.21.219-1.645.656-.435.437-.652.984-.652 1.64zm.453-5.289c0 .542.174.984.523 1.328.349.344.802.516 1.359.516.542 0 .985-.17 1.332-.512.346-.341.52-.759.52-1.254 0-.516-.179-.949-.535-1.301-.357-.352-.801-.527-1.332-.527-.537 0-.982.172-1.336.516-.354.344-.531.755-.531 1.234zm7.227 5.946l1.352-.125c.114.636.333 1.097.656 1.383.323.287.737.43 1.242.43.432 0 .811-.099 1.137-.297.325-.198.592-.462.801-.793.208-.331.383-.777.523-1.34s.211-1.135.211-1.719c0-.062-.003-.156-.008-.281-.281.448-.666.812-1.152 1.09-.487.279-1.015.418-1.582.418-.948 0-1.75-.344-2.406-1.031s-.984-1.594-.984-2.719c0-1.161.342-2.096 1.027-2.805.685-.708 1.543-1.062 2.574-1.062.745 0 1.426.201 2.043.602.617.401 1.086.973 1.406 1.715s.48 1.816.48 3.223c0 1.464-.159 2.629-.477 3.496-.318.867-.791 1.527-1.418 1.98-.628.453-1.363.68-2.207.68-.896 0-1.628-.249-2.195-.746-.568-.499-.909-1.198-1.023-2.099zm5.758-5.055c0-.807-.215-1.448-.645-1.922-.43-.474-.947-.711-1.551-.711-.625 0-1.169.255-1.633.766-.464.511-.695 1.172-.695 1.984 0 .729.22 1.322.66 1.777.44.456.983.684 1.629.684.651 0 1.186-.228 1.605-.684.42-.455.63-1.087.63-1.894zm38.449 4.453l1.367-.188c.036.875.2 1.474.492 1.797.292.323.695.484 1.211.484.38 0 .708-.087.984-.262.276-.174.466-.411.57-.711.104-.299.156-.777.156-1.434v-7.891h1.516v7.805c0 .958-.116 1.701-.348 2.227-.232.526-.599.927-1.102 1.203-.503.276-1.093.414-1.77.414-1.005 0-1.775-.289-2.309-.867-.532-.577-.788-1.436-.767-2.577zm8.07-.898c0-1.536.427-2.674 1.281-3.414.713-.614 1.583-.922 2.609-.922 1.141 0 2.073.374 2.797 1.121.724.748 1.086 1.78 1.086 3.098 0 1.068-.16 1.908-.48 2.52-.32.612-.787 1.087-1.398 1.426-.612.338-1.28.508-2.004.508-1.162 0-2.101-.372-2.816-1.117-.717-.746-1.075-1.819-1.075-3.22zm1.446 0c0 1.062.231 1.858.695 2.387.463.529 1.047.793 1.75.793.698 0 1.278-.266 1.742-.797.463-.531.695-1.341.695-2.43 0-1.026-.233-1.803-.699-2.332-.466-.528-1.046-.793-1.738-.793-.703 0-1.287.263-1.75.789-.464.526-.695 1.32-.695 2.383zm7.414 1.671l1.391-.219c.078.558.295.984.652 1.281.356.297.855.445 1.496.445.646 0 1.125-.131 1.438-.395.312-.263.469-.571.469-.926 0-.317-.138-.567-.414-.75-.193-.125-.672-.284-1.438-.477-1.031-.26-1.746-.485-2.145-.676-.398-.19-.701-.453-.906-.789-.206-.336-.309-.707-.309-1.113 0-.37.084-.712.254-1.027.169-.315.399-.577.691-.785.219-.161.517-.298.895-.41.377-.112.782-.168 1.215-.168.651 0 1.223.094 1.715.281s.855.441 1.09.762.396.749.484 1.285l-1.375.188c-.062-.427-.244-.76-.543-1-.3-.239-.723-.359-1.27-.359-.646 0-1.107.107-1.383.32-.276.214-.414.464-.414.75 0 .183.057.347.172.492.114.151.294.276.539.375.141.052.555.172 1.242.359.995.266 1.688.483 2.082.652.393.169.702.416.926.738.224.323.336.724.336 1.203 0 .469-.137.91-.41 1.324s-.668.734-1.184.961-1.099.34-1.75.34c-1.078 0-1.9-.224-2.465-.672-.565-.445-.925-1.109-1.081-1.99zM172.933 50V38.547h1.406v4.109c.656-.76 1.484-1.141 2.484-1.141.614 0 1.148.121 1.602.363s.777.577.973 1.004c.195.427.293 1.047.293 1.859V50h-1.406v-5.258c0-.703-.152-1.215-.457-1.535s-.736-.48-1.293-.48c-.417 0-.809.108-1.176.324-.367.216-.629.509-.785.879-.156.37-.234.88-.234 1.531V50h-1.407zm14.336 0v-1.219c-.646.938-1.523 1.406-2.633 1.406-.49 0-.947-.094-1.371-.281-.425-.188-.74-.423-.945-.707-.206-.284-.351-.631-.434-1.043-.058-.276-.086-.713-.086-1.312v-5.141h1.406v4.602c0 .734.028 1.229.086 1.484.088.37.276.66.562.871.286.211.641.316 1.062.316s.817-.108 1.188-.324c.37-.216.631-.51.785-.883.153-.372.23-.913.23-1.621v-4.445h1.406V50h-1.256zm8.875-1.023c-.521.443-1.022.755-1.504.938-.482.182-.999.273-1.551.273-.912 0-1.612-.223-2.102-.668-.49-.445-.734-1.014-.734-1.707 0-.406.092-.777.277-1.113.185-.336.427-.605.727-.809.299-.203.637-.356 1.012-.461.276-.073.692-.143 1.25-.211 1.135-.135 1.971-.297 2.508-.484.005-.192.008-.315.008-.367 0-.573-.133-.977-.398-1.211-.359-.317-.894-.477-1.602-.477-.662 0-1.15.116-1.465.348-.315.232-.548.642-.699 1.23l-1.375-.188c.125-.588.331-1.063.617-1.426.286-.362.7-.641 1.242-.836.542-.195 1.169-.293 1.883-.293.708 0 1.284.083 1.727.25.442.167.768.376.977.629.208.253.354.572.438.957.047.24.07.672.07 1.297v1.875c0 1.308.03 2.134.09 2.48.06.347.178.679.355.996h-1.469c-.147-.291-.24-.632-.282-1.022zm-.117-3.141c-.511.208-1.276.386-2.297.531-.578.083-.987.177-1.227.281-.24.104-.425.257-.555.457-.13.201-.195.423-.195.668 0 .375.142.688.426.938.284.25.699.375 1.246.375.542 0 1.023-.118 1.445-.355.422-.237.731-.561.93-.973.151-.317.227-.786.227-1.406v-.516zm8.18 4.164V38.547h2.281l2.711 8.109c.25.755.432 1.32.547 1.695.13-.417.333-1.028.609-1.836l2.742-7.969h2.039V50h-1.461v-9.586L210.347 50h-1.367l-3.312-9.75V50h-1.461zm18.609-1.023c-.521.443-1.022.755-1.504.938-.482.182-.999.273-1.551.273-.912 0-1.612-.223-2.102-.668-.49-.445-.734-1.014-.734-1.707 0-.406.092-.777.277-1.113.185-.336.427-.605.727-.809.299-.203.637-.356 1.012-.461.276-.073.692-.143 1.25-.211 1.135-.135 1.971-.297 2.508-.484.005-.192.008-.315.008-.367 0-.573-.133-.977-.398-1.211-.359-.317-.894-.477-1.602-.477-.662 0-1.15.116-1.465.348-.315.232-.548.642-.699 1.23l-1.375-.188c.125-.588.331-1.063.617-1.426.286-.362.7-.641 1.242-.836.542-.195 1.169-.293 1.883-.293.708 0 1.284.083 1.727.25.442.167.768.376.977.629.208.253.354.572.438.957.047.24.07.672.07 1.297v1.875c0 1.308.03 2.134.09 2.48.06.347.178.679.355.996h-1.469c-.147-.291-.241-.632-.282-1.022zm-.117-3.141c-.511.208-1.276.386-2.297.531-.578.083-.987.177-1.227.281-.24.104-.425.257-.555.457-.13.201-.195.423-.195.668 0 .375.142.688.426.938.284.25.699.375 1.246.375.542 0 1.023-.118 1.445-.355.422-.237.731-.561.93-.973.151-.317.227-.786.227-1.406v-.516zM226.3 50v-8.297h1.266v1.18c.609-.911 1.489-1.367 2.641-1.367.5 0 .959.09 1.379.27.419.18.733.416.941.707.208.292.354.638.438 1.039.052.261.078.716.078 1.367V50h-1.406v-5.047c0-.573-.055-1.001-.164-1.285-.109-.284-.304-.51-.582-.68-.279-.169-.605-.254-.98-.254-.599 0-1.116.19-1.551.57-.435.38-.652 1.102-.652 2.164V50H226.3zm8.899 0v-8.297h1.266v1.18c.609-.911 1.489-1.367 2.641-1.367.5 0 .959.09 1.379.27.419.18.733.416.941.707.208.292.354.638.438 1.039.052.261.078.716.078 1.367V50h-1.406v-5.047c0-.573-.055-1.001-.164-1.285-.109-.284-.304-.51-.582-.68-.279-.169-.605-.254-.98-.254-.599 0-1.116.19-1.551.57-.435.38-.652 1.102-.652 2.164V50h-1.408zm8.906-9.836v-1.617h1.406v1.617h-1.406zm0 9.836v-8.297h1.406V50h-1.406zm3.547 0v-8.297h1.266v1.18c.609-.911 1.489-1.367 2.641-1.367.5 0 .959.09 1.379.27.419.18.733.416.941.707.208.292.354.638.438 1.039.052.261.078.716.078 1.367V50h-1.406v-5.047c0-.573-.055-1.001-.164-1.285-.109-.284-.304-.51-.582-.68-.279-.169-.605-.254-.98-.254-.599 0-1.116.19-1.551.57-.435.38-.652 1.102-.652 2.164V50h-1.408zm8.64.688l1.367.203c.057.422.216.729.477.922.349.26.825.391 1.43.391.651 0 1.153-.13 1.508-.391.354-.261.594-.625.719-1.094.073-.287.106-.888.102-1.805-.615.724-1.38 1.086-2.297 1.086-1.141 0-2.023-.411-2.648-1.234s-.938-1.81-.938-2.961c0-.792.143-1.522.43-2.191.286-.669.702-1.186 1.246-1.551.544-.364 1.184-.547 1.918-.547.979 0 1.786.396 2.422 1.188v-1h1.297v7.172c0 1.292-.132 2.207-.395 2.746-.263.539-.68.965-1.25 1.277s-1.272.469-2.105.469c-.99 0-1.789-.223-2.398-.668s-.906-1.117-.885-2.012zm1.165-4.985c0 1.089.216 1.883.648 2.383.432.5.974.75 1.625.75.646 0 1.188-.249 1.625-.746.438-.497.656-1.277.656-2.34 0-1.016-.226-1.781-.676-2.297-.451-.516-.994-.773-1.629-.773-.625 0-1.156.254-1.594.762s-.655 1.261-.655 2.261zM295.968 50v-1.219c-.646.938-1.523 1.406-2.633 1.406-.49 0-.947-.094-1.371-.281-.425-.188-.74-.423-.945-.707-.206-.284-.351-.631-.434-1.043-.058-.276-.086-.713-.086-1.312v-5.141h1.406v4.602c0 .734.028 1.229.086 1.484.088.37.276.66.562.871.286.211.641.316 1.062.316s.817-.108 1.188-.324c.37-.216.631-.51.785-.883.153-.372.23-.913.23-1.621v-4.445h1.406V50h-1.256zm6.532-1.258l.203 1.242c-.396.083-.75.125-1.062.125-.511 0-.906-.081-1.188-.242s-.479-.374-.594-.637c-.115-.263-.172-.816-.172-1.66v-4.773h-1.031v-1.094h1.031v-2.055l1.398-.844v2.898h1.414v1.094h-1.414v4.852c0 .401.024.659.074.773.049.115.13.206.242.273.112.068.272.102.48.102.158.001.363-.017.619-.054zm1.382-8.578v-1.617h1.406v1.617h-1.406zm0 9.836v-8.297h1.406V50h-1.406zm3.516 0V38.547h1.406V50h-1.406zm3.594-9.836v-1.617h1.406v1.617h-1.406zm0 9.836v-8.297h1.406V50h-1.406zm6.617-1.258l.203 1.242c-.396.083-.75.125-1.062.125-.511 0-.906-.081-1.188-.242s-.479-.374-.594-.637c-.115-.263-.172-.816-.172-1.66v-4.773h-1.031v-1.094h1.031v-2.055l1.398-.844v2.898h1.414v1.094h-1.414v4.852c0 .401.024.659.074.773.049.115.13.206.242.273.112.068.272.102.48.102.158.001.364-.017.619-.054zm1.312 4.453l-.156-1.32c.307.083.575.125.805.125.312 0 .562-.052.75-.156.188-.104.341-.25.461-.438.088-.141.231-.49.43-1.047.026-.078.067-.193.125-.344l-3.148-8.312h1.516l1.727 4.805c.224.609.424 1.25.602 1.922.161-.646.354-1.276.578-1.891l1.773-4.836h1.406l-3.156 8.438c-.339.911-.602 1.539-.789 1.883-.25.463-.537.803-.859 1.02-.323.216-.708.324-1.156.324-.273-.001-.576-.058-.909-.173zM332.726 50h-1.305V38.547h1.406v4.086c.594-.745 1.352-1.117 2.273-1.117.51 0 .993.103 1.449.309.456.206.831.495 1.125.867.294.373.524.822.691 1.348.167.526.25 1.089.25 1.688 0 1.422-.352 2.521-1.055 3.297-.703.776-1.547 1.164-2.531 1.164-.979 0-1.748-.409-2.305-1.227V50zm-.016-4.211c0 .995.135 1.714.406 2.156.442.724 1.042 1.086 1.797 1.086.614 0 1.146-.267 1.594-.801.448-.534.672-1.329.672-2.387 0-1.083-.215-1.883-.645-2.398s-.949-.773-1.559-.773c-.615 0-1.146.267-1.594.801-.447.534-.671 1.306-.671 2.316zm7.625-5.625v-1.617h1.406v1.617h-1.406zm0 9.836v-8.297h1.406V50h-1.406zm3.516 0V38.547h1.406V50h-1.406zm3.555 0V38.547h1.406V50h-1.406zm90.527 0h-1.406v-8.961c-.339.323-.782.646-1.332.969-.55.323-1.043.565-1.48.727v-1.359c.786-.37 1.474-.817 2.062-1.344.589-.526 1.005-1.036 1.25-1.531h.906V50zm3.429-2.477l1.391-.219c.078.558.296.984.652 1.281s.855.445 1.496.445c.646 0 1.125-.131 1.438-.395.312-.263.469-.571.469-.926 0-.317-.138-.567-.414-.75-.192-.125-.672-.284-1.438-.477-1.031-.26-1.746-.485-2.145-.676-.398-.19-.7-.453-.906-.789s-.309-.707-.309-1.113c0-.37.085-.712.254-1.027.169-.315.399-.577.691-.785.219-.161.517-.298.895-.41.378-.112.782-.168 1.215-.168.651 0 1.223.094 1.715.281s.855.441 1.09.762.396.749.484 1.285l-1.375.188c-.062-.427-.243-.76-.543-1-.3-.239-.723-.359-1.27-.359-.646 0-1.106.107-1.383.32-.276.214-.414.464-.414.75 0 .183.058.347.172.492.114.151.294.276.539.375.141.052.555.172 1.242.359.995.266 1.688.483 2.082.652.394.169.702.416.926.738.224.323.336.724.336 1.203 0 .469-.137.91-.41 1.324s-.668.734-1.184.961-1.099.34-1.75.34c-1.078 0-1.899-.224-2.465-.672-.564-.445-.924-1.109-1.081-1.99zm11.633 1.219l.203 1.242c-.396.083-.75.125-1.062.125-.511 0-.906-.081-1.188-.242s-.479-.374-.594-.637c-.114-.263-.172-.816-.172-1.66v-4.773h-1.031v-1.094h1.031v-2.055l1.398-.844v2.898h1.414v1.094h-1.414v4.852c0 .401.024.659.074.773.05.115.13.206.242.273.112.068.272.102.48.102.158.001.364-.017.619-.054zM458.948 50V38.547h2.281l2.711 8.109c.25.755.433 1.32.547 1.695.13-.417.333-1.028.609-1.836l2.742-7.969h2.039V50h-1.461v-9.586L465.089 50h-1.367l-3.312-9.75V50h-1.462zm18.61-1.023c-.521.443-1.022.755-1.504.938s-.999.273-1.551.273c-.911 0-1.612-.223-2.102-.668s-.734-1.014-.734-1.707c0-.406.093-.777.277-1.113s.427-.605.727-.809.637-.356 1.012-.461c.276-.073.692-.143 1.25-.211 1.136-.135 1.972-.297 2.508-.484.005-.192.008-.315.008-.367 0-.573-.133-.977-.398-1.211-.359-.317-.894-.477-1.602-.477-.661 0-1.149.116-1.465.348-.315.232-.548.642-.699 1.23l-1.375-.188c.125-.588.331-1.063.617-1.426.286-.362.7-.641 1.242-.836s1.169-.293 1.883-.293c.708 0 1.284.083 1.727.25.442.167.769.376.977.629.208.253.354.572.438.957.047.24.07.672.07 1.297v1.875c0 1.308.03 2.134.09 2.48.06.347.179.679.355.996h-1.469c-.147-.291-.24-.632-.282-1.022zm-.118-3.141c-.511.208-1.276.386-2.297.531-.578.083-.987.177-1.227.281-.239.104-.425.257-.555.457-.13.201-.195.423-.195.668 0 .375.142.688.426.938s.699.375 1.246.375c.542 0 1.023-.118 1.445-.355.422-.237.731-.561.93-.973.151-.317.227-.786.227-1.406v-.516zm3.539 7.359l-.156-1.32c.308.083.575.125.805.125.312 0 .562-.052.75-.156.188-.104.341-.25.461-.438.089-.141.231-.49.43-1.047.026-.078.067-.193.125-.344l-3.148-8.312h1.516l1.727 4.805c.224.609.425 1.25.602 1.922.161-.646.354-1.276.578-1.891l1.773-4.836h1.406l-3.156 8.438c-.339.911-.602 1.539-.789 1.883-.25.463-.536.803-.859 1.02-.323.216-.708.324-1.156.324-.273-.001-.576-.058-.909-.173zm19.508-4.547V50h-7.57c-.011-.338.044-.664.164-.977.192-.516.501-1.023.926-1.523s1.038-1.078 1.84-1.734c1.245-1.021 2.086-1.829 2.523-2.426.438-.596.656-1.16.656-1.691 0-.557-.199-1.027-.598-1.41s-.918-.574-1.559-.574c-.677 0-1.219.203-1.625.609s-.612.969-.617 1.688l-1.445-.148c.099-1.078.472-1.899 1.117-2.465.646-.565 1.513-.848 2.602-.848 1.099 0 1.969.305 2.609.914s.961 1.365.961 2.266c0 .458-.094.909-.281 1.352-.188.443-.499.909-.934 1.398-.435.49-1.157 1.162-2.168 2.016-.844.708-1.386 1.189-1.625 1.441-.239.253-.438.507-.594.762h5.618zm1.508-4.296c0-1.354.14-2.444.418-3.27.278-.825.692-1.462 1.242-1.91.55-.448 1.241-.672 2.074-.672.614 0 1.153.124 1.617.371.464.248.847.604 1.148 1.07.302.466.539 1.034.711 1.703.172.669.258 1.572.258 2.707 0 1.344-.138 2.429-.414 3.254-.276.826-.688 1.464-1.238 1.914-.55.451-1.243.676-2.082.676-1.104 0-1.972-.396-2.602-1.188-.754-.952-1.132-2.504-1.132-4.655zm1.445 0c0 1.88.22 3.132.66 3.754.44.623.983.934 1.629.934s1.188-.312 1.629-.938.66-1.875.66-3.75c0-1.885-.22-3.138-.66-3.758-.44-.62-.988-.93-1.645-.93-.646 0-1.161.273-1.547.82-.483.699-.726 1.988-.726 3.868zM516.19 50h-1.406v-8.961c-.339.323-.782.646-1.332.969-.55.323-1.043.565-1.48.727v-1.359c.786-.37 1.474-.817 2.062-1.344.589-.526 1.005-1.036 1.25-1.531h.906V50zm10.899-8.648l-1.398.109c-.125-.552-.302-.953-.531-1.203-.38-.401-.849-.602-1.406-.602-.448 0-.841.125-1.18.375-.442.323-.792.794-1.047 1.414-.255.62-.388 1.503-.398 2.648.339-.516.753-.898 1.242-1.148s1.003-.375 1.539-.375c.938 0 1.735.345 2.395 1.035.659.69.988 1.582.988 2.676 0 .719-.155 1.387-.465 2.004s-.735 1.09-1.277 1.418-1.156.492-1.844.492c-1.172 0-2.128-.431-2.867-1.293-.739-.862-1.109-2.282-1.109-4.262 0-2.213.409-3.823 1.227-4.828.714-.875 1.675-1.312 2.883-1.312.901 0 1.64.253 2.215.758.573.505.919 1.203 1.033 2.094zm-5.742 4.937c0 .484.103.948.309 1.391.206.443.493.78.863 1.012.37.232.758.348 1.164.348.594 0 1.104-.239 1.531-.719.427-.479.641-1.13.641-1.953 0-.792-.211-1.415-.633-1.871-.422-.456-.953-.684-1.594-.684-.636 0-1.175.228-1.617.684-.443.455-.664 1.053-.664 1.792zM5.132 74.352c0-1.354.139-2.444.418-3.27.278-.825.692-1.462 1.242-1.91.55-.448 1.241-.672 2.075-.672.614 0 1.153.124 1.617.371.463.248.846.604 1.148 1.07.302.466.539 1.034.711 1.703.172.669.258 1.572.258 2.707 0 1.344-.138 2.429-.414 3.254-.276.826-.689 1.464-1.238 1.914-.55.451-1.244.676-2.082.676-1.104 0-1.972-.396-2.602-1.188-.755-.952-1.133-2.504-1.133-4.655zm1.446 0c0 1.88.22 3.132.66 3.754.44.623.983.934 1.629.934s1.188-.312 1.629-.938c.44-.625.66-1.875.66-3.75 0-1.885-.22-3.138-.66-3.758-.44-.62-.988-.93-1.645-.93-.646 0-1.162.273-1.547.82-.484.699-.726 1.988-.726 3.868zm7.547-4.305v-1.352h7.414v1.094c-.729.776-1.452 1.808-2.168 3.094-.716 1.287-1.27 2.609-1.66 3.969-.282.958-.461 2.007-.54 3.148h-1.445c.016-.901.192-1.989.531-3.266.338-1.276.824-2.506 1.457-3.691.633-1.185 1.306-2.184 2.02-2.996h-5.609zM27.437 80v-2.742h-4.969v-1.289l5.227-7.422h1.148v7.422h1.547v1.289h-1.547V80h-1.406zm0-4.031v-5.164l-3.586 5.164h3.586zM31.828 77l1.477-.125c.109.719.363 1.259.762 1.621.398.362.879.543 1.441.543.677 0 1.25-.255 1.719-.766.469-.51.703-1.188.703-2.031 0-.802-.226-1.435-.676-1.898-.451-.463-1.041-.695-1.77-.695-.453 0-.862.103-1.227.309-.365.206-.651.473-.859.801l-1.32-.172 1.109-5.883h5.695v1.344h-4.57l-.617 3.078c.688-.479 1.409-.719 2.164-.719 1 0 1.844.347 2.531 1.039.688.693 1.031 1.583 1.031 2.672 0 1.037-.302 1.933-.906 2.688-.734.927-1.737 1.391-3.008 1.391-1.042 0-1.892-.292-2.551-.875-.659-.585-1.035-1.358-1.128-2.322zm16.195-5.648l-1.398.109c-.125-.552-.302-.953-.531-1.203-.38-.401-.849-.602-1.406-.602-.448 0-.841.125-1.18.375-.443.323-.792.794-1.047 1.414-.255.62-.388 1.503-.398 2.648.338-.516.752-.898 1.242-1.148.489-.25 1.002-.375 1.539-.375.938 0 1.735.345 2.395 1.035.659.69.988 1.582.988 2.676 0 .719-.155 1.387-.465 2.004-.31.617-.736 1.09-1.277 1.418-.542.328-1.156.492-1.844.492-1.172 0-2.128-.431-2.867-1.293-.74-.862-1.109-2.282-1.109-4.262 0-2.213.409-3.823 1.227-4.828.713-.875 1.674-1.312 2.883-1.312.901 0 1.639.253 2.215.758.573.505.918 1.203 1.033 2.094zm-5.742 4.937c0 .484.103.948.309 1.391.206.443.493.78.863 1.012.37.232.758.348 1.164.348.594 0 1.104-.239 1.531-.719.427-.479.641-1.13.641-1.953 0-.792-.211-1.415-.633-1.871-.422-.456-.953-.684-1.594-.684-.636 0-1.175.228-1.617.684-.443.455-.664 1.053-.664 1.792zm11.883-6.242v-1.352h7.414v1.094c-.729.776-1.452 1.808-2.168 3.094-.716 1.287-1.27 2.609-1.66 3.969-.282.958-.461 2.007-.54 3.148h-1.445c.016-.901.192-1.989.531-3.266.338-1.276.824-2.506 1.457-3.691.633-1.185 1.306-2.184 2.02-2.996h-5.609zm10.968 3.742c-.583-.213-1.016-.518-1.297-.914-.281-.396-.422-.87-.422-1.422 0-.833.299-1.534.898-2.102.599-.567 1.396-.852 2.391-.852 1 0 1.805.291 2.414.871.609.581.914 1.288.914 2.121 0 .531-.14.994-.418 1.387-.279.394-.702.697-1.27.91.703.229 1.238.599 1.605 1.109.367.511.551 1.12.551 1.828 0 .979-.347 1.802-1.039 2.469-.693.667-1.604 1-2.734 1s-2.042-.334-2.734-1.004c-.693-.669-1.039-1.504-1.039-2.504 0-.745.188-1.368.566-1.871.378-.501.916-.843 1.614-1.026zm-.734 2.906c0 .401.095.789.285 1.164.19.375.473.666.848.871.375.206.778.309 1.211.309.672 0 1.227-.216 1.664-.648.438-.432.656-.981.656-1.648 0-.677-.226-1.237-.676-1.68-.451-.442-1.015-.664-1.691-.664-.662 0-1.21.219-1.645.656-.435.437-.652.984-.652 1.64zm.453-5.289c0 .542.174.984.523 1.328.349.344.802.516 1.359.516.542 0 .985-.17 1.332-.512.346-.341.52-.759.52-1.254 0-.516-.179-.949-.535-1.301-.357-.352-.801-.527-1.332-.527-.537 0-.982.172-1.336.516-.354.344-.531.755-.531 1.234zm7.227 5.946l1.352-.125c.114.636.333 1.097.656 1.383.323.287.737.43 1.242.43.432 0 .811-.099 1.137-.297.325-.198.592-.462.801-.793.208-.331.383-.777.523-1.34S78 75.474 78 74.891c0-.062-.003-.156-.008-.281-.281.448-.666.812-1.152 1.09-.487.279-1.015.418-1.582.418-.948 0-1.75-.344-2.406-1.031s-.984-1.594-.984-2.719c0-1.161.342-2.096 1.027-2.805.685-.708 1.543-1.062 2.574-1.062.745 0 1.426.201 2.043.602.617.401 1.086.973 1.406 1.715s.48 1.816.48 3.223c0 1.464-.159 2.629-.477 3.496-.318.867-.791 1.527-1.418 1.98-.628.453-1.363.68-2.207.68-.896 0-1.628-.249-2.195-.746-.568-.499-.909-1.198-1.023-2.099zm5.757-5.055c0-.807-.215-1.448-.645-1.922-.43-.474-.947-.711-1.551-.711-.625 0-1.169.255-1.633.766-.464.511-.695 1.172-.695 1.984 0 .729.22 1.322.66 1.777.44.456.983.684 1.629.684.651 0 1.186-.228 1.605-.684.42-.455.63-1.087.63-1.894zm7.375 2.055c0-1.354.139-2.444.418-3.27.278-.825.692-1.462 1.242-1.91.549-.448 1.241-.672 2.074-.672.614 0 1.153.124 1.617.371.463.248.846.604 1.148 1.07.302.466.539 1.034.711 1.703.172.669.258 1.572.258 2.707 0 1.344-.138 2.429-.414 3.254-.276.826-.689 1.464-1.238 1.914-.55.451-1.244.676-2.082.676-1.104 0-1.972-.396-2.602-1.188-.754-.952-1.132-2.504-1.132-4.655zm1.446 0c0 1.88.22 3.132.66 3.754.44.623.983.934 1.629.934s1.188-.312 1.629-.938c.44-.625.66-1.875.66-3.75 0-1.885-.22-3.138-.66-3.758-.44-.62-.988-.93-1.645-.93-.646 0-1.162.273-1.547.82-.484.699-.726 1.988-.726 3.868zM99.406 80H98v-8.961c-.339.323-.783.646-1.332.969-.55.323-1.043.565-1.48.727v-1.359c.786-.37 1.474-.817 2.062-1.344.588-.526 1.005-1.036 1.25-1.531h.906V80zm10.992-1.352V80h-7.57c-.011-.338.044-.664.164-.977.192-.516.501-1.023.926-1.523.424-.5 1.038-1.078 1.84-1.734 1.245-1.021 2.086-1.829 2.523-2.426.438-.596.656-1.16.656-1.691 0-.557-.199-1.027-.598-1.41s-.918-.574-1.559-.574c-.677 0-1.219.203-1.625.609s-.612.969-.617 1.688l-1.445-.148c.099-1.078.471-1.899 1.117-2.465.646-.565 1.513-.848 2.602-.848 1.099 0 1.969.305 2.609.914s.961 1.365.961 2.266c0 .458-.094.909-.281 1.352-.188.443-.499.909-.934 1.398-.435.49-1.158 1.162-2.168 2.016-.844.708-1.386 1.189-1.625 1.441-.24.253-.438.507-.594.762h5.618zM146.94 80l4.398-11.453h1.633L157.659 80h-1.727l-1.336-3.469h-4.789L148.55 80h-1.61zm3.305-4.703h3.883l-1.195-3.172c-.365-.963-.636-1.755-.812-2.375-.146.734-.352 1.464-.617 2.188l-1.259 3.359zM158.69 80v-8.297h1.258v1.164c.26-.406.606-.733 1.039-.98.432-.247.924-.371 1.477-.371.614 0 1.118.128 1.512.383.393.255.67.612.832 1.07.656-.969 1.51-1.453 2.562-1.453.823 0 1.456.228 1.898.684.442.456.664 1.158.664 2.105V80h-1.398v-5.227c0-.562-.046-.967-.137-1.215-.091-.247-.257-.446-.496-.598-.24-.151-.521-.227-.844-.227-.583 0-1.068.194-1.453.582-.386.388-.578 1.009-.578 1.863V80h-1.406v-5.391c0-.625-.115-1.094-.344-1.406-.229-.312-.604-.469-1.125-.469-.396 0-.762.104-1.098.312-.336.208-.58.513-.73.914-.151.401-.227.979-.227 1.734V80h-1.406zm18.743-1.023c-.521.443-1.022.755-1.504.938-.482.182-.999.273-1.551.273-.912 0-1.612-.223-2.102-.668-.49-.445-.734-1.014-.734-1.707 0-.406.092-.777.277-1.113.185-.336.427-.605.727-.809.299-.203.637-.356 1.012-.461.276-.073.692-.143 1.25-.211 1.135-.135 1.971-.297 2.508-.484.005-.192.008-.315.008-.367 0-.573-.133-.977-.398-1.211-.359-.317-.894-.477-1.602-.477-.662 0-1.15.116-1.465.348-.315.232-.548.642-.699 1.23l-1.375-.188c.125-.588.331-1.063.617-1.426.286-.362.7-.641 1.242-.836.542-.195 1.169-.293 1.883-.293.708 0 1.284.083 1.727.25.442.167.768.376.977.629.208.253.354.572.438.957.047.24.07.672.07 1.297v1.875c0 1.308.03 2.134.09 2.48.06.347.178.679.355.996h-1.469c-.147-.291-.241-.632-.282-1.022zm-.118-3.141c-.511.208-1.276.386-2.297.531-.578.083-.987.177-1.227.281-.24.104-.425.257-.555.457-.13.201-.195.423-.195.668 0 .375.142.688.426.938.284.25.699.375 1.246.375.542 0 1.023-.118 1.445-.355.422-.237.731-.561.93-.973.151-.317.227-.786.227-1.406v-.516zM180.886 80V68.547h1.406V80h-1.406zm9-1.023c-.521.443-1.022.755-1.504.938-.482.182-.999.273-1.551.273-.912 0-1.612-.223-2.102-.668-.49-.445-.734-1.014-.734-1.707 0-.406.092-.777.277-1.113.185-.336.427-.605.727-.809.299-.203.637-.356 1.012-.461.276-.073.692-.143 1.25-.211 1.135-.135 1.971-.297 2.508-.484.005-.192.008-.315.008-.367 0-.573-.133-.977-.398-1.211-.359-.317-.894-.477-1.602-.477-.662 0-1.15.116-1.465.348-.315.232-.548.642-.699 1.23l-1.375-.188c.125-.588.331-1.063.617-1.426.286-.362.7-.641 1.242-.836.542-.195 1.169-.293 1.883-.293.708 0 1.284.083 1.727.25.442.167.768.376.977.629.208.253.354.572.438.957.047.24.07.672.07 1.297v1.875c0 1.308.03 2.134.09 2.48.06.347.178.679.355.996h-1.469c-.147-.291-.241-.632-.282-1.022zm-.117-3.141c-.511.208-1.276.386-2.297.531-.578.083-.987.177-1.227.281-.24.104-.425.257-.555.457-.13.201-.195.423-.195.668 0 .375.142.688.426.938.284.25.699.375 1.246.375.542 0 1.023-.118 1.445-.355.422-.237.731-.561.93-.973.151-.317.227-.786.227-1.406v-.516zM197.948 80V68.547h2.281l2.711 8.109c.25.755.432 1.32.547 1.695.13-.417.333-1.028.609-1.836l2.742-7.969h2.039V80h-1.461v-9.586L204.089 80h-1.367l-3.312-9.75V80h-1.462zm18.61-1.023c-.521.443-1.022.755-1.504.938-.482.182-.999.273-1.551.273-.912 0-1.612-.223-2.102-.668-.49-.445-.734-1.014-.734-1.707 0-.406.092-.777.277-1.113.185-.336.427-.605.727-.809.299-.203.637-.356 1.012-.461.276-.073.692-.143 1.25-.211 1.135-.135 1.971-.297 2.508-.484.005-.192.008-.315.008-.367 0-.573-.133-.977-.398-1.211-.359-.317-.894-.477-1.602-.477-.662 0-1.15.116-1.465.348-.315.232-.548.642-.699 1.23l-1.375-.188c.125-.588.331-1.063.617-1.426.286-.362.7-.641 1.242-.836.542-.195 1.169-.293 1.883-.293.708 0 1.284.083 1.727.25.442.167.768.376.977.629.208.253.354.572.438.957.047.24.07.672.07 1.297v1.875c0 1.308.03 2.134.09 2.48.06.347.178.679.355.996h-1.469c-.147-.291-.241-.632-.282-1.022zm-.118-3.141c-.511.208-1.276.386-2.297.531-.578.083-.987.177-1.227.281-.24.104-.425.257-.555.457-.13.201-.195.423-.195.668 0 .375.142.688.426.938.284.25.699.375 1.246.375.542 0 1.023-.118 1.445-.355.422-.237.731-.561.93-.973.151-.317.227-.786.227-1.406v-.516zM220.026 80v-8.297h1.266v1.258c.323-.588.621-.977.895-1.164s.574-.281.902-.281c.474 0 .956.151 1.445.453l-.484 1.305c-.344-.203-.688-.305-1.031-.305-.308 0-.583.093-.828.277-.245.185-.419.441-.523.77-.156.5-.234 1.047-.234 1.641V80h-1.408zm4.821-4.148c0-1.536.427-2.674 1.281-3.414.713-.614 1.583-.922 2.609-.922 1.141 0 2.073.374 2.797 1.121.724.748 1.086 1.78 1.086 3.098 0 1.068-.16 1.908-.48 2.52-.32.612-.787 1.087-1.398 1.426-.612.338-1.28.508-2.004.508-1.162 0-2.101-.372-2.816-1.117-.717-.746-1.075-1.819-1.075-3.22zm1.445 0c0 1.062.231 1.858.695 2.387.463.529 1.047.793 1.75.793.698 0 1.278-.266 1.742-.797.463-.531.695-1.341.695-2.43 0-1.026-.233-1.803-.699-2.332-.466-.528-1.046-.793-1.738-.793-.703 0-1.287.263-1.75.789-.464.526-.695 1.32-.695 2.383zM239.706 80v-1.219c-.646.938-1.523 1.406-2.633 1.406-.49 0-.947-.094-1.371-.281-.425-.188-.74-.423-.945-.707-.206-.284-.351-.631-.434-1.043-.058-.276-.086-.713-.086-1.312v-5.141h1.406v4.602c0 .734.028 1.229.086 1.484.088.37.276.66.562.871.286.211.641.316 1.062.316s.817-.108 1.188-.324c.37-.216.631-.51.785-.883.153-.372.23-.913.23-1.621v-4.445h1.406V80h-1.256zm3.461 0v-8.297h1.266v1.18c.609-.911 1.489-1.367 2.641-1.367.5 0 .959.09 1.379.27.419.18.733.416.941.707.208.292.354.638.438 1.039.052.261.078.716.078 1.367V80h-1.406v-5.047c0-.573-.055-1.001-.164-1.285-.109-.284-.304-.51-.582-.68-.279-.169-.605-.254-.98-.254-.599 0-1.116.19-1.551.57-.435.38-.652 1.102-.652 2.164V80h-1.408zm52.762-3.039l1.383.18c-.151.953-.538 1.699-1.16 2.238-.623.539-1.387.809-2.293.809-1.136 0-2.048-.371-2.738-1.113s-1.035-1.806-1.035-3.191c0-.896.148-1.68.445-2.352s.749-1.176 1.355-1.512c.606-.336 1.267-.504 1.98-.504.901 0 1.638.228 2.211.684.573.456.94 1.103 1.102 1.941l-1.367.211c-.13-.557-.361-.977-.691-1.258-.331-.281-.73-.422-1.199-.422-.708 0-1.284.254-1.727.762-.443.508-.664 1.312-.664 2.41 0 1.115.213 1.925.641 2.43.427.505.984.758 1.672.758.552 0 1.013-.169 1.383-.508.368-.339.603-.86.702-1.563zm2.062-1.109c0-1.536.427-2.674 1.281-3.414.713-.614 1.583-.922 2.609-.922 1.141 0 2.073.374 2.797 1.121.724.748 1.086 1.78 1.086 3.098 0 1.068-.16 1.908-.48 2.52-.32.612-.787 1.087-1.398 1.426-.612.338-1.28.508-2.004.508-1.162 0-2.101-.372-2.816-1.117-.717-.746-1.075-1.819-1.075-3.22zm1.446 0c0 1.062.231 1.858.695 2.387.463.529 1.047.793 1.75.793.698 0 1.278-.266 1.742-.797.463-.531.695-1.341.695-2.43 0-1.026-.233-1.803-.699-2.332-.466-.528-1.046-.793-1.738-.793-.703 0-1.287.263-1.75.789-.464.526-.695 1.32-.695 2.383zM312.851 80v-1.219c-.646.938-1.523 1.406-2.633 1.406-.49 0-.947-.094-1.371-.281-.425-.188-.74-.423-.945-.707-.206-.284-.351-.631-.434-1.043-.058-.276-.086-.713-.086-1.312v-5.141h1.406v4.602c0 .734.028 1.229.086 1.484.088.37.276.66.562.871.286.211.641.316 1.062.316s.817-.108 1.188-.324c.37-.216.631-.51.785-.883.153-.372.23-.913.23-1.621v-4.445h1.406V80h-1.256zm3.461 0v-8.297h1.266v1.18c.609-.911 1.489-1.367 2.641-1.367.5 0 .959.09 1.379.27.419.18.733.416.941.707.208.292.354.638.438 1.039.052.261.078.716.078 1.367V80h-1.406v-5.047c0-.573-.055-1.001-.164-1.285-.109-.284-.304-.51-.582-.68-.279-.169-.605-.254-.98-.254-.599 0-1.116.19-1.551.57-.435.38-.652 1.102-.652 2.164V80h-1.408zm14.312-3.039l1.383.18c-.151.953-.538 1.699-1.16 2.238-.623.539-1.387.809-2.293.809-1.136 0-2.048-.371-2.738-1.113s-1.035-1.806-1.035-3.191c0-.896.148-1.68.445-2.352s.749-1.176 1.355-1.512c.606-.336 1.267-.504 1.98-.504.901 0 1.638.228 2.211.684.573.456.94 1.103 1.102 1.941l-1.367.211c-.13-.557-.361-.977-.691-1.258-.331-.281-.73-.422-1.199-.422-.708 0-1.284.254-1.727.762-.443.508-.664 1.312-.664 2.41 0 1.115.213 1.925.641 2.43.427.505.984.758 1.672.758.552 0 1.013-.169 1.383-.508.369-.339.603-.86.702-1.563zm2.594-6.797v-1.617h1.406v1.617h-1.406zm0 9.836v-8.297h1.406V80h-1.406zm3.515 0V68.547h1.406V80h-1.406zm11.102-1.258l.203 1.242c-.396.083-.75.125-1.062.125-.511 0-.906-.081-1.188-.242s-.479-.374-.594-.637c-.115-.263-.172-.816-.172-1.66v-4.773h-1.031v-1.094h1.031v-2.055l1.398-.844v2.898h1.414v1.094h-1.414v4.852c0 .401.024.659.074.773.049.115.13.206.242.273.112.068.272.102.48.102.158.001.364-.017.619-.054zm6.789.235c-.521.443-1.022.755-1.504.938-.482.182-.999.273-1.551.273-.912 0-1.612-.223-2.102-.668-.49-.445-.734-1.014-.734-1.707 0-.406.092-.777.277-1.113.185-.336.427-.605.727-.809.299-.203.637-.356 1.012-.461.276-.073.692-.143 1.25-.211 1.135-.135 1.971-.297 2.508-.484.005-.192.008-.315.008-.367 0-.573-.133-.977-.398-1.211-.359-.317-.894-.477-1.602-.477-.662 0-1.15.116-1.465.348-.315.232-.548.642-.699 1.23l-1.375-.188c.125-.588.331-1.063.617-1.426.286-.362.7-.641 1.242-.836.542-.195 1.169-.293 1.883-.293.708 0 1.284.083 1.727.25.442.167.768.376.977.629.208.253.354.572.438.957.047.24.07.672.07 1.297v1.875c0 1.308.03 2.134.09 2.48.06.347.178.679.355.996h-1.469c-.147-.291-.24-.632-.282-1.022zm-.117-3.141c-.511.208-1.276.386-2.297.531-.578.083-.987.177-1.227.281-.24.104-.425.257-.555.457-.13.201-.195.423-.195.668 0 .375.142.688.426.938.284.25.699.375 1.246.375.542 0 1.023-.118 1.445-.355.422-.237.731-.561.93-.973.151-.317.227-.786.227-1.406v-.516zM357.171 80l3.031-4.312-2.805-3.984h1.758l1.273 1.945c.239.37.432.68.578.93.229-.344.44-.648.633-.914l1.398-1.961h1.68l-2.867 3.906 3.087 4.39h-1.727l-1.703-2.578-.453-.695-2.18 3.273h-1.703zm14.68 0h-1.305V68.547h1.406v4.086c.594-.745 1.352-1.117 2.273-1.117.51 0 .993.103 1.449.309.456.206.831.495 1.125.867.294.373.524.822.691 1.348.167.526.25 1.089.25 1.688 0 1.422-.352 2.521-1.055 3.297-.703.776-1.547 1.164-2.531 1.164-.979 0-1.748-.409-2.305-1.227V80zm-.016-4.211c0 .995.135 1.714.406 2.156.442.724 1.042 1.086 1.797 1.086.614 0 1.146-.267 1.594-.801.448-.534.672-1.329.672-2.387 0-1.083-.215-1.883-.645-2.398s-.949-.773-1.559-.773c-.615 0-1.146.267-1.594.801-.447.534-.671 1.306-.671 2.316zm7.625-5.625v-1.617h1.406v1.617h-1.406zm0 9.836v-8.297h1.406V80h-1.406zm3.516 0V68.547h1.406V80h-1.406zm3.554 0V68.547h1.406V80h-1.406zm51.387 0h-1.406v-8.961c-.339.323-.782.646-1.332.969-.55.323-1.043.565-1.48.727v-1.359c.786-.37 1.474-.817 2.062-1.344.589-.526 1.005-1.036 1.25-1.531h.906V80zm3.43-2.477l1.391-.219c.078.558.296.984.652 1.281s.855.445 1.496.445c.646 0 1.125-.131 1.438-.395.312-.263.469-.571.469-.926 0-.317-.138-.567-.414-.75-.192-.125-.672-.284-1.438-.477-1.031-.26-1.746-.485-2.145-.676-.398-.19-.7-.453-.906-.789s-.309-.707-.309-1.113c0-.37.085-.712.254-1.027.169-.315.399-.577.691-.785.219-.161.517-.298.895-.41.378-.112.782-.168 1.215-.168.651 0 1.223.094 1.715.281s.855.441 1.09.762.396.749.484 1.285l-1.375.188c-.062-.427-.243-.76-.543-1-.3-.239-.723-.359-1.27-.359-.646 0-1.106.107-1.383.32-.276.214-.414.464-.414.75 0 .183.058.347.172.492.114.151.294.276.539.375.141.052.555.172 1.242.359.995.266 1.688.483 2.082.652.394.169.702.416.926.738.224.323.336.724.336 1.203 0 .469-.137.91-.41 1.324s-.668.734-1.184.961-1.099.34-1.75.34c-1.078 0-1.899-.224-2.465-.672-.565-.445-.925-1.109-1.081-1.99zm11.632 1.219l.203 1.242c-.396.083-.75.125-1.062.125-.511 0-.906-.081-1.188-.242s-.479-.374-.594-.637c-.114-.263-.172-.816-.172-1.66v-4.773h-1.031v-1.094h1.031v-2.055l1.398-.844v2.898h1.414v1.094h-1.414v4.852c0 .401.024.659.074.773.05.115.13.206.242.273.112.068.272.102.48.102.159.001.365-.017.619-.054zM458.933 80V68.547h2.281l2.711 8.109c.25.755.433 1.32.547 1.695.13-.417.333-1.028.609-1.836l2.742-7.969h2.039V80h-1.461v-9.586L465.073 80h-1.367l-3.312-9.75V80h-1.461zm18.609-1.023c-.521.443-1.022.755-1.504.938s-.999.273-1.551.273c-.911 0-1.612-.223-2.102-.668s-.734-1.014-.734-1.707c0-.406.093-.777.277-1.113s.427-.605.727-.809.637-.356 1.012-.461c.276-.073.692-.143 1.25-.211 1.136-.135 1.972-.297 2.508-.484.005-.192.008-.315.008-.367 0-.573-.133-.977-.398-1.211-.359-.317-.894-.477-1.602-.477-.661 0-1.149.116-1.465.348-.315.232-.548.642-.699 1.23l-1.375-.188c.125-.588.331-1.063.617-1.426.286-.362.7-.641 1.242-.836s1.169-.293 1.883-.293c.708 0 1.284.083 1.727.25.442.167.769.376.977.629.208.253.354.572.438.957.047.24.07.672.07 1.297v1.875c0 1.308.03 2.134.09 2.48.06.347.179.679.355.996h-1.469c-.146-.291-.24-.632-.282-1.022zm-.117-3.141c-.511.208-1.276.386-2.297.531-.578.083-.987.177-1.227.281-.239.104-.425.257-.555.457-.13.201-.195.423-.195.668 0 .375.142.688.426.938s.699.375 1.246.375c.542 0 1.023-.118 1.445-.355.422-.237.731-.561.93-.973.151-.317.227-.786.227-1.406v-.516zm3.539 7.359l-.156-1.32c.308.083.575.125.805.125.312 0 .562-.052.75-.156.188-.104.341-.25.461-.438.089-.141.231-.49.43-1.047.026-.078.067-.193.125-.344l-3.148-8.312h1.516l1.727 4.805c.224.609.425 1.25.602 1.922.161-.646.354-1.276.578-1.891l1.773-4.836h1.406l-3.156 8.438c-.339.911-.602 1.539-.789 1.883-.25.463-.536.803-.859 1.02-.323.216-.708.324-1.156.324-.273-.001-.576-.058-.909-.173zm19.508-4.547V80h-7.57c-.011-.338.044-.664.164-.977.192-.516.501-1.023.926-1.523s1.038-1.078 1.84-1.734c1.245-1.021 2.086-1.829 2.523-2.426.438-.596.656-1.16.656-1.691 0-.557-.199-1.027-.598-1.41s-.918-.574-1.559-.574c-.677 0-1.219.203-1.625.609s-.612.969-.617 1.688l-1.445-.148c.099-1.078.472-1.899 1.117-2.465.646-.565 1.513-.848 2.602-.848 1.099 0 1.969.305 2.609.914s.961 1.365.961 2.266c0 .458-.094.909-.281 1.352-.188.443-.499.909-.934 1.398-.435.49-1.157 1.162-2.168 2.016-.844.708-1.386 1.189-1.625 1.441-.239.253-.438.507-.594.762h5.618zm1.507-4.296c0-1.354.14-2.444.418-3.27.278-.825.692-1.462 1.242-1.91.55-.448 1.241-.672 2.074-.672.614 0 1.153.124 1.617.371.464.248.847.604 1.148 1.07.302.466.539 1.034.711 1.703.172.669.258 1.572.258 2.707 0 1.344-.138 2.429-.414 3.254-.276.826-.688 1.464-1.238 1.914-.55.451-1.243.676-2.082.676-1.104 0-1.972-.396-2.602-1.188-.754-.952-1.132-2.504-1.132-4.655zm1.446 0c0 1.88.22 3.132.66 3.754.44.623.983.934 1.629.934s1.188-.312 1.629-.938.66-1.875.66-3.75c0-1.885-.22-3.138-.66-3.758-.44-.62-.988-.93-1.645-.93-.646 0-1.161.273-1.547.82-.484.699-.726 1.988-.726 3.868zM516.175 80h-1.406v-8.961c-.339.323-.782.646-1.332.969-.55.323-1.043.565-1.48.727v-1.359c.786-.37 1.474-.817 2.062-1.344.589-.526 1.005-1.036 1.25-1.531h.906V80zm10.898-8.648l-1.398.109c-.125-.552-.302-.953-.531-1.203-.38-.401-.849-.602-1.406-.602-.448 0-.841.125-1.18.375-.442.323-.792.794-1.047 1.414-.255.62-.388 1.503-.398 2.648.339-.516.753-.898 1.242-1.148s1.003-.375 1.539-.375c.938 0 1.735.345 2.395 1.035.659.69.988 1.582.988 2.676 0 .719-.155 1.387-.465 2.004s-.735 1.09-1.277 1.418-1.156.492-1.844.492c-1.172 0-2.128-.431-2.867-1.293-.739-.862-1.109-2.282-1.109-4.262 0-2.213.409-3.823 1.227-4.828.714-.875 1.675-1.312 2.883-1.312.901 0 1.64.253 2.215.758.573.505.919 1.203 1.033 2.094zm-5.742 4.937c0 .484.103.948.309 1.391.206.443.493.78.863 1.012.37.232.758.348 1.164.348.594 0 1.104-.239 1.531-.719.427-.479.641-1.13.641-1.953 0-.792-.211-1.415-.633-1.871-.422-.456-.953-.684-1.594-.684-.636 0-1.175.228-1.617.684-.442.455-.664 1.053-.664 1.792zM5.116 104.352c0-1.354.139-2.444.418-3.27.278-.825.692-1.462 1.242-1.91.55-.448 1.241-.672 2.075-.672.614 0 1.153.124 1.617.371.463.248.846.604 1.148 1.07.302.466.539 1.034.711 1.703.172.669.258 1.572.258 2.707 0 1.344-.138 2.429-.414 3.254-.276.826-.689 1.464-1.238 1.914-.55.451-1.244.676-2.082.676-1.104 0-1.972-.396-2.602-1.188-.755-.952-1.133-2.504-1.133-4.655zm1.446 0c0 1.88.22 3.132.66 3.754.44.623.983.934 1.629.934s1.188-.312 1.629-.938c.44-.625.66-1.875.66-3.75 0-1.885-.22-3.138-.66-3.758-.44-.62-.988-.93-1.645-.93-.646 0-1.162.273-1.547.82-.484.699-.726 1.988-.726 3.868zm7.546-4.305v-1.352h7.414v1.094c-.729.776-1.452 1.808-2.168 3.094-.716 1.287-1.27 2.609-1.66 3.969-.281.958-.461 2.008-.539 3.148H15.71c.016-.901.192-1.989.531-3.266.338-1.276.824-2.506 1.457-3.691.633-1.185 1.306-2.184 2.02-2.996h-5.61zm8.899 0v-1.352h7.414v1.094c-.729.776-1.452 1.808-2.168 3.094-.716 1.287-1.27 2.609-1.66 3.969-.281.958-.461 2.008-.539 3.148h-1.445c.016-.901.192-1.989.531-3.266.338-1.276.824-2.506 1.457-3.691.633-1.185 1.306-2.184 2.02-2.996h-5.61zm10.969 3.742c-.583-.213-1.016-.518-1.297-.914-.281-.396-.422-.87-.422-1.422 0-.833.299-1.534.898-2.102.599-.567 1.396-.852 2.391-.852 1 0 1.805.291 2.414.871.609.581.914 1.288.914 2.121 0 .531-.14.994-.418 1.387-.279.394-.702.697-1.27.91.703.229 1.238.599 1.605 1.109.367.511.551 1.12.551 1.828 0 .979-.347 1.802-1.039 2.469-.693.667-1.604 1-2.734 1s-2.042-.334-2.734-1.004c-.693-.669-1.039-1.504-1.039-2.504 0-.745.188-1.368.566-1.871.378-.501.915-.843 1.614-1.026zm-.735 2.906c0 .401.095.789.285 1.164.19.375.473.666.848.871.375.206.778.309 1.211.309.672 0 1.227-.216 1.664-.648.438-.432.656-.981.656-1.648 0-.677-.226-1.237-.676-1.68-.451-.442-1.015-.664-1.691-.664-.662 0-1.21.219-1.645.656-.435.437-.652.984-.652 1.64zm.453-5.289c0 .542.174.984.523 1.328.349.344.802.516 1.359.516.542 0 .985-.17 1.332-.512.346-.341.52-.759.52-1.254 0-.516-.179-.949-.535-1.301-.357-.352-.801-.527-1.332-.527-.537 0-.982.172-1.336.516-.354.344-.531.755-.531 1.234zm7.227 5.946l1.352-.125c.114.636.333 1.097.656 1.383.323.287.737.43 1.242.43.432 0 .811-.099 1.137-.297.325-.198.592-.462.801-.793.208-.331.383-.777.523-1.34s.211-1.135.211-1.719c0-.062-.003-.156-.008-.281-.281.448-.666.812-1.152 1.09-.487.279-1.015.418-1.582.418-.948 0-1.75-.344-2.406-1.031s-.984-1.594-.984-2.719c0-1.161.342-2.096 1.027-2.805.685-.708 1.543-1.062 2.574-1.062.745 0 1.426.201 2.043.602.617.401 1.086.973 1.406 1.715s.48 1.816.48 3.223c0 1.464-.159 2.629-.477 3.496-.318.867-.791 1.527-1.418 1.98-.628.453-1.363.68-2.207.68-.896 0-1.628-.249-2.195-.746-.568-.499-.909-1.198-1.023-2.099zm5.758-5.055c0-.807-.215-1.448-.645-1.922-.43-.474-.947-.711-1.551-.711-.625 0-1.169.255-1.633.766-.464.511-.695 1.172-.695 1.984 0 .729.22 1.322.66 1.777.44.456.983.684 1.629.684.651 0 1.186-.228 1.605-.684.42-.455.63-1.087.63-1.894zm7.375 2.055c0-1.354.139-2.444.418-3.27.278-.825.692-1.462 1.242-1.91.549-.448 1.241-.672 2.074-.672.614 0 1.153.124 1.617.371.463.248.846.604 1.148 1.07.302.466.539 1.034.711 1.703.172.669.258 1.572.258 2.707 0 1.344-.138 2.429-.414 3.254-.276.826-.689 1.464-1.238 1.914-.55.451-1.244.676-2.082.676-1.104 0-1.972-.396-2.602-1.188-.755-.952-1.132-2.504-1.132-4.655zm1.445 0c0 1.88.22 3.132.66 3.754.44.623.983.934 1.629.934s1.188-.312 1.629-.938c.44-.625.66-1.875.66-3.75 0-1.885-.22-3.138-.66-3.758-.44-.62-.988-.93-1.645-.93-.646 0-1.162.273-1.547.82-.484.699-.726 1.988-.726 3.868zM68.249 110h-1.406v-8.961c-.339.323-.783.646-1.332.969-.55.323-1.043.565-1.48.727v-1.359c.786-.37 1.474-.817 2.062-1.344.588-.526 1.005-1.036 1.25-1.531h.906V110zm10.992-1.352V110h-7.57c-.011-.338.044-.664.164-.977.192-.516.501-1.023.926-1.523.424-.5 1.038-1.078 1.84-1.734 1.245-1.021 2.086-1.829 2.523-2.426.438-.596.656-1.16.656-1.691 0-.557-.199-1.027-.598-1.41s-.918-.574-1.559-.574c-.677 0-1.219.203-1.625.609s-.612.969-.617 1.688l-1.445-.148c.099-1.078.471-1.899 1.117-2.465.646-.565 1.513-.848 2.602-.848 1.099 0 1.969.305 2.609.914s.961 1.365.961 2.266c0 .458-.094.909-.281 1.352-.188.443-.499.909-.934 1.398-.435.49-1.158 1.162-2.168 2.016-.844.708-1.386 1.189-1.625 1.441-.24.253-.438.507-.594.762h5.618zm5.961-1.671l1.406-.188c.161.797.436 1.371.824 1.723.388.352.86.527 1.418.527.661 0 1.22-.229 1.676-.688.456-.458.684-1.026.684-1.703 0-.646-.211-1.178-.633-1.598-.422-.419-.958-.629-1.609-.629-.266 0-.597.052-.992.156l.156-1.234c.094.011.169.016.227.016.599 0 1.138-.156 1.617-.469.479-.312.719-.794.719-1.445 0-.516-.175-.942-.523-1.281-.349-.338-.8-.508-1.352-.508-.547 0-1.003.172-1.367.516-.365.344-.599.859-.703 1.547l-1.406-.25c.172-.942.562-1.673 1.172-2.191.609-.518 1.367-.777 2.273-.777.625 0 1.2.134 1.727.402.526.269.928.634 1.207 1.098.278.464.418.956.418 1.477 0 .495-.133.945-.398 1.352s-.659.729-1.18.969c.677.156 1.203.48 1.578.973s.562 1.108.562 1.848c0 1-.365 1.848-1.094 2.543-.729.695-1.651 1.043-2.766 1.043-1.005 0-1.84-.299-2.504-.898-.664-.602-1.043-1.378-1.137-2.331zM98.601 110v-2.742h-4.969v-1.289l5.227-7.422h1.148v7.422h1.547v1.289h-1.547V110h-1.406zm0-4.031v-5.164l-3.586 5.164h3.586zm4.39 1.031l1.477-.125c.109.719.363 1.259.762 1.621.398.362.879.543 1.441.543.677 0 1.25-.255 1.719-.766.469-.51.703-1.188.703-2.031 0-.802-.226-1.435-.676-1.898-.451-.463-1.041-.695-1.77-.695-.453 0-.862.103-1.227.309-.365.206-.651.473-.859.801l-1.32-.172 1.109-5.883h5.695v1.344h-4.57l-.617 3.078c.688-.479 1.409-.719 2.164-.719 1 0 1.844.347 2.531 1.039.688.693 1.031 1.583 1.031 2.672 0 1.037-.302 1.933-.906 2.688-.734.927-1.737 1.391-3.008 1.391-1.042 0-1.892-.292-2.551-.875-.658-.585-1.034-1.358-1.128-2.322zm45.215 3V98.547h5.078c1.021 0 1.797.103 2.328.309.531.206.956.569 1.273 1.09.317.521.477 1.097.477 1.727 0 .812-.263 1.498-.789 2.055-.526.558-1.339.912-2.438 1.062.401.193.706.383.914.57.442.406.862.914 1.258 1.523L158.3 110h-1.906l-1.516-2.383c-.443-.688-.808-1.213-1.094-1.578-.287-.364-.543-.62-.77-.766-.227-.146-.457-.247-.691-.305-.172-.036-.453-.055-.844-.055h-1.758V110h-1.515zm1.516-6.398h3.258c.692 0 1.234-.071 1.625-.215.391-.143.688-.372.891-.688.203-.315.305-.657.305-1.027 0-.542-.197-.987-.59-1.336-.394-.349-1.015-.523-1.863-.523h-3.625v3.789zm9.312 2.25c0-1.536.427-2.674 1.281-3.414.713-.614 1.583-.922 2.609-.922 1.141 0 2.073.374 2.797 1.121.724.748 1.086 1.78 1.086 3.098 0 1.068-.16 1.908-.48 2.52-.32.612-.787 1.087-1.398 1.426-.612.338-1.28.508-2.004.508-1.162 0-2.101-.372-2.816-1.117-.717-.746-1.075-1.819-1.075-3.22zm1.445 0c0 1.062.231 1.858.695 2.387.463.529 1.047.793 1.75.793.698 0 1.278-.266 1.742-.797.463-.531.695-1.341.695-2.43 0-1.026-.233-1.803-.699-2.332-.466-.528-1.046-.793-1.738-.793-.703 0-1.287.263-1.75.789-.463.526-.695 1.32-.695 2.383zm7.977 4.148v-8.297h1.258v1.164c.26-.406.606-.733 1.039-.98.432-.247.924-.371 1.477-.371.614 0 1.118.128 1.512.383.393.255.67.612.832 1.07.656-.969 1.51-1.453 2.562-1.453.823 0 1.456.228 1.898.684.442.456.664 1.158.664 2.105V110H178.3v-5.227c0-.562-.046-.967-.137-1.215-.091-.247-.257-.446-.496-.598-.24-.151-.521-.227-.844-.227-.583 0-1.068.194-1.453.582-.386.388-.578 1.009-.578 1.863V110h-1.406v-5.391c0-.625-.115-1.094-.344-1.406-.229-.312-.604-.469-1.125-.469-.396 0-.762.104-1.098.312-.336.208-.58.513-.73.914-.151.401-.227.979-.227 1.734V110h-1.406zm18.742-1.023c-.521.443-1.022.755-1.504.938-.482.182-.999.273-1.551.273-.912 0-1.612-.223-2.102-.668-.49-.445-.734-1.014-.734-1.707 0-.406.092-.777.277-1.113.185-.336.427-.605.727-.809.299-.203.637-.356 1.012-.461.276-.073.692-.143 1.25-.211 1.135-.135 1.971-.297 2.508-.484.005-.192.008-.315.008-.367 0-.573-.133-.977-.398-1.211-.359-.317-.894-.477-1.602-.477-.662 0-1.15.116-1.465.348-.315.232-.548.642-.699 1.23l-1.375-.188c.125-.588.331-1.063.617-1.426.286-.362.7-.641 1.242-.836.542-.195 1.169-.293 1.883-.293.708 0 1.284.083 1.727.25.442.167.768.376.977.629.208.253.354.572.438.957.047.24.07.672.07 1.297v1.875c0 1.308.03 2.134.09 2.48.06.347.178.679.355.996h-1.469c-.147-.291-.24-.632-.282-1.022zm-.117-3.141c-.511.208-1.276.386-2.297.531-.578.083-.987.177-1.227.281-.24.104-.425.257-.555.457-.13.201-.195.423-.195.668 0 .375.142.688.426.938.284.25.699.375 1.246.375.542 0 1.023-.118 1.445-.355.422-.237.731-.561.93-.973.151-.317.227-.786.227-1.406v-.516zm3.602 4.164v-8.297h1.266v1.18c.609-.911 1.489-1.367 2.641-1.367.5 0 .959.09 1.379.27.419.18.733.416.941.707.208.292.354.638.438 1.039.052.261.078.716.078 1.367V110h-1.406v-5.047c0-.573-.055-1.001-.164-1.285-.109-.284-.304-.51-.582-.68-.279-.169-.605-.254-.98-.254-.599 0-1.116.19-1.551.57-.435.38-.652 1.102-.652 2.164V110h-1.408zm13.007-3.68l1.43-.125c.067.573.225 1.043.473 1.41.247.367.631.664 1.152.891.521.227 1.106.34 1.758.34.578 0 1.088-.086 1.531-.258.442-.172.772-.407.988-.707.216-.299.324-.626.324-.98 0-.359-.104-.673-.312-.941-.208-.268-.552-.493-1.031-.676-.308-.12-.987-.306-2.039-.559-1.052-.252-1.789-.491-2.211-.715-.547-.286-.955-.642-1.223-1.066-.269-.424-.402-.899-.402-1.426 0-.578.164-1.118.492-1.621.328-.502.807-.884 1.438-1.145.63-.26 1.331-.391 2.102-.391.849 0 1.598.137 2.246.41s1.147.676 1.496 1.207.536 1.133.562 1.805l-1.453.109c-.078-.724-.343-1.271-.793-1.641-.451-.37-1.116-.555-1.996-.555-.917 0-1.585.168-2.004.504-.419.336-.629.741-.629 1.215 0 .412.148.75.445 1.016.292.266 1.053.538 2.285.816 1.231.279 2.077.522 2.535.73.667.308 1.159.697 1.477 1.168.317.472.477 1.015.477 1.629 0 .609-.175 1.184-.523 1.723-.349.539-.851.958-1.504 1.258-.654.299-1.39.449-2.207.449-1.037 0-1.905-.151-2.605-.453-.701-.302-1.25-.756-1.648-1.363-.4-.606-.61-1.292-.631-2.058zm10.946 6.875l-.156-1.32c.307.083.575.125.805.125.312 0 .562-.052.75-.156.188-.104.341-.25.461-.438.088-.141.231-.49.43-1.047.026-.078.067-.193.125-.344l-3.148-8.312h1.516l1.727 4.805c.224.609.424 1.25.602 1.922.161-.646.354-1.276.578-1.891l1.773-4.836h1.406l-3.156 8.438c-.339.911-.602 1.539-.789 1.883-.25.463-.537.803-.859 1.02-.323.216-.708.324-1.156.324-.274-.001-.576-.058-.909-.173zm8.062-3.195v-8.297h1.258v1.164c.26-.406.606-.733 1.039-.98.432-.247.924-.371 1.477-.371.614 0 1.118.128 1.512.383.393.255.67.612.832 1.07.656-.969 1.51-1.453 2.562-1.453.823 0 1.456.228 1.898.684.442.456.664 1.158.664 2.105V110h-1.398v-5.227c0-.562-.046-.967-.137-1.215-.091-.247-.257-.446-.496-.598-.24-.151-.521-.227-.844-.227-.583 0-1.068.194-1.453.582-.386.388-.578 1.009-.578 1.863V110h-1.406v-5.391c0-.625-.115-1.094-.344-1.406-.229-.312-.604-.469-1.125-.469-.396 0-.762.104-1.098.312-.336.208-.58.513-.73.914-.151.401-.227.979-.227 1.734V110h-1.406zm18.742-1.023c-.521.443-1.022.755-1.504.938-.482.182-.999.273-1.551.273-.912 0-1.612-.223-2.102-.668-.49-.445-.734-1.014-.734-1.707 0-.406.092-.777.277-1.113.185-.336.427-.605.727-.809.299-.203.637-.356 1.012-.461.276-.073.692-.143 1.25-.211 1.135-.135 1.971-.297 2.508-.484.005-.192.008-.315.008-.367 0-.573-.133-.977-.398-1.211-.359-.317-.894-.477-1.602-.477-.662 0-1.15.116-1.465.348-.315.232-.548.642-.699 1.23l-1.375-.188c.125-.588.331-1.063.617-1.426.286-.362.7-.641 1.242-.836.542-.195 1.169-.293 1.883-.293.708 0 1.284.083 1.727.25.442.167.768.376.977.629.208.253.354.572.438.957.047.24.07.672.07 1.297v1.875c0 1.308.03 2.134.09 2.48.06.347.178.679.355.996h-1.469c-.146-.291-.24-.632-.282-1.022zm-.117-3.141c-.511.208-1.276.386-2.297.531-.578.083-.987.177-1.227.281-.24.104-.425.257-.555.457-.13.201-.195.423-.195.668 0 .375.142.688.426.938.284.25.699.375 1.246.375.542 0 1.023-.118 1.445-.355.422-.237.731-.561.93-.973.151-.317.227-.786.227-1.406v-.516zm3.602 4.164v-8.297h1.266v1.18c.609-.911 1.489-1.367 2.641-1.367.5 0 .959.09 1.379.27.419.18.733.416.941.707.208.292.354.638.438 1.039.052.261.078.716.078 1.367V110h-1.406v-5.047c0-.573-.055-1.001-.164-1.285-.109-.284-.304-.51-.582-.68-.279-.169-.605-.254-.98-.254-.599 0-1.116.19-1.551.57-.435.38-.652 1.102-.652 2.164V110h-1.408zm8.336-2.477l1.391-.219c.078.558.295.984.652 1.281.356.297.855.445 1.496.445.646 0 1.125-.131 1.438-.395.312-.263.469-.571.469-.926 0-.317-.138-.567-.414-.75-.193-.125-.672-.284-1.438-.477-1.031-.26-1.746-.485-2.145-.676-.398-.19-.701-.453-.906-.789-.206-.336-.309-.707-.309-1.113 0-.37.084-.712.254-1.027.169-.315.399-.577.691-.785.219-.161.517-.298.895-.41.377-.112.782-.168 1.215-.168.651 0 1.223.094 1.715.281s.855.441 1.09.762.396.749.484 1.285l-1.375.188c-.062-.427-.244-.76-.543-1-.3-.239-.723-.359-1.27-.359-.646 0-1.107.107-1.383.32-.276.214-.414.464-.414.75 0 .183.057.347.172.492.114.151.294.276.539.375.141.052.555.172 1.242.359.995.266 1.688.483 2.082.652.393.169.702.416.926.738.224.323.336.724.336 1.203 0 .469-.137.91-.41 1.324s-.668.734-1.184.961-1.099.34-1.75.34c-1.078 0-1.9-.224-2.465-.672-.565-.445-.925-1.109-1.081-1.99zm8.57 2.477V98.547h1.406v6.531l3.328-3.375h1.82l-3.172 3.078 3.492 5.219h-1.734l-2.742-4.242-.992.953V110h-1.406zm8-9.836v-1.617h1.406v1.617h-1.406zm0 9.836v-8.297h1.406V110h-1.406zm26.082-3.039l1.383.18c-.151.953-.538 1.699-1.16 2.238-.623.539-1.387.809-2.293.809-1.136 0-2.048-.371-2.738-1.113s-1.035-1.806-1.035-3.191c0-.896.148-1.68.445-2.352s.749-1.176 1.355-1.512c.606-.336 1.267-.504 1.98-.504.901 0 1.638.228 2.211.684.573.456.94 1.103 1.102 1.941l-1.367.211c-.13-.557-.361-.977-.691-1.258-.331-.281-.73-.422-1.199-.422-.708 0-1.284.254-1.727.762-.443.508-.664 1.312-.664 2.41 0 1.115.213 1.925.641 2.43.427.505.984.758 1.672.758.552 0 1.013-.169 1.383-.508.368-.339.602-.86.702-1.563zm2.062-1.109c0-1.536.427-2.674 1.281-3.414.713-.614 1.583-.922 2.609-.922 1.141 0 2.073.374 2.797 1.121.724.748 1.086 1.78 1.086 3.098 0 1.068-.16 1.908-.48 2.52-.32.612-.787 1.087-1.398 1.426-.612.338-1.28.508-2.004.508-1.162 0-2.101-.372-2.816-1.117-.717-.746-1.075-1.819-1.075-3.22zm1.445 0c0 1.062.231 1.858.695 2.387.463.529 1.047.793 1.75.793.698 0 1.278-.266 1.742-.797.463-.531.695-1.341.695-2.43 0-1.026-.233-1.803-.699-2.332-.466-.528-1.046-.793-1.738-.793-.703 0-1.287.263-1.75.789-.463.526-.695 1.32-.695 2.383zM312.834 110v-1.219c-.646.938-1.523 1.406-2.633 1.406-.49 0-.947-.094-1.371-.281-.425-.188-.74-.423-.945-.707-.206-.284-.351-.631-.434-1.043-.058-.276-.086-.713-.086-1.312v-5.141h1.406v4.602c0 .734.028 1.229.086 1.484.088.37.276.66.562.871.286.211.641.316 1.062.316s.817-.108 1.188-.324c.37-.216.631-.51.785-.883.153-.372.23-.913.23-1.621v-4.445h1.406V110h-1.256zm3.461 0v-8.297h1.266v1.18c.609-.911 1.489-1.367 2.641-1.367.5 0 .959.09 1.379.27.419.18.733.416.941.707.208.292.354.638.438 1.039.052.261.078.716.078 1.367V110h-1.406v-5.047c0-.573-.055-1.001-.164-1.285-.109-.284-.304-.51-.582-.68-.279-.169-.605-.254-.98-.254-.599 0-1.116.19-1.551.57-.435.38-.652 1.102-.652 2.164V110h-1.408zm14.313-3.039l1.383.18c-.151.953-.538 1.699-1.16 2.238-.623.539-1.387.809-2.293.809-1.136 0-2.048-.371-2.738-1.113s-1.035-1.806-1.035-3.191c0-.896.148-1.68.445-2.352s.749-1.176 1.355-1.512c.606-.336 1.267-.504 1.98-.504.901 0 1.638.228 2.211.684.573.456.94 1.103 1.102 1.941l-1.367.211c-.13-.557-.361-.977-.691-1.258-.331-.281-.73-.422-1.199-.422-.708 0-1.284.254-1.727.762-.443.508-.664 1.312-.664 2.41 0 1.115.213 1.925.641 2.43.427.505.984.758 1.672.758.552 0 1.013-.169 1.383-.508.368-.339.603-.86.702-1.563zm2.594-6.797v-1.617h1.406v1.617h-1.406zm0 9.836v-8.297h1.406V110h-1.406zm3.515 0V98.547h1.406V110h-1.406zm11.102-1.258l.203 1.242c-.396.083-.75.125-1.062.125-.511 0-.906-.081-1.188-.242s-.479-.374-.594-.637c-.115-.263-.172-.816-.172-1.66v-4.773h-1.031v-1.094h1.031v-2.055l1.398-.844v2.898h1.414v1.094h-1.414v4.852c0 .401.024.659.074.773.049.115.13.206.242.273.112.068.272.102.48.102.158.001.363-.017.619-.054zm6.789.235c-.521.443-1.022.755-1.504.938-.482.182-.999.273-1.551.273-.912 0-1.612-.223-2.102-.668-.49-.445-.734-1.014-.734-1.707 0-.406.092-.777.277-1.113.185-.336.427-.605.727-.809.299-.203.637-.356 1.012-.461.276-.073.692-.143 1.25-.211 1.135-.135 1.971-.297 2.508-.484.005-.192.008-.315.008-.367 0-.573-.133-.977-.398-1.211-.359-.317-.894-.477-1.602-.477-.662 0-1.15.116-1.465.348-.315.232-.548.642-.699 1.23l-1.375-.188c.125-.588.331-1.063.617-1.426.286-.362.7-.641 1.242-.836.542-.195 1.169-.293 1.883-.293.708 0 1.284.083 1.727.25.442.167.768.376.977.629.208.253.354.572.438.957.047.24.07.672.07 1.297v1.875c0 1.308.03 2.134.09 2.48.06.347.178.679.355.996h-1.469c-.147-.291-.241-.632-.282-1.022zm-.117-3.141c-.511.208-1.276.386-2.297.531-.578.083-.987.177-1.227.281-.24.104-.425.257-.555.457-.13.201-.195.423-.195.668 0 .375.142.688.426.938.284.25.699.375 1.246.375.542 0 1.023-.118 1.445-.355.422-.237.731-.561.93-.973.151-.317.227-.786.227-1.406v-.516zm2.664 4.164l3.031-4.312-2.805-3.984h1.758l1.273 1.945c.239.37.432.68.578.93.229-.344.44-.648.633-.914l1.398-1.961h1.68l-2.867 3.906 3.086 4.39h-1.727l-1.703-2.578-.453-.695-2.18 3.273h-1.702zm14.679 0h-1.305V98.547h1.406v4.086c.594-.745 1.352-1.117 2.273-1.117.51 0 .993.103 1.449.309.456.206.831.495 1.125.867.294.373.524.822.691 1.348.167.526.25 1.089.25 1.688 0 1.422-.352 2.521-1.055 3.297-.703.776-1.547 1.164-2.531 1.164-.979 0-1.748-.409-2.305-1.227V110zm-.015-4.211c0 .995.135 1.714.406 2.156.442.724 1.042 1.086 1.797 1.086.614 0 1.146-.267 1.594-.801.448-.534.672-1.329.672-2.387 0-1.083-.215-1.883-.645-2.398s-.949-.773-1.559-.773c-.615 0-1.146.267-1.594.801-.448.534-.671 1.306-.671 2.316zm7.625-5.625v-1.617h1.406v1.617h-1.406zm0 9.836v-8.297h1.406V110h-1.406zm3.515 0V98.547h1.406V110h-1.406zm3.555 0V98.547h1.406V110h-1.406zm51.387 0h-1.406v-8.961c-.339.323-.782.646-1.332.969-.55.323-1.043.565-1.48.727v-1.359c.786-.37 1.474-.817 2.062-1.344.589-.526 1.005-1.036 1.25-1.531h.906V110zm3.43-2.477l1.391-.219c.078.558.296.984.652 1.281s.855.445 1.496.445c.646 0 1.125-.131 1.438-.395.312-.263.469-.571.469-.926 0-.317-.138-.567-.414-.75-.192-.125-.672-.284-1.438-.477-1.031-.26-1.746-.485-2.145-.676-.398-.19-.7-.453-.906-.789s-.309-.707-.309-1.113c0-.37.085-.712.254-1.027.169-.315.399-.577.691-.785.219-.161.517-.298.895-.41.378-.112.782-.168 1.215-.168.651 0 1.223.094 1.715.281s.855.441 1.09.762.396.749.484 1.285l-1.375.188c-.062-.427-.243-.76-.543-1-.3-.239-.723-.359-1.27-.359-.646 0-1.106.107-1.383.32-.276.214-.414.464-.414.75 0 .183.058.347.172.492.114.151.294.276.539.375.141.052.555.172 1.242.359.995.266 1.688.483 2.082.652.394.169.702.416.926.738.224.323.336.724.336 1.203 0 .469-.137.91-.41 1.324s-.668.734-1.184.961-1.099.34-1.75.34c-1.078 0-1.899-.224-2.465-.672-.564-.445-.925-1.109-1.081-1.99zm11.633 1.219l.203 1.242c-.396.083-.75.125-1.062.125-.511 0-.906-.081-1.188-.242s-.479-.374-.594-.637c-.114-.263-.172-.816-.172-1.66v-4.773h-1.031v-1.094h1.031v-2.055l1.398-.844v2.898h1.414v1.094h-1.414v4.852c0 .401.024.659.074.773.05.115.13.206.242.273.112.068.272.102.48.102.158.001.364-.017.619-.054zm5.953 1.258V98.547h2.281l2.711 8.109c.25.755.433 1.32.547 1.695.13-.417.333-1.028.609-1.836l2.742-7.969h2.039V110h-1.461v-9.586L465.058 110h-1.367l-3.312-9.75V110h-1.462zm18.609-1.023c-.521.443-1.022.755-1.504.938s-.999.273-1.551.273c-.911 0-1.612-.223-2.102-.668s-.734-1.014-.734-1.707c0-.406.093-.777.277-1.113s.427-.605.727-.809.637-.356 1.012-.461c.276-.073.692-.143 1.25-.211 1.136-.135 1.972-.297 2.508-.484.005-.192.008-.315.008-.367 0-.573-.133-.977-.398-1.211-.359-.317-.894-.477-1.602-.477-.661 0-1.149.116-1.465.348-.315.232-.548.642-.699 1.23l-1.375-.188c.125-.588.331-1.063.617-1.426.286-.362.7-.641 1.242-.836s1.169-.293 1.883-.293c.708 0 1.284.083 1.727.25.442.167.769.376.977.629.208.253.354.572.438.957.047.24.07.672.07 1.297v1.875c0 1.308.03 2.134.09 2.48.06.347.179.679.355.996h-1.469c-.146-.291-.24-.632-.282-1.022zm-.117-3.141c-.511.208-1.276.386-2.297.531-.578.083-.987.177-1.227.281-.239.104-.425.257-.555.457-.13.201-.195.423-.195.668 0 .375.142.688.426.938s.699.375 1.246.375c.542 0 1.023-.118 1.445-.355.422-.237.731-.561.93-.973.151-.317.227-.786.227-1.406v-.516zm3.539 7.359l-.156-1.32c.308.083.575.125.805.125.312 0 .562-.052.75-.156.188-.104.341-.25.461-.438.089-.141.231-.49.43-1.047.026-.078.067-.193.125-.344l-3.148-8.312h1.516l1.727 4.805c.224.609.425 1.25.602 1.922.161-.646.354-1.276.578-1.891l1.773-4.836h1.406l-3.156 8.438c-.339.911-.602 1.539-.789 1.883-.25.463-.536.803-.859 1.02-.323.216-.708.324-1.156.324-.273-.001-.576-.058-.909-.173zm19.508-4.547V110h-7.57c-.011-.338.044-.664.164-.977.192-.516.501-1.023.926-1.523s1.038-1.078 1.84-1.734c1.245-1.021 2.086-1.829 2.523-2.426.438-.596.656-1.16.656-1.691 0-.557-.199-1.027-.598-1.41s-.918-.574-1.559-.574c-.677 0-1.219.203-1.625.609s-.612.969-.617 1.688l-1.445-.148c.099-1.078.472-1.899 1.117-2.465.646-.565 1.513-.848 2.602-.848 1.099 0 1.969.305 2.609.914s.961 1.365.961 2.266c0 .458-.094.909-.281 1.352-.188.443-.499.909-.934 1.398-.435.49-1.157 1.162-2.168 2.016-.844.708-1.386 1.189-1.625 1.441-.239.253-.438.507-.594.762h5.618zm1.508-4.296c0-1.354.14-2.444.418-3.27.278-.825.692-1.462 1.242-1.91.55-.448 1.241-.672 2.074-.672.614 0 1.153.124 1.617.371.464.248.847.604 1.148 1.07.302.466.539 1.034.711 1.703.172.669.258 1.572.258 2.707 0 1.344-.138 2.429-.414 3.254-.276.826-.688 1.464-1.238 1.914-.55.451-1.243.676-2.082.676-1.104 0-1.972-.396-2.602-1.188-.754-.952-1.132-2.504-1.132-4.655zm1.445 0c0 1.88.22 3.132.66 3.754.44.623.983.934 1.629.934s1.188-.312 1.629-.938.66-1.875.66-3.75c0-1.885-.22-3.138-.66-3.758-.44-.62-.988-.93-1.645-.93-.646 0-1.161.273-1.547.82-.484.699-.726 1.988-.726 3.868zm12.75 5.648h-1.406v-8.961c-.339.323-.782.646-1.332.969-.55.323-1.043.565-1.48.727v-1.359c.786-.37 1.474-.817 2.062-1.344.589-.526 1.005-1.036 1.25-1.531h.906V110zm10.899-8.648l-1.398.109c-.125-.552-.302-.953-.531-1.203-.38-.401-.849-.602-1.406-.602-.448 0-.841.125-1.18.375-.442.323-.792.794-1.047 1.414-.255.62-.388 1.503-.398 2.648.339-.516.753-.898 1.242-1.148s1.003-.375 1.539-.375c.938 0 1.735.345 2.395 1.035.659.69.988 1.582.988 2.676 0 .719-.155 1.387-.465 2.004s-.735 1.09-1.277 1.418-1.156.492-1.844.492c-1.172 0-2.128-.431-2.867-1.293-.739-.862-1.109-2.282-1.109-4.262 0-2.213.409-3.823 1.227-4.828.714-.875 1.675-1.312 2.883-1.312.901 0 1.64.253 2.215.758.573.505.918 1.203 1.033 2.094zm-5.743 4.937c0 .484.103.948.309 1.391.206.443.493.78.863 1.012.37.232.758.348 1.164.348.594 0 1.104-.239 1.531-.719.427-.479.641-1.13.641-1.953 0-.792-.211-1.415-.633-1.871-.422-.456-.953-.684-1.594-.684-.636 0-1.175.228-1.617.684-.442.455-.664 1.053-.664 1.792z" fill="#0B0C0C"/></svg>