<?xml version="1.0" encoding="utf-8"?>
<!-- Generator: Adobe Illustrator 26.1.0, SVG Export Plug-In . SVG Version: 6.00 Build 0)  -->
<svg version="1.1" id="Layer_1" xmlns="http://www.w3.org/2000/svg" xmlns:xlink="http://www.w3.org/1999/xlink" x="0px" y="0px"
	 viewBox="0 0 315 391.2" style="enable-background:new 0 0 315 391.2;" xml:space="preserve">
<style type="text/css">
	.st0{fill:#0B0C0C;}
	.st1{stroke:#D6D6D6;stroke-width:2;}
	.st2{fill:#FFFFFF;}
	.st3{opacity:0.1;fill:url(#SVGID_1_);enable-background:new    ;}
	.st4{opacity:0.1;fill:url(#SVGID_00000142891751895699489350000009936581443693620365_);enable-background:new    ;}
	.st5{fill:#C0C2C4;}
	.st6{fill:none;stroke:#000000;stroke-width:1.3;stroke-miterlimit:1;}
	.st7{fill:none;stroke:#000000;stroke-width:1.3;stroke-linecap:square;stroke-miterlimit:1;}
	.st8{fill:url(#SVGID_00000073688471428445490140000015021218191645029816_);}
	.st9{fill-rule:evenodd;clip-rule:evenodd;fill:#1D70B8;}
	.st10{fill-rule:evenodd;clip-rule:evenodd;fill:#EFEFEF;}
	.st11{fill:#EFEFEF;}
	.st12{fill:#A0A0A0;}
</style>
<g id="Layer_1_00000136381080743105617000000013458867307881724311_" focusable="false">
	<g>
		<path id="phoneOuter" class="st0" d="M18,0h279c9.9,0,18,8.1,18,18v411H0V18C0,8.1,8.1,0,18,0z"/>
		<path id="phoneEdge" class="st1" d="M18,5h279c7,0.5,12.5,6,13,13v411 M5,429V18c0.5-7,6-12.5,13-13"/>
		<path id="phoneScreen" class="st2" d="M24,18h267c3.3,0,6,2.7,6,6v405H18V24C18,20.7,20.7,18,24,18z"/>
		<path id="phoneNotch" class="st0" d="M81,13.3h153V26c0,2.2-1.8,4-4,4H85c-2.2,0-4-1.8-4-4V13.3z"/>
	</g>
</g>
<g id="Layer_3">
	
		<linearGradient id="SVGID_1_" gradientUnits="userSpaceOnUse" x1="153.0088" y1="379.981" x2="163.2233" y2="369.7666" gradientTransform="matrix(1 0 0 -1 0 391.8898)">
		<stop  offset="0" style="stop-color:#FFFFFF"/>
		<stop  offset="1" style="stop-color:#000000"/>
	</linearGradient>
	<circle class="st3" cx="158.1" cy="17" r="7.2"/>
	
		<linearGradient id="SVGID_00000163765311927638638100000017581024293250333058_" gradientUnits="userSpaceOnUse" x1="155.8199" y1="372.6096" x2="160.4142" y2="377.204" gradientTransform="matrix(1 0 0 -1 0 391.8898)">
		<stop  offset="0" style="stop-color:#FFFFFF"/>
		<stop  offset="1" style="stop-color:#000000"/>
	</linearGradient>
	
		<circle style="opacity:0.1;fill:url(#SVGID_00000163765311927638638100000017581024293250333058_);enable-background:new    ;" cx="158.1" cy="17" r="3.2"/>
</g>
<g id="Layer_2_00000124874627165131938390000018260285694037893516_">
	<g>
		<g>
			<path class="st5" d="M280.2,302.3c0,4.7-3.8,8.5-8.5,8.5H41.3c-4.7,0-8.5-3.8-8.5-8.5V191.7c0-4.7,3.8-8.5,8.5-8.5h230.4
				c4.7,0,8.5,3.8,8.5,8.5L280.2,302.3L280.2,302.3z"/>
		</g>
		<polygon class="st5" points="263.7,306 287.2,320.4 270.9,285.9 		"/>
	</g>
	<g>
		<line class="st6" x1="36.8" y1="50.6" x2="50.1" y2="50.6"/>
		<line class="st7" x1="36.8" y1="50.4" x2="42.2" y2="45"/>
		<line class="st7" x1="36.8" y1="50.4" x2="42.2" y2="55.8"/>
	</g>
	
		<linearGradient id="SVGID_00000069383725855824679730000011938490871460628362_" gradientUnits="userSpaceOnUse" x1="123.2" y1="115" x2="191.8" y2="115">
		<stop  offset="0" style="stop-color:#8EFFCA"/>
		<stop  offset="0.5736" style="stop-color:#DEC8F0"/>
		<stop  offset="0.8422" style="stop-color:#FFB2FF"/>
	</linearGradient>
	<circle style="fill:url(#SVGID_00000069383725855824679730000011938490871460628362_);" cx="157.5" cy="115" r="34.3"/>
	<g>
		<g>
			<g>
				<path class="st9" d="M186.8,128.6c3.8,2.4,7.2,3.5,10.2,3.3c0.5,10.4-3.3,16.6-10.1,19.1c-6.6-2.4-10.5-8.3-10.2-19.3
					C180.1,131.9,183.5,131.1,186.8,128.6L186.8,128.6z"/>
			</g>
			<g>
				<path class="st10" d="M186.8,128.6c3.8,2.4,7.2,3.5,10.2,3.3c0.5,10.4-3.3,16.6-10.1,19.1c-6.6-2.4-10.5-8.3-10.2-19.3
					C180.1,131.9,183.5,131.1,186.8,128.6L186.8,128.6z M186.8,129.9c3.4,2.1,6.4,3.1,9,2.9c0.5,9.2-2.9,14.7-9,16.9
					c-5.8-2.1-9.3-7.3-9-17.1C180.9,132.8,183.9,132.1,186.8,129.9L186.8,129.9z"/>
			</g>
		</g>
		<polygon class="st11" points="186.4,144.4 186.3,144.5 185.5,143.7 184.7,142.9 181.6,139.8 183.3,138.1 186.1,140.9 190.7,134.7 
			192.6,136.1 187.9,142.6 		"/>
	</g>
	<rect x="43.4" y="197.8" class="st12" width="227.1" height="18.2"/>
	<rect x="43.4" y="224.5" class="st12" width="227.1" height="18.2"/>
	<rect x="43.4" y="251.2" class="st12" width="227.1" height="18.2"/>
	<rect x="43.4" y="277.8" class="st12" width="227.1" height="18.2"/>
</g>
</svg>
