<?xml version="1.0" encoding="utf-8"?>
<!-- Generator: Adobe Illustrator 26.1.0, SVG Export Plug-In . SVG Version: 6.00 Build 0)  -->
<svg version="1.1" xmlns="http://www.w3.org/2000/svg" xmlns:xlink="http://www.w3.org/1999/xlink" x="0px" y="0px"
	 viewBox="0 0 315 391.2" style="enable-background:new 0 0 315 391.2;" xml:space="preserve">
<style type="text/css">
	.st0{fill:#0B0C0C;}
	.st1{stroke:#D6D6D6;stroke-width:2;}
	.st2{fill:#FFFFFF;}
	.st3{opacity:0.1;fill:url(#SVGID_1_);}
	.st4{opacity:0.1;fill:url(#SVGID_00000087388914269819174280000006732056056254144665_);}
	.st5{fill:#C0C2C4;}
	.st6{fill:none;stroke:#000000;stroke-width:1.3;stroke-miterlimit:1;}
	.st7{fill:none;stroke:#000000;stroke-width:1.3;stroke-linecap:square;stroke-miterlimit:1;}
	.st8{fill-rule:evenodd;clip-rule:evenodd;fill:#1D70B8;}
	.st9{fill-rule:evenodd;clip-rule:evenodd;fill:#EFEFEF;}
	.st10{fill:#EFEFEF;}
	.st11{fill:#A0A0A0;}
</style>
<g id="Layer_1" focusable="false">
	<g>
		<path id="phoneOuter" class="st0" d="M18,0h279c9.9,0,18,8.1,18,18v411H0V18C0,8.1,8.1,0,18,0z"/>
		<path id="phoneEdge" class="st1" d="M18,5h279c7,0.5,12.5,6,13,13v411 M5,429V18c0.5-7,6-12.5,13-13"/>
		<path id="phoneScreen" class="st2" d="M24,18h267c3.3,0,6,2.7,6,6v405H18V24C18,20.7,20.7,18,24,18z"/>
		<path id="phoneNotch" class="st0" d="M81,13.3h153V26c0,2.2-1.8,4-4,4H85c-2.2,0-4-1.8-4-4V13.3z"/>
	</g>
</g>
<g id="Layer_3">
	<linearGradient id="SVGID_1_" gradientUnits="userSpaceOnUse" x1="153.0268" y1="11.8928" x2="163.2413" y2="22.1072">
		<stop  offset="0" style="stop-color:#FFFFFF"/>
		<stop  offset="1" style="stop-color:#000000"/>
	</linearGradient>
	<circle class="st3" cx="158.1" cy="17" r="7.2"/>
	
		<linearGradient id="SVGID_00000027596626769861334940000000962389733559069842_" gradientUnits="userSpaceOnUse" x1="155.8369" y1="19.2972" x2="160.4312" y2="14.7028">
		<stop  offset="0" style="stop-color:#FFFFFF"/>
		<stop  offset="1" style="stop-color:#000000"/>
	</linearGradient>
	<circle style="opacity:0.1;fill:url(#SVGID_00000027596626769861334940000000962389733559069842_);" cx="158.1" cy="17" r="3.2"/>
</g>
<g id="Layer_2">
	<g>
		<g>
			<path class="st5" d="M280.2,302.3c0,4.7-3.8,8.5-8.5,8.5H41.3c-4.7,0-8.5-3.8-8.5-8.5V191.7c0-4.7,3.8-8.5,8.5-8.5h230.4
				c4.7,0,8.5,3.8,8.5,8.5V302.3z"/>
		</g>
		<polygon class="st5" points="263.7,306 287.2,320.4 270.9,285.9 		"/>
	</g>
	<g>
		<line class="st6" x1="36.8" y1="50.6" x2="50.1" y2="50.6"/>
		<line class="st7" x1="36.8" y1="50.4" x2="42.2" y2="45"/>
		<line class="st7" x1="36.8" y1="50.4" x2="42.2" y2="55.8"/>
	</g>
	<circle cx="157.5" cy="115" r="34.3"/>
	<g>
		<path class="st2" d="M166,107.1c-1.3,0.5-2.6-0.1-3.1-1.3s0.1-2.6,1.3-3.1s2.6,0.1,3.1,1.3S167.2,106.6,166,107.1"/>
		<path class="st2" d="M158.4,115.8c-1.2,0.5-2.6-0.1-3.1-1.3s0.1-2.6,1.3-3.1s2.6,0.1,3.1,1.3S159.6,115.3,158.4,115.8"/>
		<path class="st2" d="M172.4,111c-1.3,0.5-2.6-0.1-3.1-1.3s0.1-2.6,1.3-3.1s2.6,0.1,3.1,1.3S173.7,110.5,172.4,111"/>
		<path class="st2" d="M176.7,117.2c-1.3,0.5-2.6-0.1-3.1-1.3s0.1-2.6,1.3-3.1s2.6,0.1,3.1,1.3C178.5,115.3,177.8,116.7,176.7,117.2
			"/>
		<path class="st2" d="M158.8,99.8l3,1.6v-4.4l-3,0.9l-0.3-0.3l1.2-3.9h-4.4l1.2,3.9l-0.3,0.3c-0.1,0.1-3-0.9-3-0.9v4.4l3-1.6
			c0.1,0.1,0.1,0.3,0.3,0.3l-1.7,5.2c-0.1,0.3-0.1,0.5-0.1,0.8c0,1.4,1,2.6,2.5,2.8h0.9c1.3-0.3,2.5-1.4,2.5-2.7
			c0-0.3,0-0.5-0.1-0.8l-1.7-5.2C158.5,99.9,158.7,99.9,158.8,99.8"/>
		<path class="st2" d="M149,107.1c1.2,0.5,2.6-0.1,3.1-1.3s-0.1-2.6-1.3-3.1s-2.6,0.1-3.1,1.3S147.7,106.6,149,107.1"/>
		<path class="st2" d="M142.5,111c1.2,0.5,2.6-0.1,3.1-1.3c0.5-1.2-0.1-2.6-1.3-3.1s-2.6,0.1-3.1,1.3S141.3,110.5,142.5,111"/>
		<path class="st2" d="M138.4,117.2c1.2,0.5,2.6-0.1,3.1-1.3c0.5-1.2-0.1-2.6-1.3-3.1s-2.6,0.1-3.1,1.3
			C136.6,115.3,137.1,116.7,138.4,117.2"/>
		<path class="st2" d="M157.5,131.5c5.7,0,11.1,0.4,15.9,1c1.4-5.8,3.1-9.1,4.8-11.4L175,120c0.3,1.7,0.4,2.5,0,3.5
			c-0.5-0.5-1-1.4-1.4-3l-1.6,5.2c0.9-0.6,1.7-1,2.6-1.2c-1.4,3.2-3.4,4-4.5,3.9c-1.4-0.3-2.2-1.6-1.9-2.7c0.4-1.6,1.9-1.9,2.7-0.1
			c1.4-3-1-3.9-2.6-3c2.5-2.5,2.7-4.5,0.8-7.2c-2.7,2.1-2.7,4.1-1.6,7.1c-1.6-1.8-4.1-0.8-3.2,2.1c1.2-1.8,2.7-0.6,2.5,1
			c-0.3,1.4-2.2,2.7-4.5,2.5c-3.5-0.3-3.8-2.7-3.8-4.7c0.9-0.1,2.5,0.6,3.8,2.5l0.5-5.6c-1.4,1.4-2.7,1.8-4.1,1.8
			c0.5-1.6,2.7-3.9,2.7-3.9h-7c0,0,2.2,2.5,2.7,3.9c-1.4,0-2.7-0.3-4.1-1.8l0.5,5.6c1.3-1.8,2.8-2.6,3.8-2.5
			c-0.1,1.9-0.3,4.4-3.8,4.7c-2.5,0.3-4.4-1-4.5-2.5c-0.3-1.7,1.3-2.8,2.5-1c0.9-3-1.6-3.9-3.2-2.1c1.2-2.8,1.2-5-1.6-7.1
			c-1.9,2.6-1.7,4.8,0.8,7.2c-1.6-0.9-4,0-2.6,3c0.8-1.8,2.3-1.4,2.7,0.1c0.3,1.2-0.4,2.5-1.9,2.7c-1.2,0.3-3.1-0.6-4.5-3.9
			c0.8,0,1.6,0.4,2.6,1.2l-1.6-5.2c-0.4,1.4-0.9,2.5-1.4,3c-0.4-1-0.3-1.8,0-3.5l-3.8,1.2c1.7,2.3,3.4,5.6,4.8,11.4
			C146.4,131.9,151.8,131.5,157.5,131.5"/>
	</g>
	<g>
		<g>
			<g>
				<path class="st8" d="M186.8,128.6c3.8,2.4,7.2,3.5,10.2,3.3c0.5,10.4-3.3,16.6-10.1,19.1c-6.6-2.4-10.5-8.3-10.2-19.3
					C180.1,131.9,183.5,131.1,186.8,128.6L186.8,128.6z"/>
			</g>
			<g>
				<path class="st9" d="M186.8,128.6c3.8,2.4,7.2,3.5,10.2,3.3c0.5,10.4-3.3,16.6-10.1,19.1c-6.6-2.4-10.5-8.3-10.2-19.3
					C180.1,131.9,183.5,131.1,186.8,128.6L186.8,128.6z M186.8,129.9c3.4,2.1,6.4,3.1,9,2.9c0.5,9.2-2.9,14.7-9,16.9
					c-5.8-2.1-9.3-7.3-9-17.1C180.9,132.8,183.9,132.1,186.8,129.9L186.8,129.9z"/>
			</g>
		</g>
		<polygon class="st10" points="186.4,144.4 186.3,144.5 185.5,143.7 184.7,142.9 181.6,139.8 183.3,138.1 186.1,140.9 190.7,134.7 
			192.6,136.1 187.9,142.6 		"/>
	</g>
	<rect x="43.4" y="197.8" class="st11" width="227.1" height="18.2"/>
	<rect x="43.4" y="224.5" class="st11" width="227.1" height="18.2"/>
	<rect x="43.4" y="251.2" class="st11" width="227.1" height="18.2"/>
	<rect x="43.4" y="277.8" class="st11" width="227.1" height="18.2"/>
</g>
</svg>
