<?xml version="1.0" encoding="utf-8"?>
<!-- Generator: Adobe Illustrator 26.1.0, SVG Export Plug-In . SVG Version: 6.00 Build 0)  -->
<svg version="1.1" xmlns="http://www.w3.org/2000/svg" xmlns:xlink="http://www.w3.org/1999/xlink" x="0px" y="0px"
	 viewBox="0 0 960 640" style="enable-background:new 0 0 960 640;" xml:space="preserve">
<style type="text/css">
	.st0{fill:#FFD419;}
	.st1{fill:#004A1E;}
	.st2{fill:#DADADA;}
	.st3{fill:#FFFFFF;}
	.st4{fill:#1D70B8;}
	.st5{fill:#00823B;}
	.st6{fill:#0B0B0B;}
	.st7{fill:#03FFE0;}
</style>
<g id="Layer_1">
	<path class="st0" d="M587,266.9v215.7H53.1V266.9H587 M591,262.9H49.1v223.7H591V262.9z"/>
	<path class="st1" d="M55,541h190.9v60.7H55V541z"/>
	<path class="st0" d="M243.1,320.1h-80.3c0,0-7.5-11.6-7.5-15.8c0-3.4,7.5-14.5,7.5-14.5h80.3c0,0,7,11.3,7,15.1
		C250.1,308.7,243.1,320.1,243.1,320.1L243.1,320.1z M321.1,452.1h-92.5c0,0-7.5-11.6-7.5-15.8c0-3.4,7.5-14.5,7.5-14.5h92.5
		c0,0,7,11.3,7,15.1C328.2,440.8,321.1,452.1,321.1,452.1L321.1,452.1z M270.6,408.1H99.4c0,0-7.5-11.6-7.5-15.8
		c0-3.4,7.5-14.5,7.5-14.5h171.2c0,0,7,11.3,7,15.1C277.7,396.8,270.6,408.1,270.6,408.1L270.6,408.1z"/>
	<path class="st2" d="M0,40V10C0,4.5,4.5,0,10,0h940c5.5,0,10,4.5,10,10v30"/>
	<circle class="st3" cx="25.4" cy="20" r="8.5"/>
	<circle class="st3" cx="49.1" cy="20" r="8.5"/>
	<circle class="st3" cx="72.9" cy="20" r="8.5"/>
	<path class="st4" d="M1,40h958v65H1V40z"/>
	<path class="st5" d="M55,534h190.9v60.7H55V534z"/>
	<path class="st6" d="M70,174.3h-9.8l-1.2,4h-5.4l8.2-25.2h6.7l8.4,25.2h-5.7C71.2,178.3,70,174.3,70,174.3z M61.6,169.8h7.1
		l-3.5-11.4h-0.1L61.6,169.8z M78.3,168.8c0-5.6,3.3-9.7,8.3-9.7c2.2,0,3.7,0.9,4.8,2v-8h4.9v25.2h-4.9v-1.6c-1,1.1-2.4,2-4.6,2
		c-5,0-8.4-4.1-8.4-9.7v-0.2H78.3z M91.4,167.1c0-2-1.5-3.5-3.9-3.5c-2.8,0-4.3,2.2-4.3,5.2v0.2c0,3,1.5,5.2,4.3,5.2
		c2.4,0,3.9-1.5,3.9-3.5V167.1L91.4,167.1z M99.7,168.8c0-5.6,3.3-9.7,8.3-9.7c2.2,0,3.7,0.9,4.8,2v-8h4.9v25.2h-4.9v-1.6
		c-1,1.1-2.4,2-4.6,2c-5,0-8.4-4.1-8.4-9.7v-0.2H99.7z M112.9,167.1c0-2-1.5-3.5-3.9-3.5c-2.8,0-4.3,2.2-4.3,5.2v0.2
		c0,3,1.5,5.2,4.3,5.2c2.4,0,3.9-1.5,3.9-3.5V167.1L112.9,167.1z M137.1,172.7c0,0.9,0.4,1.6,2.1,1.6c0.7,0,1.9-0.1,2.4-0.2l0.4,4.3
		c0,0-2.4,0.3-4.5,0.3c-3.3,0-5.3-1.5-5.3-4.8v-10h-3.4v-4.4h3.4v-5.3l4.9-1.3v6.6h4.9v4.4h-4.9L137.1,172.7L137.1,172.7z
		 M149.5,170.5c0.5,2.4,2.3,3.7,4.6,3.7c1.8,0,3.5-0.6,4.8-1.8l2.4,3.7c-1.7,1.4-4.2,2.5-7.3,2.5c-5.2,0-9.5-3.6-9.5-9.6v-0.2
		c0-5.5,3.8-9.7,9.1-9.7c5,0,8.6,3.8,8.6,9.3v2.2L149.5,170.5L149.5,170.5z M149.5,166.9h7.6c-0.1-1.7-1.2-3.6-3.7-3.6
		S149.7,165.2,149.5,166.9L149.5,166.9z M169.7,168.4l-5.7-9h5.6l2.9,5.1l3-5.1h5.7l-5.8,9l6.5,9.8H176l-3.7-5.8l-3.4,5.8h-5.7
		L169.7,168.4L169.7,168.4z M191.2,172.7c0,0.9,0.4,1.6,2.1,1.6c0.7,0,1.9-0.1,2.4-0.2l0.4,4.3c0,0-2.4,0.3-4.5,0.3
		c-3.3,0-5.3-1.5-5.3-4.8v-10h-3.4v-4.4h3.4v-5.3l4.9-1.3v6.6h4.9v4.4h-4.9L191.2,172.7L191.2,172.7z M224.1,178.3h-4.9v-10.9
		c0-2.7-1.3-3.6-2.8-3.6c-1.9,0-3.3,1.3-3.3,4.3v10.3h-4.9v-18.8h4.9v1.7c1.2-1.4,3-2,4.8-2c1.9,0,3.7,0.8,4.9,2.6
		c1.3-1.9,3.5-2.6,5.7-2.6c4.2,0,6.7,3,6.7,6.3v12.9h-4.9v-10.9c0-2.7-1.3-3.6-2.8-3.6c-1.9,0-3.3,1.3-3.3,4.3L224.1,178.3
		L224.1,178.3z M243.6,170.5c0.5,2.4,2.3,3.7,4.6,3.7c1.8,0,3.5-0.6,4.8-1.8l2.4,3.7c-1.7,1.4-4.2,2.5-7.3,2.5
		c-5.2,0-9.5-3.6-9.5-9.6v-0.2c0-5.5,3.8-9.7,9.1-9.7c5,0,8.6,3.8,8.6,9.3v2.2L243.6,170.5L243.6,170.5z M243.7,166.9h7.6
		c-0.1-1.7-1.2-3.6-3.7-3.6C245,163.3,243.8,165.2,243.7,166.9L243.7,166.9z M261.3,172.2c1.3,1.3,3.6,2.3,5.5,2.3
		c1.5,0,2.7-0.4,2.7-1.5c0-0.9-0.7-1.3-2.3-1.7c-1.1-0.3-3.1-0.6-4.7-1.3c-1.8-0.8-3.3-2.3-3.3-4.9c0-4,3.6-6,7.7-6
		c3.2,0,5.9,1.2,7.5,2.7l-3.1,3.2c-1-0.9-2.6-1.7-4.3-1.7c-1.3,0-2.7,0.5-2.7,1.6c0,0.9,0.8,1.2,2.2,1.5c2.3,0.6,4,1,5.4,1.7
		c1.5,0.8,2.6,2.4,2.6,4.5c0,4-3.4,6-7.6,6c-3.1,0-6.6-1.2-8.5-2.8L261.3,172.2L261.3,172.2z M279.6,172.2c1.3,1.3,3.6,2.3,5.5,2.3
		c1.5,0,2.7-0.4,2.7-1.5c0-0.9-0.7-1.3-2.3-1.7c-1.1-0.3-3.1-0.6-4.7-1.3c-1.8-0.8-3.3-2.3-3.3-4.9c0-4,3.6-6,7.7-6
		c3.2,0,5.9,1.2,7.5,2.7l-3.1,3.2c-1-0.9-2.6-1.7-4.3-1.7c-1.3,0-2.7,0.5-2.7,1.6c0,0.9,0.8,1.2,2.2,1.5c2.3,0.6,4,1,5.4,1.7
		c1.5,0.8,2.6,2.4,2.6,4.5c0,4-3.4,6-7.6,6c-3.1,0-6.6-1.2-8.5-2.8L279.6,172.2L279.6,172.2z M301.8,178.6c-3.4,0-6.5-2.2-6.5-5.9
		c0-3,2-5,5.3-5.5l5.7-0.8v-0.6c0-1.7-1.1-2.4-3-2.4c-2.3,0-4.1,0.9-5.5,1.5l-1.9-3.7c2.2-1.2,4.9-2.1,7.6-2.1c3.5,0,7.6,0.9,7.6,6
		v8.1c0,1.1,0.6,1.5,1.6,1.9l-2.2,3.5c-1.8-0.1-3-1.1-3.5-2.1C305.9,178,304.1,178.6,301.8,178.6z M302.4,170.7
		c-1.2,0.2-2,0.9-2,1.9c0,1.2,0.9,2.2,2.6,2.2c2.3,0,3.3-1.5,3.3-3.5V170L302.4,170.7L302.4,170.7z M322.8,159.1
		c1.8,0,3.5,0.7,4.4,1.7v-1.4h4.9V178c0,4.6-3.7,6.5-8.2,6.5c-2.7,0-6-0.5-8.1-1.7l1.4-4.2c1.4,0.6,3.9,1.4,6.2,1.4c2.1,0,4-0.7,4-3
		v-2.3c-1,1-2.5,1.7-4.6,1.7c-4.3,0-7.7-3.5-7.7-8.5C314.9,163,317.8,159.1,322.8,159.1L322.8,159.1z M319.9,167.9
		c0,2.5,1,4.4,3.7,4.4s3.7-1.9,3.7-4.4s-1-4.5-3.7-4.5S319.9,165.4,319.9,167.9z M340.7,170.5c0.5,2.4,2.3,3.7,4.6,3.7
		c1.8,0,3.5-0.6,4.8-1.8l2.4,3.7c-1.7,1.4-4.2,2.5-7.3,2.5c-5.2,0-9.5-3.6-9.5-9.6v-0.2c0-5.5,3.8-9.7,9.1-9.7c5,0,8.6,3.8,8.6,9.3
		v2.2L340.7,170.5L340.7,170.5z M340.7,166.9h7.6c-0.1-1.7-1.2-3.6-3.7-3.6C342,163.3,340.8,165.2,340.7,166.9z M371.3,172.7
		c0,0.9,0.4,1.6,2.1,1.6c0.7,0,1.9-0.1,2.4-0.2l0.4,4.3c0,0-2.4,0.3-4.5,0.3c-3.3,0-5.3-1.5-5.3-4.8v-10H363v-4.4h3.4v-5.3l4.9-1.3
		v6.6h4.9v4.4h-4.9L371.3,172.7L371.3,172.7z M383.7,170.5c0.5,2.4,2.3,3.7,4.6,3.7c1.8,0,3.5-0.6,4.8-1.8l2.4,3.7
		c-1.7,1.4-4.2,2.5-7.3,2.5c-5.2,0-9.5-3.6-9.5-9.6v-0.2c0-5.5,3.8-9.7,9.1-9.7c5,0,8.6,3.8,8.6,9.3v2.2L383.7,170.5L383.7,170.5z
		 M383.7,166.9h7.6c-0.1-1.7-1.2-3.6-3.7-3.6C385,163.3,383.9,165.2,383.7,166.9z M415.7,178.3h-4.9v-10.9c0-2.7-1.3-3.6-2.8-3.6
		c-1.9,0-3.3,1.3-3.3,4.3v10.3h-4.9v-18.8h4.9v1.7c1.2-1.4,3-2,4.8-2c1.9,0,3.7,0.8,4.9,2.6c1.3-1.9,3.5-2.6,5.7-2.6
		c4.2,0,6.7,3,6.7,6.3v12.9h-4.9v-10.9c0-2.7-1.3-3.6-2.8-3.6c-1.9,0-3.3,1.3-3.3,4.3v10H415.7z M436,159.5v1.6c1-1.1,2.6-2,4.8-2
		c5,0,8.3,4.1,8.3,9.7v0.2c0,5.6-3.4,9.7-8.4,9.7c-2.2,0-3.6-0.9-4.6-2v7.6h-4.9v-24.8H436L436,159.5z M435.9,170.6
		c0,2,1.5,3.5,3.9,3.5c2.8,0,4.3-2.2,4.3-5.2v-0.2c0-3-1.5-5.2-4.3-5.2c-2.4,0-3.9,1.5-3.9,3.5V170.6L435.9,170.6z M452.6,153.1h4.9
		v20.1c0,0.8,0.4,1.2,1.4,1.2c0.6,0,1.3-0.1,1.8-0.2l0.4,4.1c0,0-2.3,0.3-4.1,0.3c-2.7,0-4.4-1.4-4.4-4.1L452.6,153.1L452.6,153.1z
		 M468.8,178.6c-3.4,0-6.5-2.2-6.5-5.9c0-3,2-5,5.3-5.5l5.7-0.8v-0.6c0-1.7-1.1-2.4-3-2.4c-2.3,0-4.1,0.9-5.5,1.5l-1.9-3.7
		c2.2-1.2,4.9-2.1,7.6-2.1c3.5,0,7.6,0.9,7.6,6v8.1c0,1.1,0.6,1.5,1.6,1.9l-2.2,3.5c-1.8-0.1-3-1.1-3.5-2.1
		C472.8,178,471,178.6,468.8,178.6z M469.4,170.7c-1.2,0.2-2,0.9-2,1.9c0,1.2,0.9,2.2,2.6,2.2c2.3,0,3.3-1.5,3.3-3.5V170
		L469.4,170.7L469.4,170.7z M489.4,172.7c0,0.9,0.4,1.6,2.1,1.6c0.7,0,1.9-0.1,2.4-0.2l0.4,4.3c0,0-2.4,0.3-4.5,0.3
		c-3.3,0-5.3-1.5-5.3-4.8v-10h-3.4v-4.4h3.4v-5.3l4.9-1.3v6.6h4.9v4.4h-4.9V172.7L489.4,172.7z M501.9,170.5
		c0.5,2.4,2.3,3.7,4.6,3.7c1.8,0,3.5-0.6,4.8-1.8l2.4,3.7c-1.7,1.4-4.2,2.5-7.3,2.5c-5.2,0-9.5-3.6-9.5-9.6v-0.2
		c0-5.5,3.8-9.7,9.1-9.7c5,0,8.6,3.8,8.6,9.3v2.2L501.9,170.5L501.9,170.5z M501.9,166.9h7.6c-0.1-1.7-1.2-3.6-3.7-3.6
		C503.2,163.3,502,165.2,501.9,166.9z M73.8,224.8h3.4v22.4h-2.8v-19l-7.6,10.3l-7.6-10.2v18.9h-2.8v-22.4h3.4l7,9.5L73.8,224.8z
		 M84.4,240c0.2,3,2.1,5.2,5,5.2c1.8,0,3.1-0.7,4.2-1.6l1.3,1.9c-1.4,1.2-3.3,2-5.7,2c-4.6,0-7.6-3.5-7.6-8.3c0-4.9,2.8-8.3,7.3-8.3
		c4.2,0,6.8,3.5,6.8,8.3v0.8L84.4,240L84.4,240z M84.5,237.9h8.4c-0.1-2.5-1.5-4.7-4-4.7C86.2,233.2,84.6,235.5,84.5,237.9z
		 M98.3,245.2l1.6-1.9c1,0.9,2.7,2,4.8,2c1.8,0,3.2-0.8,3.2-2.4c0-1.7-1.7-2.1-3.9-2.7c-2.3-0.6-5-1.4-5-4.7c0-2.7,2.5-4.6,5.8-4.6
		c2.1,0,4.4,0.9,5.5,2l-1.5,1.8c-0.9-0.9-2.3-1.5-3.9-1.5c-2.1,0-3.2,0.9-3.2,2.4c0,1.2,0.9,1.7,2.3,2.1c0.8,0.2,1.8,0.5,2.6,0.8
		c2.1,0.7,3.9,1.8,3.9,4.4c0,3.3-2.9,4.8-6,4.8C102.5,247.5,100.1,246.8,98.3,245.2L98.3,245.2z M113.4,245.2l1.6-1.9
		c1,0.9,2.7,2,4.8,2c1.8,0,3.2-0.8,3.2-2.4c0-1.7-1.7-2.1-3.9-2.7c-2.3-0.6-5-1.4-5-4.7c0-2.7,2.5-4.6,5.8-4.6c2.1,0,4.4,0.9,5.5,2
		l-1.5,1.8c-0.9-0.9-2.3-1.5-3.9-1.5c-2.1,0-3.2,0.9-3.2,2.4c0,1.2,0.9,1.7,2.3,2.1c0.8,0.2,1.8,0.5,2.6,0.8
		c2.1,0.7,3.9,1.8,3.9,4.4c0,3.3-2.9,4.8-6,4.8C117.5,247.5,115.1,246.8,113.4,245.2L113.4,245.2z M134.2,247.5
		c-3.2,0-5.6-1.9-5.6-4.8c0-2.5,1.7-4.2,4.3-4.5l5.6-0.8v-1c0-2.4-1.6-3.2-3.6-3.2c-1.8,0-3.4,0.6-4.6,1.2l-1-2.1
		c1.8-1,3.9-1.5,5.9-1.5c3.9,0,5.9,1.7,5.9,5.1v7.5c0,1.1,0.4,1.8,1.3,2.2l-1.5,1.9c-1-0.3-1.8-1-2.1-1.9
		C137.9,246.7,136.3,247.5,134.2,247.5L134.2,247.5z M134.2,240.1c-1.8,0.3-2.9,0.8-2.9,2.5c0,1.9,1.5,2.9,3.3,2.9
		c2,0,3.9-1.2,3.9-3.1v-2.9L134.2,240.1z M151.8,230.9c1.7,0,3.4,0.6,4.5,2.1v-1.8h2.6v16.1c0,4-3.5,5.1-6.8,5.1
		c-1.9,0-4.1-0.4-5.9-1.3l0.9-2.2c1.2,0.6,3.2,1.1,5.1,1.1c2.7,0,4.2-1,4.2-3.5v-3c-1.1,1.5-2.8,2.1-4.5,2.1c-4,0-6.5-3.2-6.5-7.4
		C145.3,234.1,147.8,230.9,151.8,230.9L151.8,230.9z M156.4,238.2c0-2.8-1.2-5-4.1-5c-2.9,0-4.2,2.2-4.2,5v0.1c0,2.8,1.3,5,4.2,5
		s4.1-2.2,4.1-5V238.2z M165.8,240c0.2,3,2.1,5.2,5,5.2c1.8,0,3.1-0.7,4.2-1.6l1.3,1.9c-1.4,1.2-3.3,2-5.7,2c-4.6,0-7.6-3.5-7.6-8.3
		c0-4.9,2.8-8.3,7.3-8.3c4.2,0,6.8,3.5,6.8,8.3v0.8L165.8,240L165.8,240z M165.9,237.9h8.4c-0.1-2.5-1.5-4.7-4-4.7
		C167.7,233.2,166,235.5,165.9,237.9z"/>
	<path class="st3" d="M117.7,571.7c1.5,1.8,3.7,2.9,6.3,2.9c2.7,0,5.1-1.4,5.1-4c0-1.7-0.9-2.5-2.1-3.1c-2.2-1.1-5.7-1.1-8.1-2.6
		c-1.4-0.9-2.6-2.3-2.6-4.7c0-3.5,2.9-6.2,7.6-6.2c2.9,0,5.7,1.2,7.4,3l-2,1.6c-1.2-1.2-3-2.3-5.4-2.3c-2.7,0-4.9,1.3-4.9,3.7
		c0,3.6,5.3,3.2,9.2,4.9c2,0.9,3.7,2.4,3.7,5.3c0,4.4-4,6.7-8.1,6.7c-3.7,0-6.4-1.6-8.2-3.5L117.7,571.7L117.7,571.7z M142.2,577
		c-3.2,0-5.6-1.9-5.6-4.8c0-2.5,1.7-4.2,4.3-4.5l5.6-0.8v-1c0-2.4-1.6-3.2-3.6-3.2c-1.8,0-3.4,0.6-4.6,1.2l-1-2.1
		c1.8-1,3.9-1.5,5.9-1.5c3.9,0,5.9,1.7,5.9,5.1v7.5c0,1.1,0.4,1.8,1.3,2.2l-1.5,1.9c-1-0.3-1.8-1-2.1-1.9
		C145.9,576.1,144.3,577,142.2,577L142.2,577z M142.2,569.5c-1.8,0.3-2.9,0.8-2.9,2.5c0,1.9,1.5,2.9,3.3,2.9c2,0,3.9-1.2,3.9-3.1
		v-2.9L142.2,569.5z M159.1,576.7l-5.1-16h3l3.8,13.5l3.8-13.5h3l-5.1,16H159.1z M174.2,569.5c0.2,3,2.1,5.2,5,5.2
		c1.8,0,3.1-0.7,4.2-1.6l1.3,1.9c-1.4,1.2-3.3,2-5.7,2c-4.6,0-7.6-3.5-7.6-8.3c0-4.9,2.8-8.3,7.3-8.3c4.2,0,6.8,3.5,6.8,8.3v0.8
		L174.2,569.5L174.2,569.5z M174.2,567.4h8.4c-0.1-2.5-1.5-4.7-4-4.7C176,562.7,174.3,564.9,174.2,567.4z"/>
	<path class="st6" d="M95.2,303.2H83.4v10.3h-2.8v-22.4h2.8v9.7h11.8v-9.7H98v22.4h-2.8V303.2z M105.2,306.4c0.2,3,2.1,5.2,5,5.2
		c1.8,0,3.1-0.7,4.2-1.6l1.3,1.9c-1.4,1.2-3.3,2-5.7,2c-4.6,0-7.6-3.5-7.6-8.3c0-4.9,2.8-8.3,7.3-8.3c4.2,0,6.8,3.5,6.8,8.3v0.8
		C116.5,306.4,105.2,306.4,105.2,306.4z M105.2,304.2h8.4c-0.1-2.5-1.5-4.7-4-4.7C107,299.5,105.3,301.8,105.2,304.2z M118.5,297.6
		h3l3.9,13.2l3.7-13.2h2.9l-5.8,18.4c-0.7,2.2-2.3,2.8-4.2,2.8c-0.9,0-1.8-0.1-2.8-0.3l0.4-2.3c0,0,1.1,0.2,2.1,0.2
		c1.2,0,1.8-0.5,2-1.6l0.2-0.7C123.9,314.1,118.5,297.6,118.5,297.6z M148.8,291.6l2.2-1.7l1.3,1.9c-4.5,3.1-7.2,7.5-7.2,13.1v0.2
		c0,5.6,2.6,10,7.2,13.1l-1.3,1.9l-2.2-1.7c-4.3-3.4-6.6-7.9-6.6-13.4S144.6,295,148.8,291.6z M160.6,291.6l2.2-1.7l1.3,1.9
		c-4.5,3.1-7.2,7.5-7.2,13.1v0.2c0,5.6,2.6,10,7.2,13.1l-1.3,1.9l-2.2-1.7c-4.3-3.4-6.6-7.9-6.6-13.4S156.3,295,160.6,291.6z
		 M166.9,297.6h2.6v1.8c1.1-1.5,2.7-2.1,4.7-2.1c3.6,0,5.3,2.5,5.3,5.4v10.8h-2.6v-10c0-2.8-1.4-3.9-3.3-3.9c-2,0-4.1,1.4-4.1,4.4
		v9.5h-2.6L166.9,297.6L166.9,297.6z M188.9,313.8c-3.2,0-5.6-1.9-5.6-4.8c0-2.5,1.7-4.2,4.3-4.5l5.6-0.8v-1c0-2.4-1.6-3.2-3.6-3.2
		c-1.8,0-3.4,0.6-4.6,1.2l-1-2.1c1.8-1,3.9-1.5,5.9-1.5c3.9,0,5.9,1.7,5.9,5.1v7.5c0,1.1,0.4,1.8,1.3,2.2l-1.5,1.9
		c-1-0.3-1.8-1-2.1-1.9C192.6,313,191,313.8,188.9,313.8L188.9,313.8z M188.9,306.4c-1.8,0.3-2.9,0.8-2.9,2.5c0,1.9,1.5,2.9,3.3,2.9
		c2,0,3.9-1.2,3.9-3.1v-2.9L188.9,306.4z M212.9,313.5h-2.6v-10c0-2.8-1.4-3.8-3.2-3.8s-3.5,1.3-3.5,4.4v9.4H201v-16h2.6v1.8
		c1.1-1.5,2.5-2.1,4.2-2.1c1.4,0,3.5,0.7,4.3,2.7c1.2-2,3.1-2.7,4.9-2.7c3.5,0,5.4,2.5,5.4,5.3v10.9h-2.6v-10c0-2.8-1.5-3.8-3.3-3.8
		s-3.5,1.3-3.5,4.4L212.9,313.5L212.9,313.5z M229.1,306.4c0.2,3,2.1,5.2,5,5.2c1.8,0,3.1-0.7,4.2-1.6l1.3,1.9c-1.4,1.2-3.3,2-5.7,2
		c-4.6,0-7.6-3.5-7.6-8.3c0-4.9,2.8-8.3,7.3-8.3c4.2,0,6.8,3.5,6.8,8.3v0.8H229.1z M229.1,304.2h8.4c-0.1-2.5-1.5-4.7-4-4.7
		C230.9,299.5,229.3,301.8,229.1,304.2z M245.3,318.4l-2.2,1.7l-1.3-1.9c4.5-3.1,7.2-7.5,7.2-13.1v-0.2c0-5.6-2.6-10-7.2-13.1
		l1.3-1.9l2.2,1.7c4.3,3.4,6.6,7.9,6.6,13.4S249.6,315,245.3,318.4z M257.1,318.4l-2.2,1.7l-1.3-1.9c4.5-3.1,7.2-7.5,7.2-13.1v-0.2
		c0-5.6-2.6-10-7.2-13.1l1.3-1.9l2.2,1.7c4.3,3.4,6.6,7.9,6.6,13.4S261.3,315,257.1,318.4L257.1,318.4z M272.1,312.3
		c0,1.8-0.9,3.9-3.7,4.1H268l-0.1-1.2l0.4-0.1c0.8-0.1,1.6-0.4,1.6-1.3v-0.1h-0.3c-1.2,0-2.1-0.9-2.1-2.1s1-2.1,2.1-2.1
		C271,309.6,272.1,310.7,272.1,312.3L272.1,312.3z M80.6,335.1h2.8v22.4h-2.8V335.1z M93.5,337.6c0,1.8-0.9,3.9-3.7,4.1h-0.4
		l-0.1-1.2l0.4-0.1c0.8-0.1,1.6-0.4,1.6-1.3V339H91c-1.2,0-2.1-0.9-2.1-2.1s1-2.1,2.1-2.1C92.4,334.8,93.5,335.9,93.5,337.6
		L93.5,337.6z M109.9,357.5h-2.6v-10c0-2.8-1.4-3.8-3.2-3.8c-1.8,0-3.5,1.3-3.5,4.4v9.4H98v-16h2.6v1.8c1.1-1.5,2.5-2.1,4.2-2.1
		c1.4,0,3.5,0.7,4.3,2.7c1.2-2,3.1-2.7,4.9-2.7c3.5,0,5.4,2.5,5.4,5.3v10.9h-2.6v-10c0-2.8-1.5-3.8-3.3-3.8s-3.5,1.3-3.5,4.4
		L109.9,357.5L109.9,357.5z M136.2,353.6c0,1.1,0.2,2,2,2c0.5,0,1.5-0.1,2-0.2l0.3,2.3c0,0-1.5,0.2-2.8,0.2c-2.5,0-4.1-1-4.1-3.7
		v-10.3h-3v-2.3h3v-5.2l2.6-0.9v6.1h4.4v2.3h-4.4V353.6z M152.4,343.9H152c-2.7,0-5.1,1.1-5.1,5.4v8.2h-2.6v-16h2.6v2.5
		c0.8-1.9,2.8-2.8,4.8-2.8h0.8v2.7L152.4,343.9z M154,341.6h3l3.9,13.2l3.7-13.2h2.9l-5.8,18.4c-0.7,2.2-2.3,2.8-4.2,2.8
		c-0.9,0-1.8-0.1-2.8-0.3l0.4-2.3c0,0,1.1,0.2,2.1,0.2c1.2,0,1.8-0.5,2-1.6l0.2-0.7L154,341.6L154,341.6z M172.4,335.1
		c1.1,0,1.9,0.9,1.9,2s-0.9,2-1.9,2c-1.1,0-2-0.9-2-2S171.3,335.1,172.4,335.1z M173.6,357.5H171v-16h2.6L173.6,357.5L173.6,357.5z
		 M178.8,341.6h2.6v1.8c1.1-1.5,2.7-2.1,4.7-2.1c3.6,0,5.3,2.5,5.3,5.4v10.8h-2.6v-10c0-2.8-1.4-3.9-3.3-3.9c-2,0-4.1,1.4-4.1,4.4
		v9.5h-2.6L178.8,341.6L178.8,341.6z M202,341.2c1.7,0,3.4,0.6,4.5,2.1v-1.8h2.6v16.1c0,4-3.5,5.1-6.8,5.1c-1.9,0-4.1-0.4-5.9-1.3
		l0.9-2.2c1.2,0.6,3.2,1.1,5.1,1.1c2.7,0,4.2-1,4.2-3.5v-3c-1.1,1.5-2.8,2.1-4.5,2.1c-4,0-6.5-3.2-6.5-7.4S198,341.2,202,341.2
		L202,341.2z M206.5,348.6c0-2.8-1.2-5-4.1-5c-2.9,0-4.2,2.2-4.2,5v0.1c0,2.8,1.3,5,4.2,5s4.1-2.2,4.1-5V348.6z M236.4,349.6
		c0,4.8-2.9,8.3-7.4,8.3c-4.4,0-7.4-3.5-7.4-8.3c0-4.9,2.9-8.3,7.4-8.3C233.4,341.2,236.4,344.7,236.4,349.6z M233.6,349.6v-0.2
		c0-3.2-1.6-5.9-4.6-5.9s-4.6,2.7-4.6,5.9v0.2c0,3.1,1.6,5.9,4.6,5.9S233.6,352.8,233.6,349.6z M253,357.5h-2.6v-1.8
		c-1.1,1.5-2.7,2.1-4.7,2.1c-3.6,0-5.3-2.5-5.3-5.4v-10.8h2.6v10c0,2.8,1.4,3.9,3.3,3.9c2.2,0,4.1-1.4,4.1-4.4v-9.5h2.6L253,357.5
		L253,357.5z M262.3,353.6c0,1.1,0.2,2,2,2c0.5,0,1.5-0.1,2-0.2l0.3,2.3c0,0-1.5,0.2-2.8,0.2c-2.5,0-4.1-1-4.1-3.7v-10.3h-3v-2.3h3
		v-5.2l2.6-0.9v6.1h4.4v2.3h-4.4V353.6z M282,338.1v19.5h-2.7v-22.4h4l11.6,18.5v-18.5h2.7v22.4h-3.4L282,338.1L282,338.1z
		 M316.8,349.6c0,4.8-2.9,8.3-7.4,8.3c-4.4,0-7.4-3.5-7.4-8.3c0-4.9,2.9-8.3,7.4-8.3C313.9,341.2,316.8,344.7,316.8,349.6z
		 M314.1,349.6v-0.2c0-3.2-1.6-5.9-4.6-5.9s-4.6,2.7-4.6,5.9v0.2c0,3.1,1.6,5.9,4.6,5.9S314.1,352.8,314.1,349.6z M324.8,353.6
		c0,1.1,0.2,2,2,2c0.5,0,1.5-0.1,2-0.2l0.3,2.3c0,0-1.5,0.2-2.8,0.2c-2.5,0-4.1-1-4.1-3.7v-10.3h-3v-2.3h3v-5.2l2.6-0.9v6.1h4.4v2.3
		h-4.4V353.6z M334.2,335.1c1.1,0,1.9,0.9,1.9,2s-0.9,2-1.9,2c-1.1,0-2-0.9-2-2S333.1,335.1,334.2,335.1z M335.5,357.5h-2.6v-16h2.6
		V357.5z M344.3,341.6h3.2v2.3h-3.2v13.7h-2.6v-13.7H339v-2.3h2.7v-3c0-2.8,1.9-3.7,4.4-3.7c1.3,0,2.1,0.2,2.6,0.2l-0.2,2.2
		c-0.6-0.1-1.8-0.1-2.3-0.1c-1.5,0-1.9,0.9-1.9,1.9L344.3,341.6L344.3,341.6z M349.3,341.6h3l3.9,13.2l3.7-13.2h2.9L357,360
		c-0.7,2.2-2.3,2.8-4.2,2.8c-0.9,0-1.8-0.1-2.8-0.3l0.4-2.3c0,0,1.1,0.2,2.1,0.2c1.2,0,1.8-0.5,2-1.6l0.2-0.7L349.3,341.6
		L349.3,341.6z M367.2,353.6c1.2,0,2.1,1,2.1,2.1c0,1.2-1,2.1-2.1,2.1s-2.1-1-2.1-2.1C365.1,354.5,366,353.6,367.2,353.6z
		 M379.9,335.1h15.4v2.5H389v19.9h-2.8v-19.9h-6.3L379.9,335.1L379.9,335.1z M409.8,349.6c0,4.8-2.9,8.3-7.4,8.3
		c-4.4,0-7.4-3.5-7.4-8.3c0-4.9,2.9-8.3,7.4-8.3C406.9,341.2,409.8,344.7,409.8,349.6z M407.1,349.6v-0.2c0-3.2-1.6-5.9-4.6-5.9
		s-4.6,2.7-4.6,5.9v0.2c0,3.1,1.6,5.9,4.6,5.9S407.1,352.8,407.1,349.6z M424.5,355.7c-0.9,1.3-2.6,2.1-4.7,2.1
		c-4.1,0-6.8-3.5-6.8-8.3s2.7-8.3,6.8-8.3c2,0,3.7,0.8,4.7,2.1V335h2.6v22.4h-2.6V355.7L424.5,355.7z M415.8,349.6
		c0,3.3,1.6,5.9,4.5,5.9c2.8,0,4.2-2,4.2-4.7v-2.6c0-2.7-1.4-4.7-4.2-4.7c-2.9,0-4.5,2.6-4.5,5.9V349.6L415.8,349.6z M436.6,357.8
		c-3.2,0-5.6-1.9-5.6-4.8c0-2.5,1.7-4.2,4.3-4.5l5.6-0.8v-1c0-2.4-1.6-3.2-3.6-3.2c-1.8,0-3.4,0.6-4.6,1.2l-1-2.1
		c1.8-1,3.9-1.5,5.9-1.5c3.9,0,5.9,1.7,5.9,5.1v7.5c0,1.1,0.4,1.8,1.3,2.2l-1.5,1.9c-1-0.3-1.8-1-2.1-1.9
		C440.4,357,438.8,357.8,436.6,357.8L436.6,357.8z M436.7,350.4c-1.8,0.3-2.9,0.8-2.9,2.5c0,1.9,1.5,2.9,3.3,2.9
		c2,0,3.9-1.2,3.9-3.1v-2.9L436.7,350.4z M446.8,341.6h3l3.9,13.2l3.7-13.2h2.9l-5.8,18.4c-0.7,2.2-2.3,2.8-4.2,2.8
		c-0.9,0-1.8-0.1-2.8-0.3l0.4-2.3c0,0,1.1,0.2,2.1,0.2c1.2,0,1.8-0.5,2-1.6l0.2-0.7L446.8,341.6L446.8,341.6z M472.8,335.1
		c1.1,0,1.9,0.9,1.9,2s-0.9,2-1.9,2c-1.1,0-2-0.9-2-2C470.9,336,471.7,335.1,472.8,335.1z M474.1,357.5h-2.6v-16h2.6V357.5z
		 M477.9,355.5l1.6-1.9c1,0.9,2.7,2,4.8,2c1.8,0,3.2-0.8,3.2-2.4c0-1.7-1.7-2.1-3.9-2.7c-2.3-0.6-5-1.4-5-4.7c0-2.7,2.5-4.6,5.8-4.6
		c2.1,0,4.4,0.9,5.5,2l-1.5,1.8c-0.9-0.9-2.3-1.5-3.9-1.5c-2.1,0-3.2,0.9-3.2,2.4c0,1.2,0.9,1.7,2.3,2.1c0.8,0.2,1.8,0.5,2.6,0.8
		c2.1,0.7,3.9,1.8,3.9,4.4c0,3.3-2.9,4.8-6,4.8C482,357.8,479.6,357.1,477.9,355.5L477.9,355.5z M85.6,379.6l2.2-1.7l1.3,1.9
		c-4.5,3.1-7.2,7.5-7.2,13.1v0.2c0,5.6,2.6,10,7.2,13.1l-1.3,1.9l-2.2-1.7C81.3,403,79,398.5,79,393S81.3,383,85.6,379.6z
		 M97.3,379.6l2.2-1.7l1.3,1.9c-4.5,3.1-7.2,7.5-7.2,13.1v0.2c0,5.6,2.6,10,7.2,13.1l-1.3,1.9l-2.2-1.7c-4.3-3.4-6.6-7.9-6.6-13.4
		S93,383,97.3,379.6z M113.8,399.7c-0.9,1.3-2.6,2.1-4.7,2.1c-4.1,0-6.8-3.5-6.8-8.3s2.7-8.3,6.8-8.3c2,0,3.7,0.8,4.7,2.1V379h2.6
		v22.4h-2.6V399.7L113.8,399.7z M105,393.6c0,3.3,1.6,5.9,4.5,5.9c2.8,0,4.2-2,4.2-4.7v-2.6c0-2.7-1.4-4.7-4.2-4.7
		c-2.9,0-4.5,2.6-4.5,5.9V393.6L105,393.6z M125.9,401.8c-3.2,0-5.6-1.9-5.6-4.8c0-2.5,1.7-4.2,4.3-4.5l5.6-0.8v-1
		c0-2.4-1.6-3.2-3.6-3.2c-1.8,0-3.4,0.6-4.6,1.2l-1-2.1c1.8-1,3.9-1.5,5.9-1.5c3.9,0,5.9,1.7,5.9,5.1v7.5c0,1.1,0.4,1.8,1.3,2.2
		l-1.5,1.9c-1-0.3-1.8-1-2.1-1.9C129.6,401,128,401.8,125.9,401.8L125.9,401.8z M125.9,394.4c-1.8,0.3-2.9,0.8-2.9,2.5
		c0,1.9,1.5,2.9,3.3,2.9c2,0,3.9-1.2,3.9-3.1v-2.9L125.9,394.4z M136,385.6h3l3.9,13.2l3.7-13.2h2.9l-5.8,18.4
		c-0.7,2.2-2.3,2.8-4.2,2.8c-0.9,0-1.8-0.1-2.8-0.3l0.4-2.3c0,0,1.1,0.2,2.1,0.2c1.2,0,1.8-0.5,2-1.6l0.2-0.7L136,385.6L136,385.6z
		 M174.5,393.6c0,4.8-2.9,8.3-7.4,8.3s-7.4-3.5-7.4-8.3c0-4.9,2.9-8.3,7.4-8.3S174.5,388.7,174.5,393.6z M171.8,393.6v-0.2
		c0-3.2-1.6-5.9-4.6-5.9s-4.6,2.7-4.6,5.9v0.2c0,3.1,1.6,5.9,4.6,5.9S171.8,396.8,171.8,393.6z M182.2,385.6h3.2v2.3h-3.2v13.7h-2.6
		v-13.7h-2.7v-2.3h2.7v-3c0-2.8,1.9-3.7,4.4-3.7c1.3,0,2.1,0.2,2.6,0.2l-0.2,2.2c-0.6-0.1-1.8-0.1-2.3-0.1c-1.5,0-1.9,0.9-1.9,1.9
		V385.6z M210.6,398.4l2.9-12.9h2.8l-3.9,16H209l-3.2-12.8l-3.3,12.8h-3.2l-3.9-16h2.8l2.8,12.9l3.4-12.9h3L210.6,398.4L210.6,398.4
		z M221.6,394.4c0.2,3,2.1,5.2,5,5.2c1.8,0,3.1-0.7,4.2-1.6l1.3,1.9c-1.4,1.2-3.3,2-5.7,2c-4.6,0-7.6-3.5-7.6-8.3
		c0-4.9,2.8-8.3,7.3-8.3c4.2,0,6.8,3.5,6.8,8.3v0.8H221.6z M221.6,392.2h8.4c-0.1-2.5-1.5-4.7-4-4.7
		C223.4,387.5,221.7,389.8,221.6,392.2z M238.7,394.4c0.2,3,2.1,5.2,5,5.2c1.8,0,3.1-0.7,4.2-1.6l1.3,1.9c-1.4,1.2-3.3,2-5.7,2
		c-4.6,0-7.6-3.5-7.6-8.3c0-4.9,2.8-8.3,7.3-8.3c4.2,0,6.8,3.5,6.8,8.3v0.8H238.7z M238.7,392.2h8.4c-0.1-2.5-1.5-4.7-4-4.7
		C240.5,387.5,238.8,389.8,238.7,392.2z M256.6,393.4l7.5-7.8h3.3l-6.1,6.3l6.4,9.6h-3.2l-5-7.9l-2.9,2.9v4.9H254V379h2.6V393.4
		L256.6,393.4z M272.9,406.4l-2.2,1.7l-1.3-1.9c4.5-3.1,7.2-7.5,7.2-13.1v-0.2c0-5.6-2.6-10-7.2-13.1l1.3-1.9l2.2,1.7
		c4.3,3.4,6.6,7.9,6.6,13.4S277.2,403,272.9,406.4z M284.6,406.4l-2.2,1.7l-1.3-1.9c4.5-3.1,7.2-7.5,7.2-13.1v-0.2
		c0-5.6-2.6-10-7.2-13.1l1.3-1.9l2.2,1.7c4.3,3.4,6.6,7.9,6.6,13.4S288.9,403,284.6,406.4z M308.1,401.8c-3.2,0-5.6-1.9-5.6-4.8
		c0-2.5,1.7-4.2,4.3-4.5l5.6-0.8v-1c0-2.4-1.6-3.2-3.6-3.2c-1.8,0-3.4,0.6-4.6,1.2l-1-2.1c1.8-1,3.9-1.5,5.9-1.5
		c3.9,0,5.9,1.7,5.9,5.1v7.5c0,1.1,0.4,1.8,1.3,2.2l-1.5,1.9c-1-0.3-1.8-1-2.1-1.9C311.8,401,310.3,401.8,308.1,401.8L308.1,401.8z
		 M308.2,394.4c-1.8,0.3-2.9,0.8-2.9,2.5c0,1.9,1.5,2.9,3.3,2.9c2,0,3.9-1.2,3.9-3.1v-2.9L308.2,394.4z M320.2,385.6h2.6v1.8
		c1.1-1.5,2.7-2.1,4.7-2.1c3.6,0,5.3,2.5,5.3,5.4v10.8h-2.6v-10c0-2.8-1.4-3.9-3.3-3.9c-2,0-4.1,1.4-4.1,4.4v9.5h-2.6V385.6
		L320.2,385.6z M348.3,399.7c-0.9,1.3-2.6,2.1-4.7,2.1c-4.1,0-6.8-3.5-6.8-8.3s2.7-8.3,6.8-8.3c2,0,3.7,0.8,4.7,2.1V379h2.6v22.4
		h-2.6V399.7L348.3,399.7z M339.6,393.6c0,3.3,1.6,5.9,4.5,5.9c2.8,0,4.2-2,4.2-4.7v-2.6c0-2.7-1.4-4.7-4.2-4.7
		c-2.9,0-4.5,2.6-4.5,5.9V393.6L339.6,393.6z M376.4,401.5h-2.6v-10c0-2.8-1.4-3.8-3.2-3.8c-1.8,0-3.5,1.3-3.5,4.4v9.4h-2.6v-16h2.6
		v1.8c1.1-1.5,2.5-2.1,4.2-2.1c1.4,0,3.5,0.7,4.3,2.7c1.2-2,3.1-2.7,4.9-2.7c3.5,0,5.4,2.5,5.4,5.3v10.9h-2.6v-10
		c0-2.8-1.5-3.8-3.3-3.8s-3.5,1.3-3.5,4.4L376.4,401.5L376.4,401.5z M388.9,385.6h3l3.9,13.2l3.7-13.2h2.9l-5.8,18.4
		c-0.7,2.2-2.3,2.8-4.2,2.8c-0.9,0-1.8-0.1-2.8-0.3l0.4-2.3c0,0,1.1,0.2,2.1,0.2c1.2,0,1.8-0.5,2-1.6l0.2-0.7L388.9,385.6
		L388.9,385.6z M417,385.6h3.2v2.3H417v13.7h-2.6v-13.7h-2.7v-2.3h2.7v-3c0-2.8,1.9-3.7,4.4-3.7c1.3,0,2.1,0.2,2.6,0.2l-0.2,2.2
		c-0.6-0.1-1.8-0.1-2.3-0.1c-1.5,0-1.9,0.9-1.9,1.9V385.6z M428.1,401.8c-3.2,0-5.6-1.9-5.6-4.8c0-2.5,1.7-4.2,4.3-4.5l5.6-0.8v-1
		c0-2.4-1.6-3.2-3.6-3.2c-1.8,0-3.4,0.6-4.6,1.2l-1-2.1c1.8-1,3.9-1.5,5.9-1.5c3.9,0,5.9,1.7,5.9,5.1v7.5c0,1.1,0.4,1.8,1.3,2.2
		l-1.5,1.9c-1-0.3-1.8-1-2.1-1.9C431.8,401,430.3,401.8,428.1,401.8L428.1,401.8z M428.2,394.4c-1.8,0.3-2.9,0.8-2.9,2.5
		c0,1.9,1.5,2.9,3.3,2.9c2,0,3.9-1.2,3.9-3.1v-2.9L428.2,394.4z M443.4,401.5l-5.1-16h3l3.8,13.5l3.8-13.5h3l-5.1,16H443.4
		L443.4,401.5z M468.9,393.6c0,4.8-2.9,8.3-7.4,8.3c-4.4,0-7.4-3.5-7.4-8.3c0-4.9,2.9-8.3,7.4-8.3
		C466,385.2,468.9,388.7,468.9,393.6z M466.2,393.6v-0.2c0-3.2-1.6-5.9-4.6-5.9s-4.6,2.7-4.6,5.9v0.2c0,3.1,1.6,5.9,4.6,5.9
		S466.2,396.8,466.2,393.6z M485.6,401.5H483v-1.8c-1.1,1.5-2.7,2.1-4.7,2.1c-3.6,0-5.3-2.5-5.3-5.4v-10.8h2.6v10
		c0,2.8,1.4,3.9,3.3,3.9c2.2,0,4.1-1.4,4.1-4.4v-9.5h2.6V401.5L485.6,401.5z M498.8,387.9h-0.4c-2.7,0-5.1,1.1-5.1,5.4v8.2h-2.6v-16
		h2.6v2.5c0.8-1.9,2.8-2.8,4.8-2.8h0.8L498.8,387.9L498.8,387.9z M503.6,379.1c1.1,0,1.9,0.9,1.9,2s-0.9,2-1.9,2c-1.1,0-2-0.9-2-2
		S502.5,379.1,503.6,379.1z M504.9,401.5h-2.6v-16h2.6V401.5z M514.1,397.6c0,1.1,0.2,2,2,2c0.5,0,1.5-0.1,2-0.2l0.3,2.3
		c0,0-1.5,0.2-2.8,0.2c-2.5,0-4.1-1-4.1-3.7v-10.3h-3v-2.3h3v-5.2l2.6-0.9v6.1h4.4v2.3h-4.4V397.6z M523.9,394.4
		c0.2,3,2.1,5.2,5,5.2c1.8,0,3.1-0.7,4.2-1.6l1.3,1.9c-1.4,1.2-3.3,2-5.7,2c-4.6,0-7.6-3.5-7.6-8.3c0-4.9,2.8-8.3,7.3-8.3
		c4.2,0,6.8,3.5,6.8,8.3v0.8H523.9z M523.9,392.2h8.4c-0.1-2.5-1.5-4.7-4-4.7C525.7,387.5,524.1,389.8,523.9,392.2z M81.7,437.6
		c0,3.2,1.6,5.9,4.6,5.9c2,0,3.3-1.2,4.1-2.7l2.2,1.2c-1.1,2.3-3.4,3.7-6.3,3.7c-4.4,0-7.4-3.5-7.4-8.3c0-4.9,2.9-8.3,7.4-8.3
		c2.9,0,5.2,1.5,6.3,3.7l-2.2,1.2c-0.8-1.5-2.1-2.7-4.1-2.7c-3.1,0-4.6,2.7-4.6,5.9V437.6L81.7,437.6z M110.2,437.6
		c0,4.8-2.9,8.3-7.4,8.3s-7.4-3.5-7.4-8.3c0-4.9,2.9-8.3,7.4-8.3S110.2,432.7,110.2,437.6z M107.5,437.6v-0.2c0-3.2-1.6-5.9-4.6-5.9
		s-4.6,2.7-4.6,5.9v0.2c0,3.1,1.6,5.9,4.6,5.9S107.5,440.8,107.5,437.6z M114.3,423.1h2.6v18.8c0,1.1,0.3,1.6,1.5,1.6
		c0.7,0,1.2-0.1,1.6-0.1l0.3,2.2c0,0-1.5,0.2-2.7,0.2c-1.9,0-3.4-0.8-3.4-3.1L114.3,423.1L114.3,423.1z M136.9,437.6
		c0,4.8-2.9,8.3-7.4,8.3s-7.4-3.5-7.4-8.3c0-4.9,2.9-8.3,7.4-8.3S136.9,432.7,136.9,437.6z M134.2,437.6v-0.2c0-3.2-1.6-5.9-4.6-5.9
		s-4.6,2.7-4.6,5.9v0.2c0,3.1,1.6,5.9,4.6,5.9S134.2,440.8,134.2,437.6z M153.6,445.5H151v-1.8c-1.1,1.5-2.7,2.1-4.7,2.1
		c-3.6,0-5.3-2.5-5.3-5.4v-10.8h2.6v10c0,2.8,1.4,3.9,3.3,3.9c2.2,0,4.1-1.4,4.1-4.4v-9.5h2.6L153.6,445.5L153.6,445.5z
		 M166.9,431.9h-0.4c-2.7,0-5.1,1.1-5.1,5.4v8.2h-2.6v-16h2.6v2.5c0.8-1.9,2.8-2.8,4.8-2.8h0.8v2.7L166.9,431.9z M179.3,423.1
		c1.1,0,1.9,0.9,1.9,2s-0.9,2-1.9,2c-1.1,0-2-0.9-2-2S178.2,423.1,179.3,423.1z M180.5,445.5h-2.6v-16h2.6V445.5z M184.3,443.5
		l1.6-1.9c1,0.9,2.7,2,4.8,2c1.8,0,3.2-0.8,3.2-2.4c0-1.7-1.7-2.1-3.9-2.7c-2.3-0.6-5-1.4-5-4.7c0-2.7,2.5-4.6,5.8-4.6
		c2.1,0,4.4,0.9,5.5,2l-1.5,1.8c-0.9-0.9-2.3-1.5-3.9-1.5c-2.1,0-3.2,0.9-3.2,2.4c0,1.2,0.9,1.7,2.3,2.1c0.8,0.2,1.8,0.5,2.6,0.8
		c2.1,0.7,3.9,1.8,3.9,4.4c0,3.3-2.9,4.8-6,4.8C188.4,445.8,186.1,445.1,184.3,443.5L184.3,443.5z M214.7,423.6l2.2-1.7l1.3,1.9
		c-4.5,3.1-7.2,7.5-7.2,13.1v0.2c0,5.6,2.6,10,7.2,13.1l-1.3,1.9l-2.2-1.7c-4.3-3.4-6.6-7.9-6.6-13.4S210.5,427,214.7,423.6z
		 M226.4,423.6l2.2-1.7l1.3,1.9c-4.5,3.1-7.2,7.5-7.2,13.1v0.2c0,5.6,2.6,10,7.2,13.1l-1.3,1.9l-2.2-1.7c-4.3-3.4-6.6-7.9-6.6-13.4
		S222.2,427,226.4,423.6z M234.1,437.6c0,3.2,1.6,5.9,4.6,5.9c2,0,3.3-1.2,4.1-2.7l2.2,1.2c-1.1,2.3-3.4,3.7-6.3,3.7
		c-4.4,0-7.4-3.5-7.4-8.3c0-4.9,2.9-8.3,7.4-8.3c2.9,0,5.2,1.5,6.3,3.7l-2.2,1.2c-0.8-1.5-2.1-2.7-4.1-2.7c-3.1,0-4.6,2.7-4.6,5.9
		V437.6L234.1,437.6z M262.6,437.6c0,4.8-2.9,8.3-7.4,8.3c-4.4,0-7.4-3.5-7.4-8.3c0-4.9,2.9-8.3,7.4-8.3
		C259.7,429.2,262.6,432.7,262.6,437.6z M259.9,437.6v-0.2c0-3.2-1.6-5.9-4.6-5.9s-4.6,2.7-4.6,5.9v0.2c0,3.1,1.6,5.9,4.6,5.9
		S259.9,440.8,259.9,437.6z M266.7,423.1h2.6v18.8c0,1.1,0.3,1.6,1.5,1.6c0.7,0,1.2-0.1,1.6-0.1l0.3,2.2c0,0-1.5,0.2-2.7,0.2
		c-1.9,0-3.4-0.8-3.4-3.1v-19.6H266.7z M289.3,437.6c0,4.8-2.9,8.3-7.4,8.3c-4.4,0-7.4-3.5-7.4-8.3c0-4.9,2.9-8.3,7.4-8.3
		C286.3,429.2,289.3,432.7,289.3,437.6z M286.6,437.6v-0.2c0-3.2-1.6-5.9-4.6-5.9s-4.6,2.7-4.6,5.9v0.2c0,3.1,1.6,5.9,4.6,5.9
		S286.6,440.8,286.6,437.6z M306,445.5h-2.6v-1.8c-1.1,1.5-2.7,2.1-4.7,2.1c-3.6,0-5.3-2.5-5.3-5.4v-10.8h2.6v10
		c0,2.8,1.4,3.9,3.3,3.9c2.2,0,4.1-1.4,4.1-4.4v-9.5h2.6V445.5L306,445.5z M319.2,431.9h-0.4c-2.7,0-5.1,1.1-5.1,5.4v8.2h-2.6v-16
		h2.6v2.5c0.8-1.9,2.8-2.8,4.8-2.8h0.8L319.2,431.9L319.2,431.9z M323.4,450.4l-2.2,1.7l-1.3-1.9c4.5-3.1,7.2-7.5,7.2-13.1v-0.2
		c0-5.6-2.6-10-7.2-13.1l1.3-1.9l2.2,1.7c4.3,3.4,6.6,7.9,6.6,13.4S327.7,447,323.4,450.4z M335.1,450.4l-2.2,1.7l-1.3-1.9
		c4.5-3.1,7.2-7.5,7.2-13.1v-0.2c0-5.6-2.6-10-7.2-13.1l1.3-1.9l2.2,1.7c4.3,3.4,6.6,7.9,6.6,13.4S339.4,447,335.1,450.4z
		 M347.7,441.6c1.2,0,2.1,1,2.1,2.1c0,1.2-1,2.1-2.1,2.1s-2.1-1-2.1-2.1C345.5,442.5,346.5,441.6,347.7,441.6z"/>
	<path class="st6" d="M585,268.9v211.7H55.1V268.9H585 M587,266.9H53.1v215.7H587V266.9z"/>
	<path class="st2" d="M0,636h960v4H0V636z"/>
	<path class="st2" d="M4,640V40h952v600h4V36H0v604H4z"/>
</g>
<g id="Layer_2">
	<g>
		<circle class="st3" cx="66.7" cy="62.2" r="2.5"/>
		<circle class="st3" cx="60.1" cy="66.1" r="2.5"/>
		<circle class="st3" cx="55.7" cy="72.6" r="2.5"/>
		<circle class="st3" cx="74.5" cy="70.9" r="2.5"/>
		<circle class="st3" cx="82.3" cy="62.2" r="2.5"/>
		<circle class="st3" cx="88.9" cy="66.1" r="2.5"/>
		<circle class="st3" cx="93.3" cy="72.6" r="2.5"/>
		<circle class="st3" cx="74.5" cy="70.9" r="2.5"/>
		<path class="st3" d="M75.4,57c0.1-0.1,0.2-0.2,0.3-0.3l3.1,1.6v-4.6l-3.1,1c-0.1-0.1-0.2-0.2-0.3-0.3l1.3-4h-4.5l1.3,4
			c-0.1,0.1-0.2,0.2-0.3,0.3l-3.1-1v4.6l3.1-1.6c0.1,0.1,0.2,0.2,0.3,0.3l-1.7,5.4c-0.6,1.9,0.8,3.8,2.7,3.8l0,0
			c2,0,3.4-1.9,2.7-3.8L75.4,57L75.4,57z M78,75.8c0,0-2.3,2.5-2.7,4.1c1.5,0,2.8-0.3,4.3-1.9l-0.5,5.7c-1.3-1.9-2.9-2.7-3.8-2.5
			c0.1,2.1,0.3,4.5,3.9,4.8c2.5,0.2,4.5-1,4.7-2.5c0.3-1.7-1.3-2.9-2.5-1.1c-0.9-3,1.6-4.1,3.3-2.1c-1.3-3-1.2-5.2,1.6-7.3
			c2,2.7,1.7,4.9-0.8,7.4c1.6-0.9,4.2,0,2.7,3.1c-0.8-1.9-2.5-1.5-2.8,0.1c-0.2,1.1,0.5,2.5,2,2.8c1.3,0.2,3.1-0.6,4.7-4
			c-0.9,0-1.6,0.5-2.6,1.1l1.6-5.4c0.4,1.5,0.9,2.5,1.5,3c0.4-1.1,0.3-1.9,0-3.6l3.3,1.2c-1.7,2.4-3.5,5.8-4.9,11.7
			c-5-0.7-10.5-1.1-16.4-1.1l0,0c-5.9,0-11.5,0.4-16.4,1.1c-1.4-6-3.1-9.3-4.9-11.7l3.3-1.2c-0.3,1.7-0.4,2.5,0,3.6
			c0.5-0.5,1.1-1.5,1.5-3l1.6,5.4c-1-0.7-1.7-1.1-2.6-1.1c1.5,3.3,3.5,4.2,4.7,4c1.5-0.3,2.2-1.6,2-2.8c-0.3-1.6-2-2.1-2.8-0.1
			c-1.5-3.1,1.1-4,2.7-3.1c-2.5-2.5-2.8-4.8-0.8-7.4c2.8,2.1,2.9,4.3,1.6,7.3c1.7-1.9,4.2-0.9,3.3,2.1c-1.2-1.8-2.7-0.7-2.5,1.1
			c0.2,1.5,2.2,2.7,4.7,2.5c3.6-0.3,3.8-2.8,3.9-4.8c-0.9-0.1-2.5,0.7-3.8,2.5L69.5,78c1.5,1.5,2.8,1.8,4.3,1.9
			c-0.5-1.5-2.7-4.1-2.7-4.1h7.1l0,0H78z"/>
	</g>
	<circle class="st7" cx="205.3" cy="74.5" r="4.9"/>
	<path class="st3" d="M116.7,74.6c0,1.3,0.1,2.4,0.5,3.6c0.3,1.1,0.8,2.1,1.4,3c0.6,0.9,1.5,1.6,2.4,2.1c1,0.5,2.1,0.8,3.6,0.8
		s2.4-0.2,3.3-0.6s1.5-0.9,2.1-1.5c0.5-0.6,0.9-1.3,1.1-2c0.2-0.7,0.3-1.4,0.3-2v-0.3h-7.4v-4.4H137v16.1h-5.2v-3.6
		c-0.3,0.5-0.8,1.1-1.3,1.5c-0.5,0.5-1.1,0.9-1.8,1.2s-1.4,0.6-2.2,0.8s-1.7,0.3-2.5,0.3c-2.1,0-4-0.4-5.6-1.1
		c-1.7-0.7-3-1.8-4.2-3.1s-2-2.9-2.5-4.8c-0.6-1.8-0.9-3.8-0.9-5.8c0-2.1,0.3-4,1-5.8c0.7-1.8,1.6-3.4,2.8-4.8
		c1.2-1.3,2.7-2.4,4.4-3.1c1.7-0.7,3.6-1.1,5.8-1.1s2.7,0.1,4,0.5c1.2,0.3,2.3,0.7,3.4,1.3c1,0.6,1.9,1.3,2.7,2.1
		c0.8,0.8,1.4,1.7,1.9,2.7l-5.2,2.9c-0.3-0.6-0.7-1.2-1.1-1.7c-0.4-0.5-0.9-1-1.5-1.4c-0.5-0.4-1.1-0.7-1.9-0.9
		c-0.7-0.2-1.5-0.3-2.3-0.3c-1.3,0-2.5,0.3-3.6,0.8c-1,0.5-1.8,1.3-2.4,2.1c-0.6,0.9-1.1,1.9-1.4,3.1c-0.3,1.2-0.5,2.3-0.5,3.6v0.2
		l0,0L116.7,74.6z M155.7,59.6c2.1,0,4.1,0.4,5.8,1.1c1.7,0.8,3.1,1.8,4.4,3.1c1.2,1.3,2.1,2.9,2.7,4.8s0.9,3.8,0.9,5.8
		c0,2.1-0.3,4-0.9,5.8c-0.6,1.8-1.5,3.4-2.7,4.8c-1.2,1.3-2.7,2.4-4.4,3.1c-1.7,0.7-3.7,1.1-5.8,1.1s-4.1-0.4-5.8-1.1
		c-1.7-0.7-3.1-1.8-4.4-3.1c-1.2-1.3-2.1-2.9-2.7-4.8c-0.6-1.8-0.9-3.8-0.9-5.8c0-2.1,0.3-4,0.9-5.8c0.6-1.8,1.5-3.4,2.7-4.8
		c1.2-1.3,2.7-2.4,4.4-3.1S153.5,59.6,155.7,59.6C155.7,59.6,155.7,59.6,155.7,59.6z M155.7,84.2c1.3,0,2.4-0.3,3.4-0.7
		c0.9-0.5,1.8-1.1,2.4-2c0.7-0.9,1.1-1.9,1.5-3c0.3-1.1,0.5-2.4,0.5-3.8v-0.1c0-1.3-0.2-2.6-0.5-3.8c-0.3-1.1-0.9-2.2-1.5-3
		c-0.7-0.9-1.5-1.5-2.4-2c-0.9-0.5-2.1-0.7-3.4-0.7s-2.4,0.3-3.3,0.7c-1,0.5-1.8,1.1-2.4,2c-0.6,0.9-1.1,1.9-1.5,3
		c-0.3,1.1-0.5,2.4-0.5,3.8v0.1c0,1.4,0.2,2.7,0.5,3.8c0.3,1.1,0.8,2.1,1.5,3s1.5,1.5,2.4,2C153.3,83.9,154.4,84.2,155.7,84.2z
		 M179.9,89.3l-8.2-29.5h6.6l5.6,22h0.2l5.5-22h6.5l-8.2,29.5 M229.4,84.2c0.9,0,1.7-0.1,2.4-0.4c0.7-0.3,1.3-0.6,1.9-1.1
		c0.5-0.5,0.9-1.1,1.3-1.9s0.5-1.7,0.5-2.7V59.8h5.8v19.1c0,1.6-0.3,3.1-0.9,4.4c-0.6,1.3-1.4,2.4-2.5,3.3c-1.1,0.9-2.3,1.6-3.8,2.1
		c-1.5,0.5-3,0.7-4.8,0.7s-3.3-0.3-4.8-0.7c-1.5-0.5-2.7-1.2-3.8-2.1c-1.1-0.9-1.9-2-2.5-3.3c-0.6-1.3-0.9-2.7-0.9-4.4V59.8h5.8V78
		c0,1.1,0.1,1.9,0.5,2.7c0.3,0.8,0.7,1.4,1.3,1.9c0.5,0.5,1.1,0.9,1.9,1.1C227.7,84.1,228.5,84.2,229.4,84.2L229.4,84.2L229.4,84.2z
		 M246.5,59.8h5.8v12.8l10.4-12.8h7.2l-10.1,11.8l10.8,17.7h-6.8l-7.7-13.2l-3.8,4.2v9h-5.8"/>
	<path class="st3" d="M289.1,63.9v25.5h-3.6V60.1h5.2L306,84.2V60.1h3.6v29.3h-4.4L289.1,63.9z M334.6,78.9c0,6.3-3.8,10.8-9.6,10.8
		c-5.8,0-9.6-4.6-9.6-10.8c0-6.4,3.8-10.8,9.6-10.8S334.6,72.5,334.6,78.9z M331,79.1v-0.2c0-4.2-2.1-7.8-6-7.8c-3.9,0-6,3.6-6,7.8
		v0.2c0,4.1,2.1,7.8,6,7.8C328.9,86.8,331,83.1,331,79.1z M345.1,84.1c0,1.4,0.2,2.6,2.7,2.6c0.6,0,2-0.1,2.6-0.2l0.4,3
		c0,0-2,0.2-3.7,0.2c-3.3,0-5.4-1.4-5.4-4.8V71.4h-3.9v-3h3.9v-6.8l3.4-1.2v8h5.8v3h-5.8C345.1,71.4,345.1,84.1,345.1,84.1z
		 M357.3,60.1c1.4,0,2.5,1.2,2.5,2.6c0,1.5-1.1,2.6-2.5,2.6c-1.5,0-2.6-1.1-2.6-2.6S355.8,60.1,357.3,60.1z M358.9,89.4h-3.4V68.5
		h3.4V89.4z M370.6,68.5h4.2v3h-4.2v17.9h-3.4V71.4h-3.4v-3h3.4v-3.9c0-3.6,2.5-4.9,5.8-4.9c1.7,0,2.8,0.2,3.3,0.2l-0.2,3
		c-0.7-0.1-2.3-0.1-3-0.1c-2,0-2.5,1.2-2.5,2.5L370.6,68.5L370.6,68.5z M377.1,68.5h3.9l5.2,17.2l4.9-17.2h3.8l-7.6,24
		c-0.9,3-3,3.7-5.5,3.7c-1.1,0-2.3-0.1-3.7-0.4l0.5-3c0,0,1.5,0.2,2.7,0.2c1.5,0,2.3-0.6,2.6-2.1l0.2-1L377.1,68.5L377.1,68.5z"/>
</g>
</svg>
