<svg id="Layer_1" xmlns="http://www.w3.org/2000/svg" viewBox="0 0 960 640"><style>.st0{fill:#FFD419;} .st1{fill:#004A1E;} .st2{fill:#DADADA;} .st3{fill:#FFFFFF;} .st4{fill:#0B0B0B;} .st5{fill:#00823B;} .st6{fill:#8C8C8C;}</style><path class="st0" d="M587 266.9v215.7H53.1V266.9H587m4-4H49.1v223.7H591V262.9z"/><path class="st1" d="M55 541h190.9v60.7H55z"/><path class="st0" d="M243.1 320.1h-80.3s-7.5-11.6-7.5-15.8c0-3.4 7.5-14.5 7.5-14.5h80.3s7 11.3 7 15.1c0 3.8-7 15.2-7 15.2zm78 132h-92.5s-7.5-11.6-7.5-15.8c0-3.4 7.5-14.5 7.5-14.5h92.5s7 11.3 7 15.1c.1 3.9-7 15.2-7 15.2zm-50.5-44H99.4s-7.5-11.6-7.5-15.8c0-3.4 7.5-14.5 7.5-14.5h171.2s7 11.3 7 15.1c.1 3.9-7 15.2-7 15.2z"/><path class="st2" d="M0 40V10C0 4.5 4.5 0 10 0h940c5.5 0 10 4.5 10 10v30"/><circle class="st3" cx="25.4" cy="20" r="8.5"/><circle class="st3" cx="49.1" cy="20" r="8.5"/><circle class="st3" cx="72.9" cy="20" r="8.5"/><path class="st4" d="M1 40h958v65H1z"/><path class="st3" d="M267 59.7l-10.7 13v-13h-6.1v30h6.1v-9.1l3.9-4.3 7.9 13.4h7l-11-18.1 10.4-11.9zm-37.4 24.6c-.8-.3-1.4-.6-2-1.2-.6-.5-1-1.2-1.3-2-.3-.8-.5-1.7-.5-2.8V59.7h-6v19.5c0 1.7.3 3.2.9 4.5.6 1.4 1.5 2.5 2.5 3.4 1.1.9 2.4 1.7 3.9 2.2 1.5.5 3.1.8 4.9.8 1.8 0 3.4-.3 4.9-.8 1.5-.5 2.8-1.2 3.9-2.2 1.1-.9 1.9-2.1 2.5-3.4.6-1.4.9-2.9.9-4.5V59.7h-6v18.6c0 1.1-.2 2-.5 2.8-.3.8-.8 1.5-1.3 2-.6.5-1.2.9-2 1.2-.8.3-1.6.4-2.5.4-.7 0-1.5-.2-2.3-.4m-21.9 3.5c.2.5.5.9.8 1.2.3.3.8.6 1.2.8.5.2 1 .3 1.5.3s1-.1 1.5-.3c.5-.2.9-.5 1.2-.8.3-.3.6-.8.8-1.2.2-.5.3-1 .3-1.5s-.1-1-.3-1.5c-.2-.5-.5-.9-.8-1.2-.3-.3-.8-.6-1.2-.8-.5-.2-.9-.3-1.5-.3-.5 0-1 .1-1.5.3-.5.2-.9.5-1.2.8-.3.3-.6.7-.8 1.2-.2.5-.3.9-.3 1.5s.1 1 .3 1.5m-9.6 1.9l8.5-30h-6.7l-5.7 22.6h-.2l-5.8-22.6h-6.8l8.5 30zm-36.8-5.8c-1-.5-1.8-1.2-2.5-2.1-.7-.9-1.2-1.9-1.5-3.1-.3-1.2-.5-2.5-.5-3.9v-.2c0-1.4.2-2.7.5-3.9.3-1.2.9-2.2 1.5-3.1.7-.9 1.5-1.6 2.5-2.1s2.2-.7 3.5-.7c1.3 0 2.5.2 3.5.7 1 .5 1.8 1.2 2.5 2.1.7.9 1.2 1.9 1.5 3.1.3 1.2.5 2.5.5 3.9v.2c0 1.4-.2 2.7-.5 3.9-.3 1.2-.9 2.2-1.5 3.1-.7.9-1.5 1.6-2.5 2.1s-2.2.7-3.5.7c-1.3.1-2.5-.2-3.5-.7m-2.5-23.4c-1.8.8-3.3 1.9-4.5 3.3-1.2 1.4-2.2 3-2.8 4.9-.6 1.9-1 3.9-1 6 0 2.2.3 4.2 1 6 .6 1.9 1.6 3.5 2.8 4.9 1.2 1.4 2.7 2.5 4.5 3.3 1.8.8 3.8 1.2 6 1.2s4.2-.4 6-1.2c1.8-.8 3.3-1.9 4.5-3.3 1.2-1.4 2.2-3 2.8-4.9.6-1.9 1-3.9 1-6s-.3-4.2-1-6c-.6-1.9-1.6-3.5-2.8-4.9-1.2-1.4-2.7-2.5-4.5-3.3-1.8-.8-3.8-1.2-6-1.2-2.3 0-4.3.4-6 1.2m-33.1 14.1c0-1.3.2-2.5.5-3.7.3-1.2.8-2.2 1.5-3.1.7-.9 1.5-1.6 2.5-2.2 1-.6 2.2-.8 3.6-.8.9 0 1.7.1 2.4.3.7.2 1.4.5 1.9.9.6.4 1.1.9 1.5 1.4.4.5.8 1.1 1.1 1.8l5.3-3c-.5-1-1.2-2-2-2.9-.8-.9-1.7-1.6-2.8-2.2-1.1-.6-2.2-1.1-3.5-1.4-1.3-.3-2.6-.5-4-.5-2.2 0-4.2.4-5.9 1.2-1.8.8-3.3 1.9-4.5 3.3-1.2 1.4-2.2 3-2.9 4.9-.7 1.9-1 3.9-1 6 0 2.2.3 4.2.9 6 .6 1.9 1.5 3.5 2.7 4.9 1.2 1.4 2.6 2.5 4.3 3.3 1.7.8 3.6 1.2 5.8 1.2.9 0 1.8-.1 2.6-.3.8-.2 1.6-.5 2.3-.8.7-.3 1.3-.8 1.9-1.2.6-.5 1-1 1.4-1.6v3.5h5.3V73.3H133v4.6h7.7v.3c0 .6-.1 1.3-.3 2.1-.2.8-.6 1.5-1.1 2.1-.5.6-1.3 1.2-2.2 1.6-.9.4-2 .6-3.4.6s-2.6-.3-3.6-.8c-1-.6-1.9-1.3-2.5-2.2-.7-.9-1.1-2-1.5-3.1-.3-1.2-.5-2.4-.5-3.7v-.2zm-63.4-8.8c1.4.6 2.9-.1 3.4-1.4.6-1.3-.1-2.9-1.4-3.4-1.3-.5-2.9.1-3.4 1.4-.6 1.3.1 2.9 1.4 3.4m-6 3.5c1.4.6 2.9-.1 3.4-1.4.6-1.3-.1-2.9-1.4-3.4-1.3-.5-2.9.1-3.4 1.4-.5 1.3.1 2.9 1.4 3.4m-1.7 6.6c1.4.6 2.9-.1 3.4-1.4.6-1.3-.1-2.9-1.4-3.4-1.3-.5-2.9.1-3.4 1.4-.6 1.4.1 2.9 1.4 3.4m14.3-8c1.4.6 2.9-.1 3.4-1.4.6-1.3-.1-2.9-1.4-3.4-1.3-.5-2.9.1-3.4 1.4-.5 1.3.1 2.9 1.4 3.4M93 65.8c-1.4.6-2.9-.1-3.4-1.4-.6-1.3.1-2.9 1.4-3.4 1.3-.5 2.9.1 3.4 1.4.6 1.3 0 2.9-1.4 3.4m6 3.5c-1.4.6-2.9-.1-3.4-1.4-.6-1.3 0-2.9 1.4-3.4 1.3-.5 2.9.1 3.4 1.4.6 1.3-.1 2.9-1.4 3.4m1.8 6.6c-1.4.6-2.9-.1-3.4-1.4-.6-1.3.1-2.9 1.4-3.4 1.3-.5 2.9.1 3.4 1.4.5 1.4-.1 2.9-1.4 3.4m-14.4-8c-1.4.6-2.9-.1-3.4-1.4-.6-1.3.1-2.9 1.4-3.4 1.3-.5 2.9.1 3.4 1.4.6 1.3-.1 2.9-1.4 3.4m-7.3-6.8l3.3 1.7V58l-3.3 1-.3-.3 1.3-4.2h-4.8l1.3 4.2-.3.3-3.4-1v4.9l3.3-1.7.3.3-1.9 5.8c-.1.3-.1.6-.1.9 0 1.6 1.2 2.8 2.6 3.1h1c1.5-.2 2.7-1.5 2.7-3.1 0-.3 0-.6-.1-.9l-1.9-5.8c0-.1.2-.2.3-.4m-1.4 28.2c6.3 0 12.3.4 17.6 1.2 1.5-6.4 3.4-10 5.3-12.6L97 76.7c.4 1.8.4 2.7 0 3.8-.6-.6-1.2-1.6-1.6-3.3L93.7 83c1.1-.7 1.9-1.2 2.8-1.2-1.7 3.6-3.7 4.5-5 4.2-1.6-.3-2.4-1.8-2.1-3 .4-1.7 2.2-2.2 3-.2 1.6-3.3-1.1-4.3-2.9-3.3 2.7-2.7 3-5.1.8-7.9-3 2.3-3.1 4.6-1.7 7.8-1.8-2-4.5-.9-3.5 2.3 1.3-2 3-.7 2.7 1.1-.2 1.6-2.4 2.9-5.1 2.7-3.8-.3-4.1-3-4.2-5.2.9-.2 2.6.7 4.1 2.7l.5-6.1c-1.6 1.6-3 2-4.6 2 .5-1.7 3-4.4 3-4.4h-7.6s2.4 2.7 3 4.4c-1.6-.1-3-.4-4.6-2l.5 6.1c1.5-2 3.2-2.9 4.1-2.7-.1 2.2-.3 4.8-4.2 5.2-2.7.2-4.8-1.1-5.1-2.7-.3-1.9 1.4-3.1 2.7-1.1 1-3.3-1.8-4.3-3.5-2.3 1.4-3.2 1.3-5.5-1.7-7.8-2.2 2.9-1.9 5.3.8 7.9-1.8-1-4.5.1-2.9 3.3.8-2 2.6-1.6 3 .2.3 1.2-.5 2.7-2.1 3-1.3.2-3.4-.7-5-4.2.9 0 1.7.5 2.8 1.2L60 77.2c-.4 1.6-1 2.7-1.6 3.3-.4-1.2-.3-2 0-3.8L54.8 78c1.9 2.6 3.7 6.2 5.3 12.6 5.3-.8 11.2-1.3 17.6-1.3M302.3 69v20.7h-2.9V65.9h4.2L316 85.5V65.9h2.9v23.8h-3.6l-13-20.7zm36.9 12.2c0 5.1-3.1 8.8-7.8 8.8-4.7 0-7.8-3.7-7.8-8.8 0-5.2 3.1-8.8 7.8-8.8 4.7 0 7.8 3.6 7.8 8.8zm-2.9.1v-.2c0-3.4-1.7-6.3-4.9-6.3s-4.9 2.9-4.9 6.3v.2c0 3.3 1.7 6.3 4.9 6.3s4.9-3 4.9-6.3zm11.5 4.1c0 1.1.2 2.1 2.2 2.1.5 0 1.6-.1 2.1-.2l.3 2.4s-1.6.2-3 .2c-2.7 0-4.4-1.1-4.4-3.9V75.1h-3.2v-2.4h3.2v-5.5l2.8-1v6.5h4.7v2.4h-4.7v10.3zm9.9-19.5c1.1 0 2 1 2 2.1 0 1.2-.9 2.1-2 2.1-1.2 0-2.1-.9-2.1-2.1 0-1.2.9-2.1 2.1-2.1zm1.3 23.8h-2.8v-17h2.8v17zm9.5-17h3.4v2.4h-3.4v14.5h-2.8V75.1h-2.8v-2.4h2.8v-3.2c0-2.9 2-4 4.7-4 1.4 0 2.3.2 2.7.2l-.2 2.4c-.6-.1-1.9-.1-2.4-.1-1.6 0-2 1-2 2v2.7zm5.3 0h3.2l4.2 14 4-14h3.1l-6.2 19.5c-.7 2.4-2.4 3-4.5 3-.9 0-1.9-.1-3-.3l.4-2.4s1.2.2 2.2.2c1.2 0 1.9-.5 2.1-1.7l.2-.8-5.7-17.5z"/><path class="st5" d="M55 534h190.9v60.7H55z"/><path class="st4" d="M70 174.3h-9.8l-1.2 4h-5.4l8.2-25.2h6.7l8.4 25.2h-5.7l-1.2-4zm-8.4-4.5h7.1l-3.5-11.4h-.1l-3.5 11.4zm16.7-1c0-5.6 3.3-9.7 8.3-9.7 2.2 0 3.7.9 4.8 2v-8h4.9v25.2h-4.9v-1.6c-1 1.1-2.4 2-4.6 2-5 0-8.4-4.1-8.4-9.7v-.2zm13.1-1.7c0-2-1.5-3.5-3.9-3.5-2.8 0-4.3 2.2-4.3 5.2v.2c0 3 1.5 5.2 4.3 5.2 2.4 0 3.9-1.5 3.9-3.5v-3.6zm8.3 1.7c0-5.6 3.3-9.7 8.3-9.7 2.2 0 3.7.9 4.8 2v-8h4.9v25.2h-4.9v-1.6c-1 1.1-2.4 2-4.6 2-5 0-8.4-4.1-8.4-9.7v-.2zm13.2-1.7c0-2-1.5-3.5-3.9-3.5-2.8 0-4.3 2.2-4.3 5.2v.2c0 3 1.5 5.2 4.3 5.2 2.4 0 3.9-1.5 3.9-3.5v-3.6zm24.2 5.6c0 .9.4 1.6 2.1 1.6.7 0 1.9-.1 2.4-.2l.4 4.3s-2.4.3-4.5.3c-3.3 0-5.3-1.5-5.3-4.8v-10h-3.4v-4.4h3.4v-5.3l4.9-1.3v6.6h4.9v4.4h-4.9v8.8zm12.4-2.2c.5 2.4 2.3 3.7 4.6 3.7 1.8 0 3.5-.6 4.8-1.8l2.4 3.7c-1.7 1.4-4.2 2.5-7.3 2.5-5.2 0-9.5-3.6-9.5-9.6v-.2c0-5.5 3.8-9.7 9.1-9.7 5 0 8.6 3.8 8.6 9.3v2.2h-12.7zm0-3.6h7.6c-.1-1.7-1.2-3.6-3.7-3.6s-3.7 1.9-3.9 3.6zm20.2 1.5l-5.7-9h5.6l2.9 5.1 3-5.1h5.7l-5.8 9 6.5 9.8H176l-3.7-5.8-3.4 5.8h-5.7l6.5-9.8zm21.5 4.3c0 .9.4 1.6 2.1 1.6.7 0 1.9-.1 2.4-.2l.4 4.3s-2.4.3-4.5.3c-3.3 0-5.3-1.5-5.3-4.8v-10h-3.4v-4.4h3.4v-5.3l4.9-1.3v6.6h4.9v4.4h-4.9v8.8zm32.9 5.6h-4.9v-10.9c0-2.7-1.3-3.6-2.8-3.6-1.9 0-3.3 1.3-3.3 4.3v10.3h-4.9v-18.8h4.9v1.7c1.2-1.4 3-2 4.8-2 1.9 0 3.7.8 4.9 2.6 1.3-1.9 3.5-2.6 5.7-2.6 4.2 0 6.7 3 6.7 6.3v12.9h-4.9v-10.9c0-2.7-1.3-3.6-2.8-3.6-1.9 0-3.3 1.3-3.3 4.3v10zm19.5-7.8c.5 2.4 2.3 3.7 4.6 3.7 1.8 0 3.5-.6 4.8-1.8l2.4 3.7c-1.7 1.4-4.2 2.5-7.3 2.5-5.2 0-9.5-3.6-9.5-9.6v-.2c0-5.5 3.8-9.7 9.1-9.7 5 0 8.6 3.8 8.6 9.3v2.2h-12.7zm.1-3.6h7.6c-.1-1.7-1.2-3.6-3.7-3.6-2.6 0-3.8 1.9-3.9 3.6zm17.6 5.3c1.3 1.3 3.6 2.3 5.5 2.3 1.5 0 2.7-.4 2.7-1.5 0-.9-.7-1.3-2.3-1.7-1.1-.3-3.1-.6-4.7-1.3-1.8-.8-3.3-2.3-3.3-4.9 0-4 3.6-6 7.7-6 3.2 0 5.9 1.2 7.5 2.7l-3.1 3.2c-1-.9-2.6-1.7-4.3-1.7-1.3 0-2.7.5-2.7 1.6 0 .9.8 1.2 2.2 1.5 2.3.6 4 1 5.4 1.7 1.5.8 2.6 2.4 2.6 4.5 0 4-3.4 6-7.6 6-3.1 0-6.6-1.2-8.5-2.8l2.9-3.6zm18.3 0c1.3 1.3 3.6 2.3 5.5 2.3 1.5 0 2.7-.4 2.7-1.5 0-.9-.7-1.3-2.3-1.7-1.1-.3-3.1-.6-4.7-1.3-1.8-.8-3.3-2.3-3.3-4.9 0-4 3.6-6 7.7-6 3.2 0 5.9 1.2 7.5 2.7l-3.1 3.2c-1-.9-2.6-1.7-4.3-1.7-1.3 0-2.7.5-2.7 1.6 0 .9.8 1.2 2.2 1.5 2.3.6 4 1 5.4 1.7 1.5.8 2.6 2.4 2.6 4.5 0 4-3.4 6-7.6 6-3.1 0-6.6-1.2-8.5-2.8l2.9-3.6zm22.2 6.4c-3.4 0-6.5-2.2-6.5-5.9 0-3 2-5 5.3-5.5l5.7-.8v-.6c0-1.7-1.1-2.4-3-2.4-2.3 0-4.1.9-5.5 1.5l-1.9-3.7c2.2-1.2 4.9-2.1 7.6-2.1 3.5 0 7.6.9 7.6 6v8.1c0 1.1.6 1.5 1.6 1.9l-2.2 3.5c-1.8-.1-3-1.1-3.5-2.1-1.1 1.5-2.9 2.1-5.2 2.1zm.6-7.9c-1.2.2-2 .9-2 1.9 0 1.2.9 2.2 2.6 2.2 2.3 0 3.3-1.5 3.3-3.5V170l-3.9.7zm20.4-11.6c1.8 0 3.5.7 4.4 1.7v-1.4h4.9V178c0 4.6-3.7 6.5-8.2 6.5-2.7 0-6-.5-8.1-1.7l1.4-4.2c1.4.6 3.9 1.4 6.2 1.4 2.1 0 4-.7 4-3v-2.3c-1 1-2.5 1.7-4.6 1.7-4.3 0-7.7-3.5-7.7-8.5-.2-4.9 2.7-8.8 7.7-8.8zm-2.9 8.8c0 2.5 1 4.4 3.7 4.4s3.7-1.9 3.7-4.4c0-2.5-1-4.5-3.7-4.5s-3.7 2-3.7 4.5zm20.8 2.6c.5 2.4 2.3 3.7 4.6 3.7 1.8 0 3.5-.6 4.8-1.8l2.4 3.7c-1.7 1.4-4.2 2.5-7.3 2.5-5.2 0-9.5-3.6-9.5-9.6v-.2c0-5.5 3.8-9.7 9.1-9.7 5 0 8.6 3.8 8.6 9.3v2.2h-12.7zm0-3.6h7.6c-.1-1.7-1.2-3.6-3.7-3.6-2.6 0-3.8 1.9-3.9 3.6zm30.6 5.8c0 .9.4 1.6 2.1 1.6.7 0 1.9-.1 2.4-.2l.4 4.3s-2.4.3-4.5.3c-3.3 0-5.3-1.5-5.3-4.8v-10H363v-4.4h3.4v-5.3l4.9-1.3v6.6h4.9v4.4h-4.9v8.8zm12.4-2.2c.5 2.4 2.3 3.7 4.6 3.7 1.8 0 3.5-.6 4.8-1.8l2.4 3.7c-1.7 1.4-4.2 2.5-7.3 2.5-5.2 0-9.5-3.6-9.5-9.6v-.2c0-5.5 3.8-9.7 9.1-9.7 5 0 8.6 3.8 8.6 9.3v2.2h-12.7zm0-3.6h7.6c-.1-1.7-1.2-3.6-3.7-3.6-2.6 0-3.7 1.9-3.9 3.6zm32 11.4h-4.9v-10.9c0-2.7-1.3-3.6-2.8-3.6-1.9 0-3.3 1.3-3.3 4.3v10.3h-4.9v-18.8h4.9v1.7c1.2-1.4 3-2 4.8-2 1.9 0 3.7.8 4.9 2.6 1.3-1.9 3.5-2.6 5.7-2.6 4.2 0 6.7 3 6.7 6.3v12.9h-4.9v-10.9c0-2.7-1.3-3.6-2.8-3.6-1.9 0-3.3 1.3-3.3 4.3v10zm20.3-18.8v1.6c1-1.1 2.6-2 4.8-2 5 0 8.3 4.1 8.3 9.7v.2c0 5.6-3.4 9.7-8.4 9.7-2.2 0-3.6-.9-4.6-2v7.6h-4.9v-24.8h4.8zm-.1 11.1c0 2 1.5 3.5 3.9 3.5 2.8 0 4.3-2.2 4.3-5.2v-.2c0-3-1.5-5.2-4.3-5.2-2.4 0-3.9 1.5-3.9 3.5v3.6zm16.7-17.5h4.9v20.1c0 .8.4 1.2 1.4 1.2.6 0 1.3-.1 1.8-.2l.4 4.1s-2.3.3-4.1.3c-2.7 0-4.4-1.4-4.4-4.1v-21.4zm16.2 25.5c-3.4 0-6.5-2.2-6.5-5.9 0-3 2-5 5.3-5.5l5.7-.8v-.6c0-1.7-1.1-2.4-3-2.4-2.3 0-4.1.9-5.5 1.5l-1.9-3.7c2.2-1.2 4.9-2.1 7.6-2.1 3.5 0 7.6.9 7.6 6v8.1c0 1.1.6 1.5 1.6 1.9l-2.2 3.5c-1.8-.1-3-1.1-3.5-2.1-1.2 1.5-3 2.1-5.2 2.1zm.6-7.9c-1.2.2-2 .9-2 1.9 0 1.2.9 2.2 2.6 2.2 2.3 0 3.3-1.5 3.3-3.5V170l-3.9.7zm20 2c0 .9.4 1.6 2.1 1.6.7 0 1.9-.1 2.4-.2l.4 4.3s-2.4.3-4.5.3c-3.3 0-5.3-1.5-5.3-4.8v-10h-3.4v-4.4h3.4v-5.3l4.9-1.3v6.6h4.9v4.4h-4.9v8.8zm12.5-2.2c.5 2.4 2.3 3.7 4.6 3.7 1.8 0 3.5-.6 4.8-1.8l2.4 3.7c-1.7 1.4-4.2 2.5-7.3 2.5-5.2 0-9.5-3.6-9.5-9.6v-.2c0-5.5 3.8-9.7 9.1-9.7 5 0 8.6 3.8 8.6 9.3v2.2h-12.7zm0-3.6h7.6c-.1-1.7-1.2-3.6-3.7-3.6-2.6 0-3.8 1.9-3.9 3.6zM73.8 224.8h3.4v22.4h-2.8v-19l-7.6 10.3-7.6-10.2v18.9h-2.8v-22.4h3.4l7 9.5 7-9.5zM84.4 240c.2 3 2.1 5.2 5 5.2 1.8 0 3.1-.7 4.2-1.6l1.3 1.9c-1.4 1.2-3.3 2-5.7 2-4.6 0-7.6-3.5-7.6-8.3 0-4.9 2.8-8.3 7.3-8.3 4.2 0 6.8 3.5 6.8 8.3v.8H84.4zm.1-2.1h8.4c-.1-2.5-1.5-4.7-4-4.7-2.7 0-4.3 2.3-4.4 4.7zm13.8 7.3l1.6-1.9c1 .9 2.7 2 4.8 2 1.8 0 3.2-.8 3.2-2.4 0-1.7-1.7-2.1-3.9-2.7-2.3-.6-5-1.4-5-4.7 0-2.7 2.5-4.6 5.8-4.6 2.1 0 4.4.9 5.5 2l-1.5 1.8c-.9-.9-2.3-1.5-3.9-1.5-2.1 0-3.2.9-3.2 2.4 0 1.2.9 1.7 2.3 2.1.8.2 1.8.5 2.6.8 2.1.7 3.9 1.8 3.9 4.4 0 3.3-2.9 4.8-6 4.8-2-.2-4.4-.9-6.2-2.5zm15.1 0l1.6-1.9c1 .9 2.7 2 4.8 2 1.8 0 3.2-.8 3.2-2.4 0-1.7-1.7-2.1-3.9-2.7-2.3-.6-5-1.4-5-4.7 0-2.7 2.5-4.6 5.8-4.6 2.1 0 4.4.9 5.5 2l-1.5 1.8c-.9-.9-2.3-1.5-3.9-1.5-2.1 0-3.2.9-3.2 2.4 0 1.2.9 1.7 2.3 2.1.8.2 1.8.5 2.6.8 2.1.7 3.9 1.8 3.9 4.4 0 3.3-2.9 4.8-6 4.8-2.1-.2-4.5-.9-6.2-2.5zm20.8 2.3c-3.2 0-5.6-1.9-5.6-4.8 0-2.5 1.7-4.2 4.3-4.5l5.6-.8v-1c0-2.4-1.6-3.2-3.6-3.2-1.8 0-3.4.6-4.6 1.2l-1-2.1c1.8-1 3.9-1.5 5.9-1.5 3.9 0 5.9 1.7 5.9 5.1v7.5c0 1.1.4 1.8 1.3 2.2l-1.5 1.9c-1-.3-1.8-1-2.1-1.9-.9 1.1-2.5 1.9-4.6 1.9zm0-7.4c-1.8.3-2.9.8-2.9 2.5 0 1.9 1.5 2.9 3.3 2.9 2 0 3.9-1.2 3.9-3.1v-2.9l-4.3.6zm17.6-9.2c1.7 0 3.4.6 4.5 2.1v-1.8h2.6v16.1c0 4-3.5 5.1-6.8 5.1-1.9 0-4.1-.4-5.9-1.3l.9-2.2c1.2.6 3.2 1.1 5.1 1.1 2.7 0 4.2-1 4.2-3.5v-3c-1.1 1.5-2.8 2.1-4.5 2.1-4 0-6.5-3.2-6.5-7.4-.1-4.1 2.4-7.3 6.4-7.3zm4.6 7.3c0-2.8-1.2-5-4.1-5-2.9 0-4.2 2.2-4.2 5v.1c0 2.8 1.3 5 4.2 5 2.9 0 4.1-2.2 4.1-5v-.1zm9.4 1.8c.2 3 2.1 5.2 5 5.2 1.8 0 3.1-.7 4.2-1.6l1.3 1.9c-1.4 1.2-3.3 2-5.7 2-4.6 0-7.6-3.5-7.6-8.3 0-4.9 2.8-8.3 7.3-8.3 4.2 0 6.8 3.5 6.8 8.3v.8h-11.3zm.1-2.1h8.4c-.1-2.5-1.5-4.7-4-4.7-2.6 0-4.3 2.3-4.4 4.7z"/><path class="st3" d="M117.7 571.7c1.5 1.8 3.7 2.9 6.3 2.9 2.7 0 5.1-1.4 5.1-4 0-1.7-.9-2.5-2.1-3.1-2.2-1.1-5.7-1.1-8.1-2.6-1.4-.9-2.6-2.3-2.6-4.7 0-3.5 2.9-6.2 7.6-6.2 2.9 0 5.7 1.2 7.4 3l-2 1.6c-1.2-1.2-3-2.3-5.4-2.3-2.7 0-4.9 1.3-4.9 3.7 0 3.6 5.3 3.2 9.2 4.9 2 .9 3.7 2.4 3.7 5.3 0 4.4-4 6.7-8.1 6.7-3.7 0-6.4-1.6-8.2-3.5l2.1-1.7zm24.5 5.3c-3.2 0-5.6-1.9-5.6-4.8 0-2.5 1.7-4.2 4.3-4.5l5.6-.8v-1c0-2.4-1.6-3.2-3.6-3.2-1.8 0-3.4.6-4.6 1.2l-1-2.1c1.8-1 3.9-1.5 5.9-1.5 3.9 0 5.9 1.7 5.9 5.1v7.5c0 1.1.4 1.8 1.3 2.2l-1.5 1.9c-1-.3-1.8-1-2.1-1.9-.9 1-2.5 1.9-4.6 1.9zm0-7.5c-1.8.3-2.9.8-2.9 2.5 0 1.9 1.5 2.9 3.3 2.9 2 0 3.9-1.2 3.9-3.1v-2.9l-4.3.6zm16.9 7.2l-5.1-16h3l3.8 13.5 3.8-13.5h3l-5.1 16h-3.4zm15.1-7.2c.2 3 2.1 5.2 5 5.2 1.8 0 3.1-.7 4.2-1.6l1.3 1.9c-1.4 1.2-3.3 2-5.7 2-4.6 0-7.6-3.5-7.6-8.3 0-4.9 2.8-8.3 7.3-8.3 4.2 0 6.8 3.5 6.8 8.3v.8h-11.3zm0-2.1h8.4c-.1-2.5-1.5-4.7-4-4.7-2.6 0-4.3 2.2-4.4 4.7z"/><path class="st4" d="M95.2 303.2H83.4v10.3h-2.8v-22.4h2.8v9.7h11.8v-9.7H98v22.4h-2.8v-10.3zm10 3.2c.2 3 2.1 5.2 5 5.2 1.8 0 3.1-.7 4.2-1.6l1.3 1.9c-1.4 1.2-3.3 2-5.7 2-4.6 0-7.6-3.5-7.6-8.3 0-4.9 2.8-8.3 7.3-8.3 4.2 0 6.8 3.5 6.8 8.3v.8h-11.3zm0-2.2h8.4c-.1-2.5-1.5-4.7-4-4.7-2.6 0-4.3 2.3-4.4 4.7zm13.3-6.6h3l3.9 13.2 3.7-13.2h2.9l-5.8 18.4c-.7 2.2-2.3 2.8-4.2 2.8-.9 0-1.8-.1-2.8-.3l.4-2.3s1.1.2 2.1.2c1.2 0 1.8-.5 2-1.6l.2-.7-5.4-16.5zm30.3-6l2.2-1.7 1.3 1.9c-4.5 3.1-7.2 7.5-7.2 13.1v.2c0 5.6 2.6 10 7.2 13.1l-1.3 1.9-2.2-1.7c-4.3-3.4-6.6-7.9-6.6-13.4s2.4-10 6.6-13.4zm11.8 0l2.2-1.7 1.3 1.9c-4.5 3.1-7.2 7.5-7.2 13.1v.2c0 5.6 2.6 10 7.2 13.1l-1.3 1.9-2.2-1.7c-4.3-3.4-6.6-7.9-6.6-13.4s2.3-10 6.6-13.4zm6.3 6h2.6v1.8c1.1-1.5 2.7-2.1 4.7-2.1 3.6 0 5.3 2.5 5.3 5.4v10.8h-2.6v-10c0-2.8-1.4-3.9-3.3-3.9-2 0-4.1 1.4-4.1 4.4v9.5h-2.6v-15.9zm22 16.2c-3.2 0-5.6-1.9-5.6-4.8 0-2.5 1.7-4.2 4.3-4.5l5.6-.8v-1c0-2.4-1.6-3.2-3.6-3.2-1.8 0-3.4.6-4.6 1.2l-1-2.1c1.8-1 3.9-1.5 5.9-1.5 3.9 0 5.9 1.7 5.9 5.1v7.5c0 1.1.4 1.8 1.3 2.2l-1.5 1.9c-1-.3-1.8-1-2.1-1.9-.9 1.1-2.5 1.9-4.6 1.9zm0-7.4c-1.8.3-2.9.8-2.9 2.5 0 1.9 1.5 2.9 3.3 2.9 2 0 3.9-1.2 3.9-3.1v-2.9l-4.3.6zm24 7.1h-2.6v-10c0-2.8-1.4-3.8-3.2-3.8-1.8 0-3.5 1.3-3.5 4.4v9.4H201v-16h2.6v1.8c1.1-1.5 2.5-2.1 4.2-2.1 1.4 0 3.5.7 4.3 2.7 1.2-2 3.1-2.7 4.9-2.7 3.5 0 5.4 2.5 5.4 5.3v10.9h-2.6v-10c0-2.8-1.5-3.8-3.3-3.8-1.8 0-3.5 1.3-3.5 4.4v9.5zm16.2-7.1c.2 3 2.1 5.2 5 5.2 1.8 0 3.1-.7 4.2-1.6l1.3 1.9c-1.4 1.2-3.3 2-5.7 2-4.6 0-7.6-3.5-7.6-8.3 0-4.9 2.8-8.3 7.3-8.3 4.2 0 6.8 3.5 6.8 8.3v.8h-11.3zm0-2.2h8.4c-.1-2.5-1.5-4.7-4-4.7-2.6 0-4.2 2.3-4.4 4.7zm16.2 14.2l-2.2 1.7-1.3-1.9c4.5-3.1 7.2-7.5 7.2-13.1v-.2c0-5.6-2.6-10-7.2-13.1l1.3-1.9 2.2 1.7c4.3 3.4 6.6 7.9 6.6 13.4s-2.3 10-6.6 13.4zm11.8 0l-2.2 1.7-1.3-1.9c4.5-3.1 7.2-7.5 7.2-13.1v-.2c0-5.6-2.6-10-7.2-13.1l1.3-1.9 2.2 1.7c4.3 3.4 6.6 7.9 6.6 13.4s-2.4 10-6.6 13.4zm15-6.1c0 1.8-.9 3.9-3.7 4.1h-.4l-.1-1.2.4-.1c.8-.1 1.6-.4 1.6-1.3v-.1h-.3c-1.2 0-2.1-.9-2.1-2.1 0-1.2 1-2.1 2.1-2.1 1.4.1 2.5 1.2 2.5 2.8zM80.6 335.1h2.8v22.4h-2.8v-22.4zm12.9 2.5c0 1.8-.9 3.9-3.7 4.1h-.4l-.1-1.2.4-.1c.8-.1 1.6-.4 1.6-1.3v-.1H91c-1.2 0-2.1-.9-2.1-2.1 0-1.2 1-2.1 2.1-2.1 1.4 0 2.5 1.1 2.5 2.8zm16.4 19.9h-2.6v-10c0-2.8-1.4-3.8-3.2-3.8-1.8 0-3.5 1.3-3.5 4.4v9.4H98v-16h2.6v1.8c1.1-1.5 2.5-2.1 4.2-2.1 1.4 0 3.5.7 4.3 2.7 1.2-2 3.1-2.7 4.9-2.7 3.5 0 5.4 2.5 5.4 5.3v10.9h-2.6v-10c0-2.8-1.5-3.8-3.3-3.8-1.8 0-3.5 1.3-3.5 4.4v9.5zm26.3-3.9c0 1.1.2 2 2 2 .5 0 1.5-.1 2-.2l.3 2.3s-1.5.2-2.8.2c-2.5 0-4.1-1-4.1-3.7v-10.3h-3v-2.3h3v-5.2l2.6-.9v6.1h4.4v2.3h-4.4v9.7zm16.2-9.7h-.4c-2.7 0-5.1 1.1-5.1 5.4v8.2h-2.6v-16h2.6v2.5c.8-1.9 2.8-2.8 4.8-2.8h.8v2.7zm1.6-2.3h3l3.9 13.2 3.7-13.2h2.9l-5.8 18.4c-.7 2.2-2.3 2.8-4.2 2.8-.9 0-1.8-.1-2.8-.3l.4-2.3s1.1.2 2.1.2c1.2 0 1.8-.5 2-1.6l.2-.7-5.4-16.5zm18.4-6.5c1.1 0 1.9.9 1.9 2s-.9 2-1.9 2c-1.1 0-2-.9-2-2s.9-2 2-2zm1.2 22.4H171v-16h2.6v16zm5.2-15.9h2.6v1.8c1.1-1.5 2.7-2.1 4.7-2.1 3.6 0 5.3 2.5 5.3 5.4v10.8h-2.6v-10c0-2.8-1.4-3.9-3.3-3.9-2 0-4.1 1.4-4.1 4.4v9.5h-2.6v-15.9zm23.2-.4c1.7 0 3.4.6 4.5 2.1v-1.8h2.6v16.1c0 4-3.5 5.1-6.8 5.1-1.9 0-4.1-.4-5.9-1.3l.9-2.2c1.2.6 3.2 1.1 5.1 1.1 2.7 0 4.2-1 4.2-3.5v-3c-1.1 1.5-2.8 2.1-4.5 2.1-4 0-6.5-3.2-6.5-7.4s2.4-7.3 6.4-7.3zm4.5 7.4c0-2.8-1.2-5-4.1-5-2.9 0-4.2 2.2-4.2 5v.1c0 2.8 1.3 5 4.2 5 2.9 0 4.1-2.2 4.1-5v-.1zm29.9 1c0 4.8-2.9 8.3-7.4 8.3-4.4 0-7.4-3.5-7.4-8.3 0-4.9 2.9-8.3 7.4-8.3 4.4-.1 7.4 3.4 7.4 8.3zm-2.8 0v-.2c0-3.2-1.6-5.9-4.6-5.9-3 0-4.6 2.7-4.6 5.9v.2c0 3.1 1.6 5.9 4.6 5.9 3 0 4.6-2.7 4.6-5.9zm19.4 7.9h-2.6v-1.8c-1.1 1.5-2.7 2.1-4.7 2.1-3.6 0-5.3-2.5-5.3-5.4v-10.8h2.6v10c0 2.8 1.4 3.9 3.3 3.9 2.2 0 4.1-1.4 4.1-4.4v-9.5h2.6v15.9zm9.3-3.9c0 1.1.2 2 2 2 .5 0 1.5-.1 2-.2l.3 2.3s-1.5.2-2.8.2c-2.5 0-4.1-1-4.1-3.7v-10.3h-3v-2.3h3v-5.2l2.6-.9v6.1h4.4v2.3h-4.4v9.7zm19.7-15.5v19.5h-2.7v-22.4h4l11.6 18.5v-18.5h2.7v22.4h-3.4L282 338.1zm34.8 11.5c0 4.8-2.9 8.3-7.4 8.3-4.4 0-7.4-3.5-7.4-8.3 0-4.9 2.9-8.3 7.4-8.3 4.5-.1 7.4 3.4 7.4 8.3zm-2.7 0v-.2c0-3.2-1.6-5.9-4.6-5.9-3 0-4.6 2.7-4.6 5.9v.2c0 3.1 1.6 5.9 4.6 5.9 3 0 4.6-2.7 4.6-5.9zm10.7 4c0 1.1.2 2 2 2 .5 0 1.5-.1 2-.2l.3 2.3s-1.5.2-2.8.2c-2.5 0-4.1-1-4.1-3.7v-10.3h-3v-2.3h3v-5.2l2.6-.9v6.1h4.4v2.3h-4.4v9.7zm9.4-18.5c1.1 0 1.9.9 1.9 2s-.9 2-1.9 2c-1.1 0-2-.9-2-2s.9-2 2-2zm1.3 22.4h-2.6v-16h2.6v16zm8.8-15.9h3.2v2.3h-3.2v13.7h-2.6v-13.7H339v-2.3h2.7v-3c0-2.8 1.9-3.7 4.4-3.7 1.3 0 2.1.2 2.6.2l-.2 2.2c-.6-.1-1.8-.1-2.3-.1-1.5 0-1.9.9-1.9 1.9v2.5zm5 0h3l3.9 13.2 3.7-13.2h2.9L357 360c-.7 2.2-2.3 2.8-4.2 2.8-.9 0-1.8-.1-2.8-.3l.4-2.3s1.1.2 2.1.2c1.2 0 1.8-.5 2-1.6l.2-.7-5.4-16.5zm17.9 12c1.2 0 2.1 1 2.1 2.1 0 1.2-1 2.1-2.1 2.1s-2.1-1-2.1-2.1c0-1.2.9-2.1 2.1-2.1zm12.7-18.5h15.4v2.5H389v19.9h-2.8v-19.9h-6.3v-2.5zm29.9 14.5c0 4.8-2.9 8.3-7.4 8.3-4.4 0-7.4-3.5-7.4-8.3 0-4.9 2.9-8.3 7.4-8.3 4.5-.1 7.4 3.4 7.4 8.3zm-2.7 0v-.2c0-3.2-1.6-5.9-4.6-5.9-3 0-4.6 2.7-4.6 5.9v.2c0 3.1 1.6 5.9 4.6 5.9 3 0 4.6-2.7 4.6-5.9zm17.4 6.1c-.9 1.3-2.6 2.1-4.7 2.1-4.1 0-6.8-3.5-6.8-8.3 0-4.8 2.7-8.3 6.8-8.3 2 0 3.7.8 4.7 2.1V335h2.6v22.4h-2.6v-1.7zm-8.7-6.1c0 3.3 1.6 5.9 4.5 5.9 2.8 0 4.2-2 4.2-4.7v-2.6c0-2.7-1.4-4.7-4.2-4.7-2.9 0-4.5 2.6-4.5 5.9v.2zm20.8 8.2c-3.2 0-5.6-1.9-5.6-4.8 0-2.5 1.7-4.2 4.3-4.5l5.6-.8v-1c0-2.4-1.6-3.2-3.6-3.2-1.8 0-3.4.6-4.6 1.2l-1-2.1c1.8-1 3.9-1.5 5.9-1.5 3.9 0 5.9 1.7 5.9 5.1v7.5c0 1.1.4 1.8 1.3 2.2l-1.5 1.9c-1-.3-1.8-1-2.1-1.9-.8 1.1-2.4 1.9-4.6 1.9zm.1-7.4c-1.8.3-2.9.8-2.9 2.5 0 1.9 1.5 2.9 3.3 2.9 2 0 3.9-1.2 3.9-3.1v-2.9l-4.3.6zm10.1-8.8h3l3.9 13.2 3.7-13.2h2.9l-5.8 18.4c-.7 2.2-2.3 2.8-4.2 2.8-.9 0-1.8-.1-2.8-.3l.4-2.3s1.1.2 2.1.2c1.2 0 1.8-.5 2-1.6l.2-.7-5.4-16.5zm26-6.5c1.1 0 1.9.9 1.9 2s-.9 2-1.9 2c-1.1 0-2-.9-2-2 .1-1.1.9-2 2-2zm1.3 22.4h-2.6v-16h2.6v16zm3.8-2l1.6-1.9c1 .9 2.7 2 4.8 2 1.8 0 3.2-.8 3.2-2.4 0-1.7-1.7-2.1-3.9-2.7-2.3-.6-5-1.4-5-4.7 0-2.7 2.5-4.6 5.8-4.6 2.1 0 4.4.9 5.5 2l-1.5 1.8c-.9-.9-2.3-1.5-3.9-1.5-2.1 0-3.2.9-3.2 2.4 0 1.2.9 1.7 2.3 2.1.8.2 1.8.5 2.6.8 2.1.7 3.9 1.8 3.9 4.4 0 3.3-2.9 4.8-6 4.8-2.1-.2-4.5-.9-6.2-2.5zM85.6 379.6l2.2-1.7 1.3 1.9c-4.5 3.1-7.2 7.5-7.2 13.1v.2c0 5.6 2.6 10 7.2 13.1l-1.3 1.9-2.2-1.7C81.3 403 79 398.5 79 393s2.3-10 6.6-13.4zm11.7 0l2.2-1.7 1.3 1.9c-4.5 3.1-7.2 7.5-7.2 13.1v.2c0 5.6 2.6 10 7.2 13.1l-1.3 1.9-2.2-1.7c-4.3-3.4-6.6-7.9-6.6-13.4s2.3-10 6.6-13.4zm16.5 20.1c-.9 1.3-2.6 2.1-4.7 2.1-4.1 0-6.8-3.5-6.8-8.3 0-4.8 2.7-8.3 6.8-8.3 2 0 3.7.8 4.7 2.1V379h2.6v22.4h-2.6v-1.7zm-8.8-6.1c0 3.3 1.6 5.9 4.5 5.9 2.8 0 4.2-2 4.2-4.7v-2.6c0-2.7-1.4-4.7-4.2-4.7-2.9 0-4.5 2.6-4.5 5.9v.2zm20.9 8.2c-3.2 0-5.6-1.9-5.6-4.8 0-2.5 1.7-4.2 4.3-4.5l5.6-.8v-1c0-2.4-1.6-3.2-3.6-3.2-1.8 0-3.4.6-4.6 1.2l-1-2.1c1.8-1 3.9-1.5 5.9-1.5 3.9 0 5.9 1.7 5.9 5.1v7.5c0 1.1.4 1.8 1.3 2.2l-1.5 1.9c-1-.3-1.8-1-2.1-1.9-.9 1.1-2.5 1.9-4.6 1.9zm0-7.4c-1.8.3-2.9.8-2.9 2.5 0 1.9 1.5 2.9 3.3 2.9 2 0 3.9-1.2 3.9-3.1v-2.9l-4.3.6zm10.1-8.8h3l3.9 13.2 3.7-13.2h2.9l-5.8 18.4c-.7 2.2-2.3 2.8-4.2 2.8-.9 0-1.8-.1-2.8-.3l.4-2.3s1.1.2 2.1.2c1.2 0 1.8-.5 2-1.6l.2-.7-5.4-16.5zm38.5 8c0 4.8-2.9 8.3-7.4 8.3s-7.4-3.5-7.4-8.3c0-4.9 2.9-8.3 7.4-8.3s7.4 3.4 7.4 8.3zm-2.7 0v-.2c0-3.2-1.6-5.9-4.6-5.9-3 0-4.6 2.7-4.6 5.9v.2c0 3.1 1.6 5.9 4.6 5.9 3 0 4.6-2.7 4.6-5.9zm10.4-8h3.2v2.3h-3.2v13.7h-2.6v-13.7h-2.7v-2.3h2.7v-3c0-2.8 1.9-3.7 4.4-3.7 1.3 0 2.1.2 2.6.2l-.2 2.2c-.6-.1-1.8-.1-2.3-.1-1.5 0-1.9.9-1.9 1.9v2.5zm28.4 12.8l2.9-12.9h2.8l-3.9 16H209l-3.2-12.8-3.3 12.8h-3.2l-3.9-16h2.8l2.8 12.9 3.4-12.9h3l3.2 12.9zm11-4c.2 3 2.1 5.2 5 5.2 1.8 0 3.1-.7 4.2-1.6l1.3 1.9c-1.4 1.2-3.3 2-5.7 2-4.6 0-7.6-3.5-7.6-8.3 0-4.9 2.8-8.3 7.3-8.3 4.2 0 6.8 3.5 6.8 8.3v.8h-11.3zm0-2.2h8.4c-.1-2.5-1.5-4.7-4-4.7-2.6 0-4.3 2.3-4.4 4.7zm17.1 2.2c.2 3 2.1 5.2 5 5.2 1.8 0 3.1-.7 4.2-1.6l1.3 1.9c-1.4 1.2-3.3 2-5.7 2-4.6 0-7.6-3.5-7.6-8.3 0-4.9 2.8-8.3 7.3-8.3 4.2 0 6.8 3.5 6.8 8.3v.8h-11.3zm0-2.2h8.4c-.1-2.5-1.5-4.7-4-4.7-2.6 0-4.3 2.3-4.4 4.7zm17.9 1.2l7.5-7.8h3.3l-6.1 6.3 6.4 9.6h-3.2l-5-7.9-2.9 2.9v4.9H254V379h2.6v14.4zm16.3 13l-2.2 1.7-1.3-1.9c4.5-3.1 7.2-7.5 7.2-13.1v-.2c0-5.6-2.6-10-7.2-13.1l1.3-1.9 2.2 1.7c4.3 3.4 6.6 7.9 6.6 13.4s-2.3 10-6.6 13.4zm11.7 0l-2.2 1.7-1.3-1.9c4.5-3.1 7.2-7.5 7.2-13.1v-.2c0-5.6-2.6-10-7.2-13.1l1.3-1.9 2.2 1.7c4.3 3.4 6.6 7.9 6.6 13.4s-2.3 10-6.6 13.4zm23.5-4.6c-3.2 0-5.6-1.9-5.6-4.8 0-2.5 1.7-4.2 4.3-4.5l5.6-.8v-1c0-2.4-1.6-3.2-3.6-3.2-1.8 0-3.4.6-4.6 1.2l-1-2.1c1.8-1 3.9-1.5 5.9-1.5 3.9 0 5.9 1.7 5.9 5.1v7.5c0 1.1.4 1.8 1.3 2.2l-1.5 1.9c-1-.3-1.8-1-2.1-1.9-.9 1.1-2.4 1.9-4.6 1.9zm.1-7.4c-1.8.3-2.9.8-2.9 2.5 0 1.9 1.5 2.9 3.3 2.9 2 0 3.9-1.2 3.9-3.1v-2.9l-4.3.6zm12-8.8h2.6v1.8c1.1-1.5 2.7-2.1 4.7-2.1 3.6 0 5.3 2.5 5.3 5.4v10.8h-2.6v-10c0-2.8-1.4-3.9-3.3-3.9-2 0-4.1 1.4-4.1 4.4v9.5h-2.6v-15.9zm28.1 14.1c-.9 1.3-2.6 2.1-4.7 2.1-4.1 0-6.8-3.5-6.8-8.3 0-4.8 2.7-8.3 6.8-8.3 2 0 3.7.8 4.7 2.1V379h2.6v22.4h-2.6v-1.7zm-8.7-6.1c0 3.3 1.6 5.9 4.5 5.9 2.8 0 4.2-2 4.2-4.7v-2.6c0-2.7-1.4-4.7-4.2-4.7-2.9 0-4.5 2.6-4.5 5.9v.2zm36.8 7.9h-2.6v-10c0-2.8-1.4-3.8-3.2-3.8-1.8 0-3.5 1.3-3.5 4.4v9.4h-2.6v-16h2.6v1.8c1.1-1.5 2.5-2.1 4.2-2.1 1.4 0 3.5.7 4.3 2.7 1.2-2 3.1-2.7 4.9-2.7 3.5 0 5.4 2.5 5.4 5.3v10.9h-2.6v-10c0-2.8-1.5-3.8-3.3-3.8-1.8 0-3.5 1.3-3.5 4.4v9.5zm12.5-15.9h3l3.9 13.2 3.7-13.2h2.9l-5.8 18.4c-.7 2.2-2.3 2.8-4.2 2.8-.9 0-1.8-.1-2.8-.3l.4-2.3s1.1.2 2.1.2c1.2 0 1.8-.5 2-1.6l.2-.7-5.4-16.5zm28.1 0h3.2v2.3H417v13.7h-2.6v-13.7h-2.7v-2.3h2.7v-3c0-2.8 1.9-3.7 4.4-3.7 1.3 0 2.1.2 2.6.2l-.2 2.2c-.6-.1-1.8-.1-2.3-.1-1.5 0-1.9.9-1.9 1.9v2.5zm11.1 16.2c-3.2 0-5.6-1.9-5.6-4.8 0-2.5 1.7-4.2 4.3-4.5l5.6-.8v-1c0-2.4-1.6-3.2-3.6-3.2-1.8 0-3.4.6-4.6 1.2l-1-2.1c1.8-1 3.9-1.5 5.9-1.5 3.9 0 5.9 1.7 5.9 5.1v7.5c0 1.1.4 1.8 1.3 2.2l-1.5 1.9c-1-.3-1.8-1-2.1-1.9-.9 1.1-2.4 1.9-4.6 1.9zm.1-7.4c-1.8.3-2.9.8-2.9 2.5 0 1.9 1.5 2.9 3.3 2.9 2 0 3.9-1.2 3.9-3.1v-2.9l-4.3.6zm15.2 7.1l-5.1-16h3l3.8 13.5 3.8-13.5h3l-5.1 16h-3.4zm25.5-7.9c0 4.8-2.9 8.3-7.4 8.3-4.4 0-7.4-3.5-7.4-8.3 0-4.9 2.9-8.3 7.4-8.3 4.5-.1 7.4 3.4 7.4 8.3zm-2.7 0v-.2c0-3.2-1.6-5.9-4.6-5.9-3 0-4.6 2.7-4.6 5.9v.2c0 3.1 1.6 5.9 4.6 5.9 3 0 4.6-2.7 4.6-5.9zm19.4 7.9H483v-1.8c-1.1 1.5-2.7 2.1-4.7 2.1-3.6 0-5.3-2.5-5.3-5.4v-10.8h2.6v10c0 2.8 1.4 3.9 3.3 3.9 2.2 0 4.1-1.4 4.1-4.4v-9.5h2.6v15.9zm13.2-13.6h-.4c-2.7 0-5.1 1.1-5.1 5.4v8.2h-2.6v-16h2.6v2.5c.8-1.9 2.8-2.8 4.8-2.8h.8v2.7zm4.8-8.8c1.1 0 1.9.9 1.9 2s-.9 2-1.9 2c-1.1 0-2-.9-2-2s.9-2 2-2zm1.3 22.4h-2.6v-16h2.6v16zm9.2-3.9c0 1.1.2 2 2 2 .5 0 1.5-.1 2-.2l.3 2.3s-1.5.2-2.8.2c-2.5 0-4.1-1-4.1-3.7v-10.3h-3v-2.3h3v-5.2l2.6-.9v6.1h4.4v2.3h-4.4v9.7zm9.8-3.2c.2 3 2.1 5.2 5 5.2 1.8 0 3.1-.7 4.2-1.6l1.3 1.9c-1.4 1.2-3.3 2-5.7 2-4.6 0-7.6-3.5-7.6-8.3 0-4.9 2.8-8.3 7.3-8.3 4.2 0 6.8 3.5 6.8 8.3v.8h-11.3zm0-2.2h8.4c-.1-2.5-1.5-4.7-4-4.7-2.6 0-4.2 2.3-4.4 4.7zM81.7 437.6c0 3.2 1.6 5.9 4.6 5.9 2 0 3.3-1.2 4.1-2.7l2.2 1.2c-1.1 2.3-3.4 3.7-6.3 3.7-4.4 0-7.4-3.5-7.4-8.3 0-4.9 2.9-8.3 7.4-8.3 2.9 0 5.2 1.5 6.3 3.7l-2.2 1.2c-.8-1.5-2.1-2.7-4.1-2.7-3.1 0-4.6 2.7-4.6 5.9v.4zm28.5 0c0 4.8-2.9 8.3-7.4 8.3s-7.4-3.5-7.4-8.3c0-4.9 2.9-8.3 7.4-8.3s7.4 3.4 7.4 8.3zm-2.7 0v-.2c0-3.2-1.6-5.9-4.6-5.9-3 0-4.6 2.7-4.6 5.9v.2c0 3.1 1.6 5.9 4.6 5.9 3 0 4.6-2.7 4.6-5.9zm6.8-14.5h2.6v18.8c0 1.1.3 1.6 1.5 1.6.7 0 1.2-.1 1.6-.1l.3 2.2s-1.5.2-2.7.2c-1.9 0-3.4-.8-3.4-3.1v-19.6zm22.6 14.5c0 4.8-2.9 8.3-7.4 8.3s-7.4-3.5-7.4-8.3c0-4.9 2.9-8.3 7.4-8.3s7.4 3.4 7.4 8.3zm-2.7 0v-.2c0-3.2-1.6-5.9-4.6-5.9-3 0-4.6 2.7-4.6 5.9v.2c0 3.1 1.6 5.9 4.6 5.9 3 0 4.6-2.7 4.6-5.9zm19.4 7.9H151v-1.8c-1.1 1.5-2.7 2.1-4.7 2.1-3.6 0-5.3-2.5-5.3-5.4v-10.8h2.6v10c0 2.8 1.4 3.9 3.3 3.9 2.2 0 4.1-1.4 4.1-4.4v-9.5h2.6v15.9zm13.3-13.6h-.4c-2.7 0-5.1 1.1-5.1 5.4v8.2h-2.6v-16h2.6v2.5c.8-1.9 2.8-2.8 4.8-2.8h.8v2.7zm12.4-8.8c1.1 0 1.9.9 1.9 2s-.9 2-1.9 2c-1.1 0-2-.9-2-2s.9-2 2-2zm1.2 22.4h-2.6v-16h2.6v16zm3.8-2l1.6-1.9c1 .9 2.7 2 4.8 2 1.8 0 3.2-.8 3.2-2.4 0-1.7-1.7-2.1-3.9-2.7-2.3-.6-5-1.4-5-4.7 0-2.7 2.5-4.6 5.8-4.6 2.1 0 4.4.9 5.5 2l-1.5 1.8c-.9-.9-2.3-1.5-3.9-1.5-2.1 0-3.2.9-3.2 2.4 0 1.2.9 1.7 2.3 2.1.8.2 1.8.5 2.6.8 2.1.7 3.9 1.8 3.9 4.4 0 3.3-2.9 4.8-6 4.8-2.1-.2-4.4-.9-6.2-2.5zm30.4-19.9l2.2-1.7 1.3 1.9c-4.5 3.1-7.2 7.5-7.2 13.1v.2c0 5.6 2.6 10 7.2 13.1l-1.3 1.9-2.2-1.7c-4.3-3.4-6.6-7.9-6.6-13.4s2.4-10 6.6-13.4zm11.7 0l2.2-1.7 1.3 1.9c-4.5 3.1-7.2 7.5-7.2 13.1v.2c0 5.6 2.6 10 7.2 13.1l-1.3 1.9-2.2-1.7c-4.3-3.4-6.6-7.9-6.6-13.4s2.4-10 6.6-13.4zm7.7 14c0 3.2 1.6 5.9 4.6 5.9 2 0 3.3-1.2 4.1-2.7l2.2 1.2c-1.1 2.3-3.4 3.7-6.3 3.7-4.4 0-7.4-3.5-7.4-8.3 0-4.9 2.9-8.3 7.4-8.3 2.9 0 5.2 1.5 6.3 3.7l-2.2 1.2c-.8-1.5-2.1-2.7-4.1-2.7-3.1 0-4.6 2.7-4.6 5.9v.4zm28.5 0c0 4.8-2.9 8.3-7.4 8.3-4.4 0-7.4-3.5-7.4-8.3 0-4.9 2.9-8.3 7.4-8.3 4.5-.1 7.4 3.4 7.4 8.3zm-2.7 0v-.2c0-3.2-1.6-5.9-4.6-5.9-3 0-4.6 2.7-4.6 5.9v.2c0 3.1 1.6 5.9 4.6 5.9 3 0 4.6-2.7 4.6-5.9zm6.8-14.5h2.6v18.8c0 1.1.3 1.6 1.5 1.6.7 0 1.2-.1 1.6-.1l.3 2.2s-1.5.2-2.7.2c-1.9 0-3.4-.8-3.4-3.1v-19.6zm22.6 14.5c0 4.8-2.9 8.3-7.4 8.3-4.4 0-7.4-3.5-7.4-8.3 0-4.9 2.9-8.3 7.4-8.3 4.4-.1 7.4 3.4 7.4 8.3zm-2.7 0v-.2c0-3.2-1.6-5.9-4.6-5.9-3 0-4.6 2.7-4.6 5.9v.2c0 3.1 1.6 5.9 4.6 5.9 3 0 4.6-2.7 4.6-5.9zm19.4 7.9h-2.6v-1.8c-1.1 1.5-2.7 2.1-4.7 2.1-3.6 0-5.3-2.5-5.3-5.4v-10.8h2.6v10c0 2.8 1.4 3.9 3.3 3.9 2.2 0 4.1-1.4 4.1-4.4v-9.5h2.6v15.9zm13.2-13.6h-.4c-2.7 0-5.1 1.1-5.1 5.4v8.2h-2.6v-16h2.6v2.5c.8-1.9 2.8-2.8 4.8-2.8h.8v2.7zm4.2 18.5l-2.2 1.7-1.3-1.9c4.5-3.1 7.2-7.5 7.2-13.1v-.2c0-5.6-2.6-10-7.2-13.1l1.3-1.9 2.2 1.7c4.3 3.4 6.6 7.9 6.6 13.4s-2.3 10-6.6 13.4zm11.7 0l-2.2 1.7-1.3-1.9c4.5-3.1 7.2-7.5 7.2-13.1v-.2c0-5.6-2.6-10-7.2-13.1l1.3-1.9 2.2 1.7c4.3 3.4 6.6 7.9 6.6 13.4s-2.3 10-6.6 13.4zm12.6-8.8c1.2 0 2.1 1 2.1 2.1 0 1.2-1 2.1-2.1 2.1s-2.1-1-2.1-2.1c-.1-1.2.9-2.1 2.1-2.1z"/><path class="st6" d="M585 268.9v211.7H55.1V268.9H585m2-2H53.1v215.7H587V266.9z"/><path class="st2" d="M0 636h960v4H0z"/><path class="st2" d="M4 640V40h952v600h4V36H0v604z"/></svg>