<?xml version="1.0" encoding="UTF-8"?>
<svg width="960px" height="640px" viewBox="0 0 960 640" version="1.1" xmlns="http://www.w3.org/2000/svg" xmlns:xlink="http://www.w3.org/1999/xlink">
    <title>01-templates</title>
    <g id="01-templates" stroke="none" fill="none">
        <path d="M0,40 L0,10 C0,4.5 4.5,0 10,0 L950,0 C955.5,0 960,4.5 960,10 L960,40" id="Path" fill="#DADADA" fill-rule="nonzero"></path>
        <circle id="Oval" fill="#FFFFFF" fill-rule="nonzero" cx="25.4" cy="20" r="8.5"></circle>
        <circle id="Oval" fill="#FFFFFF" fill-rule="nonzero" cx="49.1" cy="20" r="8.5"></circle>
        <circle id="Oval" fill="#FFFFFF" fill-rule="nonzero" cx="72.9" cy="20" r="8.5"></circle>
        <g id="header" transform="translate(1, 40)">
            <polygon id="Path" fill="#154273" fill-rule="nonzero" points="0 0 958 0 958 65 0 65"></polygon>
            <g id="Notify-NL" stroke-width="1" fill-rule="evenodd" transform="translate(54, 6)" fill="#FFFFFF">
                <path d="M20.988,43 L16.416,43 L6.336,21.94 C6.48,23.596 6.594,25.126 6.678,26.53 C6.762,27.934 6.804,29.632 6.804,31.624 L6.804,43 L3.6,43 L3.6,18.196 L8.064,18.196 L18.252,39.292 C18.18,38.668 18.084,37.576 17.964,36.016 C17.844,34.456 17.784,33.028 17.784,31.732 L17.784,18.196 L20.988,18.196 L20.988,43 Z" id="Path" fill-rule="nonzero"></path>
                <path d="M35.136,23.596 C37.8,23.596 39.87,24.484 41.346,26.26 C42.822,28.036 43.56,30.448 43.56,33.496 C43.56,35.464 43.224,37.198 42.552,38.698 C41.88,40.198 40.908,41.362 39.636,42.19 C38.364,43.018 36.852,43.432 35.1,43.432 C32.436,43.432 30.36,42.544 28.872,40.768 C27.384,38.992 26.64,36.58 26.64,33.532 C26.64,31.564 26.976,29.83 27.648,28.33 C28.32,26.83 29.292,25.666 30.564,24.838 C31.836,24.01 33.36,23.596 35.136,23.596 Z M35.136,26.26 C31.848,26.26 30.204,28.684 30.204,33.532 C30.204,38.356 31.836,40.768 35.1,40.768 C38.364,40.768 39.996,38.344 39.996,33.496 C39.996,28.672 38.376,26.26 35.136,26.26 Z" id="Shape" fill-rule="nonzero"></path>
                <path d="M58.608,42.136 C57.36,43 55.944,43.432 54.36,43.432 C52.752,43.432 51.498,42.97 50.598,42.046 C49.698,41.122 49.248,39.784 49.248,38.032 L49.248,26.584 L45.936,26.584 L45.936,24.028 L49.248,24.028 L49.248,19.744 L52.56,19.348 L52.56,24.028 L57.06,24.028 L56.7,26.584 L52.56,26.584 L52.56,37.888 C52.56,38.872 52.734,39.586 53.082,40.03 C53.43,40.474 54.012,40.696 54.828,40.696 C55.62,40.696 56.46,40.42 57.348,39.868 L58.608,42.136 Z" id="Path" fill-rule="nonzero"></path>
                <path d="M65.34,43 L62.028,43 L62.028,24.028 L65.34,24.028 L65.34,43 Z M63.648,14.92 C64.344,14.92 64.908,15.136 65.34,15.568 C65.772,16 65.988,16.54 65.988,17.188 C65.988,17.836 65.772,18.37 65.34,18.79 C64.908,19.21 64.344,19.42 63.648,19.42 C62.976,19.42 62.424,19.21 61.992,18.79 C61.56,18.37 61.344,17.836 61.344,17.188 C61.344,16.54 61.56,16 61.992,15.568 C62.424,15.136 62.976,14.92 63.648,14.92 Z" id="Shape" fill-rule="nonzero"></path>
                <path d="M78.624,18.664 C77.616,18.664 76.896,18.886 76.464,19.33 C76.032,19.774 75.816,20.464 75.816,21.4 L75.816,24.028 L80.424,24.028 L80.064,26.584 L75.816,26.584 L75.816,43 L72.504,43 L72.504,26.584 L69.12,26.584 L69.12,24.028 L72.504,24.028 L72.504,21.436 C72.504,19.804 73.026,18.49 74.07,17.494 C75.114,16.498 76.572,16 78.444,16 C79.308,16 80.082,16.078 80.766,16.234 C81.45,16.39 82.188,16.636 82.98,16.972 L81.936,19.384 C80.856,18.904 79.752,18.664 78.624,18.664 Z" id="Path" fill-rule="nonzero"></path>
                <path d="M91.836,43.108 C91.092,45.316 90.054,47.062 88.722,48.346 C87.39,49.63 85.488,50.404 83.016,50.668 L82.656,48.076 C83.904,47.86 84.9,47.548 85.644,47.14 C86.388,46.732 86.982,46.21 87.426,45.574 C87.87,44.938 88.284,44.08 88.668,43 L87.552,43 L81.18,24.028 L84.708,24.028 L89.784,40.588 L94.752,24.028 L98.172,24.028 L91.836,43.108 Z" id="Path" fill-rule="nonzero"></path>
                <path d="M119.736,43 L112.932,43 L105.012,23.236 C105.228,24.94 105.402,26.542 105.534,28.042 C105.666,29.542 105.732,31.3 105.732,33.316 L105.732,43 L100.944,43 L100.944,18.088 L107.604,18.088 L115.668,37.888 C115.188,34.672 114.948,31.72 114.948,29.032 L114.948,18.088 L119.736,18.088 L119.736,43 Z" id="Path" fill-rule="nonzero"></path>
                <polygon id="Path" fill-rule="nonzero" points="130.284 38.752 140.148 38.752 139.572 43 124.992 43 124.992 18.088 130.284 18.088"></polygon>
            </g>
        </g>
        <path d="M726,263 L726,479 L59,479 L59,263 L726,263 M731,259 L54,259 L54,483 L731,483 L731,259 Z" id="Shape" fill="#FFD419" fill-rule="nonzero"></path>
        <polygon id="Path" fill="#004A1E" fill-rule="nonzero" points="59.9 536.84 250.8 536.84 250.8 597.54 59.9 597.54"></polygon>
        <polygon id="Path" fill="#00703C" fill-rule="nonzero" points="59.9 529.84 250.8 529.84 250.8 590.54 59.9 590.54"></polygon>
        <path d="M725,265 L725,477 L61,477 L61,265 L725,265 M727,263 L58,263 L58,479 L727,479 L727,263 Z" id="Shape" fill="#8C8C8C" fill-rule="nonzero"></path>
        <g id="Group" stroke-width="1" fill-rule="evenodd" transform="translate(-495.1, -4.16)" fill="#333333" font-family="FiraSans-Regular, Fira Sans" font-weight="normal">
            <g id="Add-text-message-tem" fill-rule="nonzero" font-size="34">
                <text id="Add-text-message-template">
                    <tspan x="554.169" y="177.16">Add text message template</tspan>
                </text>
            </g>
            <g id="Message" fill-rule="nonzero" font-size="30">
                <text>
                    <tspan x="554.169" y="246.591">Message</tspan>
                </text>
            </g>
        </g>
        <text id="Save" fill="#FFFFFF" fill-rule="nonzero" font-family="FiraSans-Regular, Fira Sans" font-size="30" font-weight="normal">
            <tspan x="122.9" y="569.84">Save</tspan>
        </text>
        <polygon id="Path" fill="#DADADA" fill-rule="nonzero" points="0 636 960 636 960 640 0 640"></polygon>
        <polygon id="Path" fill="#DADADA" fill-rule="nonzero" points="4 640 4 40 956 40 956 640 960 640 960 36 0 36 0 640"></polygon>
        <g id="message-template" transform="translate(97, 291)">
            <g id="Graphic" transform="translate(96.2, 12.44)" fill="#FFD419" fill-rule="nonzero">
                <path d="M7.86962025,29.56 C7.86962025,29.56 -0.2,18.0748515 -0.2,13.9164356 C-0.2,10.550099 7.86962025,-0.44 7.86962025,-0.44 L94.2683544,-0.44 C94.2683544,-0.44 101.8,10.7481188 101.8,14.510495 C101.8,18.2728713 94.2683544,29.56 94.2683544,29.56 L7.86962025,29.56 Z" id="Shape-path"></path>
            </g>
            <path d="M240.119587,139 C240.119587,139 232,128.280528 232,124.39934 C232,121.257426 240.119587,111 240.119587,111 L575.421719,111 C575.421719,111 583,121.442244 583,124.953795 C583,128.465347 575.421719,139 575.421719,139 L240.119587,139 Z" id="Shape-path" fill="#FFD419" fill-rule="nonzero"></path>
            <text id="Hey-((name)),-Notify" font-family="FiraCodeRoman-Regular, Fira Code" font-size="30" font-weight="normal" line-spacing="49" fill="#000000">
                <tspan x="0" y="32">Hey ((name)), </tspan>
                <tspan x="258.461538" y="32" letter-spacing="-2.2">Notify is the best </tspan>
                <tspan x="0" y="81" letter-spacing="-2.2">way to comunicate with your users. </tspan>
                <tspan x="0" y="130" letter-spacing="-2.2">built for all ((notification types)) </tspan>
            </text>
        </g>
    </g>
</svg>
