<?xml version="1.0" encoding="UTF-8"?>
<svg width="960px" height="640px" viewBox="0 0 960 640" version="1.1" xmlns="http://www.w3.org/2000/svg" xmlns:xlink="http://www.w3.org/1999/xlink">
    <title>02-reporting</title>
    <g id="02-reporting" stroke="none" fill="none" fill-rule="evenodd" stroke-width="1">
        <g id="Layer_1">
            <path d="M0,40 L0,10 C0,4.5 4.5,0 10,0 L950,0 C955.5,0 960,4.5 960,10 L960,40" id="Path" fill="#DADADA" fill-rule="nonzero"></path>
            <circle id="Oval" fill="#FFFFFF" fill-rule="nonzero" cx="25.4" cy="20" r="8.5"></circle>
            <circle id="Oval" fill="#FFFFFF" fill-rule="nonzero" cx="49.1" cy="20" r="8.5"></circle>
            <circle id="Oval" fill="#FFFFFF" fill-rule="nonzero" cx="72.9" cy="20" r="8.5"></circle>
            <g id="header" transform="translate(1, 40)">
                <polygon id="Path" fill="#154273" fill-rule="nonzero" points="0 0 958 0 958 65 0 65"></polygon>
                <g id="Notify-NL" stroke-width="1" fill-rule="evenodd" transform="translate(54, 6)" fill="#FFFFFF">
                    <path d="M20.988,43 L16.416,43 L6.336,21.94 C6.48,23.596 6.594,25.126 6.678,26.53 C6.762,27.934 6.804,29.632 6.804,31.624 L6.804,43 L3.6,43 L3.6,18.196 L8.064,18.196 L18.252,39.292 C18.18,38.668 18.084,37.576 17.964,36.016 C17.844,34.456 17.784,33.028 17.784,31.732 L17.784,18.196 L20.988,18.196 L20.988,43 Z" id="Path" fill-rule="nonzero"></path>
                    <path d="M35.136,23.596 C37.8,23.596 39.87,24.484 41.346,26.26 C42.822,28.036 43.56,30.448 43.56,33.496 C43.56,35.464 43.224,37.198 42.552,38.698 C41.88,40.198 40.908,41.362 39.636,42.19 C38.364,43.018 36.852,43.432 35.1,43.432 C32.436,43.432 30.36,42.544 28.872,40.768 C27.384,38.992 26.64,36.58 26.64,33.532 C26.64,31.564 26.976,29.83 27.648,28.33 C28.32,26.83 29.292,25.666 30.564,24.838 C31.836,24.01 33.36,23.596 35.136,23.596 Z M35.136,26.26 C31.848,26.26 30.204,28.684 30.204,33.532 C30.204,38.356 31.836,40.768 35.1,40.768 C38.364,40.768 39.996,38.344 39.996,33.496 C39.996,28.672 38.376,26.26 35.136,26.26 Z" id="Shape" fill-rule="nonzero"></path>
                    <path d="M58.608,42.136 C57.36,43 55.944,43.432 54.36,43.432 C52.752,43.432 51.498,42.97 50.598,42.046 C49.698,41.122 49.248,39.784 49.248,38.032 L49.248,26.584 L45.936,26.584 L45.936,24.028 L49.248,24.028 L49.248,19.744 L52.56,19.348 L52.56,24.028 L57.06,24.028 L56.7,26.584 L52.56,26.584 L52.56,37.888 C52.56,38.872 52.734,39.586 53.082,40.03 C53.43,40.474 54.012,40.696 54.828,40.696 C55.62,40.696 56.46,40.42 57.348,39.868 L58.608,42.136 Z" id="Path" fill-rule="nonzero"></path>
                    <path d="M65.34,43 L62.028,43 L62.028,24.028 L65.34,24.028 L65.34,43 Z M63.648,14.92 C64.344,14.92 64.908,15.136 65.34,15.568 C65.772,16 65.988,16.54 65.988,17.188 C65.988,17.836 65.772,18.37 65.34,18.79 C64.908,19.21 64.344,19.42 63.648,19.42 C62.976,19.42 62.424,19.21 61.992,18.79 C61.56,18.37 61.344,17.836 61.344,17.188 C61.344,16.54 61.56,16 61.992,15.568 C62.424,15.136 62.976,14.92 63.648,14.92 Z" id="Shape" fill-rule="nonzero"></path>
                    <path d="M78.624,18.664 C77.616,18.664 76.896,18.886 76.464,19.33 C76.032,19.774 75.816,20.464 75.816,21.4 L75.816,24.028 L80.424,24.028 L80.064,26.584 L75.816,26.584 L75.816,43 L72.504,43 L72.504,26.584 L69.12,26.584 L69.12,24.028 L72.504,24.028 L72.504,21.436 C72.504,19.804 73.026,18.49 74.07,17.494 C75.114,16.498 76.572,16 78.444,16 C79.308,16 80.082,16.078 80.766,16.234 C81.45,16.39 82.188,16.636 82.98,16.972 L81.936,19.384 C80.856,18.904 79.752,18.664 78.624,18.664 Z" id="Path" fill-rule="nonzero"></path>
                    <path d="M91.836,43.108 C91.092,45.316 90.054,47.062 88.722,48.346 C87.39,49.63 85.488,50.404 83.016,50.668 L82.656,48.076 C83.904,47.86 84.9,47.548 85.644,47.14 C86.388,46.732 86.982,46.21 87.426,45.574 C87.87,44.938 88.284,44.08 88.668,43 L87.552,43 L81.18,24.028 L84.708,24.028 L89.784,40.588 L94.752,24.028 L98.172,24.028 L91.836,43.108 Z" id="Path" fill-rule="nonzero"></path>
                    <path d="M119.736,43 L112.932,43 L105.012,23.236 C105.228,24.94 105.402,26.542 105.534,28.042 C105.666,29.542 105.732,31.3 105.732,33.316 L105.732,43 L100.944,43 L100.944,18.088 L107.604,18.088 L115.668,37.888 C115.188,34.672 114.948,31.72 114.948,29.032 L114.948,18.088 L119.736,18.088 L119.736,43 Z" id="Path" fill-rule="nonzero"></path>
                    <polygon id="Path" fill-rule="nonzero" points="130.284 38.752 140.148 38.752 139.572 43 124.992 43 124.992 18.088 130.284 18.088"></polygon>
                </g>
            </g>
            <path d="M53.1,224 L463.1,224 L463.1,434.7 L53.1,434.7 L53.1,224 Z M496.9,224 L906.9,224 L906.9,434.7 L496.9,434.7 L496.9,224 Z" id="Shape" fill="#1D70B8" fill-rule="nonzero"></path>
            <path d="M53.1,448.6 L463.1,448.6 L463.1,517.3 L53.1,517.3 L53.1,448.6 Z M496.9,448.6 L906.9,448.6 L906.9,517.3 L496.9,517.3 L496.9,448.6 Z" id="Shape" fill="#00703C" fill-rule="nonzero"></path>
            <g id="Group" transform="translate(-255.169, 625.84)" fill="#154273" fill-rule="nonzero" font-family="FiraSans-Regular, Fira Sans" font-size="34" font-weight="normal">
                <g id="Add-text-message-tem">
                    <text id="Compare-to-previous">
                        <tspan x="522.169" y="-40.84">Compare to previous weeks</tspan>
                    </text>
                </g>
            </g>
            <path d="M129,286.6 C129,301.7 122.1,316.1 105,316.1 C95.7,316.1 88.9,311.4 86.2,304.7 L97.1,300.6 C98.9,304.3 101.6,305.9 105.6,305.9 C113,305.9 116.3,299 116.8,291.1 C114.1,294.5 109.3,296.3 104.5,296.3 C93.7,296.3 85.8,288.8 85.8,278.3 C85.8,267.1 94.1,258.6 106.5,258.6 C120.1,258.6 129,268.5 129,285.2 L129,286.6 Z M106.9,268.5 C101.1,268.5 97.4,272.6 97.4,277.8 C97.4,282.9 101.1,287 106.9,287 C112.7,287 116.5,282.9 116.5,277.8 C116.5,272.5 112.7,268.5 106.9,268.5 Z M178.9,274.6 C178.9,278.5 176.9,283.6 171.2,286.2 C177.7,288.8 180.5,294.1 180.5,299.2 C180.5,310.9 169.7,316.1 158.5,316.1 C147.3,316.1 136.5,310.9 136.5,299.2 C136.5,294.1 139.4,288.7 145.8,286.2 C140.2,283.6 138.1,278.5 138.1,274.6 C138.1,263.9 148.1,258.6 158.5,258.6 C168.9,258.7 178.9,263.6 178.9,274.6 L178.9,274.6 Z M168.5,298.9 C168.5,294.4 164.4,291.2 158.4,291.2 C152.5,291.2 148.3,294.4 148.3,298.9 C148.3,303.5 152.4,306.6 158.4,306.6 C164.3,306.5 168.5,303.5 168.5,298.9 Z M167.2,275 C167.2,270.8 163.5,268.2 158.4,268.2 C153.3,268.2 149.6,270.8 149.6,275 C149.6,279.5 153.1,281.9 158.4,281.9 C163.7,281.9 167.2,279.5 167.2,275 Z M232.5,287.4 C232.5,301.8 225.9,316.1 210.2,316.1 C194.5,316.1 187.9,301.8 187.9,287.4 C187.9,273 194.5,258.7 210.2,258.7 C225.9,258.7 232.5,272.9 232.5,287.4 Z M220.7,288.5 L220.7,286.3 C220.7,275.8 217.2,268.8 210.2,268.8 C203.2,268.8 199.6,275.8 199.6,286.3 L199.6,288.5 C199.6,298.9 203.2,305.9 210.2,305.9 C217.2,305.9 220.7,298.9 220.7,288.5 Z M530.5,315.3 L530.5,305.3 C530.5,305.4 539.3,299 549.9,290.6 C555.5,286.2 558.5,282.1 558.5,276.9 C558.5,272.5 555.7,269 550.4,269 C543.8,269 541.4,273.7 541.4,279.3 L529.8,278.6 C529.8,266 538.3,258.7 550.7,258.7 C561.8,258.7 570.6,265.6 570.6,276.7 C570.6,282.5 568.3,287.9 562.1,293.9 C558.6,297.3 553.8,300.8 547.8,304.8 L571.3,304.8 L571.3,315.3 L530.5,315.3 L530.5,315.3 Z M594.9,310.6 C594.9,316.7 591.6,323.4 580.8,323.4 L580.4,319.7 C581.8,319.5 582.9,319.2 583.8,319 C586.4,318.3 586.8,317 586.8,316 L586.8,315.8 C582.2,315.8 579.1,313.2 579.1,308.7 C579.1,304.7 582.5,301.3 586.6,301.3 C591.6,301.2 594.9,305.4 594.9,310.6 L594.9,310.6 Z M629.1,315.3 L629.1,302.7 L601.3,302.7 L601.3,290.7 L627,259.5 L640.5,259.5 L640.5,292.5 L648.6,292.5 L648.6,302.7 L640.5,302.7 L640.5,315.3 L629.1,315.3 L629.1,315.3 Z M629.1,292.5 L629.1,271.6 L611.8,292.5 L629.1,292.5 Z M656,290 L659.1,259.4 L694.6,259.4 L694.6,269.6 L668.8,269.6 L667.5,280.7 C670.1,277.9 674.8,276.6 678.7,276.6 C689.9,276.6 697.4,284.5 697.4,295.8 C697.4,308.1 687.7,316 675.4,316 C665.3,316 656.5,311.2 654,301.6 L664.8,298.2 C666,302.3 669,305.9 675.3,305.9 C682,305.9 685.6,301.4 685.6,296 C685.6,290.7 682.1,286.3 675.7,286.3 C672,286.3 668.8,288.1 666.8,291.1 L656,290 Z M749,287.4 C749,301.8 742.4,316.1 726.7,316.1 C711,316.1 704.4,301.8 704.4,287.4 C704.4,273 711,258.7 726.7,258.7 C742.4,258.7 749,272.9 749,287.4 Z M737.2,288.5 L737.2,286.3 C737.2,275.8 733.7,268.8 726.7,268.8 C719.7,268.8 716.1,275.8 716.1,286.3 L716.1,288.5 C716.1,298.9 719.7,305.9 726.7,305.9 C733.7,305.9 737.2,298.9 737.2,288.5 Z M86.5,397.3 C86.7,400.3 88.6,402.5 91.5,402.5 C93.3,402.5 94.6,401.8 95.7,400.9 L97,402.8 C95.6,404 93.7,404.8 91.3,404.8 C86.7,404.8 83.7,401.3 83.7,396.5 C83.7,391.6 86.5,388.2 91,388.2 C95.2,388.2 97.8,391.7 97.8,396.5 L97.8,397.3 L86.5,397.3 L86.5,397.3 Z M86.6,395.2 L95,395.2 C94.9,392.7 93.5,390.5 91,390.5 C88.4,390.5 86.7,392.8 86.6,395.2 Z M113.8,404.5 L111.2,404.5 L111.2,394.5 C111.2,391.7 109.8,390.7 108,390.7 C106.2,390.7 104.5,392 104.5,395.1 L104.5,404.5 L101.9,404.5 L101.9,388.5 L104.5,388.5 L104.5,390.3 C105.6,388.8 107,388.2 108.7,388.2 C110.1,388.2 112.2,388.9 113,390.9 C114.2,388.9 116.1,388.2 117.9,388.2 C121.4,388.2 123.3,390.7 123.3,393.5 L123.3,404.4 L120.7,404.4 L120.7,394.4 C120.7,391.6 119.2,390.6 117.4,390.6 C115.6,390.6 113.9,391.9 113.9,395 L113.9,404.5 L113.8,404.5 Z M132.6,404.8 C129.4,404.8 127,402.9 127,400 C127,397.5 128.7,395.8 131.3,395.5 L136.9,394.7 L136.9,393.7 C136.9,391.3 135.3,390.5 133.3,390.5 C131.5,390.5 129.9,391.1 128.7,391.7 L127.7,389.6 C129.5,388.6 131.6,388.1 133.6,388.1 C137.5,388.1 139.5,389.8 139.5,393.2 L139.5,400.7 C139.5,401.8 139.9,402.5 140.8,402.9 L139.3,404.8 C138.3,404.5 137.5,403.8 137.2,402.9 C136.3,404 134.7,404.8 132.6,404.8 L132.6,404.8 Z M132.6,397.4 C130.8,397.7 129.7,398.2 129.7,399.9 C129.7,401.8 131.2,402.8 133,402.8 C135,402.8 136.9,401.6 136.9,399.7 L136.9,396.8 L132.6,397.4 Z M146,382.1 C147.1,382.1 147.9,383 147.9,384.1 C147.9,385.2 147,386.1 146,386.1 C144.9,386.1 144,385.2 144,384.1 C144,383 144.9,382.1 146,382.1 Z M147.2,404.5 L144.6,404.5 L144.6,388.5 L147.2,388.5 L147.2,404.5 Z M152.3,382.1 L154.9,382.1 L154.9,400.9 C154.9,402 155.2,402.5 156.4,402.5 C157.1,402.5 157.6,402.4 158,402.4 L158.3,404.6 C158.3,404.6 156.8,404.8 155.6,404.8 C153.7,404.8 152.2,404 152.2,401.7 L152.2,382.1 L152.3,382.1 Z M159.7,402.5 L161.3,400.6 C162.3,401.5 164,402.6 166.1,402.6 C167.9,402.6 169.3,401.8 169.3,400.2 C169.3,398.5 167.6,398.1 165.4,397.5 C163.1,396.9 160.4,396.1 160.4,392.8 C160.4,390.1 162.9,388.2 166.2,388.2 C168.3,388.2 170.6,389.1 171.7,390.2 L170.2,392 C169.3,391.1 167.9,390.5 166.3,390.5 C164.2,390.5 163.1,391.4 163.1,392.9 C163.1,394.1 164,394.6 165.4,395 C166.2,395.2 167.2,395.5 168,395.8 C170.1,396.5 171.9,397.6 171.9,400.2 C171.9,403.5 169,405 165.9,405 C163.9,404.8 161.5,404.1 159.7,402.5 L159.7,402.5 Z" id="Shape" fill="#FFFFFF" fill-rule="nonzero"></path>
            <g id="Group" transform="translate(-495.1, -4.16)" fill="#333333" fill-rule="nonzero" font-family="FiraSans-Regular, Fira Sans" font-size="34" font-weight="normal">
                <g id="Add-text-message-tem">
                    <text id="In-the-last-7-days">
                        <tspan x="554.169" y="177.16">In the last 7 days</tspan>
                    </text>
                </g>
            </g>
            <path d="M532.7,400.5 C532.7,401.6 532.9,402.5 534.7,402.5 C535.2,402.5 536.2,402.4 536.7,402.3 L537,404.6 C537,404.6 535.5,404.8 534.2,404.8 C531.7,404.8 530.1,403.8 530.1,401.1 L530.1,390.8 L527.1,390.8 L527.1,388.5 L530.1,388.5 L530.1,383.3 L532.7,382.4 L532.7,388.5 L537.1,388.5 L537.1,390.8 L532.7,390.8 L532.7,400.5 L532.7,400.5 Z M542.5,397.3 C542.7,400.3 544.6,402.5 547.5,402.5 C549.3,402.5 550.6,401.8 551.7,400.9 L553,402.8 C551.6,404 549.7,404.8 547.3,404.8 C542.7,404.8 539.7,401.3 539.7,396.5 C539.7,391.6 542.5,388.2 547,388.2 C551.2,388.2 553.8,391.7 553.8,396.5 L553.8,397.3 L542.5,397.3 L542.5,397.3 Z M542.5,395.2 L550.9,395.2 C550.8,392.7 549.4,390.5 546.9,390.5 C544.3,390.5 542.6,392.8 542.5,395.2 Z M561.2,396.1 L556.3,388.5 L559.3,388.5 L562.7,394 L566,388.5 L569,388.5 L564.1,396.1 L569.6,404.5 L566.5,404.5 L562.5,398.3 L558.9,404.5 L555.8,404.5 L561.2,396.1 L561.2,396.1 Z M577,400.5 C577,401.6 577.2,402.5 579,402.5 C579.5,402.5 580.5,402.4 581,402.3 L581.3,404.6 C581.3,404.6 579.8,404.8 578.5,404.8 C576,404.8 574.4,403.8 574.4,401.1 L574.4,390.8 L571.4,390.8 L571.4,388.5 L574.4,388.5 L574.4,383.3 L577,382.4 L577,388.5 L581.4,388.5 L581.4,390.8 L577,390.8 L577,400.5 L577,400.5 Z M605.4,404.5 L602.8,404.5 L602.8,394.5 C602.8,391.7 601.4,390.7 599.6,390.7 C597.8,390.7 596.1,392 596.1,395.1 L596.1,404.5 L593.5,404.5 L593.5,388.5 L596.1,388.5 L596.1,390.3 C597.2,388.8 598.6,388.2 600.3,388.2 C601.7,388.2 603.8,388.9 604.6,390.9 C605.8,388.9 607.7,388.2 609.5,388.2 C613,388.2 614.9,390.7 614.9,393.5 L614.9,404.4 L612.3,404.4 L612.3,394.4 C612.3,391.6 610.8,390.6 609,390.6 C607.2,390.6 605.5,391.9 605.5,395 L605.5,404.5 L605.4,404.5 Z M621.6,397.3 C621.8,400.3 623.7,402.5 626.6,402.5 C628.4,402.5 629.7,401.8 630.8,400.9 L632.1,402.8 C630.7,404 628.8,404.8 626.4,404.8 C621.8,404.8 618.8,401.3 618.8,396.5 C618.8,391.6 621.6,388.2 626.1,388.2 C630.3,388.2 632.9,391.7 632.9,396.5 L632.9,397.3 L621.6,397.3 L621.6,397.3 Z M621.6,395.2 L630,395.2 C629.9,392.7 628.5,390.5 626,390.5 C623.4,390.5 621.7,392.8 621.6,395.2 Z M635.5,402.5 L637.1,400.6 C638.1,401.5 639.8,402.6 641.9,402.6 C643.7,402.6 645.1,401.8 645.1,400.2 C645.1,398.5 643.4,398.1 641.2,397.5 C638.9,396.9 636.2,396.1 636.2,392.8 C636.2,390.1 638.7,388.2 642,388.2 C644.1,388.2 646.4,389.1 647.5,390.2 L646,392 C645.1,391.1 643.7,390.5 642.1,390.5 C640,390.5 638.9,391.4 638.9,392.9 C638.9,394.1 639.8,394.6 641.2,395 C642,395.2 643,395.5 643.8,395.8 C645.9,396.5 647.7,397.6 647.7,400.2 C647.7,403.5 644.8,405 641.7,405 C639.6,404.8 637.3,404.1 635.5,402.5 L635.5,402.5 Z M650.5,402.5 L652.1,400.6 C653.1,401.5 654.8,402.6 656.9,402.6 C658.7,402.6 660.1,401.8 660.1,400.2 C660.1,398.5 658.4,398.1 656.2,397.5 C653.9,396.9 651.2,396.1 651.2,392.8 C651.2,390.1 653.7,388.2 657,388.2 C659.1,388.2 661.4,389.1 662.5,390.2 L661,392 C660.1,391.1 658.7,390.5 657.1,390.5 C655,390.5 653.9,391.4 653.9,392.9 C653.9,394.1 654.8,394.6 656.2,395 C657,395.2 658,395.5 658.8,395.8 C660.9,396.5 662.7,397.6 662.7,400.2 C662.7,403.5 659.8,405 656.7,405 C654.7,404.8 652.3,404.1 650.5,402.5 L650.5,402.5 Z M671.3,404.8 C668.1,404.8 665.7,402.9 665.7,400 C665.7,397.5 667.4,395.8 670,395.5 L675.6,394.7 L675.6,393.7 C675.6,391.3 674,390.5 672,390.5 C670.2,390.5 668.6,391.1 667.4,391.7 L666.4,389.6 C668.2,388.6 670.3,388.1 672.3,388.1 C676.2,388.1 678.2,389.8 678.2,393.2 L678.2,400.7 C678.2,401.8 678.6,402.5 679.5,402.9 L678,404.8 C677,404.5 676.2,403.8 675.9,402.9 C675,404 673.5,404.8 671.3,404.8 L671.3,404.8 Z M671.4,397.4 C669.6,397.7 668.5,398.2 668.5,399.9 C668.5,401.8 670,402.8 671.8,402.8 C673.8,402.8 675.7,401.6 675.7,399.7 L675.7,396.8 L671.4,397.4 Z M688.9,388.2 C690.6,388.2 692.3,388.8 693.4,390.3 L693.4,388.5 L696,388.5 L696,404.6 C696,408.6 692.5,409.7 689.2,409.7 C687.3,409.7 685.1,409.3 683.3,408.4 L684.2,406.2 C685.4,406.8 687.4,407.3 689.3,407.3 C692,407.3 693.5,406.3 693.5,403.8 L693.5,400.8 C692.4,402.3 690.7,402.9 689,402.9 C685,402.9 682.5,399.7 682.5,395.5 C682.5,391.4 685,388.2 688.9,388.2 L688.9,388.2 Z M693.5,395.6 C693.5,392.8 692.3,390.6 689.4,390.6 C686.5,390.6 685.2,392.8 685.2,395.6 L685.2,395.7 C685.2,398.5 686.5,400.7 689.4,400.7 C692.3,400.7 693.5,398.5 693.5,395.7 L693.5,395.6 Z M703,397.3 C703.2,400.3 705.1,402.5 708,402.5 C709.8,402.5 711.1,401.8 712.2,400.9 L713.5,402.8 C712.1,404 710.2,404.8 707.8,404.8 C703.2,404.8 700.2,401.3 700.2,396.5 C700.2,391.6 703,388.2 707.5,388.2 C711.7,388.2 714.3,391.7 714.3,396.5 L714.3,397.3 L703,397.3 L703,397.3 Z M703,395.2 L711.4,395.2 C711.3,392.7 709.9,390.5 707.4,390.5 C704.8,390.5 703.1,392.8 703,395.2 Z M716.9,402.5 L718.5,400.6 C719.5,401.5 721.2,402.6 723.3,402.6 C725.1,402.6 726.5,401.8 726.5,400.2 C726.5,398.5 724.8,398.1 722.6,397.5 C720.3,396.9 717.6,396.1 717.6,392.8 C717.6,390.1 720.1,388.2 723.4,388.2 C725.5,388.2 727.8,389.1 728.9,390.2 L727.4,392 C726.5,391.1 725.1,390.5 723.5,390.5 C721.4,390.5 720.3,391.4 720.3,392.9 C720.3,394.1 721.2,394.6 722.6,395 C723.4,395.2 724.4,395.5 725.2,395.8 C727.3,396.5 729.1,397.6 729.1,400.2 C729.1,403.5 726.2,405 723.1,405 C721,404.8 718.7,404.1 716.9,402.5 L716.9,402.5 Z M84.4,494.6 L84.4,491.9 C86.1,490.4 90.8,486.5 92.5,485 C94.3,483.4 95.9,481.4 95.9,478.8 C95.9,476 94.1,474.4 91.5,474.4 C88.7,474.4 87.3,476.3 87.1,479.1 L84.2,478.9 C84.3,474.5 87.2,472 91.5,472 C95.9,472 98.8,474.6 98.8,479 C98.8,482.3 97.1,484.4 92.1,488.7 L88,492.2 L99,492.2 L99,494.7 L84.4,494.7 L84.4,494.6 Z M113.8,494.6 L113.8,488.8 L102.6,488.8 L102.6,486 L112.7,472.1 L116.6,472.1 L116.6,486.4 L120.3,486.4 L120.3,488.7 L116.6,488.7 L116.6,494.5 L113.8,494.5 L113.8,494.6 Z M113.8,486.5 L113.8,474.5 L105.2,486.5 L113.8,486.5 Z M136,478.6 L139.2,478.6 L139.2,480.9 L136,480.9 L136,494.6 L133.4,494.6 L133.4,480.9 L130.7,480.9 L130.7,478.6 L133.4,478.6 L133.4,475.6 C133.4,472.8 135.3,471.9 137.8,471.9 C139.1,471.9 139.9,472.1 140.4,472.1 L140.2,474.3 C139.6,474.2 138.4,474.2 137.9,474.2 C136.4,474.2 136,475.1 136,476.1 L136,478.6 L136,478.6 Z M147.2,494.9 C144,494.9 141.6,493 141.6,490.1 C141.6,487.6 143.3,485.9 145.9,485.6 L151.5,484.8 L151.5,483.8 C151.5,481.4 149.9,480.6 147.9,480.6 C146.1,480.6 144.5,481.2 143.3,481.8 L142.3,479.7 C144.1,478.7 146.2,478.2 148.2,478.2 C152.1,478.2 154.1,479.9 154.1,483.3 L154.1,490.8 C154.1,491.9 154.5,492.6 155.4,493 L153.9,494.9 C152.9,494.6 152.1,493.9 151.8,493 C150.9,494.1 149.3,494.9 147.2,494.9 L147.2,494.9 Z M147.2,487.5 C145.4,487.8 144.3,488.3 144.3,490 C144.3,491.9 145.8,492.9 147.6,492.9 C149.6,492.9 151.5,491.7 151.5,489.8 L151.5,486.9 L147.2,487.5 Z M160.5,472.2 C161.6,472.2 162.4,473.1 162.4,474.2 C162.4,475.3 161.5,476.2 160.5,476.2 C159.4,476.2 158.5,475.3 158.5,474.2 C158.6,473.1 159.5,472.2 160.5,472.2 Z M161.8,494.6 L159.2,494.6 L159.2,478.6 L161.8,478.6 L161.8,494.6 Z M166.8,472.2 L169.4,472.2 L169.4,491 C169.4,492.1 169.7,492.6 170.9,492.6 C171.6,492.6 172.1,492.5 172.5,492.5 L172.8,494.7 C172.8,494.7 171.3,494.9 170.1,494.9 C168.2,494.9 166.7,494.1 166.7,491.8 L166.7,472.2 L166.8,472.2 Z M177.5,487.4 C177.7,490.4 179.6,492.6 182.5,492.6 C184.3,492.6 185.6,491.9 186.7,491 L188,492.9 C186.6,494.1 184.7,494.9 182.3,494.9 C177.7,494.9 174.7,491.4 174.7,486.6 C174.7,481.7 177.5,478.3 182,478.3 C186.2,478.3 188.8,481.8 188.8,486.6 L188.8,487.4 L177.5,487.4 L177.5,487.4 Z M177.5,485.3 L185.9,485.3 C185.8,482.8 184.4,480.6 181.9,480.6 C179.3,480.6 177.7,482.9 177.5,485.3 Z M203.3,492.8 C202.4,494.1 200.7,494.9 198.6,494.9 C194.5,494.9 191.8,491.4 191.8,486.6 C191.8,481.8 194.5,478.3 198.6,478.3 C200.6,478.3 202.3,479.1 203.3,480.4 L203.3,472.1 L205.9,472.1 L205.9,494.5 L203.3,494.5 L203.3,492.8 Z M194.6,486.7 C194.6,490 196.2,492.6 199.1,492.6 C201.9,492.6 203.3,490.6 203.3,487.9 L203.3,485.3 C203.3,482.6 201.9,480.6 199.1,480.6 C196.2,480.6 194.6,483.2 194.6,486.5 L194.6,486.7 L194.6,486.7 Z" id="Shape" fill="#FFFFFF" fill-rule="nonzero"></path>
            <path d="M543.9,482.8 C543.9,488.9 541.5,495 535,495 C531.8,495 529.6,493.6 528.3,491.4 L531.1,490.5 C532.1,492 533.3,492.6 535,492.6 C539.2,492.6 541,488.2 541.1,483.7 L541,483.7 C540,485.3 538.1,486.9 535.1,486.9 C530.8,486.9 527.8,483.8 527.8,479.6 C527.8,475.3 531,472 535.5,472 C540.2,472 543.9,475.6 543.9,482.3 L543.9,482.8 Z M535.7,474.2 C532.9,474.2 530.7,476.2 530.7,479.3 C530.7,482.4 532.8,484.5 535.7,484.5 C538.6,484.5 540.7,482.5 540.7,479.4 C540.7,476.4 538.6,474.2 535.7,474.2 Z M548.2,494.6 L548.2,491.9 C549.9,490.4 554.6,486.5 556.3,485 C558.1,483.4 559.7,481.4 559.7,478.8 C559.7,476 557.9,474.4 555.3,474.4 C552.5,474.4 551.1,476.3 550.9,479.1 L548,478.9 C548.1,474.5 551,472 555.3,472 C559.7,472 562.6,474.6 562.6,479 C562.6,482.3 560.9,484.4 555.9,488.7 L551.8,492.2 L562.8,492.2 L562.8,494.7 L548.2,494.7 L548.2,494.6 Z M579.3,478.6 L582.5,478.6 L582.5,480.9 L579.3,480.9 L579.3,494.6 L576.7,494.6 L576.7,480.9 L574,480.9 L574,478.6 L576.7,478.6 L576.7,475.6 C576.7,472.8 578.6,471.9 581.1,471.9 C582.4,471.9 583.2,472.1 583.7,472.1 L583.5,474.3 C582.9,474.2 581.7,474.2 581.2,474.2 C579.7,474.2 579.3,475.1 579.3,476.1 L579.3,478.6 L579.3,478.6 Z M590.4,494.9 C587.2,494.9 584.8,493 584.8,490.1 C584.8,487.6 586.5,485.9 589.1,485.6 L594.7,484.8 L594.7,483.8 C594.7,481.4 593.1,480.6 591.1,480.6 C589.3,480.6 587.7,481.2 586.5,481.8 L585.5,479.7 C587.3,478.7 589.4,478.2 591.4,478.2 C595.3,478.2 597.3,479.9 597.3,483.3 L597.3,490.8 C597.3,491.9 597.7,492.6 598.6,493 L597.1,494.9 C596.1,494.6 595.3,493.9 595,493 C594.1,494.1 592.6,494.9 590.4,494.9 L590.4,494.9 Z M590.5,487.5 C588.7,487.8 587.6,488.3 587.6,490 C587.6,491.9 589.1,492.9 590.9,492.9 C592.9,492.9 594.8,491.7 594.8,489.8 L594.8,486.9 L590.5,487.5 Z M603.8,472.2 C604.9,472.2 605.7,473.1 605.7,474.2 C605.7,475.3 604.8,476.2 603.8,476.2 C602.7,476.2 601.8,475.3 601.8,474.2 C601.9,473.1 602.7,472.2 603.8,472.2 Z M605.1,494.6 L602.5,494.6 L602.5,478.6 L605.1,478.6 L605.1,494.6 Z M610.1,472.2 L612.7,472.2 L612.7,491 C612.7,492.1 613,492.6 614.2,492.6 C614.9,492.6 615.4,492.5 615.8,492.5 L616.1,494.7 C616.1,494.7 614.6,494.9 613.4,494.9 C611.5,494.9 610,494.1 610,491.8 L610,472.2 L610.1,472.2 Z M620.8,487.4 C621,490.4 622.9,492.6 625.8,492.6 C627.6,492.6 628.9,491.9 630,491 L631.3,492.9 C629.9,494.1 628,494.9 625.6,494.9 C621,494.9 618,491.4 618,486.6 C618,481.7 620.8,478.3 625.3,478.3 C629.5,478.3 632.1,481.8 632.1,486.6 L632.1,487.4 L620.8,487.4 L620.8,487.4 Z M620.8,485.3 L629.2,485.3 C629.1,482.8 627.7,480.6 625.2,480.6 C622.6,480.6 620.9,482.9 620.8,485.3 Z M646.6,492.8 C645.7,494.1 644,494.9 641.9,494.9 C637.8,494.9 635.1,491.4 635.1,486.6 C635.1,481.8 637.8,478.3 641.9,478.3 C643.9,478.3 645.6,479.1 646.6,480.4 L646.6,472.1 L649.2,472.1 L649.2,494.5 L646.6,494.5 L646.6,492.8 Z M637.9,486.7 C637.9,490 639.5,492.6 642.4,492.6 C645.2,492.6 646.6,490.6 646.6,487.9 L646.6,485.3 C646.6,482.6 645.2,480.6 642.4,480.6 C639.5,480.6 637.9,483.2 637.9,486.5 L637.9,486.7 L637.9,486.7 Z" id="Shape" fill="#FFFFFF" fill-rule="nonzero"></path>
            <polygon id="Path" fill="#DADADA" fill-rule="nonzero" points="0 636 960 636 960 640 0 640"></polygon>
            <polygon id="Path" fill="#DADADA" fill-rule="nonzero" points="4 640 4 40 956 40 956 640 960 640 960 36 0 36 0 640"></polygon>
        </g>
    </g>
</svg>
