<svg id="Layer_1" xmlns="http://www.w3.org/2000/svg" viewBox="0 0 960 640"><style>.st0{fill:#DADADA;} .st1{fill:#FFFFFF;} .st2{fill:#0B0B0B;} .st3{fill:#005EA5;} .st4{fill:#006435;} .st5{fill:none;stroke:#8C8C8C;stroke-miterlimit:10;}</style><path class="st0" d="M0 40V10C0 4.5 4.5 0 10 0h940c5.5 0 10 4.5 10 10v30"/><circle class="st1" cx="25.4" cy="20" r="8.5"/><circle class="st1" cx="49.1" cy="20" r="8.5"/><circle class="st1" cx="72.9" cy="20" r="8.5"/><path class="st2" d="M1 40h958v65H1z"/><path class="st1" d="M267 59.7l-10.7 13v-13h-6.1v30h6.1v-9.1l3.9-4.3 7.9 13.4h7l-11-18.1 10.4-11.9zm-37.4 24.6c-.8-.3-1.4-.6-2-1.2-.6-.5-1-1.2-1.3-2-.3-.8-.5-1.7-.5-2.8V59.7h-6v19.5c0 1.7.3 3.2.9 4.5.6 1.4 1.5 2.5 2.5 3.4 1.1.9 2.4 1.7 3.9 2.2 1.5.5 3.1.8 4.9.8 1.8 0 3.4-.3 4.9-.8 1.5-.5 2.8-1.2 3.9-2.2 1.1-.9 1.9-2.1 2.5-3.4.6-1.4.9-2.9.9-4.5V59.7h-6v18.6c0 1.1-.2 2-.5 2.8-.3.8-.8 1.5-1.3 2-.6.5-1.2.9-2 1.2-.8.3-1.6.4-2.5.4-.7 0-1.5-.2-2.3-.4m-21.9 3.5c.2.5.5.9.8 1.2.3.3.8.6 1.2.8.5.2 1 .3 1.5.3s1-.1 1.5-.3c.5-.2.9-.5 1.2-.8.3-.3.6-.8.8-1.2.2-.5.3-1 .3-1.5s-.1-1-.3-1.5c-.2-.5-.5-.9-.8-1.2-.3-.3-.8-.6-1.2-.8-.5-.2-.9-.3-1.5-.3-.5 0-1 .1-1.5.3-.5.2-.9.5-1.2.8-.3.3-.6.7-.8 1.2-.2.5-.3.9-.3 1.5s.1 1 .3 1.5m-9.6 1.9l8.5-30h-6.7l-5.7 22.6h-.2l-5.8-22.6h-6.8l8.5 30zm-36.8-5.8c-1-.5-1.8-1.2-2.5-2.1-.7-.9-1.2-1.9-1.5-3.1-.3-1.2-.5-2.5-.5-3.9v-.2c0-1.4.2-2.7.5-3.9.3-1.2.9-2.2 1.5-3.1.7-.9 1.5-1.6 2.5-2.1s2.2-.7 3.5-.7c1.3 0 2.5.2 3.5.7 1 .5 1.8 1.2 2.5 2.1.7.9 1.2 1.9 1.5 3.1.3 1.2.5 2.5.5 3.9v.2c0 1.4-.2 2.7-.5 3.9-.3 1.2-.9 2.2-1.5 3.1-.7.9-1.5 1.6-2.5 2.1s-2.2.7-3.5.7c-1.3.1-2.5-.2-3.5-.7m-2.5-23.4c-1.8.8-3.3 1.9-4.5 3.3-1.2 1.4-2.2 3-2.8 4.9-.6 1.9-1 3.9-1 6 0 2.2.3 4.2 1 6 .6 1.9 1.6 3.5 2.8 4.9 1.2 1.4 2.7 2.5 4.5 3.3 1.8.8 3.8 1.2 6 1.2s4.2-.4 6-1.2c1.8-.8 3.3-1.9 4.5-3.3 1.2-1.4 2.2-3 2.8-4.9.6-1.9 1-3.9 1-6s-.3-4.2-1-6c-.6-1.9-1.6-3.5-2.8-4.9-1.2-1.4-2.7-2.5-4.5-3.3-1.8-.8-3.8-1.2-6-1.2-2.3 0-4.3.4-6 1.2m-33.1 14.1c0-1.3.2-2.5.5-3.7.3-1.2.8-2.2 1.5-3.1.7-.9 1.5-1.6 2.5-2.2 1-.6 2.2-.8 3.6-.8.9 0 1.7.1 2.4.3.7.2 1.4.5 1.9.9.6.4 1.1.9 1.5 1.4.4.5.8 1.1 1.1 1.8l5.3-3c-.5-1-1.2-2-2-2.9-.8-.9-1.7-1.6-2.8-2.2-1.1-.6-2.2-1.1-3.5-1.4-1.3-.3-2.6-.5-4-.5-2.2 0-4.2.4-5.9 1.2-1.8.8-3.3 1.9-4.5 3.3-1.2 1.4-2.2 3-2.9 4.9-.7 1.9-1 3.9-1 6 0 2.2.3 4.2.9 6 .6 1.9 1.5 3.5 2.7 4.9 1.2 1.4 2.6 2.5 4.3 3.3 1.7.8 3.6 1.2 5.8 1.2.9 0 1.8-.1 2.6-.3.8-.2 1.6-.5 2.3-.8.7-.3 1.3-.8 1.9-1.2.6-.5 1-1 1.4-1.6v3.5h5.3V73.3H133v4.6h7.7v.3c0 .6-.1 1.3-.3 2.1-.2.8-.6 1.5-1.1 2.1-.5.6-1.3 1.2-2.2 1.6-.9.4-2 .6-3.4.6s-2.6-.3-3.6-.8c-1-.6-1.9-1.3-2.5-2.2-.7-.9-1.1-2-1.5-3.1-.3-1.2-.5-2.4-.5-3.7v-.2zm-63.4-8.8c1.4.6 2.9-.1 3.4-1.4.6-1.3-.1-2.9-1.4-3.4-1.3-.5-2.9.1-3.4 1.4-.6 1.3.1 2.9 1.4 3.4m-6 3.5c1.4.6 2.9-.1 3.4-1.4.6-1.3-.1-2.9-1.4-3.4-1.3-.5-2.9.1-3.4 1.4-.5 1.3.1 2.9 1.4 3.4m-1.7 6.6c1.4.6 2.9-.1 3.4-1.4.6-1.3-.1-2.9-1.4-3.4-1.3-.5-2.9.1-3.4 1.4-.6 1.4.1 2.9 1.4 3.4m14.3-8c1.4.6 2.9-.1 3.4-1.4.6-1.3-.1-2.9-1.4-3.4-1.3-.5-2.9.1-3.4 1.4-.5 1.3.1 2.9 1.4 3.4M93 65.8c-1.4.6-2.9-.1-3.4-1.4-.6-1.3.1-2.9 1.4-3.4 1.3-.5 2.9.1 3.4 1.4.6 1.3 0 2.9-1.4 3.4m6 3.5c-1.4.6-2.9-.1-3.4-1.4-.6-1.3 0-2.9 1.4-3.4 1.3-.5 2.9.1 3.4 1.4.6 1.3-.1 2.9-1.4 3.4m1.8 6.6c-1.4.6-2.9-.1-3.4-1.4-.6-1.3.1-2.9 1.4-3.4 1.3-.5 2.9.1 3.4 1.4.5 1.4-.1 2.9-1.4 3.4m-14.4-8c-1.4.6-2.9-.1-3.4-1.4-.6-1.3.1-2.9 1.4-3.4 1.3-.5 2.9.1 3.4 1.4.6 1.3-.1 2.9-1.4 3.4m-7.3-6.8l3.3 1.7V58l-3.3 1-.3-.3 1.3-4.2h-4.8l1.3 4.2-.3.3-3.4-1v4.9l3.3-1.7.3.3-1.9 5.8c-.1.3-.1.6-.1.9 0 1.6 1.2 2.8 2.6 3.1h1c1.5-.2 2.7-1.5 2.7-3.1 0-.3 0-.6-.1-.9l-1.9-5.8c0-.1.2-.2.3-.4m-1.4 28.2c6.3 0 12.3.4 17.6 1.2 1.5-6.4 3.4-10 5.3-12.6L97 76.7c.4 1.8.4 2.7 0 3.8-.6-.6-1.1-1.6-1.6-3.3L93.7 83c1.1-.7 1.9-1.2 2.8-1.2-1.7 3.6-3.7 4.5-5.1 4.2-1.6-.3-2.4-1.8-2.1-3 .4-1.7 2.2-2.2 3-.2 1.6-3.3-1.1-4.3-2.9-3.3 2.7-2.7 3-5.1.8-7.9-3 2.3-3.1 4.6-1.7 7.8-1.8-2-4.5-.9-3.5 2.3 1.3-2 3-.7 2.7 1.1-.2 1.6-2.4 2.9-5.1 2.7-3.8-.3-4.1-3-4.2-5.2.9-.2 2.6.7 4.1 2.7l.5-6.1c-1.6 1.6-3 2-4.6 2 .5-1.7 3-4.4 3-4.4h-7.5s2.4 2.7 3 4.4c-1.6-.1-3-.4-4.6-2l.5 6.1c1.5-2 3.2-2.9 4.1-2.7-.1 2.2-.3 4.8-4.2 5.2-2.7.2-4.8-1.1-5.1-2.7-.3-1.9 1.4-3.1 2.7-1.1 1-3.3-1.8-4.3-3.5-2.3 1.4-3.2 1.3-5.5-1.7-7.8-2.2 2.9-1.9 5.3.8 7.9-1.8-1-4.5.1-2.9 3.3.8-2 2.6-1.6 3 .2.3 1.2-.5 2.7-2.1 3-1.3.2-3.4-.7-5-4.2.9 0 1.7.5 2.8 1.2L60 77.2c-.4 1.6-1 2.7-1.6 3.3-.4-1.2-.3-2 0-3.8L54.8 78c1.9 2.6 3.7 6.2 5.3 12.6 5.3-.8 11.2-1.3 17.6-1.3M302.3 69v20.7h-2.9V65.9h4.2L316 85.5V65.9h2.9v23.8h-3.6l-13-20.7zm36.9 12.2c0 5.1-3.1 8.8-7.8 8.8-4.7 0-7.8-3.7-7.8-8.8 0-5.2 3.1-8.8 7.8-8.8 4.7 0 7.8 3.6 7.8 8.8zm-2.9.1v-.2c0-3.4-1.7-6.3-4.9-6.3s-4.9 2.9-4.9 6.3v.2c0 3.3 1.7 6.3 4.9 6.3s4.9-3 4.9-6.3zm11.5 4.1c0 1.1.2 2.1 2.2 2.1.5 0 1.6-.1 2.1-.2l.3 2.4s-1.6.2-3 .2c-2.7 0-4.4-1.1-4.4-3.9V75.1h-3.2v-2.4h3.2v-5.5l2.8-1v6.5h4.7v2.4h-4.7v10.3zm9.9-19.5c1.1 0 2 1 2 2.1 0 1.2-.9 2.1-2 2.1-1.2 0-2.1-.9-2.1-2.1 0-1.2.9-2.1 2.1-2.1zm1.3 23.8h-2.8v-17h2.8v17zm9.5-17h3.4v2.4h-3.4v14.5h-2.8V75.1h-2.8v-2.4h2.8v-3.2c0-2.9 2-4 4.7-4 1.4 0 2.3.2 2.7.2l-.2 2.4c-.6-.1-1.9-.1-2.4-.1-1.6 0-2 1-2 2v2.7zm5.3 0h3.2l4.2 14 4-14h3.1l-6.2 19.5c-.7 2.4-2.4 3-4.5 3-.9 0-1.9-.1-3-.3l.4-2.4s1.2.2 2.2.2c1.2 0 1.9-.5 2.1-1.7l.2-.8-5.7-17.5z"/><path class="st3" d="M53.1 224h410v210.7h-410zm443.8 0h410v210.7h-410z"/><path class="st4" d="M53.1 448.6h410v68.7h-410zm443.8 0h410v68.7h-410z"/><path class="st1" d="M129 286.6c0 15.1-6.9 29.5-24 29.5-9.3 0-16.1-4.7-18.8-11.4l10.9-4.1c1.8 3.7 4.5 5.3 8.5 5.3 7.4 0 10.7-6.9 11.2-14.8-2.7 3.4-7.5 5.2-12.3 5.2-10.8 0-18.7-7.5-18.7-18 0-11.2 8.3-19.7 20.7-19.7 13.6 0 22.5 9.9 22.5 26.6v1.4zm-22.1-18.1c-5.8 0-9.5 4.1-9.5 9.3 0 5.1 3.7 9.2 9.5 9.2s9.6-4.1 9.6-9.2c0-5.3-3.8-9.3-9.6-9.3zm72 6.1c0 3.9-2 9-7.7 11.6 6.5 2.6 9.3 7.9 9.3 13 0 11.7-10.8 16.9-22 16.9s-22-5.2-22-16.9c0-5.1 2.9-10.5 9.3-13-5.6-2.6-7.7-7.7-7.7-11.6 0-10.7 10-16 20.4-16 10.4.1 20.4 5 20.4 16zm-10.4 24.3c0-4.5-4.1-7.7-10.1-7.7-5.9 0-10.1 3.2-10.1 7.7 0 4.6 4.1 7.7 10.1 7.7 5.9-.1 10.1-3.1 10.1-7.7zm-1.3-23.9c0-4.2-3.7-6.8-8.8-6.8s-8.8 2.6-8.8 6.8c0 4.5 3.5 6.9 8.8 6.9 5.3 0 8.8-2.4 8.8-6.9zm65.3 12.4c0 14.4-6.6 28.7-22.3 28.7-15.7 0-22.3-14.3-22.3-28.7s6.6-28.7 22.3-28.7c15.7 0 22.3 14.2 22.3 28.7zm-11.8 1.1v-2.2c0-10.5-3.5-17.5-10.5-17.5s-10.6 7-10.6 17.5v2.2c0 10.4 3.6 17.4 10.6 17.4s10.5-7 10.5-17.4zm309.8 26.8v-10c0 .1 8.8-6.3 19.4-14.7 5.6-4.4 8.6-8.5 8.6-13.7 0-4.4-2.8-7.9-8.1-7.9-6.6 0-9 4.7-9 10.3l-11.6-.7c0-12.6 8.5-19.9 20.9-19.9 11.1 0 19.9 6.9 19.9 18 0 5.8-2.3 11.2-8.5 17.2-3.5 3.4-8.3 6.9-14.3 10.9h23.5v10.5h-40.8zm64.4-4.7c0 6.1-3.3 12.8-14.1 12.8l-.4-3.7c1.4-.2 2.5-.5 3.4-.7 2.6-.7 3-2 3-3v-.2c-4.6 0-7.7-2.6-7.7-7.1 0-4 3.4-7.4 7.5-7.4 5-.1 8.3 4.1 8.3 9.3zm34.2 4.7v-12.6h-27.8v-12l25.7-31.2h13.5v33h8.1v10.2h-8.1v12.6h-11.4zm0-22.8v-20.9l-17.3 20.9h17.3zM656 290l3.1-30.6h35.5v10.2h-25.8l-1.3 11.1c2.6-2.8 7.3-4.1 11.2-4.1 11.2 0 18.7 7.9 18.7 19.2 0 12.3-9.7 20.2-22 20.2-10.1 0-18.9-4.8-21.4-14.4l10.8-3.4c1.2 4.1 4.2 7.7 10.5 7.7 6.7 0 10.3-4.5 10.3-9.9 0-5.3-3.5-9.7-9.9-9.7-3.7 0-6.9 1.8-8.9 4.8L656 290zm93-2.6c0 14.4-6.6 28.7-22.3 28.7-15.7 0-22.3-14.3-22.3-28.7s6.6-28.7 22.3-28.7c15.7 0 22.3 14.2 22.3 28.7zm-11.8 1.1v-2.2c0-10.5-3.5-17.5-10.5-17.5s-10.6 7-10.6 17.5v2.2c0 10.4 3.6 17.4 10.6 17.4s10.5-7 10.5-17.4zM86.5 397.3c.2 3 2.1 5.2 5 5.2 1.8 0 3.1-.7 4.2-1.6l1.3 1.9c-1.4 1.2-3.3 2-5.7 2-4.6 0-7.6-3.5-7.6-8.3 0-4.9 2.8-8.3 7.3-8.3 4.2 0 6.8 3.5 6.8 8.3v.8H86.5zm.1-2.1H95c-.1-2.5-1.5-4.7-4-4.7-2.6 0-4.3 2.3-4.4 4.7zm27.2 9.3h-2.6v-10c0-2.8-1.4-3.8-3.2-3.8-1.8 0-3.5 1.3-3.5 4.4v9.4h-2.6v-16h2.6v1.8c1.1-1.5 2.5-2.1 4.2-2.1 1.4 0 3.5.7 4.3 2.7 1.2-2 3.1-2.7 4.9-2.7 3.5 0 5.4 2.5 5.4 5.3v10.9h-2.6v-10c0-2.8-1.5-3.8-3.3-3.8-1.8 0-3.5 1.3-3.5 4.4v9.5zm18.8.3c-3.2 0-5.6-1.9-5.6-4.8 0-2.5 1.7-4.2 4.3-4.5l5.6-.8v-1c0-2.4-1.6-3.2-3.6-3.2-1.8 0-3.4.6-4.6 1.2l-1-2.1c1.8-1 3.9-1.5 5.9-1.5 3.9 0 5.9 1.7 5.9 5.1v7.5c0 1.1.4 1.8 1.3 2.2l-1.5 1.9c-1-.3-1.8-1-2.1-1.9-.9 1.1-2.5 1.9-4.6 1.9zm0-7.4c-1.8.3-2.9.8-2.9 2.5 0 1.9 1.5 2.9 3.3 2.9 2 0 3.9-1.2 3.9-3.1v-2.9l-4.3.6zm13.4-15.3c1.1 0 1.9.9 1.9 2s-.9 2-1.9 2c-1.1 0-2-.9-2-2s.9-2 2-2zm1.2 22.4h-2.6v-16h2.6v16zm5.1-22.4h2.6v18.8c0 1.1.3 1.6 1.5 1.6.7 0 1.2-.1 1.6-.1l.3 2.2s-1.5.2-2.7.2c-1.9 0-3.4-.8-3.4-3.1v-19.6zm7.4 20.4l1.6-1.9c1 .9 2.7 2 4.8 2 1.8 0 3.2-.8 3.2-2.4 0-1.7-1.7-2.1-3.9-2.7-2.3-.6-5-1.4-5-4.7 0-2.7 2.5-4.6 5.8-4.6 2.1 0 4.4.9 5.5 2l-1.5 1.8c-.9-.9-2.3-1.5-3.9-1.5-2.1 0-3.2.9-3.2 2.4 0 1.2.9 1.7 2.3 2.1.8.2 1.8.5 2.6.8 2.1.7 3.9 1.8 3.9 4.4 0 3.3-2.9 4.8-6 4.8-2-.2-4.4-.9-6.2-2.5z"/><path class="st2" d="M55.9 153.1H61v25.2h-5.1v-25.2zm10 6.4h4.9v1.6c1-1 2.5-2 4.8-2 4.1 0 6.5 2.8 6.5 6.5v12.7h-4.9v-10.9c0-2.7-1.3-3.7-3-3.7-2 0-3.5 1.4-3.5 4.3v10.3h-4.9v-18.8zm35.5 13.2c0 .9.4 1.6 2.1 1.6.7 0 1.9-.1 2.4-.2l.4 4.3s-2.4.3-4.5.3c-3.3 0-5.3-1.5-5.3-4.8v-10h-3.4v-4.4h3.4v-5.3l4.9-1.3v6.6h4.9v4.4h-4.9v8.8zm8.3-19.6h4.9v8c1-1 2.5-2 4.8-2 4.1 0 6.5 2.8 6.5 6.5v12.7H121v-10.9c0-2.7-1.3-3.7-3-3.7-2 0-3.5 1.4-3.5 4.3v10.3h-4.9v-25.2zm24.6 17.4c.5 2.4 2.3 3.7 4.6 3.7 1.8 0 3.5-.6 4.8-1.8l2.4 3.7c-1.7 1.4-4.2 2.5-7.3 2.5-5.2 0-9.5-3.6-9.5-9.6v-.2c0-5.5 3.8-9.7 9.1-9.7 5 0 8.6 3.8 8.6 9.3v2.2h-12.7zm.1-3.6h7.6c-.1-1.7-1.2-3.6-3.7-3.6-2.6 0-3.8 1.9-3.9 3.6zm24.3-13.8h4.9v20.1c0 .8.4 1.2 1.4 1.2.6 0 1.3-.1 1.8-.2l.4 4.1s-2.3.3-4.1.3c-2.7 0-4.4-1.4-4.4-4.1v-21.4zm16.2 25.5c-3.4 0-6.5-2.2-6.5-5.9 0-3 2-5 5.3-5.5l5.7-.8v-.6c0-1.7-1.1-2.4-3-2.4-2.3 0-4.1.9-5.5 1.5l-1.9-3.7c2.2-1.2 4.9-2.1 7.6-2.1 3.5 0 7.6.9 7.6 6v8.1c0 1.1.6 1.5 1.6 1.9l-2.2 3.5c-1.8-.1-3-1.1-3.5-2.1-1.2 1.5-3 2.1-5.2 2.1zm.6-7.9c-1.2.2-2 .9-2 1.9 0 1.2.9 2.2 2.6 2.2 2.3 0 3.3-1.5 3.3-3.5V170l-3.9.7zm14.8 1.5c1.3 1.3 3.6 2.3 5.5 2.3 1.5 0 2.7-.4 2.7-1.5 0-.9-.7-1.3-2.3-1.7-1.1-.3-3.1-.6-4.7-1.3-1.8-.8-3.3-2.3-3.3-4.9 0-4 3.6-6 7.7-6 3.2 0 5.9 1.2 7.5 2.7l-3.1 3.2c-1-.9-2.6-1.7-4.3-1.7-1.3 0-2.7.5-2.7 1.6 0 .9.8 1.2 2.2 1.5 2.3.6 4 1 5.4 1.7 1.5.8 2.6 2.4 2.6 4.5 0 4-3.4 6-7.6 6-3.1 0-6.6-1.2-8.5-2.8l2.9-3.6zm23.7.5c0 .9.4 1.6 2.1 1.6.7 0 1.9-.1 2.4-.2l.4 4.3s-2.4.3-4.5.3c-3.3 0-5.3-1.5-5.3-4.8v-10h-3.4v-4.4h3.4v-5.3l4.9-1.3v6.6h4.9v4.4H214v8.8zm28.6-14.8h-12.8v-4.8h18v4.9l-9.8 20.3h-6l10.6-20.4zm16.2 10.9c0-5.6 3.3-9.7 8.3-9.7 2.2 0 3.7.9 4.8 2v-8h4.9v25.2h-4.9v-1.6c-1 1.1-2.4 2-4.6 2-5 0-8.4-4.1-8.4-9.7v-.2zm13.1-1.7c0-2-1.5-3.5-3.9-3.5-2.8 0-4.3 2.2-4.3 5.2v.2c0 3 1.5 5.2 4.3 5.2 2.4 0 3.9-1.5 3.9-3.5v-3.6zm14.7 11.5c-3.4 0-6.5-2.2-6.5-5.9 0-3 2-5 5.3-5.5l5.7-.8v-.6c0-1.7-1.1-2.4-3-2.4-2.3 0-4.1.9-5.5 1.5l-1.9-3.7c2.2-1.2 4.9-2.1 7.6-2.1 3.5 0 7.6.9 7.6 6v8.1c0 1.1.6 1.5 1.6 1.9l-2.2 3.5c-1.8-.1-3-1.1-3.5-2.1-1.1 1.5-3 2.1-5.2 2.1zm.6-7.9c-1.2.2-2 .9-2 1.9 0 1.2.9 2.2 2.6 2.2 2.3 0 3.3-1.5 3.3-3.5V170l-3.9.7zm17.1 8.3l.1-.6h-.4l-5.8-19h5.4l3.5 13 3.4-13h5.3l-6.5 21.6c-.8 2.8-3 3.6-5.9 3.6-1.2 0-3.1-.1-4.4-.4l1-4.3s1.3.2 2.6.2c1.1.1 1.5-.3 1.7-1.1zm15.5-6.8c1.3 1.3 3.6 2.3 5.5 2.3 1.5 0 2.7-.4 2.7-1.5 0-.9-.7-1.3-2.3-1.7-1.1-.3-3.1-.6-4.7-1.3-1.8-.8-3.3-2.3-3.3-4.9 0-4 3.6-6 7.7-6 3.2 0 5.9 1.2 7.5 2.7l-3.1 3.2c-1-.9-2.6-1.7-4.3-1.7-1.3 0-2.7.5-2.7 1.6 0 .9.8 1.2 2.2 1.5 2.3.6 4 1 5.4 1.7 1.5.8 2.6 2.4 2.6 4.5 0 4-3.4 6-7.6 6-3.1 0-6.6-1.2-8.5-2.8l2.9-3.6z"/><path class="st1" d="M532.7 400.5c0 1.1.2 2 2 2 .5 0 1.5-.1 2-.2l.3 2.3s-1.5.2-2.8.2c-2.5 0-4.1-1-4.1-3.7v-10.3h-3v-2.3h3v-5.2l2.6-.9v6.1h4.4v2.3h-4.4v9.7zm9.8-3.2c.2 3 2.1 5.2 5 5.2 1.8 0 3.1-.7 4.2-1.6l1.3 1.9c-1.4 1.2-3.3 2-5.7 2-4.6 0-7.6-3.5-7.6-8.3 0-4.9 2.8-8.3 7.3-8.3 4.2 0 6.8 3.5 6.8 8.3v.8h-11.3zm0-2.1h8.4c-.1-2.5-1.5-4.7-4-4.7-2.6 0-4.3 2.3-4.4 4.7zm18.7.9l-4.9-7.6h3l3.4 5.5 3.3-5.5h3l-4.9 7.6 5.5 8.4h-3.1l-4-6.2-3.6 6.2h-3.1l5.4-8.4zm15.8 4.4c0 1.1.2 2 2 2 .5 0 1.5-.1 2-.2l.3 2.3s-1.5.2-2.8.2c-2.5 0-4.1-1-4.1-3.7v-10.3h-3v-2.3h3v-5.2l2.6-.9v6.1h4.4v2.3H577v9.7zm28.4 4h-2.6v-10c0-2.8-1.4-3.8-3.2-3.8-1.8 0-3.5 1.3-3.5 4.4v9.4h-2.6v-16h2.6v1.8c1.1-1.5 2.5-2.1 4.2-2.1 1.4 0 3.5.7 4.3 2.7 1.2-2 3.1-2.7 4.9-2.7 3.5 0 5.4 2.5 5.4 5.3v10.9h-2.6v-10c0-2.8-1.5-3.8-3.3-3.8-1.8 0-3.5 1.3-3.5 4.4v9.5zm16.2-7.2c.2 3 2.1 5.2 5 5.2 1.8 0 3.1-.7 4.2-1.6l1.3 1.9c-1.4 1.2-3.3 2-5.7 2-4.6 0-7.6-3.5-7.6-8.3 0-4.9 2.8-8.3 7.3-8.3 4.2 0 6.8 3.5 6.8 8.3v.8h-11.3zm0-2.1h8.4c-.1-2.5-1.5-4.7-4-4.7-2.6 0-4.3 2.3-4.4 4.7zm13.9 7.3l1.6-1.9c1 .9 2.7 2 4.8 2 1.8 0 3.2-.8 3.2-2.4 0-1.7-1.7-2.1-3.9-2.7-2.3-.6-5-1.4-5-4.7 0-2.7 2.5-4.6 5.8-4.6 2.1 0 4.4.9 5.5 2L646 392c-.9-.9-2.3-1.5-3.9-1.5-2.1 0-3.2.9-3.2 2.4 0 1.2.9 1.7 2.3 2.1.8.2 1.8.5 2.6.8 2.1.7 3.9 1.8 3.9 4.4 0 3.3-2.9 4.8-6 4.8-2.1-.2-4.4-.9-6.2-2.5zm15 0l1.6-1.9c1 .9 2.7 2 4.8 2 1.8 0 3.2-.8 3.2-2.4 0-1.7-1.7-2.1-3.9-2.7-2.3-.6-5-1.4-5-4.7 0-2.7 2.5-4.6 5.8-4.6 2.1 0 4.4.9 5.5 2L661 392c-.9-.9-2.3-1.5-3.9-1.5-2.1 0-3.2.9-3.2 2.4 0 1.2.9 1.7 2.3 2.1.8.2 1.8.5 2.6.8 2.1.7 3.9 1.8 3.9 4.4 0 3.3-2.9 4.8-6 4.8-2-.2-4.4-.9-6.2-2.5zm20.8 2.3c-3.2 0-5.6-1.9-5.6-4.8 0-2.5 1.7-4.2 4.3-4.5l5.6-.8v-1c0-2.4-1.6-3.2-3.6-3.2-1.8 0-3.4.6-4.6 1.2l-1-2.1c1.8-1 3.9-1.5 5.9-1.5 3.9 0 5.9 1.7 5.9 5.1v7.5c0 1.1.4 1.8 1.3 2.2l-1.5 1.9c-1-.3-1.8-1-2.1-1.9-.9 1.1-2.4 1.9-4.6 1.9zm.1-7.4c-1.8.3-2.9.8-2.9 2.5 0 1.9 1.5 2.9 3.3 2.9 2 0 3.9-1.2 3.9-3.1v-2.9l-4.3.6zm17.5-9.2c1.7 0 3.4.6 4.5 2.1v-1.8h2.6v16.1c0 4-3.5 5.1-6.8 5.1-1.9 0-4.1-.4-5.9-1.3l.9-2.2c1.2.6 3.2 1.1 5.1 1.1 2.7 0 4.2-1 4.2-3.5v-3c-1.1 1.5-2.8 2.1-4.5 2.1-4 0-6.5-3.2-6.5-7.4 0-4.1 2.5-7.3 6.4-7.3zm4.6 7.4c0-2.8-1.2-5-4.1-5-2.9 0-4.2 2.2-4.2 5v.1c0 2.8 1.3 5 4.2 5 2.9 0 4.1-2.2 4.1-5v-.1zm9.5 1.7c.2 3 2.1 5.2 5 5.2 1.8 0 3.1-.7 4.2-1.6l1.3 1.9c-1.4 1.2-3.3 2-5.7 2-4.6 0-7.6-3.5-7.6-8.3 0-4.9 2.8-8.3 7.3-8.3 4.2 0 6.8 3.5 6.8 8.3v.8H703zm0-2.1h8.4c-.1-2.5-1.5-4.7-4-4.7-2.6 0-4.3 2.3-4.4 4.7zm13.9 7.3l1.6-1.9c1 .9 2.7 2 4.8 2 1.8 0 3.2-.8 3.2-2.4 0-1.7-1.7-2.1-3.9-2.7-2.3-.6-5-1.4-5-4.7 0-2.7 2.5-4.6 5.8-4.6 2.1 0 4.4.9 5.5 2l-1.5 1.8c-.9-.9-2.3-1.5-3.9-1.5-2.1 0-3.2.9-3.2 2.4 0 1.2.9 1.7 2.3 2.1.8.2 1.8.5 2.6.8 2.1.7 3.9 1.8 3.9 4.4 0 3.3-2.9 4.8-6 4.8-2.1-.2-4.4-.9-6.2-2.5zM84.4 494.6v-2.7c1.7-1.5 6.4-5.4 8.1-6.9 1.8-1.6 3.4-3.6 3.4-6.2 0-2.8-1.8-4.4-4.4-4.4-2.8 0-4.2 1.9-4.4 4.7l-2.9-.2c.1-4.4 3-6.9 7.3-6.9 4.4 0 7.3 2.6 7.3 7 0 3.3-1.7 5.4-6.7 9.7l-4.1 3.5h11v2.5H84.4zm29.4 0v-5.8h-11.2V486l10.1-13.9h3.9v14.3h3.7v2.3h-3.7v5.8h-2.8zm0-8.1v-12l-8.6 12h8.6zm22.2-7.9h3.2v2.3H136v13.7h-2.6v-13.7h-2.7v-2.3h2.7v-3c0-2.8 1.9-3.7 4.4-3.7 1.3 0 2.1.2 2.6.2l-.2 2.2c-.6-.1-1.8-.1-2.3-.1-1.5 0-1.9.9-1.9 1.9v2.5zm11.2 16.3c-3.2 0-5.6-1.9-5.6-4.8 0-2.5 1.7-4.2 4.3-4.5l5.6-.8v-1c0-2.4-1.6-3.2-3.6-3.2-1.8 0-3.4.6-4.6 1.2l-1-2.1c1.8-1 3.9-1.5 5.9-1.5 3.9 0 5.9 1.7 5.9 5.1v7.5c0 1.1.4 1.8 1.3 2.2l-1.5 1.9c-1-.3-1.8-1-2.1-1.9-.9 1.1-2.5 1.9-4.6 1.9zm0-7.4c-1.8.3-2.9.8-2.9 2.5 0 1.9 1.5 2.9 3.3 2.9 2 0 3.9-1.2 3.9-3.1v-2.9l-4.3.6zm13.3-15.3c1.1 0 1.9.9 1.9 2s-.9 2-1.9 2c-1.1 0-2-.9-2-2 .1-1.1 1-2 2-2zm1.3 22.4h-2.6v-16h2.6v16zm5-22.4h2.6V491c0 1.1.3 1.6 1.5 1.6.7 0 1.2-.1 1.6-.1l.3 2.2s-1.5.2-2.7.2c-1.9 0-3.4-.8-3.4-3.1v-19.6zm10.7 15.2c.2 3 2.1 5.2 5 5.2 1.8 0 3.1-.7 4.2-1.6l1.3 1.9c-1.4 1.2-3.3 2-5.7 2-4.6 0-7.6-3.5-7.6-8.3 0-4.9 2.8-8.3 7.3-8.3 4.2 0 6.8 3.5 6.8 8.3v.8h-11.3zm0-2.1h8.4c-.1-2.5-1.5-4.7-4-4.7-2.6 0-4.2 2.3-4.4 4.7zm25.8 7.5c-.9 1.3-2.6 2.1-4.7 2.1-4.1 0-6.8-3.5-6.8-8.3 0-4.8 2.7-8.3 6.8-8.3 2 0 3.7.8 4.7 2.1v-8.3h2.6v22.4h-2.6v-1.7zm-8.7-6.1c0 3.3 1.6 5.9 4.5 5.9 2.8 0 4.2-2 4.2-4.7v-2.6c0-2.7-1.4-4.7-4.2-4.7-2.9 0-4.5 2.6-4.5 5.9v.2z"/><path class="st3" d="M275.4 561.4c4.6 0 7.8 2.6 9.3 6.4l-2.9 1c-.7-2.3-2.9-4.8-6.3-4.8-5.2 0-7.6 4.7-7.6 9.9v.5c0 5.1 2.4 9.9 7.6 9.9 3.5 0 5.6-2.5 6.3-4.8l2.9 1c-1.5 3.9-4.6 6.4-9.3 6.4-6.7 0-10.8-5.6-10.8-12.7 0-7.2 4.1-12.8 10.8-12.8zm29.1 16.3c0 5.3-3.3 9.2-8.2 9.2-4.9 0-8.2-3.9-8.2-9.2 0-5.4 3.3-9.2 8.2-9.2 4.9 0 8.2 3.8 8.2 9.2zm-3 .1v-.2c0-3.5-1.8-6.6-5.1-6.6-3.4 0-5.1 3-5.1 6.6v.2c0 3.5 1.8 6.5 5.1 6.5s5.1-3 5.1-6.5zm20.9 8.7h-2.9v-11.1c0-3.2-1.6-4.3-3.5-4.3s-3.9 1.5-3.9 4.9v10.5h-2.9v-17.7h2.9v2c1.2-1.6 2.8-2.4 4.6-2.4 1.6 0 3.9.8 4.8 2.9 1.3-2.2 3.4-2.9 5.4-2.9 3.8 0 6 2.8 6 5.9v12.1H330v-11.1c0-3.2-1.7-4.3-3.6-4.3-2 0-3.9 1.5-3.9 4.9v10.6zm18.8-17.7v2c1-1.5 2.9-2.4 5.2-2.4 4.6 0 7.5 3.9 7.5 9.2 0 5.4-2.9 9.2-7.5 9.2-2.3 0-4.1-.9-5.2-2.4v7.4h-2.9v-23.1h2.9zm9.7 8.8c0-3.7-1.8-6.5-5-6.5-3.1 0-4.7 2.2-4.7 5.2v2.9c0 2.9 1.6 5.2 4.7 5.2 3.3 0 5-2.8 5-6.5v-.3zm12.5 9.3c-3.5 0-6.2-2.1-6.2-5.4 0-2.8 1.9-4.6 4.7-5l6.2-.9v-1.1c0-2.7-1.7-3.5-3.9-3.5-2 0-3.7.6-5.1 1.4l-1.1-2.3c2-1.1 4.3-1.6 6.5-1.6 4.3 0 6.6 1.9 6.6 5.6v8.3c0 1.2.5 2 1.5 2.4l-1.6 2.1c-1.1-.3-2-1.1-2.4-2.1-1 1.1-2.8 2.1-5.2 2.1zm.1-8.3c-2 .3-3.2.9-3.2 2.7 0 2.1 1.7 3.2 3.6 3.2 2.2 0 4.4-1.4 4.4-3.4v-3.2l-4.8.7zm22.3-7.2h-.5c-3 0-5.7 1.2-5.7 6v9.1h-2.9v-17.7h2.9v2.8c.9-2.1 3-3.1 5.3-3.1h.9v2.9zm5.3 7.2c.2 3.3 2.3 5.7 5.5 5.7 2 0 3.4-.7 4.6-1.7l1.5 2.1c-1.6 1.3-3.7 2.2-6.3 2.2-5.1 0-8.4-3.9-8.4-9.2 0-5.4 3.2-9.2 8-9.2 4.6 0 7.6 3.9 7.6 9.2v.9h-12.5zm.1-2.4h9.4c-.1-2.7-1.6-5.2-4.4-5.2-3 0-4.9 2.5-5 5.2zm30 5.9c0 1.2.2 2.2 2.3 2.2.5 0 1.7-.1 2.2-.2l.3 2.6s-1.7.2-3.2.2c-2.8 0-4.5-1.1-4.5-4.1v-11.4H415v-2.6h3.3V563l2.9-1v6.8h4.9v2.6h-4.9v10.7zm24.1-4.4c0 5.3-3.3 9.2-8.2 9.2-4.9 0-8.2-3.9-8.2-9.2 0-5.4 3.3-9.2 8.2-9.2 5 0 8.2 3.8 8.2 9.2zm-3 .1v-.2c0-3.5-1.8-6.6-5.1-6.6-3.4 0-5.1 3-5.1 6.6v.2c0 3.5 1.8 6.5 5.1 6.5 3.4 0 5.1-3 5.1-6.5zm19.8-9v2c1-1.5 2.9-2.4 5.2-2.4 4.6 0 7.5 3.9 7.5 9.2 0 5.4-2.9 9.2-7.5 9.2-2.3 0-4.1-.9-5.2-2.4v7.4h-2.9v-23.1h2.9zm9.7 8.8c0-3.7-1.8-6.5-5-6.5-3.1 0-4.7 2.2-4.7 5.2v2.9c0 2.9 1.6 5.2 4.7 5.2 3.3 0 5-2.8 5-6.5v-.3zm16.7-6.2h-.5c-3 0-5.7 1.2-5.7 6v9.1h-2.9v-17.7h2.9v2.8c.9-2.1 3-3.1 5.3-3.1h.9v2.9zm5.3 7.2c.2 3.3 2.3 5.7 5.5 5.7 2 0 3.4-.7 4.6-1.7l1.5 2.1c-1.6 1.3-3.7 2.2-6.3 2.2-5.1 0-8.4-3.9-8.4-9.2 0-5.4 3.2-9.2 8-9.2 4.6 0 7.6 3.9 7.6 9.2v.9h-12.5zm.1-2.4h9.4c-.1-2.7-1.6-5.2-4.4-5.2-3 0-4.9 2.5-5 5.2zm20.4 10.3l-5.6-17.7h3.3l4.3 15 4.2-15h3.3l-5.6 17.7h-3.9zm14.9-24.8c1.2 0 2.1 1 2.1 2.2 0 1.2-1 2.2-2.1 2.2-1.2 0-2.2-1-2.2-2.2 0-1.2 1-2.2 2.2-2.2zm1.4 24.8h-2.9v-17.7h2.9v17.7zm20.9-8.8c0 5.3-3.3 9.2-8.2 9.2-4.9 0-8.2-3.9-8.2-9.2 0-5.4 3.3-9.2 8.2-9.2 4.9 0 8.2 3.8 8.2 9.2zm-3 .1v-.2c0-3.5-1.8-6.6-5.1-6.6-3.4 0-5.1 3-5.1 6.6v.2c0 3.5 1.8 6.5 5.1 6.5s5.1-3 5.1-6.5zm21.5 8.7h-2.9v-2c-1.2 1.6-3 2.4-5.2 2.4-3.9 0-5.9-2.8-5.9-6v-12h2.9V580c0 3.1 1.6 4.3 3.7 4.3 2.4 0 4.5-1.6 4.5-4.9v-10.5h2.9v17.6zm4.1-2.2l1.8-2.1c1.1 1 3 2.2 5.4 2.2 2 0 3.5-.9 3.5-2.7 0-1.9-1.9-2.3-4.3-3-2.5-.7-5.5-1.5-5.5-5.2 0-3 2.7-5.1 6.5-5.1 2.3 0 4.9 1 6.1 2.2l-1.7 2c-1-1-2.6-1.7-4.4-1.7-2.3 0-3.5 1-3.5 2.6 0 1.3 1 1.9 2.6 2.3.9.2 2 .6 2.9.9 2.4.7 4.3 2 4.3 4.8 0 3.7-3.2 5.3-6.7 5.3-2.4.1-5-.8-7-2.5zm42.8-1.2l3.2-14.3h3.1l-4.3 17.7h-3.7l-3.6-14.2-3.7 14.2h-3.6l-4.3-17.7h3.1l3.1 14.3 3.7-14.3h3.3l3.7 14.3zm12.2-4.5c.2 3.3 2.3 5.7 5.5 5.7 2 0 3.4-.7 4.6-1.7l1.5 2.1c-1.6 1.3-3.7 2.2-6.3 2.2-5.1 0-8.4-3.9-8.4-9.2 0-5.4 3.2-9.2 8-9.2 4.6 0 7.6 3.9 7.6 9.2v.9h-12.5zm0-2.4h9.4c-.1-2.7-1.6-5.2-4.4-5.2-3 0-4.8 2.5-5 5.2zm18.9 2.4c.2 3.3 2.3 5.7 5.5 5.7 2 0 3.4-.7 4.6-1.7l1.5 2.1c-1.6 1.3-3.7 2.2-6.3 2.2-5.1 0-8.4-3.9-8.4-9.2 0-5.4 3.2-9.2 8-9.2 4.6 0 7.6 3.9 7.6 9.2v.9H648zm.1-2.4h9.4c-.1-2.7-1.6-5.2-4.4-5.2-3 0-4.9 2.5-5 5.2zm19.8 1.3l8.3-8.7h3.7l-6.7 7 7.1 10.7h-3.5l-5.6-8.7-3.2 3.3v5.5h-3v-24.8h2.9v15.7zm14.3 6.8l1.8-2.1c1.1 1 3 2.2 5.4 2.2 2 0 3.5-.9 3.5-2.7 0-1.9-1.9-2.3-4.3-3-2.5-.7-5.5-1.5-5.5-5.2 0-3 2.7-5.1 6.5-5.1 2.3 0 4.9 1 6.1 2.2l-1.7 2c-1-1-2.6-1.7-4.4-1.7-2.3 0-3.5 1-3.5 2.6 0 1.3 1 1.9 2.6 2.3.9.2 2 .6 2.9.9 2.4.7 4.3 2 4.3 4.8 0 3.7-3.2 5.3-6.7 5.3-2.5.1-5.1-.8-7-2.5z"/><path class="st1" d="M543.9 482.8c0 6.1-2.4 12.2-8.9 12.2-3.2 0-5.4-1.4-6.7-3.6l2.8-.9c1 1.5 2.2 2.1 3.9 2.1 4.2 0 6-4.4 6.1-8.9h-.1c-1 1.6-2.9 3.2-5.9 3.2-4.3 0-7.3-3.1-7.3-7.3 0-4.3 3.2-7.6 7.7-7.6 4.7 0 8.4 3.6 8.4 10.3v.5zm-8.2-8.6c-2.8 0-5 2-5 5.1 0 3.1 2.1 5.2 5 5.2s5-2 5-5.1c0-3-2.1-5.2-5-5.2zm12.5 20.4v-2.7c1.7-1.5 6.4-5.4 8.1-6.9 1.8-1.6 3.4-3.6 3.4-6.2 0-2.8-1.8-4.4-4.4-4.4-2.8 0-4.2 1.9-4.4 4.7l-2.9-.2c.1-4.4 3-6.9 7.3-6.9 4.4 0 7.3 2.6 7.3 7 0 3.3-1.7 5.4-6.7 9.7l-4.1 3.5h11v2.5h-14.6zm31.1-16h3.2v2.3h-3.2v13.7h-2.6v-13.7H574v-2.3h2.7v-3c0-2.8 1.9-3.7 4.4-3.7 1.3 0 2.1.2 2.6.2l-.2 2.2c-.6-.1-1.8-.1-2.3-.1-1.5 0-1.9.9-1.9 1.9v2.5zm11.1 16.3c-3.2 0-5.6-1.9-5.6-4.8 0-2.5 1.7-4.2 4.3-4.5l5.6-.8v-1c0-2.4-1.6-3.2-3.6-3.2-1.8 0-3.4.6-4.6 1.2l-1-2.1c1.8-1 3.9-1.5 5.9-1.5 3.9 0 5.9 1.7 5.9 5.1v7.5c0 1.1.4 1.8 1.3 2.2l-1.5 1.9c-1-.3-1.8-1-2.1-1.9-.9 1.1-2.4 1.9-4.6 1.9zm.1-7.4c-1.8.3-2.9.8-2.9 2.5 0 1.9 1.5 2.9 3.3 2.9 2 0 3.9-1.2 3.9-3.1v-2.9l-4.3.6zm13.3-15.3c1.1 0 1.9.9 1.9 2s-.9 2-1.9 2c-1.1 0-2-.9-2-2 .1-1.1.9-2 2-2zm1.3 22.4h-2.6v-16h2.6v16zm5-22.4h2.6V491c0 1.1.3 1.6 1.5 1.6.7 0 1.2-.1 1.6-.1l.3 2.2s-1.5.2-2.7.2c-1.9 0-3.4-.8-3.4-3.1v-19.6zm10.7 15.2c.2 3 2.1 5.2 5 5.2 1.8 0 3.1-.7 4.2-1.6l1.3 1.9c-1.4 1.2-3.3 2-5.7 2-4.6 0-7.6-3.5-7.6-8.3 0-4.9 2.8-8.3 7.3-8.3 4.2 0 6.8 3.5 6.8 8.3v.8h-11.3zm0-2.1h8.4c-.1-2.5-1.5-4.7-4-4.7-2.6 0-4.3 2.3-4.4 4.7zm25.8 7.5c-.9 1.3-2.6 2.1-4.7 2.1-4.1 0-6.8-3.5-6.8-8.3 0-4.8 2.7-8.3 6.8-8.3 2 0 3.7.8 4.7 2.1v-8.3h2.6v22.4h-2.6v-1.7zm-8.7-6.1c0 3.3 1.6 5.9 4.5 5.9 2.8 0 4.2-2 4.2-4.7v-2.6c0-2.7-1.4-4.7-4.2-4.7-2.9 0-4.5 2.6-4.5 5.9v.2z"/><path class="st5" d="M251 576.6H53.1m853.8 0H709"/><path class="st0" d="M0 636h960v4H0z"/><path class="st0" d="M4 640V40h952v600h4V36H0v604z"/></svg>