<?xml version="1.0" encoding="utf-8"?>
<!-- Generator: Adobe Illustrator 26.1.0, SVG Export Plug-In . SVG Version: 6.00 Build 0)  -->
<svg version="1.1" xmlns="http://www.w3.org/2000/svg" xmlns:xlink="http://www.w3.org/1999/xlink" x="0px" y="0px"
	 viewBox="0 0 960 640" style="enable-background:new 0 0 960 640;" xml:space="preserve">
<style type="text/css">
	.st0{fill:#DADADA;}
	.st1{fill:#FFFFFF;}
	.st2{fill:#1D70B8;}
	.st3{fill:#00703C;}
	.st4{fill:#0B0B0B;}
	.st5{fill:none;stroke:#8C8C8C;stroke-miterlimit:10;}
	.st6{fill:#03FFE0;}
</style>
<g id="Layer_1">
	<path class="st0" d="M0,40V10C0,4.5,4.5,0,10,0h940c5.5,0,10,4.5,10,10v30"/>
	<circle class="st1" cx="25.4" cy="20" r="8.5"/>
	<circle class="st1" cx="49.1" cy="20" r="8.5"/>
	<circle class="st1" cx="72.9" cy="20" r="8.5"/>
	<path class="st2" d="M1,40h958v65H1V40z"/>
	<path class="st2" d="M53.1,224h410v210.7h-410L53.1,224z M496.9,224h410v210.7h-410L496.9,224z"/>
	<path class="st3" d="M53.1,448.6h410v68.7h-410L53.1,448.6z M496.9,448.6h410v68.7h-410L496.9,448.6z"/>
	<path class="st1" d="M129,286.6c0,15.1-6.9,29.5-24,29.5c-9.3,0-16.1-4.7-18.8-11.4l10.9-4.1c1.8,3.7,4.5,5.3,8.5,5.3
		c7.4,0,10.7-6.9,11.2-14.8c-2.7,3.4-7.5,5.2-12.3,5.2c-10.8,0-18.7-7.5-18.7-18c0-11.2,8.3-19.7,20.7-19.7
		c13.6,0,22.5,9.9,22.5,26.6L129,286.6L129,286.6z M106.9,268.5c-5.8,0-9.5,4.1-9.5,9.3c0,5.1,3.7,9.2,9.5,9.2s9.6-4.1,9.6-9.2
		C116.5,272.5,112.7,268.5,106.9,268.5z M178.9,274.6c0,3.9-2,9-7.7,11.6c6.5,2.6,9.3,7.9,9.3,13c0,11.7-10.8,16.9-22,16.9
		s-22-5.2-22-16.9c0-5.1,2.9-10.5,9.3-13c-5.6-2.6-7.7-7.7-7.7-11.6c0-10.7,10-16,20.4-16C168.9,258.7,178.9,263.6,178.9,274.6z
		 M168.5,298.9c0-4.5-4.1-7.7-10.1-7.7c-5.9,0-10.1,3.2-10.1,7.7c0,4.6,4.1,7.7,10.1,7.7C164.3,306.5,168.5,303.5,168.5,298.9z
		 M167.2,275c0-4.2-3.7-6.8-8.8-6.8s-8.8,2.6-8.8,6.8c0,4.5,3.5,6.9,8.8,6.9S167.2,279.5,167.2,275z M232.5,287.4
		c0,14.4-6.6,28.7-22.3,28.7s-22.3-14.3-22.3-28.7s6.6-28.7,22.3-28.7S232.5,272.9,232.5,287.4z M220.7,288.5v-2.2
		c0-10.5-3.5-17.5-10.5-17.5s-10.6,7-10.6,17.5v2.2c0,10.4,3.6,17.4,10.6,17.4S220.7,298.9,220.7,288.5z M530.5,315.3v-10
		c0,0.1,8.8-6.3,19.4-14.7c5.6-4.4,8.6-8.5,8.6-13.7c0-4.4-2.8-7.9-8.1-7.9c-6.6,0-9,4.7-9,10.3l-11.6-0.7
		c0-12.6,8.5-19.9,20.9-19.9c11.1,0,19.9,6.9,19.9,18c0,5.8-2.3,11.2-8.5,17.2c-3.5,3.4-8.3,6.9-14.3,10.9h23.5v10.5L530.5,315.3
		L530.5,315.3z M594.9,310.6c0,6.1-3.3,12.8-14.1,12.8l-0.4-3.7c1.4-0.2,2.5-0.5,3.4-0.7c2.6-0.7,3-2,3-3v-0.2
		c-4.6,0-7.7-2.6-7.7-7.1c0-4,3.4-7.4,7.5-7.4C591.6,301.2,594.9,305.4,594.9,310.6L594.9,310.6z M629.1,315.3v-12.6h-27.8v-12
		l25.7-31.2h13.5v33h8.1v10.2h-8.1v12.6H629.1z M629.1,292.5v-20.9l-17.3,20.9H629.1z M656,290l3.1-30.6h35.5v10.2h-25.8l-1.3,11.1
		c2.6-2.8,7.3-4.1,11.2-4.1c11.2,0,18.7,7.9,18.7,19.2c0,12.3-9.7,20.2-22,20.2c-10.1,0-18.9-4.8-21.4-14.4l10.8-3.4
		c1.2,4.1,4.2,7.7,10.5,7.7c6.7,0,10.3-4.5,10.3-9.9c0-5.3-3.5-9.7-9.9-9.7c-3.7,0-6.9,1.8-8.9,4.8L656,290z M749,287.4
		c0,14.4-6.6,28.7-22.3,28.7s-22.3-14.3-22.3-28.7s6.6-28.7,22.3-28.7S749,272.9,749,287.4z M737.2,288.5v-2.2
		c0-10.5-3.5-17.5-10.5-17.5s-10.6,7-10.6,17.5v2.2c0,10.4,3.6,17.4,10.6,17.4S737.2,298.9,737.2,288.5z M86.5,397.3
		c0.2,3,2.1,5.2,5,5.2c1.8,0,3.1-0.7,4.2-1.6l1.3,1.9c-1.4,1.2-3.3,2-5.7,2c-4.6,0-7.6-3.5-7.6-8.3c0-4.9,2.8-8.3,7.3-8.3
		c4.2,0,6.8,3.5,6.8,8.3v0.8H86.5z M86.6,395.2H95c-0.1-2.5-1.5-4.7-4-4.7C88.4,390.5,86.7,392.8,86.6,395.2z M113.8,404.5h-2.6v-10
		c0-2.8-1.4-3.8-3.2-3.8c-1.8,0-3.5,1.3-3.5,4.4v9.4h-2.6v-16h2.6v1.8c1.1-1.5,2.5-2.1,4.2-2.1c1.4,0,3.5,0.7,4.3,2.7
		c1.2-2,3.1-2.7,4.9-2.7c3.5,0,5.4,2.5,5.4,5.3v10.9h-2.6v-10c0-2.8-1.5-3.8-3.3-3.8s-3.5,1.3-3.5,4.4v9.5L113.8,404.5z
		 M132.6,404.8c-3.2,0-5.6-1.9-5.6-4.8c0-2.5,1.7-4.2,4.3-4.5l5.6-0.8v-1c0-2.4-1.6-3.2-3.6-3.2c-1.8,0-3.4,0.6-4.6,1.2l-1-2.1
		c1.8-1,3.9-1.5,5.9-1.5c3.9,0,5.9,1.7,5.9,5.1v7.5c0,1.1,0.4,1.8,1.3,2.2l-1.5,1.9c-1-0.3-1.8-1-2.1-1.9
		C136.3,404,134.7,404.8,132.6,404.8L132.6,404.8z M132.6,397.4c-1.8,0.3-2.9,0.8-2.9,2.5c0,1.9,1.5,2.9,3.3,2.9
		c2,0,3.9-1.2,3.9-3.1v-2.9L132.6,397.4z M146,382.1c1.1,0,1.9,0.9,1.9,2s-0.9,2-1.9,2c-1.1,0-2-0.9-2-2S144.9,382.1,146,382.1z
		 M147.2,404.5h-2.6v-16h2.6V404.5z M152.3,382.1h2.6v18.8c0,1.1,0.3,1.6,1.5,1.6c0.7,0,1.2-0.1,1.6-0.1l0.3,2.2
		c0,0-1.5,0.2-2.7,0.2c-1.9,0-3.4-0.8-3.4-3.1L152.3,382.1L152.3,382.1z M159.7,402.5l1.6-1.9c1,0.9,2.7,2,4.8,2
		c1.8,0,3.2-0.8,3.2-2.4c0-1.7-1.7-2.1-3.9-2.7c-2.3-0.6-5-1.4-5-4.7c0-2.7,2.5-4.6,5.8-4.6c2.1,0,4.4,0.9,5.5,2l-1.5,1.8
		c-0.9-0.9-2.3-1.5-3.9-1.5c-2.1,0-3.2,0.9-3.2,2.4c0,1.2,0.9,1.7,2.3,2.1c0.8,0.2,1.8,0.5,2.6,0.8c2.1,0.7,3.9,1.8,3.9,4.4
		c0,3.3-2.9,4.8-6,4.8C163.9,404.8,161.5,404.1,159.7,402.5L159.7,402.5z"/>
	<path class="st4" d="M55.9,153.1H61v25.2h-5.1V153.1z M65.9,159.5h4.9v1.6c1-1,2.5-2,4.8-2c4.1,0,6.5,2.8,6.5,6.5v12.7h-4.9v-10.9
		c0-2.7-1.3-3.7-3-3.7c-2,0-3.5,1.4-3.5,4.3v10.3h-4.9L65.9,159.5L65.9,159.5z M101.4,172.7c0,0.9,0.4,1.6,2.1,1.6
		c0.7,0,1.9-0.1,2.4-0.2l0.4,4.3c0,0-2.4,0.3-4.5,0.3c-3.3,0-5.3-1.5-5.3-4.8v-10h-3.4v-4.4h3.4v-5.3l4.9-1.3v6.6h4.9v4.4h-4.9
		V172.7L101.4,172.7z M109.7,153.1h4.9v8c1-1,2.5-2,4.8-2c4.1,0,6.5,2.8,6.5,6.5v12.7H121v-10.9c0-2.7-1.3-3.7-3-3.7
		c-2,0-3.5,1.4-3.5,4.3v10.3h-4.9v-25.2L109.7,153.1z M134.3,170.5c0.5,2.4,2.3,3.7,4.6,3.7c1.8,0,3.5-0.6,4.8-1.8l2.4,3.7
		c-1.7,1.4-4.2,2.5-7.3,2.5c-5.2,0-9.5-3.6-9.5-9.6v-0.2c0-5.5,3.8-9.7,9.1-9.7c5,0,8.6,3.8,8.6,9.3v2.2L134.3,170.5L134.3,170.5z
		 M134.4,166.9h7.6c-0.1-1.7-1.2-3.6-3.7-3.6C135.7,163.3,134.5,165.2,134.4,166.9L134.4,166.9z M158.7,153.1h4.9v20.1
		c0,0.8,0.4,1.2,1.4,1.2c0.6,0,1.3-0.1,1.8-0.2l0.4,4.1c0,0-2.3,0.3-4.1,0.3c-2.7,0-4.4-1.4-4.4-4.1L158.7,153.1L158.7,153.1z
		 M174.9,178.6c-3.4,0-6.5-2.2-6.5-5.9c0-3,2-5,5.3-5.5l5.7-0.8v-0.6c0-1.7-1.1-2.4-3-2.4c-2.3,0-4.1,0.9-5.5,1.5l-1.9-3.7
		c2.2-1.2,4.9-2.1,7.6-2.1c3.5,0,7.6,0.9,7.6,6v8.1c0,1.1,0.6,1.5,1.6,1.9l-2.2,3.5c-1.8-0.1-3-1.1-3.5-2.1
		C178.9,178,177.1,178.6,174.9,178.6L174.9,178.6z M175.5,170.7c-1.2,0.2-2,0.9-2,1.9c0,1.2,0.9,2.2,2.6,2.2c2.3,0,3.3-1.5,3.3-3.5
		V170L175.5,170.7L175.5,170.7z M190.3,172.2c1.3,1.3,3.6,2.3,5.5,2.3c1.5,0,2.7-0.4,2.7-1.5c0-0.9-0.7-1.3-2.3-1.7
		c-1.1-0.3-3.1-0.6-4.7-1.3c-1.8-0.8-3.3-2.3-3.3-4.9c0-4,3.6-6,7.7-6c3.2,0,5.9,1.2,7.5,2.7l-3.1,3.2c-1-0.9-2.6-1.7-4.3-1.7
		c-1.3,0-2.7,0.5-2.7,1.6c0,0.9,0.8,1.2,2.2,1.5c2.3,0.6,4,1,5.4,1.7c1.5,0.8,2.6,2.4,2.6,4.5c0,4-3.4,6-7.6,6
		c-3.1,0-6.6-1.2-8.5-2.8L190.3,172.2L190.3,172.2z M214,172.7c0,0.9,0.4,1.6,2.1,1.6c0.7,0,1.9-0.1,2.4-0.2l0.4,4.3
		c0,0-2.4,0.3-4.5,0.3c-3.3,0-5.3-1.5-5.3-4.8v-10h-3.4v-4.4h3.4v-5.3l4.9-1.3v6.6h4.9v4.4H214L214,172.7L214,172.7z M242.6,157.9
		h-12.8v-4.8h18v4.9l-9.8,20.3h-6L242.6,157.9z M258.8,168.8c0-5.6,3.3-9.7,8.3-9.7c2.2,0,3.7,0.9,4.8,2v-8h4.9v25.2h-4.9v-1.6
		c-1,1.1-2.4,2-4.6,2c-5,0-8.4-4.1-8.4-9.7L258.8,168.8L258.8,168.8z M271.9,167.1c0-2-1.5-3.5-3.9-3.5c-2.8,0-4.3,2.2-4.3,5.2v0.2
		c0,3,1.5,5.2,4.3,5.2c2.4,0,3.9-1.5,3.9-3.5V167.1L271.9,167.1z M286.6,178.6c-3.4,0-6.5-2.2-6.5-5.9c0-3,2-5,5.3-5.5l5.7-0.8v-0.6
		c0-1.7-1.1-2.4-3-2.4c-2.3,0-4.1,0.9-5.5,1.5l-1.9-3.7c2.2-1.2,4.9-2.1,7.6-2.1c3.5,0,7.6,0.9,7.6,6v8.1c0,1.1,0.6,1.5,1.6,1.9
		l-2.2,3.5c-1.8-0.1-3-1.1-3.5-2.1C290.7,178,288.8,178.6,286.6,178.6z M287.2,170.7c-1.2,0.2-2,0.9-2,1.9c0,1.2,0.9,2.2,2.6,2.2
		c2.3,0,3.3-1.5,3.3-3.5V170L287.2,170.7L287.2,170.7z M304.3,179l0.1-0.6H304l-5.8-19h5.4l3.5,13l3.4-13h5.3l-6.5,21.6
		c-0.8,2.8-3,3.6-5.9,3.6c-1.2,0-3.1-0.1-4.4-0.4l1-4.3c0,0,1.3,0.2,2.6,0.2C303.7,180.2,304.1,179.8,304.3,179L304.3,179z
		 M319.8,172.2c1.3,1.3,3.6,2.3,5.5,2.3c1.5,0,2.7-0.4,2.7-1.5c0-0.9-0.7-1.3-2.3-1.7c-1.1-0.3-3.1-0.6-4.7-1.3
		c-1.8-0.8-3.3-2.3-3.3-4.9c0-4,3.6-6,7.7-6c3.2,0,5.9,1.2,7.5,2.7l-3.1,3.2c-1-0.9-2.6-1.7-4.3-1.7c-1.3,0-2.7,0.5-2.7,1.6
		c0,0.9,0.8,1.2,2.2,1.5c2.3,0.6,4,1,5.4,1.7c1.5,0.8,2.6,2.4,2.6,4.5c0,4-3.4,6-7.6,6c-3.1,0-6.6-1.2-8.5-2.8L319.8,172.2
		L319.8,172.2z"/>
	<path class="st1" d="M532.7,400.5c0,1.1,0.2,2,2,2c0.5,0,1.5-0.1,2-0.2l0.3,2.3c0,0-1.5,0.2-2.8,0.2c-2.5,0-4.1-1-4.1-3.7v-10.3h-3
		v-2.3h3v-5.2l2.6-0.9v6.1h4.4v2.3h-4.4V400.5z M542.5,397.3c0.2,3,2.1,5.2,5,5.2c1.8,0,3.1-0.7,4.2-1.6l1.3,1.9
		c-1.4,1.2-3.3,2-5.7,2c-4.6,0-7.6-3.5-7.6-8.3c0-4.9,2.8-8.3,7.3-8.3c4.2,0,6.8,3.5,6.8,8.3v0.8H542.5z M542.5,395.2h8.4
		c-0.1-2.5-1.5-4.7-4-4.7C544.3,390.5,542.6,392.8,542.5,395.2z M561.2,396.1l-4.9-7.6h3l3.4,5.5l3.3-5.5h3l-4.9,7.6l5.5,8.4h-3.1
		l-4-6.2l-3.6,6.2h-3.1L561.2,396.1L561.2,396.1z M577,400.5c0,1.1,0.2,2,2,2c0.5,0,1.5-0.1,2-0.2l0.3,2.3c0,0-1.5,0.2-2.8,0.2
		c-2.5,0-4.1-1-4.1-3.7v-10.3h-3v-2.3h3v-5.2l2.6-0.9v6.1h4.4v2.3H577V400.5z M605.4,404.5h-2.6v-10c0-2.8-1.4-3.8-3.2-3.8
		s-3.5,1.3-3.5,4.4v9.4h-2.6v-16h2.6v1.8c1.1-1.5,2.5-2.1,4.2-2.1c1.4,0,3.5,0.7,4.3,2.7c1.2-2,3.1-2.7,4.9-2.7
		c3.5,0,5.4,2.5,5.4,5.3v10.9h-2.6v-10c0-2.8-1.5-3.8-3.3-3.8s-3.5,1.3-3.5,4.4v9.5L605.4,404.5z M621.6,397.3c0.2,3,2.1,5.2,5,5.2
		c1.8,0,3.1-0.7,4.2-1.6l1.3,1.9c-1.4,1.2-3.3,2-5.7,2c-4.6,0-7.6-3.5-7.6-8.3c0-4.9,2.8-8.3,7.3-8.3c4.2,0,6.8,3.5,6.8,8.3v0.8
		H621.6z M621.6,395.2h8.4c-0.1-2.5-1.5-4.7-4-4.7C623.4,390.5,621.7,392.8,621.6,395.2z M635.5,402.5l1.6-1.9c1,0.9,2.7,2,4.8,2
		c1.8,0,3.2-0.8,3.2-2.4c0-1.7-1.7-2.1-3.9-2.7c-2.3-0.6-5-1.4-5-4.7c0-2.7,2.5-4.6,5.8-4.6c2.1,0,4.4,0.9,5.5,2L646,392
		c-0.9-0.9-2.3-1.5-3.9-1.5c-2.1,0-3.2,0.9-3.2,2.4c0,1.2,0.9,1.7,2.3,2.1c0.8,0.2,1.8,0.5,2.6,0.8c2.1,0.7,3.9,1.8,3.9,4.4
		c0,3.3-2.9,4.8-6,4.8C639.6,404.8,637.3,404.1,635.5,402.5L635.5,402.5z M650.5,402.5l1.6-1.9c1,0.9,2.7,2,4.8,2
		c1.8,0,3.2-0.8,3.2-2.4c0-1.7-1.7-2.1-3.9-2.7c-2.3-0.6-5-1.4-5-4.7c0-2.7,2.5-4.6,5.8-4.6c2.1,0,4.4,0.9,5.5,2L661,392
		c-0.9-0.9-2.3-1.5-3.9-1.5c-2.1,0-3.2,0.9-3.2,2.4c0,1.2,0.9,1.7,2.3,2.1c0.8,0.2,1.8,0.5,2.6,0.8c2.1,0.7,3.9,1.8,3.9,4.4
		c0,3.3-2.9,4.8-6,4.8C654.7,404.8,652.3,404.1,650.5,402.5L650.5,402.5z M671.3,404.8c-3.2,0-5.6-1.9-5.6-4.8
		c0-2.5,1.7-4.2,4.3-4.5l5.6-0.8v-1c0-2.4-1.6-3.2-3.6-3.2c-1.8,0-3.4,0.6-4.6,1.2l-1-2.1c1.8-1,3.9-1.5,5.9-1.5
		c3.9,0,5.9,1.7,5.9,5.1v7.5c0,1.1,0.4,1.8,1.3,2.2l-1.5,1.9c-1-0.3-1.8-1-2.1-1.9C675,404,673.5,404.8,671.3,404.8L671.3,404.8z
		 M671.4,397.4c-1.8,0.3-2.9,0.8-2.9,2.5c0,1.9,1.5,2.9,3.3,2.9c2,0,3.9-1.2,3.9-3.1v-2.9L671.4,397.4z M688.9,388.2
		c1.7,0,3.4,0.6,4.5,2.1v-1.8h2.6v16.1c0,4-3.5,5.1-6.8,5.1c-1.9,0-4.1-0.4-5.9-1.3l0.9-2.2c1.2,0.6,3.2,1.1,5.1,1.1
		c2.7,0,4.2-1,4.2-3.5v-3c-1.1,1.5-2.8,2.1-4.5,2.1c-4,0-6.5-3.2-6.5-7.4C682.5,391.4,685,388.2,688.9,388.2L688.9,388.2z
		 M693.5,395.6c0-2.8-1.2-5-4.1-5c-2.9,0-4.2,2.2-4.2,5v0.1c0,2.8,1.3,5,4.2,5s4.1-2.2,4.1-5V395.6z M703,397.3c0.2,3,2.1,5.2,5,5.2
		c1.8,0,3.1-0.7,4.2-1.6l1.3,1.9c-1.4,1.2-3.3,2-5.7,2c-4.6,0-7.6-3.5-7.6-8.3c0-4.9,2.8-8.3,7.3-8.3c4.2,0,6.8,3.5,6.8,8.3v0.8H703
		z M703,395.2h8.4c-0.1-2.5-1.5-4.7-4-4.7C704.8,390.5,703.1,392.8,703,395.2z M716.9,402.5l1.6-1.9c1,0.9,2.7,2,4.8,2
		c1.8,0,3.2-0.8,3.2-2.4c0-1.7-1.7-2.1-3.9-2.7c-2.3-0.6-5-1.4-5-4.7c0-2.7,2.5-4.6,5.8-4.6c2.1,0,4.4,0.9,5.5,2l-1.5,1.8
		c-0.9-0.9-2.3-1.5-3.9-1.5c-2.1,0-3.2,0.9-3.2,2.4c0,1.2,0.9,1.7,2.3,2.1c0.8,0.2,1.8,0.5,2.6,0.8c2.1,0.7,3.9,1.8,3.9,4.4
		c0,3.3-2.9,4.8-6,4.8C721,404.8,718.7,404.1,716.9,402.5L716.9,402.5z M84.4,494.6v-2.7c1.7-1.5,6.4-5.4,8.1-6.9
		c1.8-1.6,3.4-3.6,3.4-6.2c0-2.8-1.8-4.4-4.4-4.4c-2.8,0-4.2,1.9-4.4,4.7l-2.9-0.2c0.1-4.4,3-6.9,7.3-6.9c4.4,0,7.3,2.6,7.3,7
		c0,3.3-1.7,5.4-6.7,9.7l-4.1,3.5h11v2.5H84.4V494.6z M113.8,494.6v-5.8h-11.2V486l10.1-13.9h3.9v14.3h3.7v2.3h-3.7v5.8h-2.8V494.6z
		 M113.8,486.5v-12l-8.6,12H113.8z M136,478.6h3.2v2.3H136v13.7h-2.6v-13.7h-2.7v-2.3h2.7v-3c0-2.8,1.9-3.7,4.4-3.7
		c1.3,0,2.1,0.2,2.6,0.2l-0.2,2.2c-0.6-0.1-1.8-0.1-2.3-0.1c-1.5,0-1.9,0.9-1.9,1.9V478.6z M147.2,494.9c-3.2,0-5.6-1.9-5.6-4.8
		c0-2.5,1.7-4.2,4.3-4.5l5.6-0.8v-1c0-2.4-1.6-3.2-3.6-3.2c-1.8,0-3.4,0.6-4.6,1.2l-1-2.1c1.8-1,3.9-1.5,5.9-1.5
		c3.9,0,5.9,1.7,5.9,5.1v7.5c0,1.1,0.4,1.8,1.3,2.2l-1.5,1.9c-1-0.3-1.8-1-2.1-1.9C150.9,494.1,149.3,494.9,147.2,494.9L147.2,494.9
		z M147.2,487.5c-1.8,0.3-2.9,0.8-2.9,2.5c0,1.9,1.5,2.9,3.3,2.9c2,0,3.9-1.2,3.9-3.1v-2.9L147.2,487.5z M160.5,472.2
		c1.1,0,1.9,0.9,1.9,2s-0.9,2-1.9,2c-1.1,0-2-0.9-2-2C158.6,473.1,159.5,472.2,160.5,472.2z M161.8,494.6h-2.6v-16h2.6V494.6z
		 M166.8,472.2h2.6V491c0,1.1,0.3,1.6,1.5,1.6c0.7,0,1.2-0.1,1.6-0.1l0.3,2.2c0,0-1.5,0.2-2.7,0.2c-1.9,0-3.4-0.8-3.4-3.1
		L166.8,472.2L166.8,472.2z M177.5,487.4c0.2,3,2.1,5.2,5,5.2c1.8,0,3.1-0.7,4.2-1.6l1.3,1.9c-1.4,1.2-3.3,2-5.7,2
		c-4.6,0-7.6-3.5-7.6-8.3c0-4.9,2.8-8.3,7.3-8.3c4.2,0,6.8,3.5,6.8,8.3v0.8H177.5z M177.5,485.3h8.4c-0.1-2.5-1.5-4.7-4-4.7
		C179.3,480.6,177.7,482.9,177.5,485.3z M203.3,492.8c-0.9,1.3-2.6,2.1-4.7,2.1c-4.1,0-6.8-3.5-6.8-8.3s2.7-8.3,6.8-8.3
		c2,0,3.7,0.8,4.7,2.1v-8.3h2.6v22.4h-2.6V492.8L203.3,492.8z M194.6,486.7c0,3.3,1.6,5.9,4.5,5.9c2.8,0,4.2-2,4.2-4.7v-2.6
		c0-2.7-1.4-4.7-4.2-4.7c-2.9,0-4.5,2.6-4.5,5.9V486.7L194.6,486.7z"/>
	<path class="st2" d="M275.4,561.4c4.6,0,7.8,2.6,9.3,6.4l-2.9,1c-0.7-2.3-2.9-4.8-6.3-4.8c-5.2,0-7.6,4.7-7.6,9.9v0.5
		c0,5.1,2.4,9.9,7.6,9.9c3.5,0,5.6-2.5,6.3-4.8l2.9,1c-1.5,3.9-4.6,6.4-9.3,6.4c-6.7,0-10.8-5.6-10.8-12.7
		C264.6,567,268.7,561.4,275.4,561.4L275.4,561.4z M304.5,577.7c0,5.3-3.3,9.2-8.2,9.2c-4.9,0-8.2-3.9-8.2-9.2
		c0-5.4,3.3-9.2,8.2-9.2C301.2,568.5,304.5,572.3,304.5,577.7z M301.5,577.8v-0.2c0-3.5-1.8-6.6-5.1-6.6c-3.4,0-5.1,3-5.1,6.6v0.2
		c0,3.5,1.8,6.5,5.1,6.5S301.5,581.3,301.5,577.8z M322.4,586.5h-2.9v-11.1c0-3.2-1.6-4.3-3.5-4.3s-3.9,1.5-3.9,4.9v10.5h-2.9v-17.7
		h2.9v2c1.2-1.6,2.8-2.4,4.6-2.4c1.6,0,3.9,0.8,4.8,2.9c1.3-2.2,3.4-2.9,5.4-2.9c3.8,0,6,2.8,6,5.9v12.1H330v-11.1
		c0-3.2-1.7-4.3-3.6-4.3c-2,0-3.9,1.5-3.9,4.9v10.6L322.4,586.5z M341.2,568.8v2c1-1.5,2.9-2.4,5.2-2.4c4.6,0,7.5,3.9,7.5,9.2
		c0,5.4-2.9,9.2-7.5,9.2c-2.3,0-4.1-0.9-5.2-2.4v7.4h-2.9v-23.1L341.2,568.8L341.2,568.8z M350.9,577.6c0-3.7-1.8-6.5-5-6.5
		c-3.1,0-4.7,2.2-4.7,5.2v2.9c0,2.9,1.6,5.2,4.7,5.2c3.3,0,5-2.8,5-6.5V577.6L350.9,577.6z M363.4,586.9c-3.5,0-6.2-2.1-6.2-5.4
		c0-2.8,1.9-4.6,4.7-5l6.2-0.9v-1.1c0-2.7-1.7-3.5-3.9-3.5c-2,0-3.7,0.6-5.1,1.4l-1.1-2.3c2-1.1,4.3-1.6,6.5-1.6
		c4.3,0,6.6,1.9,6.6,5.6v8.3c0,1.2,0.5,2,1.5,2.4l-1.6,2.1c-1.1-0.3-2-1.1-2.4-2.1C367.6,585.9,365.8,586.9,363.4,586.9z
		 M363.5,578.6c-2,0.3-3.2,0.9-3.2,2.7c0,2.1,1.7,3.2,3.6,3.2c2.2,0,4.4-1.4,4.4-3.4v-3.2L363.5,578.6z M385.8,571.4h-0.5
		c-3,0-5.7,1.2-5.7,6v9.1h-2.9v-17.7h2.9v2.8c0.9-2.1,3-3.1,5.3-3.1h0.9L385.8,571.4L385.8,571.4z M391.1,578.6
		c0.2,3.3,2.3,5.7,5.5,5.7c2,0,3.4-0.7,4.6-1.7l1.5,2.1c-1.6,1.3-3.7,2.2-6.3,2.2c-5.1,0-8.4-3.9-8.4-9.2c0-5.4,3.2-9.2,8-9.2
		c4.6,0,7.6,3.9,7.6,9.2v0.9H391.1L391.1,578.6z M391.2,576.2h9.4c-0.1-2.7-1.6-5.2-4.4-5.2C393.2,571,391.3,573.5,391.2,576.2z
		 M421.2,582.1c0,1.2,0.2,2.2,2.3,2.2c0.5,0,1.7-0.1,2.2-0.2l0.3,2.6c0,0-1.7,0.2-3.2,0.2c-2.8,0-4.5-1.1-4.5-4.1v-11.4H415v-2.6
		h3.3V563l2.9-1v6.8h4.9v2.6h-4.9V582.1z M445.3,577.7c0,5.3-3.3,9.2-8.2,9.2c-4.9,0-8.2-3.9-8.2-9.2c0-5.4,3.3-9.2,8.2-9.2
		C442.1,568.5,445.3,572.3,445.3,577.7z M442.3,577.8v-0.2c0-3.5-1.8-6.6-5.1-6.6c-3.4,0-5.1,3-5.1,6.6v0.2c0,3.5,1.8,6.5,5.1,6.5
		C440.6,584.3,442.3,581.3,442.3,577.8z M462.1,568.8v2c1-1.5,2.9-2.4,5.2-2.4c4.6,0,7.5,3.9,7.5,9.2c0,5.4-2.9,9.2-7.5,9.2
		c-2.3,0-4.1-0.9-5.2-2.4v7.4h-2.9v-23.1L462.1,568.8L462.1,568.8z M471.8,577.6c0-3.7-1.8-6.5-5-6.5c-3.1,0-4.7,2.2-4.7,5.2v2.9
		c0,2.9,1.6,5.2,4.7,5.2c3.3,0,5-2.8,5-6.5V577.6L471.8,577.6z M488.5,571.4H488c-3,0-5.7,1.2-5.7,6v9.1h-2.9v-17.7h2.9v2.8
		c0.9-2.1,3-3.1,5.3-3.1h0.9L488.5,571.4L488.5,571.4z M493.8,578.6c0.2,3.3,2.3,5.7,5.5,5.7c2,0,3.4-0.7,4.6-1.7l1.5,2.1
		c-1.6,1.3-3.7,2.2-6.3,2.2c-5.1,0-8.4-3.9-8.4-9.2c0-5.4,3.2-9.2,8-9.2c4.6,0,7.6,3.9,7.6,9.2v0.9H493.8L493.8,578.6z M493.9,576.2
		h9.4c-0.1-2.7-1.6-5.2-4.4-5.2C495.9,571,494,573.5,493.9,576.2z M514.3,586.5l-5.6-17.7h3.3l4.3,15l4.2-15h3.3l-5.6,17.7H514.3z
		 M529.2,561.7c1.2,0,2.1,1,2.1,2.2s-1,2.2-2.1,2.2c-1.2,0-2.2-1-2.2-2.2S528,561.7,529.2,561.7z M530.6,586.5h-2.9v-17.7h2.9V586.5
		z M551.5,577.7c0,5.3-3.3,9.2-8.2,9.2s-8.2-3.9-8.2-9.2c0-5.4,3.3-9.2,8.2-9.2S551.5,572.3,551.5,577.7z M548.5,577.8v-0.2
		c0-3.5-1.8-6.6-5.1-6.6c-3.4,0-5.1,3-5.1,6.6v0.2c0,3.5,1.8,6.5,5.1,6.5S548.5,581.3,548.5,577.8z M570,586.5h-2.9v-2
		c-1.2,1.6-3,2.4-5.2,2.4c-3.9,0-5.9-2.8-5.9-6v-12h2.9V580c0,3.1,1.6,4.3,3.7,4.3c2.4,0,4.5-1.6,4.5-4.9v-10.5h2.9V586.5L570,586.5
		z M574.1,584.3l1.8-2.1c1.1,1,3,2.2,5.4,2.2c2,0,3.5-0.9,3.5-2.7c0-1.9-1.9-2.3-4.3-3c-2.5-0.7-5.5-1.5-5.5-5.2
		c0-3,2.7-5.1,6.5-5.1c2.3,0,4.9,1,6.1,2.2l-1.7,2c-1-1-2.6-1.7-4.4-1.7c-2.3,0-3.5,1-3.5,2.6c0,1.3,1,1.9,2.6,2.3
		c0.9,0.2,2,0.6,2.9,0.9c2.4,0.7,4.3,2,4.3,4.8c0,3.7-3.2,5.3-6.7,5.3C578.7,586.9,576.1,586,574.1,584.3L574.1,584.3z M616.9,583.1
		l3.2-14.3h3.1l-4.3,17.7h-3.7l-3.6-14.2l-3.7,14.2h-3.6l-4.3-17.7h3.1l3.1,14.3l3.7-14.3h3.3L616.9,583.1z M629.1,578.6
		c0.2,3.3,2.3,5.7,5.5,5.7c2,0,3.4-0.7,4.6-1.7l1.5,2.1c-1.6,1.3-3.7,2.2-6.3,2.2c-5.1,0-8.4-3.9-8.4-9.2c0-5.4,3.2-9.2,8-9.2
		c4.6,0,7.6,3.9,7.6,9.2v0.9H629.1L629.1,578.6z M629.1,576.2h9.4c-0.1-2.7-1.6-5.2-4.4-5.2C631.1,571,629.3,573.5,629.1,576.2z
		 M648,578.6c0.2,3.3,2.3,5.7,5.5,5.7c2,0,3.4-0.7,4.6-1.7l1.5,2.1c-1.6,1.3-3.7,2.2-6.3,2.2c-5.1,0-8.4-3.9-8.4-9.2
		c0-5.4,3.2-9.2,8-9.2c4.6,0,7.6,3.9,7.6,9.2v0.9H648L648,578.6z M648.1,576.2h9.4c-0.1-2.7-1.6-5.2-4.4-5.2
		C650.1,571,648.2,573.5,648.1,576.2z M667.9,577.5l8.3-8.7h3.7l-6.7,7l7.1,10.7h-3.5l-5.6-8.7l-3.2,3.3v5.5h-3v-24.8h2.9V577.5z
		 M682.2,584.3l1.8-2.1c1.1,1,3,2.2,5.4,2.2c2,0,3.5-0.9,3.5-2.7c0-1.9-1.9-2.3-4.3-3c-2.5-0.7-5.5-1.5-5.5-5.2c0-3,2.7-5.1,6.5-5.1
		c2.3,0,4.9,1,6.1,2.2l-1.7,2c-1-1-2.6-1.7-4.4-1.7c-2.3,0-3.5,1-3.5,2.6c0,1.3,1,1.9,2.6,2.3c0.9,0.2,2,0.6,2.9,0.9
		c2.4,0.7,4.3,2,4.3,4.8c0,3.7-3.2,5.3-6.7,5.3C686.7,586.9,684.1,586,682.2,584.3L682.2,584.3z"/>
	<path class="st1" d="M543.9,482.8c0,6.1-2.4,12.2-8.9,12.2c-3.2,0-5.4-1.4-6.7-3.6l2.8-0.9c1,1.5,2.2,2.1,3.9,2.1
		c4.2,0,6-4.4,6.1-8.9H541c-1,1.6-2.9,3.2-5.9,3.2c-4.3,0-7.3-3.1-7.3-7.3c0-4.3,3.2-7.6,7.7-7.6c4.7,0,8.4,3.6,8.4,10.3V482.8
		L543.9,482.8z M535.7,474.2c-2.8,0-5,2-5,5.1s2.1,5.2,5,5.2s5-2,5-5.1C540.7,476.4,538.6,474.2,535.7,474.2z M548.2,494.6v-2.7
		c1.7-1.5,6.4-5.4,8.1-6.9c1.8-1.6,3.4-3.6,3.4-6.2c0-2.8-1.8-4.4-4.4-4.4c-2.8,0-4.2,1.9-4.4,4.7l-2.9-0.2c0.1-4.4,3-6.9,7.3-6.9
		c4.4,0,7.3,2.6,7.3,7c0,3.3-1.7,5.4-6.7,9.7l-4.1,3.5h11v2.5h-14.6L548.2,494.6z M579.3,478.6h3.2v2.3h-3.2v13.7h-2.6v-13.7H574
		v-2.3h2.7v-3c0-2.8,1.9-3.7,4.4-3.7c1.3,0,2.1,0.2,2.6,0.2l-0.2,2.2c-0.6-0.1-1.8-0.1-2.3-0.1c-1.5,0-1.9,0.9-1.9,1.9V478.6z
		 M590.4,494.9c-3.2,0-5.6-1.9-5.6-4.8c0-2.5,1.7-4.2,4.3-4.5l5.6-0.8v-1c0-2.4-1.6-3.2-3.6-3.2c-1.8,0-3.4,0.6-4.6,1.2l-1-2.1
		c1.8-1,3.9-1.5,5.9-1.5c3.9,0,5.9,1.7,5.9,5.1v7.5c0,1.1,0.4,1.8,1.3,2.2l-1.5,1.9c-1-0.3-1.8-1-2.1-1.9
		C594.1,494.1,592.6,494.9,590.4,494.9L590.4,494.9z M590.5,487.5c-1.8,0.3-2.9,0.8-2.9,2.5c0,1.9,1.5,2.9,3.3,2.9
		c2,0,3.9-1.2,3.9-3.1v-2.9L590.5,487.5z M603.8,472.2c1.1,0,1.9,0.9,1.9,2s-0.9,2-1.9,2c-1.1,0-2-0.9-2-2
		C601.9,473.1,602.7,472.2,603.8,472.2z M605.1,494.6h-2.6v-16h2.6V494.6z M610.1,472.2h2.6V491c0,1.1,0.3,1.6,1.5,1.6
		c0.7,0,1.2-0.1,1.6-0.1l0.3,2.2c0,0-1.5,0.2-2.7,0.2c-1.9,0-3.4-0.8-3.4-3.1v-19.6L610.1,472.2z M620.8,487.4c0.2,3,2.1,5.2,5,5.2
		c1.8,0,3.1-0.7,4.2-1.6l1.3,1.9c-1.4,1.2-3.3,2-5.7,2c-4.6,0-7.6-3.5-7.6-8.3c0-4.9,2.8-8.3,7.3-8.3c4.2,0,6.8,3.5,6.8,8.3v0.8
		H620.8z M620.8,485.3h8.4c-0.1-2.5-1.5-4.7-4-4.7C622.6,480.6,620.9,482.9,620.8,485.3z M646.6,492.8c-0.9,1.3-2.6,2.1-4.7,2.1
		c-4.1,0-6.8-3.5-6.8-8.3s2.7-8.3,6.8-8.3c2,0,3.7,0.8,4.7,2.1v-8.3h2.6v22.4h-2.6V492.8L646.6,492.8z M637.9,486.7
		c0,3.3,1.6,5.9,4.5,5.9c2.8,0,4.2-2,4.2-4.7v-2.6c0-2.7-1.4-4.7-4.2-4.7c-2.9,0-4.5,2.6-4.5,5.9V486.7L637.9,486.7z"/>
	<path class="st5" d="M251,576.6H53.1 M906.9,576.6H709"/>
	<path class="st0" d="M0,636h960v4H0V636z"/>
	<path class="st0" d="M4,640V40h952v600h4V36H0v604H4z"/>
</g>
<g id="Layer_2">
	<g>
		<circle class="st1" cx="66.7" cy="62.2" r="2.5"/>
		<circle class="st1" cx="60.1" cy="66.1" r="2.5"/>
		<circle class="st1" cx="55.7" cy="72.6" r="2.5"/>
		<circle class="st1" cx="74.5" cy="70.9" r="2.5"/>
		<circle class="st1" cx="82.3" cy="62.2" r="2.5"/>
		<circle class="st1" cx="88.9" cy="66.1" r="2.5"/>
		<circle class="st1" cx="93.3" cy="72.6" r="2.5"/>
		<circle class="st1" cx="74.5" cy="70.9" r="2.5"/>
		<path class="st1" d="M75.4,57c0.1-0.1,0.2-0.2,0.3-0.3l3.1,1.6v-4.6l-3.1,1c-0.1-0.1-0.2-0.2-0.3-0.3l1.3-4h-4.5l1.3,4
			c-0.1,0.1-0.2,0.2-0.3,0.3l-3.1-1v4.6l3.1-1.6c0.1,0.1,0.2,0.2,0.3,0.3l-1.7,5.4c-0.6,1.9,0.8,3.8,2.7,3.8l0,0
			c2,0,3.4-1.9,2.7-3.8L75.4,57L75.4,57z M78,75.8c0,0-2.3,2.5-2.7,4.1c1.5,0,2.8-0.3,4.3-1.9l-0.5,5.7c-1.3-1.9-2.9-2.7-3.8-2.5
			c0.1,2.1,0.3,4.5,3.9,4.8c2.5,0.2,4.5-1,4.7-2.5c0.3-1.7-1.3-2.9-2.5-1.1c-0.9-3,1.6-4.1,3.3-2.1c-1.3-3-1.2-5.2,1.6-7.3
			c2,2.7,1.7,4.9-0.8,7.4c1.6-0.9,4.2,0,2.7,3.1c-0.8-1.9-2.5-1.5-2.8,0.1c-0.2,1.1,0.5,2.5,2,2.8c1.3,0.2,3.1-0.6,4.7-4
			c-0.9,0-1.6,0.5-2.6,1.1l1.6-5.4c0.4,1.5,0.9,2.5,1.5,3c0.4-1.1,0.3-1.9,0-3.6l3.3,1.2c-1.7,2.4-3.5,5.8-4.9,11.7
			c-5-0.7-10.5-1.1-16.4-1.1l0,0c-5.9,0-11.5,0.4-16.4,1.1c-1.4-6-3.1-9.3-4.9-11.7l3.3-1.2c-0.3,1.7-0.4,2.5,0,3.6
			c0.5-0.5,1.1-1.5,1.5-3l1.6,5.4c-1-0.7-1.7-1.1-2.6-1.1c1.5,3.3,3.5,4.2,4.7,4c1.5-0.3,2.2-1.6,2-2.8c-0.3-1.6-2-2.1-2.8-0.1
			c-1.5-3.1,1.1-4,2.7-3.1c-2.5-2.5-2.8-4.8-0.8-7.4c2.8,2.1,2.9,4.3,1.6,7.3c1.7-1.9,4.2-0.9,3.3,2.1c-1.2-1.8-2.7-0.7-2.5,1.1
			c0.2,1.5,2.2,2.7,4.7,2.5c3.6-0.3,3.8-2.8,3.9-4.8c-0.9-0.1-2.5,0.7-3.8,2.5L69.5,78c1.5,1.5,2.8,1.8,4.3,1.9
			c-0.5-1.5-2.7-4.1-2.7-4.1h7.1l0,0H78z"/>
	</g>
	<circle class="st6" cx="205.3" cy="74.5" r="4.9"/>
	<path class="st1" d="M116.7,74.6c0,1.3,0.1,2.4,0.5,3.6c0.3,1.1,0.8,2.1,1.4,3c0.6,0.9,1.5,1.6,2.4,2.1c1,0.5,2.1,0.8,3.6,0.8
		s2.4-0.2,3.3-0.6s1.5-0.9,2.1-1.5c0.5-0.6,0.9-1.3,1.1-2c0.2-0.7,0.3-1.4,0.3-2v-0.3h-7.4v-4.4H137v16.1h-5.2v-3.6
		c-0.3,0.5-0.8,1.1-1.3,1.5c-0.5,0.5-1.1,0.9-1.8,1.2s-1.4,0.6-2.2,0.8s-1.7,0.3-2.5,0.3c-2.1,0-4-0.4-5.6-1.1
		c-1.7-0.7-3-1.8-4.2-3.1s-2-2.9-2.5-4.8c-0.6-1.8-0.9-3.8-0.9-5.8c0-2.1,0.3-4,1-5.8c0.7-1.8,1.6-3.4,2.8-4.8
		c1.2-1.3,2.7-2.4,4.4-3.1c1.7-0.7,3.6-1.1,5.8-1.1s2.7,0.1,4,0.5c1.2,0.3,2.3,0.7,3.4,1.3c1,0.6,1.9,1.3,2.7,2.1
		c0.8,0.8,1.4,1.7,1.9,2.7l-5.2,2.9c-0.3-0.6-0.7-1.2-1.1-1.7c-0.4-0.5-0.9-1-1.5-1.4c-0.5-0.4-1.1-0.7-1.9-0.9
		c-0.7-0.2-1.5-0.3-2.3-0.3c-1.3,0-2.5,0.3-3.6,0.8c-1,0.5-1.8,1.3-2.4,2.1c-0.6,0.9-1.1,1.9-1.4,3.1c-0.3,1.2-0.5,2.3-0.5,3.6v0.2
		l0,0L116.7,74.6z M155.7,59.6c2.1,0,4.1,0.4,5.8,1.1c1.7,0.8,3.1,1.8,4.4,3.1c1.2,1.3,2.1,2.9,2.7,4.8s0.9,3.8,0.9,5.8
		c0,2.1-0.3,4-0.9,5.8c-0.6,1.8-1.5,3.4-2.7,4.8c-1.2,1.3-2.7,2.4-4.4,3.1c-1.7,0.7-3.7,1.1-5.8,1.1s-4.1-0.4-5.8-1.1
		c-1.7-0.7-3.1-1.8-4.4-3.1c-1.2-1.3-2.1-2.9-2.7-4.8c-0.6-1.8-0.9-3.8-0.9-5.8c0-2.1,0.3-4,0.9-5.8c0.6-1.8,1.5-3.4,2.7-4.8
		c1.2-1.3,2.7-2.4,4.4-3.1S153.5,59.6,155.7,59.6C155.7,59.6,155.7,59.6,155.7,59.6z M155.7,84.2c1.3,0,2.4-0.3,3.4-0.7
		c0.9-0.5,1.8-1.1,2.4-2c0.7-0.9,1.1-1.9,1.5-3c0.3-1.1,0.5-2.4,0.5-3.8v-0.1c0-1.3-0.2-2.6-0.5-3.8c-0.3-1.1-0.9-2.2-1.5-3
		c-0.7-0.9-1.5-1.5-2.4-2c-0.9-0.5-2.1-0.7-3.4-0.7s-2.4,0.3-3.3,0.7c-1,0.5-1.8,1.1-2.4,2c-0.6,0.9-1.1,1.9-1.5,3
		c-0.3,1.1-0.5,2.4-0.5,3.8v0.1c0,1.4,0.2,2.7,0.5,3.8c0.3,1.1,0.8,2.1,1.5,3s1.5,1.5,2.4,2C153.3,83.9,154.4,84.2,155.7,84.2z
		 M179.9,89.3l-8.2-29.5h6.6l5.6,22h0.2l5.5-22h6.5l-8.2,29.5 M229.4,84.2c0.9,0,1.7-0.1,2.4-0.4c0.7-0.3,1.3-0.6,1.9-1.1
		c0.5-0.5,0.9-1.1,1.3-1.9s0.5-1.7,0.5-2.7V59.8h5.8v19.1c0,1.6-0.3,3.1-0.9,4.4c-0.6,1.3-1.4,2.4-2.5,3.3c-1.1,0.9-2.3,1.6-3.8,2.1
		c-1.5,0.5-3,0.7-4.8,0.7s-3.3-0.3-4.8-0.7c-1.5-0.5-2.7-1.2-3.8-2.1c-1.1-0.9-1.9-2-2.5-3.3c-0.6-1.3-0.9-2.7-0.9-4.4V59.8h5.8V78
		c0,1.1,0.1,1.9,0.5,2.7c0.3,0.8,0.7,1.4,1.3,1.9c0.5,0.5,1.1,0.9,1.9,1.1C227.7,84.1,228.5,84.2,229.4,84.2L229.4,84.2L229.4,84.2z
		 M246.5,59.8h5.8v12.8l10.4-12.8h7.2l-10.1,11.8l10.8,17.7h-6.8l-7.7-13.2l-3.8,4.2v9h-5.8"/>
	<path class="st1" d="M289.1,63.9v25.5h-3.6V60.1h5.2L306,84.2V60.1h3.6v29.3h-4.4L289.1,63.9z M334.6,78.9c0,6.3-3.8,10.8-9.6,10.8
		c-5.8,0-9.6-4.6-9.6-10.8c0-6.4,3.8-10.8,9.6-10.8S334.6,72.5,334.6,78.9z M331,79.1v-0.2c0-4.2-2.1-7.8-6-7.8c-3.9,0-6,3.6-6,7.8
		v0.2c0,4.1,2.1,7.8,6,7.8C328.9,86.8,331,83.1,331,79.1z M345.1,84.1c0,1.4,0.2,2.6,2.7,2.6c0.6,0,2-0.1,2.6-0.2l0.4,3
		c0,0-2,0.2-3.7,0.2c-3.3,0-5.4-1.4-5.4-4.8V71.4h-3.9v-3h3.9v-6.8l3.4-1.2v8h5.8v3h-5.8C345.1,71.4,345.1,84.1,345.1,84.1z
		 M357.3,60.1c1.4,0,2.5,1.2,2.5,2.6c0,1.5-1.1,2.6-2.5,2.6c-1.5,0-2.6-1.1-2.6-2.6S355.8,60.1,357.3,60.1z M358.9,89.4h-3.4V68.5
		h3.4V89.4z M370.6,68.5h4.2v3h-4.2v17.9h-3.4V71.4h-3.4v-3h3.4v-3.9c0-3.6,2.5-4.9,5.8-4.9c1.7,0,2.8,0.2,3.3,0.2l-0.2,3
		c-0.7-0.1-2.3-0.1-3-0.1c-2,0-2.5,1.2-2.5,2.5L370.6,68.5L370.6,68.5z M377.1,68.5h3.9l5.2,17.2l4.9-17.2h3.8l-7.6,24
		c-0.9,3-3,3.7-5.5,3.7c-1.1,0-2.3-0.1-3.7-0.4l0.5-3c0,0,1.5,0.2,2.7,0.2c1.5,0,2.3-0.6,2.6-2.1l0.2-1L377.1,68.5L377.1,68.5z"/>
</g>
</svg>
