<svg xmlns="http://www.w3.org/2000/svg" xml:space="preserve" style="enable-background:new 0 0 960 640" viewBox="0 0 960 640"><style>.st0{fill:#b4b4b4}.st2{fill:#dadada}.st3{fill:#fff}.st7{fill:#0b0b0b}.st8{fill:#4b4b4b}.st9{fill:#c8c8c8}.st10{fill:#8c8c8c}</style><g id="Layer_1"><path d="M113.6 352.9h6.6v4.3h-6.6v-4.3z" class="st0"/><path d="M57 290.2h59.2V636H57V290.2z" class="st0"/><path d="M57 290h899v65.2H57V290z" class="st0"/><path d="M57 420.4h899M505.6 287.8v350.4m233.2-350.4v350.4M57 485.6h899m0 130.4H57m0-65.2h899" style="fill:none;stroke:#dadada;stroke-width:4;stroke-miterlimit:10"/><path d="M0 40V10C0 4.5 4.5 0 10 0h940c5.5 0 10 4.5 10 10v30" class="st2"/><circle cx="25.4" cy="20" r="8.5" class="st3"/><circle cx="49.1" cy="20" r="8.5" class="st3"/><circle cx="72.9" cy="20" r="8.5" class="st3"/><path d="M1 40h958v65H1V40z" style="fill:#1d70b8"/><path d="M55 154.9h309.9v60.7H55v-60.7z" style="fill:#004a1e"/><path d="M55 147.9h309.9v60.7H55v-60.7z" style="fill:#00823b"/><path d="M93.5 182.6v-14.4h2.7v14.7c0 4.9-3.6 8-8.3 8-4.6 0-8.3-3.1-8.3-8v-14.7h2.7v14.4c0 4.2 2.7 5.9 5.5 5.9 3 0 5.7-1.7 5.7-5.9zm11.6-8v1.8c.9-1.3 2.6-2.1 4.7-2.1 4.1 0 6.8 3.5 6.8 8.3s-2.7 8.3-6.8 8.3c-2 0-3.7-.8-4.7-2.1v6.7h-2.6v-20.8l2.6-.1zm8.8 7.9c0-3.3-1.6-5.9-4.5-5.9-2.8 0-4.2 2-4.2 4.7v2.6c0 2.7 1.4 4.7 4.2 4.7 2.9 0 4.5-2.6 4.5-5.9v-.2zm7.8-14.3h2.6V187c0 1.1.3 1.6 1.5 1.6.7 0 1.2-.1 1.6-.1l.3 2.2s-1.5.2-2.7.2c-1.9 0-3.4-.8-3.4-3.1l.1-19.6zm23.5 14.4c0 4.8-2.9 8.3-7.4 8.3-4.4 0-7.4-3.5-7.4-8.3 0-4.9 2.9-8.3 7.4-8.3s7.4 3.4 7.4 8.3zm-2.7.1v-.2c0-3.2-1.6-5.9-4.6-5.9s-4.6 2.7-4.6 5.9v.2c0 3.1 1.6 5.9 4.6 5.9s4.6-2.8 4.6-5.9zm12.2 8.2c-3.2 0-5.6-1.9-5.6-4.8 0-2.5 1.7-4.2 4.3-4.5l5.6-.8v-1c0-2.4-1.6-3.2-3.6-3.2-1.8 0-3.4.6-4.6 1.2l-1-2.1c1.8-1 3.9-1.5 5.9-1.5 3.9 0 5.9 1.7 5.9 5.1v7.5c0 1.1.4 1.8 1.3 2.2l-1.5 1.9c-1-.3-1.8-1-2.1-1.9-.8 1-2.4 1.9-4.6 1.9zm.1-7.4c-1.8.3-2.9.8-2.9 2.5 0 1.9 1.5 2.9 3.3 2.9 2 0 3.9-1.2 3.9-3.1v-2.9l-4.3.6zm23.5 5.2c-.9 1.3-2.6 2.1-4.7 2.1-4.1 0-6.8-3.5-6.8-8.3s2.7-8.3 6.8-8.3c2 0 3.7.8 4.7 2.1V168h2.6v22.4h-2.6v-1.7zm-8.8-6c0 3.3 1.6 5.9 4.5 5.9 2.8 0 4.2-2 4.2-4.7v-2.6c0-2.7-1.4-4.7-4.2-4.7-2.9 0-4.5 2.6-4.5 5.9v.2zm35-5.8h-.4c-2.7 0-5.1 1.1-5.1 5.4v8.2h-2.6v-16h2.6v2.5c.8-1.9 2.8-2.8 4.8-2.8h.8v2.7h-.1zm5.7 6.5c.2 3 2.1 5.2 5 5.2 1.8 0 3.1-.7 4.2-1.6l1.3 1.9c-1.4 1.2-3.3 2-5.7 2-4.6 0-7.6-3.5-7.6-8.3 0-4.9 2.8-8.3 7.3-8.3 4.2 0 6.8 3.5 6.8 8.3v.8h-11.3zm.1-2.1h8.4c-.1-2.5-1.5-4.7-4-4.7-2.6 0-4.3 2.2-4.4 4.7zm17.9 1.4c0 3.2 1.6 5.9 4.6 5.9 2 0 3.3-1.2 4.1-2.7l2.2 1.2c-1.1 2.3-3.4 3.7-6.3 3.7-4.4 0-7.4-3.5-7.4-8.3 0-4.9 2.9-8.3 7.4-8.3 2.9 0 5.2 1.5 6.3 3.7l-2.2 1.2c-.8-1.5-2.1-2.7-4.1-2.7-3.1 0-4.6 2.7-4.6 5.9v.4zm17.3-14.5c1.1 0 1.9.9 1.9 2s-.9 2-1.9 2c-1.1 0-2-.9-2-2s.9-2 2-2zm1.2 22.4h-2.6v-16h2.6v16zm8.7-16v1.8c.9-1.3 2.6-2.1 4.7-2.1 4.1 0 6.8 3.5 6.8 8.3s-2.7 8.3-6.8 8.3c-2 0-3.7-.8-4.7-2.1v6.7h-2.6v-20.8l2.6-.1zm8.8 7.9c0-3.3-1.6-5.9-4.5-5.9-2.8 0-4.2 2-4.2 4.7v2.6c0 2.7 1.4 4.7 4.2 4.7 2.9 0 4.5-2.6 4.5-5.9v-.2zm9.2-14.3c1.1 0 1.9.9 1.9 2s-.9 2-1.9 2c-1.1 0-2-.9-2-2s.9-2 2-2zm1.3 22.4h-2.6v-16h2.6v16zm7.8-7.2c.2 3 2.1 5.2 5 5.2 1.8 0 3.1-.7 4.2-1.6l1.3 1.9c-1.4 1.2-3.3 2-5.7 2-4.6 0-7.6-3.5-7.6-8.3 0-4.9 2.8-8.3 7.3-8.3 4.2 0 6.8 3.5 6.8 8.3v.8h-11.3zm.1-2.1h8.4c-.1-2.5-1.5-4.7-4-4.7-2.6 0-4.3 2.2-4.4 4.7zm16.2-6.7h2.6v1.8c1.1-1.5 2.7-2.1 4.7-2.1 3.6 0 5.3 2.5 5.3 5.4v10.8h-2.6v-10c0-2.8-1.4-3.9-3.3-3.9-2 0-4.1 1.4-4.1 4.4v9.5h-2.6v-15.9zm22.7 12c0 1.1.2 2 2 2 .5 0 1.5-.1 2-.2l.3 2.3s-1.5.2-2.8.2c-2.5 0-4.1-1-4.1-3.7v-10.3h-3v-2.3h3v-5.2l2.6-.9v6.1h4.4v2.3h-4.4v9.7zm7.6 2 1.6-1.9c1 .9 2.7 2 4.8 2 1.8 0 3.2-.8 3.2-2.4 0-1.7-1.7-2.1-3.9-2.7-2.3-.6-5-1.4-5-4.7 0-2.7 2.5-4.6 5.8-4.6 2.1 0 4.4.9 5.5 2l-1.5 1.8c-.9-.9-2.3-1.5-3.9-1.5-2.1 0-3.2.9-3.2 2.4 0 1.2.9 1.7 2.3 2.1.8.2 1.8.5 2.6.8 2.1.7 3.9 1.8 3.9 4.4 0 3.3-2.9 4.8-6 4.8-2.1-.2-4.4-1-6.2-2.5z" class="st3"/><path d="M145.2 378.2h13.4v2.4H148v7.4h9.8v2.4H148v7.9h11.3v2.4h-14v-22.5h-.1zm30.9 22.4h-2.6v-10c0-2.8-1.4-3.8-3.2-3.8s-3.5 1.3-3.5 4.4v9.4h-2.6v-16h2.6v1.8c1.1-1.5 2.5-2.1 4.2-2.1 1.4 0 3.5.7 4.3 2.7 1.2-2 3.1-2.7 4.9-2.7 3.5 0 5.4 2.5 5.4 5.3v10.9H183v-10c0-2.8-1.5-3.8-3.3-3.8s-3.5 1.3-3.5 4.4v9.5h-.1zm19.6.3c-3.2 0-5.6-1.9-5.6-4.8 0-2.5 1.7-4.2 4.3-4.5l5.6-.8v-1c0-2.4-1.6-3.2-3.6-3.2-1.8 0-3.4.6-4.6 1.2l-1-2.1c1.8-1 3.9-1.5 5.9-1.5 3.9 0 5.9 1.7 5.9 5.1v7.5c0 1.1.4 1.8 1.3 2.2l-1.5 1.9c-1-.3-1.8-1-2.1-1.9-.9 1-2.4 1.9-4.6 1.9zm0-7.4c-1.8.3-2.9.8-2.9 2.5 0 1.9 1.5 2.9 3.3 2.9 2 0 3.9-1.2 3.9-3.1v-2.9l-4.3.6zm14.2-15.3c1.1 0 1.9.9 1.9 2s-.9 2-1.9 2c-1.1 0-2-.9-2-2s.9-2 2-2zm1.3 22.4h-2.6v-16h2.6v16zm5.8-22.4h2.6V397c0 1.1.3 1.6 1.5 1.6.7 0 1.2-.1 1.6-.1l.3 2.2s-1.5.2-2.7.2c-1.9 0-3.4-.8-3.4-3.1l.1-19.6zm22.4 22.7c-3.2 0-5.6-1.9-5.6-4.8 0-2.5 1.7-4.2 4.3-4.5l5.6-.8v-1c0-2.4-1.6-3.2-3.6-3.2-1.8 0-3.4.6-4.6 1.2l-1-2.1c1.8-1 3.9-1.5 5.9-1.5 3.9 0 5.9 1.7 5.9 5.1v7.5c0 1.1.4 1.8 1.3 2.2l-1.5 1.9c-1-.3-1.8-1-2.1-1.9-.9 1-2.5 1.9-4.6 1.9zm0-7.4c-1.8.3-2.9.8-2.9 2.5 0 1.9 1.5 2.9 3.3 2.9 2 0 3.9-1.2 3.9-3.1v-2.9l-4.3.6zm23.3 5.2c-.9 1.3-2.6 2.1-4.7 2.1-4.1 0-6.8-3.5-6.8-8.3s2.7-8.3 6.8-8.3c2 0 3.7.8 4.7 2.1V378h2.6v22.4h-2.6v-1.7zm-8.7-6c0 3.3 1.6 5.9 4.5 5.9 2.8 0 4.2-2 4.2-4.7v-2.6c0-2.7-1.4-4.7-4.2-4.7-2.9 0-4.5 2.6-4.5 5.9v.2zm27.8 6c-.9 1.3-2.6 2.1-4.7 2.1-4.1 0-6.8-3.5-6.8-8.3s2.7-8.3 6.8-8.3c2 0 3.7.8 4.7 2.1V378h2.6v22.4h-2.6v-1.7zm-8.7-6c0 3.3 1.6 5.9 4.5 5.9 2.8 0 4.2-2 4.2-4.7v-2.6c0-2.7-1.4-4.7-4.2-4.7-2.9 0-4.5 2.6-4.5 5.9v.2zm25.4-5.8h-.4c-2.7 0-5.1 1.1-5.1 5.4v8.2h-2.6v-16h2.6v2.5c.8-1.9 2.8-2.8 4.8-2.8h.8l-.1 2.7zm5.6 6.5c.2 3 2.1 5.2 5 5.2 1.8 0 3.1-.7 4.2-1.6l1.3 1.9c-1.4 1.2-3.3 2-5.7 2-4.6 0-7.6-3.5-7.6-8.3 0-4.9 2.8-8.3 7.3-8.3 4.2 0 6.8 3.5 6.8 8.3v.8h-11.3zm0-2.1h8.4c-.1-2.5-1.5-4.7-4-4.7-2.6 0-4.2 2.2-4.4 4.7zm14.7 7.3 1.6-1.9c1 .9 2.7 2 4.8 2 1.8 0 3.2-.8 3.2-2.4 0-1.7-1.7-2.1-3.9-2.7-2.3-.6-5-1.4-5-4.7 0-2.7 2.5-4.6 5.8-4.6 2.1 0 4.4.9 5.5 2l-1.5 1.8c-.9-.9-2.3-1.5-3.9-1.5-2.1 0-3.2.9-3.2 2.4 0 1.2.9 1.7 2.3 2.1.8.2 1.8.5 2.6.8 2.1.7 3.9 1.8 3.9 4.4 0 3.3-2.9 4.8-6 4.8-2.1-.2-4.4-1-6.2-2.5zm15.9 0 1.6-1.9c1 .9 2.7 2 4.8 2 1.8 0 3.2-.8 3.2-2.4 0-1.7-1.7-2.1-3.9-2.7-2.3-.6-5-1.4-5-4.7 0-2.7 2.5-4.6 5.8-4.6 2.1 0 4.4.9 5.5 2l-1.5 1.8c-.9-.9-2.3-1.5-3.9-1.5-2.1 0-3.2.9-3.2 2.4 0 1.2.9 1.7 2.3 2.1.8.2 1.8.5 2.6.8 2.1.7 3.9 1.8 3.9 4.4 0 3.3-2.9 4.8-6 4.8-2.1-.2-4.5-1-6.2-2.5zm196.8-17.5v19.5h-2.7v-22.4h4l11.6 18.5v-18.5h2.7v22.4h-3.4l-12.2-19.5zm26.5 19.8c-3.2 0-5.6-1.9-5.6-4.8 0-2.5 1.7-4.2 4.3-4.5l5.6-.8v-1c0-2.4-1.6-3.2-3.6-3.2-1.8 0-3.4.6-4.6 1.2l-1-2.1c1.8-1 3.9-1.5 5.9-1.5 3.9 0 5.9 1.7 5.9 5.1v7.5c0 1.1.4 1.8 1.3 2.2l-1.5 1.9c-1-.3-1.8-1-2.1-1.9-.9 1-2.5 1.9-4.6 1.9zm0-7.4c-1.8.3-2.9.8-2.9 2.5 0 1.9 1.5 2.9 3.3 2.9 2 0 3.9-1.2 3.9-3.1v-2.9l-4.3.6zm25 7.1h-2.6v-10c0-2.8-1.4-3.8-3.2-3.8s-3.5 1.3-3.5 4.4v9.4H571v-16h2.6v1.8c1.1-1.5 2.5-2.1 4.2-2.1 1.4 0 3.5.7 4.3 2.7 1.2-2 3.1-2.7 4.9-2.7 3.5 0 5.4 2.5 5.4 5.3v10.9h-2.6v-10c0-2.8-1.5-3.8-3.3-3.8s-3.5 1.3-3.5 4.4v9.5zm17.1-7.2c.2 3 2.1 5.2 5 5.2 1.8 0 3.1-.7 4.2-1.6l1.3 1.9c-1.4 1.2-3.3 2-5.7 2-4.6 0-7.6-3.5-7.6-8.3 0-4.9 2.8-8.3 7.3-8.3 4.2 0 6.8 3.5 6.8 8.3v.8h-11.3zm0-2.1h8.4c-.1-2.5-1.5-4.7-4-4.7-2.6 0-4.2 2.2-4.4 4.7zm170.4-13.4c4.2 0 7 2.3 8.4 5.8l-2.6.9c-.7-2-2.6-4.3-5.7-4.3-4.7 0-6.8 4.3-6.8 8.9v.4c0 4.6 2.2 8.9 6.8 8.9 3.1 0 5.1-2.2 5.7-4.3l2.6.9c-1.3 3.5-4.2 5.8-8.4 5.8-6 0-9.8-5.1-9.8-11.5s3.7-11.5 9.8-11.5zm27.2 14.7c0 4.8-2.9 8.3-7.4 8.3-4.4 0-7.4-3.5-7.4-8.3 0-4.9 2.9-8.3 7.4-8.3 4.4 0 7.4 3.4 7.4 8.3zm-2.7.1v-.2c0-3.2-1.6-5.9-4.6-5.9s-4.6 2.7-4.6 5.9v.2c0 3.1 1.6 5.9 4.6 5.9s4.6-2.8 4.6-5.9zm7.7-14.5h2.6V397c0 1.1.3 1.6 1.5 1.6.7 0 1.2-.1 1.6-.1l.3 2.2s-1.5.2-2.7.2c-1.9 0-3.4-.8-3.4-3.1v-19.6h.1zm23.6 14.4c0 4.8-2.9 8.3-7.4 8.3-4.4 0-7.4-3.5-7.4-8.3 0-4.9 2.9-8.3 7.4-8.3s7.4 3.4 7.4 8.3zm-2.7.1v-.2c0-3.2-1.6-5.9-4.6-5.9s-4.6 2.7-4.6 5.9v.2c0 3.1 1.6 5.9 4.6 5.9s4.6-2.8 4.6-5.9zm20.3 7.9h-2.6v-1.8c-1.1 1.5-2.7 2.1-4.7 2.1-3.6 0-5.3-2.5-5.3-5.4v-10.8h2.6v10c0 2.8 1.4 3.9 3.3 3.9 2.2 0 4.1-1.4 4.1-4.4v-9.5h2.6v15.9zm14.3-13.7h-.4c-2.7 0-5.1 1.1-5.1 5.4v8.2H850v-16h2.6v2.5c.8-1.9 2.8-2.8 4.8-2.8h.8v2.7z" class="st7"/><path d="M155.5 330.3h-9l-1.5 5.1h-2.9L149 313h4l7 22.4h-3l-1.5-5.1zm-8.3-2.3h7.6l-3.7-12.5h-.3l-3.6 12.5zm390.4-15c3.5 0 6.2 2.2 6.2 5.6 0 2.2-1.5 4.3-3.5 5 2.3.3 4.8 2.2 4.8 5.4 0 4.4-3.5 6.3-7.7 6.3h-8.5V313h8.7zm3.4 5.9c0-2-1.2-3.7-4.4-3.7h-4.9v7.4h4.9c3.1.1 4.4-1.6 4.4-3.7zm-3.6 6.2h-5.8v8h5.8c2.6 0 4.8-1.2 4.8-4.1s-2.2-3.9-4.8-3.9zm233.1-12.4c4.2 0 7 2.3 8.4 5.8l-2.6.9c-.7-2-2.6-4.3-5.7-4.3-4.7 0-6.8 4.3-6.8 8.9v.4c0 4.6 2.2 8.9 6.8 8.9 3.1 0 5.1-2.2 5.7-4.3l2.6.9c-1.3 3.5-4.2 5.8-8.4 5.8-6 0-9.8-5.1-9.8-11.5s3.7-11.5 9.8-11.5z" class="st8"/><path d="M143.2 463.2s1.8.6 2.9.6c3.2 0 3.5-1.4 3.5-4.4v-16h2.8v17.8c0 3.7-2.9 4.9-6 4.9-1.4 0-2.8-.3-4-.6l.8-2.3zm29.1-5.4c0 4.8-2.9 8.3-7.4 8.3-4.4 0-7.4-3.5-7.4-8.3 0-4.9 2.9-8.3 7.4-8.3 4.4 0 7.4 3.4 7.4 8.3zm-2.8.1v-.2c0-3.2-1.6-5.9-4.6-5.9s-4.6 2.7-4.6 5.9v.2c0 3.1 1.6 5.9 4.6 5.9s4.6-2.8 4.6-5.9zm6.3 5.9 1.6-1.9c1 .9 2.7 2 4.8 2 1.8 0 3.2-.8 3.2-2.4 0-1.7-1.7-2.1-3.9-2.7-2.3-.6-5-1.4-5-4.7 0-2.7 2.5-4.6 5.8-4.6 2.1 0 4.4.9 5.5 2l-1.5 1.8c-.9-.9-2.3-1.5-3.9-1.5-2.1 0-3.2.9-3.2 2.4 0 1.2.9 1.7 2.3 2.1.8.2 1.8.5 2.6.8 2.1.7 3.9 1.8 3.9 4.4 0 3.3-2.9 4.8-6 4.8-2-.2-4.4-.9-6.2-2.5zm17.3-20.4h2.6v8.3c1.1-1.5 2.7-2.1 4.7-2.1 3.6 0 5.3 2.5 5.3 5.4v10.8h-2.6v-10c0-2.8-1.4-3.9-3.3-3.9-2 0-4.1 1.4-4.1 4.4v9.5h-2.6v-22.4zm35.2 20.8c-.9 1.1-2.5 1.9-4.6 1.9-3.2 0-5.6-1.9-5.6-4.8 0-2.5 1.7-4.2 4.3-4.5l5.6-.8v-1c0-2.4-1.6-3.2-3.6-3.2-1.8 0-3.4.6-4.6 1.2l-1-2.1c1.8-1 3.9-1.5 5.9-1.5 3.9 0 5.9 1.7 5.9 5.1v7.8c0 1 .4 1.9 1.4 1.9 3.3 0 4.2-5.1 4.2-6.7 0-6.8-5.1-11.5-11.6-11.5s-11.8 5.3-11.8 11.8 5.3 11.8 11.8 11.8c1.9 0 3.6-.4 5.2-1.2l1.2 1.3c-1.9 1-4.2 1.5-6.6 1.5-7.5 0-13.5-6-13.5-13.5s6.2-13.5 13.7-13.5 13.2 5.4 13.2 13.2c0 3.4-1.9 8.5-6 8.5-2.5.2-3.3-1-3.5-1.7zm-4.7-5.5c-1.8.3-2.9.8-2.9 2.5 0 1.9 1.5 2.9 3.3 2.9 2 0 3.9-1.2 3.9-3.1v-3l-4.3.7zm21.6-.1c.2 3 2.1 5.2 5 5.2 1.8 0 3.1-.7 4.2-1.6l1.3 1.9c-1.4 1.2-3.3 2-5.7 2-4.6 0-7.6-3.5-7.6-8.3 0-4.9 2.8-8.3 7.3-8.3 4.2 0 6.8 3.5 6.8 8.3v.8h-11.3zm0-2.1h8.4c-.1-2.5-1.5-4.7-4-4.7-2.6 0-4.3 2.3-4.4 4.7zm19.5.9-4.9-7.6h3l3.4 5.5 3.3-5.5h3l-4.9 7.6 5.5 8.4H270l-4-6.2-3.6 6.2h-3.1l5.4-8.4zm16.9 8.7c-3.2 0-5.6-1.9-5.6-4.8 0-2.5 1.7-4.2 4.3-4.5l5.6-.8v-1c0-2.4-1.6-3.2-3.6-3.2-1.8 0-3.4.6-4.6 1.2l-1-2.1c1.8-1 3.9-1.5 5.9-1.5 3.9 0 5.9 1.7 5.9 5.1v7.5c0 1.1.4 1.8 1.3 2.2l-1.5 1.9c-1-.3-1.8-1-2.1-1.9-.9 1.1-2.5 1.9-4.6 1.9zm0-7.4c-1.8.3-2.9.8-2.9 2.5 0 1.9 1.5 2.9 3.3 2.9 2 0 3.9-1.2 3.9-3.1v-3l-4.3.7zm24.8 7.1h-2.6v-10c0-2.8-1.4-3.8-3.2-3.8-1.8 0-3.5 1.3-3.5 4.4v9.4h-2.6v-16h2.6v1.8c1.1-1.5 2.5-2.1 4.2-2.1 1.4 0 3.5.7 4.3 2.7 1.2-2 3.1-2.7 4.9-2.7 3.5 0 5.4 2.5 5.4 5.3v10.9h-2.6v-10c0-2.8-1.5-3.8-3.3-3.8s-3.5 1.3-3.5 4.4l-.1 9.5zm17.8-16v1.8c.9-1.3 2.6-2.1 4.7-2.1 4.1 0 6.8 3.5 6.8 8.3s-2.7 8.3-6.8 8.3c-2 0-3.7-.8-4.7-2.1v6.7h-2.6v-20.8l2.6-.1zm8.8 7.9c0-3.3-1.6-5.9-4.5-5.9-2.8 0-4.2 2-4.2 4.7v2.6c0 2.7 1.4 4.7 4.2 4.7 2.9 0 4.5-2.6 4.5-5.9v-.2zm7.6-14.3h2.6v18.8c0 1.1.3 1.6 1.5 1.6.7 0 1.2-.1 1.6-.1l.3 2.2s-1.5.2-2.7.2c-1.9 0-3.4-.8-3.4-3.1v-19.6h.1zm11.4 15.2c.2 3 2.1 5.2 5 5.2 1.8 0 3.1-.7 4.2-1.6l1.3 1.9c-1.4 1.2-3.3 2-5.7 2-4.6 0-7.6-3.5-7.6-8.3 0-4.9 2.8-8.3 7.3-8.3 4.2 0 6.8 3.5 6.8 8.3v.8H352zm.1-2.1h8.4c-.1-2.5-1.5-4.7-4-4.7-2.6 0-4.3 2.3-4.4 4.7zm17.8 5.3c1.2 0 2.1 1 2.1 2.1 0 1.2-1 2.1-2.1 2.1-1.2 0-2.1-1-2.1-2.1s.9-2.1 2.1-2.1zm9.5-3.9c0 3.2 1.6 5.9 4.6 5.9 2 0 3.3-1.2 4.1-2.7l2.2 1.2c-1.1 2.3-3.4 3.7-6.3 3.7-4.4 0-7.4-3.5-7.4-8.3 0-4.9 2.9-8.3 7.4-8.3 2.9 0 5.2 1.5 6.3 3.7l-2.2 1.2c-.8-1.5-2.1-2.7-4.1-2.7-3.1 0-4.6 2.7-4.6 5.9v.4zm29.3-.1c0 4.8-2.9 8.3-7.4 8.3-4.4 0-7.4-3.5-7.4-8.3 0-4.9 2.9-8.3 7.4-8.3s7.4 3.4 7.4 8.3zm-2.7.1v-.2c0-3.2-1.6-5.9-4.6-5.9s-4.6 2.7-4.6 5.9v.2c0 3.1 1.6 5.9 4.6 5.9s4.6-2.8 4.6-5.9zm19.6 7.9H423v-10c0-2.8-1.4-3.8-3.2-3.8-1.8 0-3.5 1.3-3.5 4.4v9.4h-2.6v-16h2.6v1.8c1.1-1.5 2.5-2.1 4.2-2.1 1.4 0 3.5.7 4.3 2.7 1.2-2 3.1-2.7 4.9-2.7 3.5 0 5.4 2.5 5.4 5.3v10.9h-2.6v-10c0-2.8-1.5-3.8-3.3-3.8s-3.5 1.3-3.5 4.4v9.5h-.1zm101.2-2.6s1.8.6 2.9.6c3.2 0 3.5-1.4 3.5-4.4v-16h2.8v17.8c0 3.7-2.9 4.9-6 4.9-1.4 0-2.8-.3-4-.6l.8-2.3zm29.2-5.4c0 4.8-2.9 8.3-7.4 8.3-4.4 0-7.4-3.5-7.4-8.3 0-4.9 2.9-8.3 7.4-8.3s7.4 3.4 7.4 8.3zm-2.7.1v-.2c0-3.2-1.6-5.9-4.6-5.9s-4.6 2.7-4.6 5.9v.2c0 3.1 1.6 5.9 4.6 5.9s4.6-2.8 4.6-5.9zm6.5 5.9 1.6-1.9c1 .9 2.7 2 4.8 2 1.8 0 3.2-.8 3.2-2.4 0-1.7-1.7-2.1-3.9-2.7-2.3-.6-5-1.4-5-4.7 0-2.7 2.5-4.6 5.8-4.6 2.1 0 4.4.9 5.5 2l-1.5 1.8c-.9-.9-2.3-1.5-3.9-1.5-2.1 0-3.2.9-3.2 2.4 0 1.2.9 1.7 2.3 2.1.8.2 1.8.5 2.6.8 2.1.7 3.9 1.8 3.9 4.4 0 3.3-2.9 4.8-6 4.8-2.1-.2-4.4-.9-6.2-2.5zm17.4-20.4h2.6v8.3c1.1-1.5 2.7-2.1 4.7-2.1 3.6 0 5.3 2.5 5.3 5.4v10.8h-2.6v-10c0-2.8-1.4-3.9-3.3-3.9-2 0-4.1 1.4-4.1 4.4v9.5h-2.6v-22.4zm184.8 0h7.6c4.2 0 7.5 2 7.5 6.7 0 2.8-1.6 5.1-4.4 6.2l4.7 9.5h-3.2l-4.3-9h-5.2v9H762v-22.4zm7.8 11c2.6 0 4.4-1.6 4.4-4.3 0-2.8-1.9-4.4-4.4-4.4h-5.1v8.7h5.1zm14.1 4.2c.2 3 2.1 5.2 5 5.2 1.8 0 3.1-.7 4.2-1.6l1.3 1.9c-1.4 1.2-3.3 2-5.7 2-4.6 0-7.6-3.5-7.6-8.3 0-4.9 2.8-8.3 7.3-8.3 4.2 0 6.8 3.5 6.8 8.3v.8h-11.3zm0-2.1h8.4c-.1-2.5-1.5-4.7-4-4.7-2.6 0-4.3 2.3-4.4 4.7zm26.7 7.5c-.9 1.3-2.6 2.1-4.7 2.1-4.1 0-6.8-3.5-6.8-8.3s2.7-8.3 6.8-8.3c2 0 3.7.8 4.7 2.1v-8.3h2.6v22.4h-2.6V464zm-8.7-6.1c0 3.3 1.6 5.9 4.5 5.9 2.8 0 4.2-2 4.2-4.7v-2.6c0-2.7-1.4-4.7-4.2-4.7-2.9 0-4.5 2.6-4.5 5.9v.2zm-645.4 68h-9L146 531h-2.9l6.9-22.4h4l7 22.4h-3l-1.5-5.1zm-8.3-2.3h7.6l-3.7-12.5h-.3l-3.6 12.5zm29.4 7.4H175v-10c0-2.8-1.4-3.8-3.2-3.8s-3.5 1.3-3.5 4.4v9.4h-2.6v-16h2.6v1.8c1.1-1.5 2.5-2.1 4.2-2.1 1.4 0 3.5.7 4.3 2.7 1.2-2 3.1-2.7 4.9-2.7 3.5 0 5.4 2.5 5.4 5.3v11h-2.6v-10c0-2.8-1.5-3.8-3.3-3.8s-3.5 1.3-3.5 4.4v9.4h-.1zm19.6.3c-3.2 0-5.6-1.9-5.6-4.8 0-2.5 1.7-4.2 4.3-4.5l5.6-.8v-1c0-2.4-1.6-3.2-3.6-3.2-1.8 0-3.4.6-4.6 1.2l-1-2.1c1.8-1 3.9-1.5 5.9-1.5 3.9 0 5.9 1.7 5.9 5.1v7.5c0 1.1.4 1.8 1.3 2.2l-1.5 1.9c-1-.3-1.8-1-2.1-1.9-.9 1-2.5 1.9-4.6 1.9zm0-7.4c-1.8.3-2.9.8-2.9 2.5 0 1.9 1.5 2.9 3.3 2.9 2 0 3.9-1.2 3.9-3.1v-2.9l-4.3.6zm12.7-15.3h2.6v18.8c0 1.1.3 1.6 1.5 1.6.7 0 1.2-.1 1.6-.1l.3 2.2s-1.5.2-2.7.2c-1.9 0-3.4-.8-3.4-3.1l.1-19.6zm14 22.7c-3.2 0-5.6-1.9-5.6-4.8 0-2.5 1.7-4.2 4.3-4.5l5.6-.8v-1c0-2.4-1.6-3.2-3.6-3.2-1.8 0-3.4.6-4.6 1.2l-1-2.1c1.8-1 3.9-1.5 5.9-1.5 3.9 0 5.9 1.7 5.9 5.1v7.5c0 1.1.4 1.8 1.3 2.2l-1.5 1.9c-1-.3-1.8-1-2.1-1.9-.9 1-2.4 1.9-4.6 1.9zm.1-7.4c-1.8.3-2.9.8-2.9 2.5 0 1.9 1.5 2.9 3.3 2.9 2 0 3.9-1.2 3.9-3.1v-2.9l-4.3.6zm29.5 5.5c-.9 1.1-2.5 1.9-4.6 1.9-3.2 0-5.6-1.9-5.6-4.8 0-2.5 1.7-4.2 4.3-4.5l5.6-.8v-1c0-2.4-1.6-3.2-3.6-3.2-1.8 0-3.4.6-4.6 1.2l-1-2.1c1.8-1 3.9-1.5 5.9-1.5 3.9 0 5.9 1.7 5.9 5.1v7.8c0 1 .4 1.9 1.4 1.9 3.3 0 4.2-5.1 4.2-6.7 0-6.8-5.1-11.5-11.6-11.5S238 516.5 238 523s5.3 11.8 11.8 11.8c1.9 0 3.6-.4 5.2-1.2l1.2 1.3c-1.9 1-4.2 1.5-6.6 1.5-7.5 0-13.5-6-13.5-13.5s6.2-13.5 13.7-13.5c7.5 0 13.2 5.4 13.2 13.2 0 3.4-1.9 8.5-6 8.5-2.4.2-3.2-1.1-3.5-1.7zm-4.6-5.5c-1.8.3-2.9.8-2.9 2.5 0 1.9 1.5 2.9 3.3 2.9 2 0 3.9-1.2 3.9-3.1v-2.9l-4.3.6zm21.6-.1c.2 3 2.1 5.2 5 5.2 1.8 0 3.1-.7 4.2-1.6l1.3 1.9c-1.4 1.2-3.3 2-5.7 2-4.6 0-7.6-3.5-7.6-8.3 0-4.9 2.8-8.3 7.3-8.3 4.2 0 6.8 3.5 6.8 8.3v.8h-11.3zm0-2.1h8.4c-.1-2.5-1.5-4.7-4-4.7-2.6 0-4.3 2.2-4.4 4.7zm19.4.8-4.9-7.6h3l3.4 5.5 3.3-5.5h3l-4.9 7.6 5.5 8.4h-3.1l-4-6.2-3.6 6.2h-3.1l5.4-8.4zm17 8.8c-3.2 0-5.6-1.9-5.6-4.8 0-2.5 1.7-4.2 4.3-4.5l5.6-.8v-1c0-2.4-1.6-3.2-3.6-3.2-1.8 0-3.4.6-4.6 1.2l-1-2.1c1.8-1 3.9-1.5 5.9-1.5 3.9 0 5.9 1.7 5.9 5.1v7.5c0 1.1.4 1.8 1.3 2.2l-1.5 1.9c-1-.3-1.8-1-2.1-1.9-.9 1-2.5 1.9-4.6 1.9zm0-7.4c-1.8.3-2.9.8-2.9 2.5 0 1.9 1.5 2.9 3.3 2.9 2 0 3.9-1.2 3.9-3.1v-2.9l-4.3.6zm24.8 7.1h-2.6v-10c0-2.8-1.4-3.8-3.2-3.8-1.8 0-3.5 1.3-3.5 4.4v9.4h-2.6v-16h2.6v1.8c1.1-1.5 2.5-2.1 4.2-2.1 1.4 0 3.5.7 4.3 2.7 1.2-2 3.1-2.7 4.9-2.7 3.5 0 5.4 2.5 5.4 5.3v11h-2.6v-10c0-2.8-1.5-3.8-3.3-3.8s-3.5 1.3-3.5 4.4l-.1 9.4zm17.8-16v1.8c.9-1.3 2.6-2.1 4.7-2.1 4.1 0 6.8 3.5 6.8 8.3s-2.7 8.3-6.8 8.3c-2 0-3.7-.8-4.7-2.1v6.7h-2.6V515h2.6zm8.7 7.9c0-3.3-1.6-5.9-4.5-5.9-2.8 0-4.2 2-4.2 4.7v2.6c0 2.7 1.4 4.7 4.2 4.7 2.9 0 4.5-2.6 4.5-5.9v-.2zm7.7-14.3h2.6v18.8c0 1.1.3 1.6 1.5 1.6.7 0 1.2-.1 1.6-.1l.3 2.2s-1.5.2-2.7.2c-1.9 0-3.4-.8-3.4-3.1v-19.6h.1zm11.4 15.2c.2 3 2.1 5.2 5 5.2 1.8 0 3.1-.7 4.2-1.6l1.3 1.9c-1.4 1.2-3.3 2-5.7 2-4.6 0-7.6-3.5-7.6-8.3 0-4.9 2.8-8.3 7.3-8.3 4.2 0 6.8 3.5 6.8 8.3v.8h-11.3zm0-2.1h8.4c-.1-2.5-1.5-4.7-4-4.7-2.6 0-4.2 2.2-4.4 4.7zm17.9 5.3c1.2 0 2.1 1 2.1 2.1 0 1.2-1 2.1-2.1 2.1-1.2 0-2.1-1-2.1-2.1 0-1.2.9-2.1 2.1-2.1zm9.5-3.9c0 3.2 1.6 5.9 4.6 5.9 2 0 3.3-1.2 4.1-2.7l2.2 1.2c-1.1 2.3-3.4 3.7-6.3 3.7-4.4 0-7.4-3.5-7.4-8.3 0-4.9 2.9-8.3 7.4-8.3 2.9 0 5.2 1.5 6.3 3.7l-2.2 1.2c-.8-1.5-2.1-2.7-4.1-2.7-3.1 0-4.6 2.7-4.6 5.9v.4zm29.3-.1c0 4.8-2.9 8.3-7.4 8.3-4.4 0-7.4-3.5-7.4-8.3 0-4.9 2.9-8.3 7.4-8.3 4.4 0 7.4 3.4 7.4 8.3zm-2.7.1v-.2c0-3.2-1.6-5.9-4.6-5.9s-4.6 2.7-4.6 5.9v.2c0 3.1 1.6 5.9 4.6 5.9s4.6-2.8 4.6-5.9zm19.6 7.9h-2.6v-10c0-2.8-1.4-3.8-3.2-3.8-1.8 0-3.5 1.3-3.5 4.4v9.4H439v-16h2.6v1.8c1.1-1.5 2.5-2.1 4.2-2.1 1.4 0 3.5.7 4.3 2.7 1.2-2 3.1-2.7 4.9-2.7 3.5 0 5.4 2.5 5.4 5.3v11h-2.6v-10c0-2.8-1.5-3.8-3.3-3.8s-3.5 1.3-3.5 4.4v9.4h-.1zm89.3-5.1h-9l-1.5 5.1h-2.9l6.9-22.4h4l7 22.4h-3l-1.5-5.1zm-8.3-2.3h7.6l-3.7-12.5h-.3l-3.6 12.5zm29.5 7.4h-2.6v-10c0-2.8-1.4-3.8-3.2-3.8s-3.5 1.3-3.5 4.4v9.4h-2.6v-16h2.6v1.8c1.1-1.5 2.5-2.1 4.2-2.1 1.4 0 3.5.7 4.3 2.7 1.2-2 3.1-2.7 4.9-2.7 3.5 0 5.4 2.5 5.4 5.3v11h-2.6v-10c0-2.8-1.5-3.8-3.3-3.8s-3.5 1.3-3.5 4.4v9.4h-.1zm19.7.3c-3.2 0-5.6-1.9-5.6-4.8 0-2.5 1.7-4.2 4.3-4.5l5.6-.8v-1c0-2.4-1.6-3.2-3.6-3.2-1.8 0-3.4.6-4.6 1.2l-1-2.1c1.8-1 3.9-1.5 5.9-1.5 3.9 0 5.9 1.7 5.9 5.1v7.5c0 1.1.4 1.8 1.3 2.2l-1.5 1.9c-1-.3-1.8-1-2.1-1.9-.9 1-2.5 1.9-4.6 1.9zm0-7.4c-1.8.3-2.9.8-2.9 2.5 0 1.9 1.5 2.9 3.3 2.9 2 0 3.9-1.2 3.9-3.1v-2.9l-4.3.6zm12.9-15.3h2.6v18.8c0 1.1.3 1.6 1.5 1.6.7 0 1.2-.1 1.6-.1l.3 2.2s-1.5.2-2.7.2c-1.9 0-3.4-.8-3.4-3.1v-19.6h.1zm14.2 22.7c-3.2 0-5.6-1.9-5.6-4.8 0-2.5 1.7-4.2 4.3-4.5l5.6-.8v-1c0-2.4-1.6-3.2-3.6-3.2-1.8 0-3.4.6-4.6 1.2l-1-2.1c1.8-1 3.9-1.5 5.9-1.5 3.9 0 5.9 1.7 5.9 5.1v7.5c0 1.1.4 1.8 1.3 2.2l-1.5 1.9c-1-.3-1.8-1-2.1-1.9-.9 1-2.5 1.9-4.6 1.9zm0-7.4c-1.8.3-2.9.8-2.9 2.5 0 1.9 1.5 2.9 3.3 2.9 2 0 3.9-1.2 3.9-3.1v-2.9l-4.3.6zm168.4-1.4v-1.1h-6.3v-2.3h8.7V531h-2.5v-3c-1.5 2.5-3.7 3.3-6.2 3.3-6.1 0-9.6-5.1-9.6-11.5s3.7-11.5 9.8-11.5c3.7 0 6.7 1.9 8.3 4.6l-2.3 1.2c-1.1-2.1-3-3.5-5.9-3.5-4.7 0-6.8 4.3-6.8 8.9v.4c0 4.6 2.2 8.9 6.9 8.9 4.7.1 5.9-3.8 5.9-6.3zm16.3-5.2h-.4c-2.7 0-5.1 1.1-5.1 5.4v8.2h-2.6v-16h2.6v2.5c.8-1.9 2.8-2.8 4.8-2.8h.8l-.1 2.7zm5.7 6.5c.2 3 2.1 5.2 5 5.2 1.8 0 3.1-.7 4.2-1.6l1.3 1.9c-1.4 1.2-3.3 2-5.7 2-4.6 0-7.6-3.5-7.6-8.3 0-4.9 2.8-8.3 7.3-8.3 4.2 0 6.8 3.5 6.8 8.3v.8h-11.3zm0-2.1h8.4c-.1-2.5-1.5-4.7-4-4.7-2.6 0-4.2 2.2-4.4 4.7zm18.1 2.1c.2 3 2.1 5.2 5 5.2 1.8 0 3.1-.7 4.2-1.6l1.3 1.9c-1.4 1.2-3.3 2-5.7 2-4.6 0-7.6-3.5-7.6-8.3 0-4.9 2.8-8.3 7.3-8.3 4.2 0 6.8 3.5 6.8 8.3v.8h-11.3zm0-2.1h8.4c-.1-2.5-1.5-4.7-4-4.7-2.6 0-4.3 2.2-4.4 4.7zm16.2-6.7h2.6v1.8c1.1-1.5 2.7-2.1 4.7-2.1 3.6 0 5.3 2.5 5.3 5.4V531h-2.6v-10c0-2.8-1.4-3.9-3.3-3.9-2 0-4.1 1.4-4.1 4.4v9.5h-2.6v-16zm-687.7 58.8h7.6c4.2 0 7.5 2 7.5 6.7 0 2.8-1.6 5.1-4.4 6.2l4.7 9.5h-3.2l-4.3-9H148v9h-2.8v-22.4zm7.8 11c2.6 0 4.4-1.6 4.4-4.3 0-2.8-1.9-4.4-4.4-4.4h-5v8.7h5zm25.8 3.4c0 4.8-2.9 8.3-7.4 8.3-4.4 0-7.4-3.5-7.4-8.3 0-4.9 2.9-8.3 7.4-8.3s7.4 3.4 7.4 8.3zm-2.7.1v-.2c0-3.2-1.6-5.9-4.6-5.9s-4.6 2.7-4.6 5.9v.2c0 3.1 1.6 5.9 4.6 5.9s4.6-2.8 4.6-5.9zm19.7 7.9h-2.6v-10c0-2.8-1.4-3.8-3.2-3.8s-3.5 1.3-3.5 4.4v9.4h-2.6v-16h2.6v1.8c1.1-1.5 2.5-2.1 4.2-2.1 1.4 0 3.5.7 4.3 2.7 1.2-2 3.1-2.7 4.9-2.7 3.5 0 5.4 2.5 5.4 5.3v10.9h-2.6v-10c0-2.8-1.5-3.8-3.3-3.8s-3.5 1.3-3.5 4.4l-.1 9.5zm19.6.3c-3.2 0-5.6-1.9-5.6-4.8 0-2.5 1.7-4.2 4.3-4.5l5.6-.8v-1c0-2.4-1.6-3.2-3.6-3.2-1.8 0-3.4.6-4.6 1.2l-1-2.1c1.8-1 3.9-1.5 5.9-1.5 3.9 0 5.9 1.7 5.9 5.1v7.5c0 1.1.4 1.8 1.3 2.2l-1.5 1.9c-1-.3-1.8-1-2.1-1.9-.9 1-2.5 1.9-4.6 1.9zm0-7.4c-1.8.3-2.9.8-2.9 2.5 0 1.9 1.5 2.9 3.3 2.9 2 0 3.9-1.2 3.9-3.1v-2.9l-4.3.6zm12.8-8.9h2.6v1.8c1.1-1.5 2.7-2.1 4.7-2.1 3.6 0 5.3 2.5 5.3 5.4v10.8h-2.6v-10c0-2.8-1.4-3.9-3.3-3.9-2 0-4.1 1.4-4.1 4.4v9.5h-2.6v-15.9zm35.2 14.4c-.9 1.1-2.5 1.9-4.6 1.9-3.2 0-5.6-1.9-5.6-4.8 0-2.5 1.7-4.2 4.3-4.5l5.6-.8v-1c0-2.4-1.6-3.2-3.6-3.2-1.8 0-3.4.6-4.6 1.2l-1-2.1c1.8-1 3.9-1.5 5.9-1.5 3.9 0 5.9 1.7 5.9 5.1v7.8c0 1 .4 1.9 1.4 1.9 3.3 0 4.2-5.1 4.2-6.7 0-6.8-5.1-11.5-11.6-11.5s-11.8 5.3-11.8 11.8 5.3 11.8 11.8 11.8c1.9 0 3.6-.4 5.2-1.2l1.2 1.3c-1.9 1-4.2 1.5-6.6 1.5-7.5 0-13.5-6-13.5-13.5s6.2-13.5 13.7-13.5c7.5 0 13.2 5.4 13.2 13.2 0 3.4-1.9 8.5-6 8.5-2.5.2-3.2-1.1-3.5-1.7zm-4.6-5.5c-1.8.3-2.9.8-2.9 2.5 0 1.9 1.5 2.9 3.3 2.9 2 0 3.9-1.2 3.9-3.1v-2.9l-4.3.6zm21.5-.1c.2 3 2.1 5.2 5 5.2 1.8 0 3.1-.7 4.2-1.6l1.3 1.9c-1.4 1.2-3.3 2-5.7 2-4.6 0-7.6-3.5-7.6-8.3 0-4.9 2.8-8.3 7.3-8.3 4.2 0 6.8 3.5 6.8 8.3v.8h-11.3zm.1-2.1h8.4c-.1-2.5-1.5-4.7-4-4.7-2.7 0-4.3 2.2-4.4 4.7zm19.4.8-4.9-7.6h3l3.4 5.5 3.3-5.5h3l-4.9 7.6 5.5 8.4h-3.1l-4-6.2-3.6 6.2h-3.1l5.4-8.4zm16.9 8.8c-3.2 0-5.6-1.9-5.6-4.8 0-2.5 1.7-4.2 4.3-4.5l5.6-.8v-1c0-2.4-1.6-3.2-3.6-3.2-1.8 0-3.4.6-4.6 1.2l-1-2.1c1.8-1 3.9-1.5 5.9-1.5 3.9 0 5.9 1.7 5.9 5.1v7.5c0 1.1.4 1.8 1.3 2.2l-1.5 1.9c-1-.3-1.8-1-2.1-1.9-.9 1-2.4 1.9-4.6 1.9zm.1-7.4c-1.8.3-2.9.8-2.9 2.5 0 1.9 1.5 2.9 3.3 2.9 2 0 3.9-1.2 3.9-3.1v-2.9l-4.3.6zm24.7 7.1h-2.6v-10c0-2.8-1.4-3.8-3.2-3.8-1.8 0-3.5 1.3-3.5 4.4v9.4h-2.6v-16h2.6v1.8c1.1-1.5 2.5-2.1 4.2-2.1 1.4 0 3.5.7 4.3 2.7 1.2-2 3.1-2.7 4.9-2.7 3.5 0 5.4 2.5 5.4 5.3v10.9h-2.6v-10c0-2.8-1.5-3.8-3.3-3.8s-3.5 1.3-3.5 4.4l-.1 9.5zm17.9-16v1.8c.9-1.3 2.6-2.1 4.7-2.1 4.1 0 6.8 3.5 6.8 8.3s-2.7 8.3-6.8 8.3c-2 0-3.7-.8-4.7-2.1v6.7h-2.6v-20.8h2.6v-.1zm8.7 7.9c0-3.3-1.6-5.9-4.5-5.9-2.8 0-4.2 2-4.2 4.7v2.6c0 2.7 1.4 4.7 4.2 4.7 2.9 0 4.5-2.6 4.5-5.9v-.2zm7.6-14.3h2.6v18.8c0 1.1.3 1.6 1.5 1.6.7 0 1.2-.1 1.6-.1l.3 2.2s-1.5.2-2.7.2c-1.9 0-3.4-.8-3.4-3.1v-19.6h.1zm11.5 15.2c.2 3 2.1 5.2 5 5.2 1.8 0 3.1-.7 4.2-1.6l1.3 1.9c-1.4 1.2-3.3 2-5.7 2-4.6 0-7.6-3.5-7.6-8.3 0-4.9 2.8-8.3 7.3-8.3 4.2 0 6.8 3.5 6.8 8.3v.8h-11.3zm0-2.1h8.4c-.1-2.5-1.5-4.7-4-4.7-2.6 0-4.3 2.2-4.4 4.7zm17.9 5.3c1.2 0 2.1 1 2.1 2.1 0 1.2-1 2.1-2.1 2.1-1.2 0-2.1-1-2.1-2.1-.1-1.2.9-2.1 2.1-2.1zm9.4-3.9c0 3.2 1.6 5.9 4.6 5.9 2 0 3.3-1.2 4.1-2.7l2.2 1.2c-1.1 2.3-3.4 3.7-6.3 3.7-4.4 0-7.4-3.5-7.4-8.3 0-4.9 2.9-8.3 7.4-8.3 2.9 0 5.2 1.5 6.3 3.7l-2.2 1.2c-.8-1.5-2.1-2.7-4.1-2.7-3.1 0-4.6 2.7-4.6 5.9v.4zm29.3-.1c0 4.8-2.9 8.3-7.4 8.3-4.4 0-7.4-3.5-7.4-8.3 0-4.9 2.9-8.3 7.4-8.3s7.4 3.4 7.4 8.3zm-2.7.1v-.2c0-3.2-1.6-5.9-4.6-5.9s-4.6 2.7-4.6 5.9v.2c0 3.1 1.6 5.9 4.6 5.9s4.6-2.8 4.6-5.9zm19.7 7.9h-2.6v-10c0-2.8-1.4-3.8-3.2-3.8-1.8 0-3.5 1.3-3.5 4.4v9.4h-2.6v-16h2.6v1.8c1.1-1.5 2.5-2.1 4.2-2.1 1.4 0 3.5.7 4.3 2.7 1.2-2 3.1-2.7 4.9-2.7 3.5 0 5.4 2.5 5.4 5.3v10.9h-2.6v-10c0-2.8-1.5-3.8-3.3-3.8s-3.5 1.3-3.5 4.4l-.1 9.5z" class="st7"/><path d="M86.3 378.4v-.2H89v22.4h-2.8v-16.4H82v-2.4h.4c3 0 3.9-1 3.9-3.4zm-7.2 87.4v-2.7c1.7-1.5 6.4-5.4 8.1-6.9 1.8-1.6 3.4-3.6 3.4-6.2 0-2.8-1.8-4.4-4.4-4.4-2.8 0-4.2 1.9-4.4 4.7l-2.9-.2c.1-4.4 3-6.9 7.3-6.9 4.4 0 7.3 2.6 7.3 7 0 3.3-1.7 5.4-6.7 9.7l-4.1 3.5h11v2.5H79.1v-.1zm1.8 59.4c.8 2.1 2.3 3.6 5.2 3.6 3.3 0 4.8-1.9 4.8-4.2 0-2.5-1.9-3.9-5.2-3.9h-1v-2.4h.5c2.9 0 5.3-1 5.3-3.9 0-2.6-2-3.9-4.4-3.9-2.5 0-4.1 1.4-4.9 3.4l-2.5-1c1.2-3.3 4.2-4.8 7.5-4.8 3.9 0 7.2 2.5 7.2 6 0 2.4-1.4 4.5-4.2 5.2 3.2.7 4.6 2.8 4.6 5.4 0 4.4-3.6 6.4-7.7 6.4-3.6 0-6.6-1.7-7.9-5.2l2.7-.7zm7.5 71v-5.8H77.1v-2.8l10.1-13.9h3.9V588h3.7v2.3h-3.7v5.8h-2.7v.1zm0-8.1v-12l-8.6 12h8.6z" class="st8"/><path d="M528.8 573.8h7.6c4.2 0 7.5 2 7.5 6.7 0 2.8-1.6 5.1-4.4 6.2l4.7 9.5H541l-4.3-9h-5.2v9h-2.8l.1-22.4zm7.9 11c2.6 0 4.4-1.6 4.4-4.3 0-2.8-1.9-4.4-4.4-4.4h-5.1v8.7h5.1zm25.9 3.4c0 4.8-2.9 8.3-7.4 8.3-4.4 0-7.4-3.5-7.4-8.3 0-4.9 2.9-8.3 7.4-8.3s7.4 3.4 7.4 8.3zm-2.7.1v-.2c0-3.2-1.6-5.9-4.6-5.9s-4.6 2.7-4.6 5.9v.2c0 3.1 1.6 5.9 4.6 5.9s4.6-2.8 4.6-5.9zm19.8 7.9h-2.6v-10c0-2.8-1.4-3.8-3.2-3.8s-3.5 1.3-3.5 4.4v9.4h-2.6v-16h2.6v1.8c1.1-1.5 2.5-2.1 4.2-2.1 1.4 0 3.5.7 4.3 2.7 1.2-2 3.1-2.7 4.9-2.7 3.5 0 5.4 2.5 5.4 5.3v10.9h-2.6v-10c0-2.8-1.5-3.8-3.3-3.8s-3.5 1.3-3.5 4.4v9.5h-.1zm19.8.3c-3.2 0-5.6-1.9-5.6-4.8 0-2.5 1.7-4.2 4.3-4.5l5.6-.8v-1c0-2.4-1.6-3.2-3.6-3.2-1.8 0-3.4.6-4.6 1.2l-1-2.1c1.8-1 3.9-1.5 5.9-1.5 3.9 0 5.9 1.7 5.9 5.1v7.5c0 1.1.4 1.8 1.3 2.2l-1.5 1.9c-1-.3-1.8-1-2.1-1.9-.9 1-2.5 1.9-4.6 1.9zm0-7.4c-1.8.3-2.9.8-2.9 2.5 0 1.9 1.5 2.9 3.3 2.9 2 0 3.9-1.2 3.9-3.1v-2.9l-4.3.6zm13-8.9h2.6v1.8c1.1-1.5 2.7-2.1 4.7-2.1 3.6 0 5.3 2.5 5.3 5.4v10.8h-2.6v-10c0-2.8-1.4-3.9-3.3-3.9-2 0-4.1 1.4-4.1 4.4v9.5h-2.6v-15.9zm158.2-6.4c3.5 0 6.2 2.2 6.2 5.6 0 2.2-1.5 4.3-3.5 5 2.3.3 4.8 2.2 4.8 5.4 0 4.4-3.5 6.3-7.7 6.3H762v-22.4h8.7v.1zm3.5 5.9c0-2-1.2-3.7-4.4-3.7h-4.9v7.4h4.9c3.1.1 4.4-1.6 4.4-3.7zm-3.6 6.2h-5.8v8h5.8c2.6 0 4.8-1.2 4.8-4.1 0-2.9-2.2-3.9-4.8-3.9zm12.7-12.1h2.6v18.8c0 1.1.3 1.6 1.5 1.6.7 0 1.2-.1 1.6-.1l.3 2.2s-1.5.2-2.7.2c-1.9 0-3.4-.8-3.4-3.1v-19.6h.1zm22.3 22.4H803v-1.8c-1.1 1.5-2.7 2.1-4.7 2.1-3.6 0-5.3-2.5-5.3-5.4v-10.8h2.6v10c0 2.8 1.4 3.9 3.3 3.9 2.2 0 4.1-1.4 4.1-4.4v-9.5h2.6v15.9zm7.9-7.2c.2 3 2.1 5.2 5 5.2 1.8 0 3.1-.7 4.2-1.6l1.3 1.9c-1.4 1.2-3.3 2-5.7 2-4.6 0-7.6-3.5-7.6-8.3 0-4.9 2.8-8.3 7.3-8.3 4.2 0 6.8 3.5 6.8 8.3v.8h-11.3zm0-2.1h8.4c-.1-2.5-1.5-4.7-4-4.7-2.6 0-4.2 2.2-4.4 4.7z" class="st7"/><circle cx="78.4" cy="270" r="8.5" class="st3"/><circle cx="102.1" cy="270" r="8.5" class="st3"/><circle cx="125.9" cy="270" r="8.5" class="st3"/><path d="M956 250H63c-5.5 0-10 4.5-10 10v30h903v-40z" class="st2"/><circle cx="78.4" cy="270" r="8.5" class="st3"/><circle cx="102.1" cy="270" r="8.5" class="st3"/><circle cx="125.9" cy="270" r="8.5" class="st3"/><path d="M505.6 290H120.2v67.2l4-4V294h377.4l4-4z" class="st9"/><path d="M501.6 294v59.2H124.2l-4 4h385.4V290l-4 4z" class="st10"/><path d="M120.2 357.2H53v63.2l4-4v-55.2h59.2l4-4z" class="st9"/><path d="M116.2 361.2v55.2H57l-4 4h67.2v-63.2l-4 4zm-55.2-4V294h59.2v-4H57v67.2h4z" class="st10"/><path d="M120.2 420.4H53v65.2l4-4v-57.2h59.2l4-4z" class="st9"/><path d="M116.2 424.4v57.2H57l-4 4h67.2v-65.2l-4 4z" class="st10"/><path d="M120.2 485.6H53v65.2l4-4v-57.2h59.2l4-4z" class="st9"/><path d="M116.2 489.6v57.2H57l-4 4h67.2v-65.2l-4 4z" class="st10"/><path d="M120.2 550.8H53V616l4-4v-57.2h59.2l4-4z" class="st9"/><path d="M116.2 554.8V612H57l-4 4h67.2v-65.2l-4 4z" class="st10"/><path d="M120.2 616H53v20h4v-16h59.2l4-4z" class="st9"/><path d="M116.2 620v16h4v-20l-4 4z" class="st10"/><path d="M738.8 290H505.6v67.2l4-4V294h225.2l4-4z" class="st9"/><path d="M734.8 294v59.2H509.6l-4 4h233.2V290l-4 4z" class="st10"/><path d="M960 290H738.8v67.2l4-4V294H956l4-4z" class="st9"/><path d="M948 353.2H742.8l-4 4h219v-4H948z" class="st10"/><path d="M0 36v551h54.7v-4H4V40h952v547h4V36H0z" class="st2"/><path d="M53 286v354h907V286H53zm4 350V290h899v346H57z" class="st2"/><circle cx="66.7" cy="62.2" r="2.5" class="st3"/><circle cx="60.1" cy="66.1" r="2.5" class="st3"/><circle cx="55.7" cy="72.6" r="2.5" class="st3"/><circle cx="74.5" cy="70.9" r="2.5" class="st3"/><circle cx="82.3" cy="62.2" r="2.5" class="st3"/><circle cx="88.9" cy="66.1" r="2.5" class="st3"/><circle cx="93.3" cy="72.6" r="2.5" class="st3"/><circle cx="74.5" cy="70.9" r="2.5" class="st3"/><path d="m75.4 57 .3-.3 3.1 1.6v-4.6l-3.1 1-.3-.3 1.3-4h-4.5l1.3 4-.3.3-3.1-1v4.6l3.1-1.6.3.3-1.7 5.4c-.6 1.9.8 3.8 2.7 3.8 2 0 3.4-1.9 2.7-3.8L75.4 57zM78 75.8s-2.3 2.5-2.7 4.1c1.5 0 2.8-.3 4.3-1.9l-.5 5.7c-1.3-1.9-2.9-2.7-3.8-2.5.1 2.1.3 4.5 3.9 4.8 2.5.2 4.5-1 4.7-2.5.3-1.7-1.3-2.9-2.5-1.1-.9-3 1.6-4.1 3.3-2.1-1.3-3-1.2-5.2 1.6-7.3 2 2.7 1.7 4.9-.8 7.4 1.6-.9 4.2 0 2.7 3.1-.8-1.9-2.5-1.5-2.8.1-.2 1.1.5 2.5 2 2.8 1.3.2 3.1-.6 4.7-4-.9 0-1.6.5-2.6 1.1l1.6-5.4c.4 1.5.9 2.5 1.5 3 .4-1.1.3-1.9 0-3.6l3.3 1.2c-1.7 2.4-3.5 5.8-4.9 11.7-5-.7-10.5-1.1-16.4-1.1-5.9 0-11.5.4-16.4 1.1-1.4-6-3.1-9.3-4.9-11.7l3.3-1.2c-.3 1.7-.4 2.5 0 3.6.5-.5 1.1-1.5 1.5-3l1.6 5.4c-1-.7-1.7-1.1-2.6-1.1 1.5 3.3 3.5 4.2 4.7 4 1.5-.3 2.2-1.6 2-2.8-.3-1.6-2-2.1-2.8-.1-1.5-3.1 1.1-4 2.7-3.1-2.5-2.5-2.8-4.8-.8-7.4 2.8 2.1 2.9 4.3 1.6 7.3 1.7-1.9 4.2-.9 3.3 2.1-1.2-1.8-2.7-.7-2.5 1.1.2 1.5 2.2 2.7 4.7 2.5 3.6-.3 3.8-2.8 3.9-4.8-.9-.1-2.5.7-3.8 2.5l-.6-5.7c1.5 1.5 2.8 1.8 4.3 1.9-.5-1.5-2.7-4.1-2.7-4.1h7.1-.2z" class="st3"/><circle cx="205.3" cy="74.5" r="4.9" style="fill:#03ffe0"/><path d="M116.7 74.6c0 1.3.1 2.4.5 3.6.3 1.1.8 2.1 1.4 3 .6.9 1.5 1.6 2.4 2.1 1 .5 2.1.8 3.6.8s2.4-.2 3.3-.6 1.5-.9 2.1-1.5c.5-.6.9-1.3 1.1-2 .2-.7.3-1.4.3-2v-.3H124v-4.4h13v16.1h-5.2v-3.6c-.3.5-.8 1.1-1.3 1.5-.5.5-1.1.9-1.8 1.2s-1.4.6-2.2.8-1.7.3-2.5.3c-2.1 0-4-.4-5.6-1.1-1.7-.7-3-1.8-4.2-3.1s-2-2.9-2.5-4.8c-.6-1.8-.9-3.8-.9-5.8 0-2.1.3-4 1-5.8.7-1.8 1.6-3.4 2.8-4.8 1.2-1.3 2.7-2.4 4.4-3.1 1.7-.7 3.6-1.1 5.8-1.1s2.7.1 4 .5c1.2.3 2.3.7 3.4 1.3 1 .6 1.9 1.3 2.7 2.1.8.8 1.4 1.7 1.9 2.7l-5.2 2.9c-.3-.6-.7-1.2-1.1-1.7-.4-.5-.9-1-1.5-1.4-.5-.4-1.1-.7-1.9-.9-.7-.2-1.5-.3-2.3-.3-1.3 0-2.5.3-3.6.8-1 .5-1.8 1.3-2.4 2.1-.6.9-1.1 1.9-1.4 3.1-.3 1.2-.5 2.3-.5 3.6v.2l-.2-.4zm39-15c2.1 0 4.1.4 5.8 1.1 1.7.8 3.1 1.8 4.4 3.1 1.2 1.3 2.1 2.9 2.7 4.8s.9 3.8.9 5.8c0 2.1-.3 4-.9 5.8-.6 1.8-1.5 3.4-2.7 4.8-1.2 1.3-2.7 2.4-4.4 3.1-1.7.7-3.7 1.1-5.8 1.1s-4.1-.4-5.8-1.1c-1.7-.7-3.1-1.8-4.4-3.1-1.2-1.3-2.1-2.9-2.7-4.8-.6-1.8-.9-3.8-.9-5.8 0-2.1.3-4 .9-5.8.6-1.8 1.5-3.4 2.7-4.8 1.2-1.3 2.7-2.4 4.4-3.1s3.6-1.1 5.8-1.1zm0 24.6c1.3 0 2.4-.3 3.4-.7.9-.5 1.8-1.1 2.4-2 .7-.9 1.1-1.9 1.5-3 .3-1.1.5-2.4.5-3.8v-.1c0-1.3-.2-2.6-.5-3.8-.3-1.1-.9-2.2-1.5-3-.7-.9-1.5-1.5-2.4-2-.9-.5-2.1-.7-3.4-.7s-2.4.3-3.3.7c-1 .5-1.8 1.1-2.4 2-.6.9-1.1 1.9-1.5 3-.3 1.1-.5 2.4-.5 3.8v.1c0 1.4.2 2.7.5 3.8.3 1.1.8 2.1 1.5 3s1.5 1.5 2.4 2c.9.4 2 .7 3.3.7zm24.2 5.1-8.2-29.5h6.6l5.6 22h.2l5.5-22h6.5l-8.2 29.5m41.5-5.1c.9 0 1.7-.1 2.4-.4.7-.3 1.3-.6 1.9-1.1.5-.5.9-1.1 1.3-1.9s.5-1.7.5-2.7V59.8h5.8v19.1c0 1.6-.3 3.1-.9 4.4-.6 1.3-1.4 2.4-2.5 3.3-1.1.9-2.3 1.6-3.8 2.1s-3 .7-4.8.7-3.3-.3-4.8-.7c-1.5-.5-2.7-1.2-3.8-2.1-1.1-.9-1.9-2-2.5-3.3-.6-1.3-.9-2.7-.9-4.4V59.8h5.8V78c0 1.1.1 1.9.5 2.7.3.8.7 1.4 1.3 1.9.5.5 1.1.9 1.9 1.1.9.4 1.7.5 2.6.5zm17.1-24.4h5.8v12.8l10.4-12.8h7.2l-10.1 11.8 10.8 17.7h-6.8l-7.7-13.2-3.8 4.2v9h-5.8M289.1 63.9v25.5h-3.6V60.1h5.2L306 84.2V60.1h3.6v29.3h-4.4l-16.1-25.5zm45.5 15c0 6.3-3.8 10.8-9.6 10.8s-9.6-4.6-9.6-10.8c0-6.4 3.8-10.8 9.6-10.8s9.6 4.4 9.6 10.8zm-3.6.2v-.2c0-4.2-2.1-7.8-6-7.8s-6 3.6-6 7.8v.2c0 4.1 2.1 7.8 6 7.8 3.9-.1 6-3.8 6-7.8zm14.1 5c0 1.4.2 2.6 2.7 2.6.6 0 2-.1 2.6-.2l.4 3s-2 .2-3.7.2c-3.3 0-5.4-1.4-5.4-4.8V71.4h-3.9v-3h3.9v-6.8l3.4-1.2v8h5.8v3h-5.8v12.7zm12.2-24c1.4 0 2.5 1.2 2.5 2.6 0 1.5-1.1 2.6-2.5 2.6-1.5 0-2.6-1.1-2.6-2.6s1.1-2.6 2.6-2.6zm1.6 29.3h-3.4V68.5h3.4v20.9zm11.7-20.9h4.2v3h-4.2v17.9h-3.4v-18h-3.4v-3h3.4v-3.9c0-3.6 2.5-4.9 5.8-4.9 1.7 0 2.8.2 3.3.2l-.2 3c-.7-.1-2.3-.1-3-.1-2 0-2.5 1.2-2.5 2.5v3.3zm6.5 0h3.9l5.2 17.2 4.9-17.2h3.8l-7.6 24c-.9 3-3 3.7-5.5 3.7-1.1 0-2.3-.1-3.7-.4l.5-3s1.5.2 2.7.2c1.5 0 2.3-.6 2.6-2.1l.2-1-7-21.4z" class="st3"/></g></svg>
