<?xml version="1.0" encoding="UTF-8"?>
<svg width="960px" height="640px" viewBox="0 0 960 640" version="1.1" xmlns="http://www.w3.org/2000/svg" xmlns:xlink="http://www.w3.org/1999/xlink">
    <title>03-spreadsheet</title>
    <g id="03-spreadsheet" stroke="none" fill="none" fill-rule="evenodd" stroke-width="1">
        <g id="Layer_1">
            <polygon id="Path" fill="#B4B4B4" fill-rule="nonzero" points="113.6 352.9 120.2 352.9 120.2 357.2 113.6 357.2"></polygon>
            <polygon id="Path" fill="#B4B4B4" fill-rule="nonzero" points="57 290.2 116.2 290.2 116.2 636 57 636"></polygon>
            <polygon id="Path" fill="#B4B4B4" fill-rule="nonzero" points="57 290 956 290 956 355.2 57 355.2"></polygon>
            <path d="M57,420.4 L956,420.4 M505.6,287.8 L505.6,638.2 M738.8,287.8 L738.8,638.2 M57,485.6 L956,485.6 M956,616 L57,616 M57,550.8 L956,550.8" id="Shape" stroke="#DADADA" stroke-width="4"></path>
            <path d="M0,40 L0,10 C0,4.5 4.5,0 10,0 L950,0 C955.5,0 960,4.5 960,10 L960,40" id="Path" fill="#DADADA" fill-rule="nonzero"></path>
            <circle id="Oval" fill="#FFFFFF" fill-rule="nonzero" cx="25.4" cy="20" r="8.5"></circle>
            <circle id="Oval" fill="#FFFFFF" fill-rule="nonzero" cx="49.1" cy="20" r="8.5"></circle>
            <circle id="Oval" fill="#FFFFFF" fill-rule="nonzero" cx="72.9" cy="20" r="8.5"></circle>
            <g id="header" transform="translate(1, 40)">
                <polygon id="Path" fill="#154273" fill-rule="nonzero" points="0 0 958 0 958 65 0 65"></polygon>
                <g id="Notify-NL" stroke-width="1" fill-rule="evenodd" transform="translate(54, 6)" fill="#FFFFFF">
                    <path d="M20.988,43 L16.416,43 L6.336,21.94 C6.48,23.596 6.594,25.126 6.678,26.53 C6.762,27.934 6.804,29.632 6.804,31.624 L6.804,43 L3.6,43 L3.6,18.196 L8.064,18.196 L18.252,39.292 C18.18,38.668 18.084,37.576 17.964,36.016 C17.844,34.456 17.784,33.028 17.784,31.732 L17.784,18.196 L20.988,18.196 L20.988,43 Z" id="Path" fill-rule="nonzero"></path>
                    <path d="M35.136,23.596 C37.8,23.596 39.87,24.484 41.346,26.26 C42.822,28.036 43.56,30.448 43.56,33.496 C43.56,35.464 43.224,37.198 42.552,38.698 C41.88,40.198 40.908,41.362 39.636,42.19 C38.364,43.018 36.852,43.432 35.1,43.432 C32.436,43.432 30.36,42.544 28.872,40.768 C27.384,38.992 26.64,36.58 26.64,33.532 C26.64,31.564 26.976,29.83 27.648,28.33 C28.32,26.83 29.292,25.666 30.564,24.838 C31.836,24.01 33.36,23.596 35.136,23.596 Z M35.136,26.26 C31.848,26.26 30.204,28.684 30.204,33.532 C30.204,38.356 31.836,40.768 35.1,40.768 C38.364,40.768 39.996,38.344 39.996,33.496 C39.996,28.672 38.376,26.26 35.136,26.26 Z" id="Shape" fill-rule="nonzero"></path>
                    <path d="M58.608,42.136 C57.36,43 55.944,43.432 54.36,43.432 C52.752,43.432 51.498,42.97 50.598,42.046 C49.698,41.122 49.248,39.784 49.248,38.032 L49.248,26.584 L45.936,26.584 L45.936,24.028 L49.248,24.028 L49.248,19.744 L52.56,19.348 L52.56,24.028 L57.06,24.028 L56.7,26.584 L52.56,26.584 L52.56,37.888 C52.56,38.872 52.734,39.586 53.082,40.03 C53.43,40.474 54.012,40.696 54.828,40.696 C55.62,40.696 56.46,40.42 57.348,39.868 L58.608,42.136 Z" id="Path" fill-rule="nonzero"></path>
                    <path d="M65.34,43 L62.028,43 L62.028,24.028 L65.34,24.028 L65.34,43 Z M63.648,14.92 C64.344,14.92 64.908,15.136 65.34,15.568 C65.772,16 65.988,16.54 65.988,17.188 C65.988,17.836 65.772,18.37 65.34,18.79 C64.908,19.21 64.344,19.42 63.648,19.42 C62.976,19.42 62.424,19.21 61.992,18.79 C61.56,18.37 61.344,17.836 61.344,17.188 C61.344,16.54 61.56,16 61.992,15.568 C62.424,15.136 62.976,14.92 63.648,14.92 Z" id="Shape" fill-rule="nonzero"></path>
                    <path d="M78.624,18.664 C77.616,18.664 76.896,18.886 76.464,19.33 C76.032,19.774 75.816,20.464 75.816,21.4 L75.816,24.028 L80.424,24.028 L80.064,26.584 L75.816,26.584 L75.816,43 L72.504,43 L72.504,26.584 L69.12,26.584 L69.12,24.028 L72.504,24.028 L72.504,21.436 C72.504,19.804 73.026,18.49 74.07,17.494 C75.114,16.498 76.572,16 78.444,16 C79.308,16 80.082,16.078 80.766,16.234 C81.45,16.39 82.188,16.636 82.98,16.972 L81.936,19.384 C80.856,18.904 79.752,18.664 78.624,18.664 Z" id="Path" fill-rule="nonzero"></path>
                    <path d="M91.836,43.108 C91.092,45.316 90.054,47.062 88.722,48.346 C87.39,49.63 85.488,50.404 83.016,50.668 L82.656,48.076 C83.904,47.86 84.9,47.548 85.644,47.14 C86.388,46.732 86.982,46.21 87.426,45.574 C87.87,44.938 88.284,44.08 88.668,43 L87.552,43 L81.18,24.028 L84.708,24.028 L89.784,40.588 L94.752,24.028 L98.172,24.028 L91.836,43.108 Z" id="Path" fill-rule="nonzero"></path>
                    <path d="M119.736,43 L112.932,43 L105.012,23.236 C105.228,24.94 105.402,26.542 105.534,28.042 C105.666,29.542 105.732,31.3 105.732,33.316 L105.732,43 L100.944,43 L100.944,18.088 L107.604,18.088 L115.668,37.888 C115.188,34.672 114.948,31.72 114.948,29.032 L114.948,18.088 L119.736,18.088 L119.736,43 Z" id="Path" fill-rule="nonzero"></path>
                    <polygon id="Path" fill-rule="nonzero" points="130.284 38.752 140.148 38.752 139.572 43 124.992 43 124.992 18.088 130.284 18.088"></polygon>
                </g>
            </g>
            <polygon id="Path" fill="#004A1E" fill-rule="nonzero" points="55 154.9 364.9 154.9 364.9 215.6 55 215.6"></polygon>
            <polygon id="Path" fill="#00823B" fill-rule="nonzero" points="55 148 364.9 148 364.9 208.7 55 208.7"></polygon>
            <text id="Upload-recipients" fill="#FFFFFF" fill-rule="nonzero" font-family="FiraSans-Regular, Fira Sans" font-size="30" font-weight="normal">
                <tspan x="89" y="188">Upload recipients</tspan>
            </text>
            <path d="M145.2,378.2 L158.6,378.2 L158.6,380.6 L148,380.6 L148,388 L157.8,388 L157.8,390.4 L148,390.4 L148,398.3 L159.3,398.3 L159.3,400.7 L145.3,400.7 L145.3,378.2 L145.2,378.2 Z M176.1,400.6 L173.5,400.6 L173.5,390.6 C173.5,387.8 172.1,386.8 170.3,386.8 C168.5,386.8 166.8,388.1 166.8,391.2 L166.8,400.6 L164.2,400.6 L164.2,384.6 L166.8,384.6 L166.8,386.4 C167.9,384.9 169.3,384.3 171,384.3 C172.4,384.3 174.5,385 175.3,387 C176.5,385 178.4,384.3 180.2,384.3 C183.7,384.3 185.6,386.8 185.6,389.6 L185.6,400.5 L183,400.5 L183,390.5 C183,387.7 181.5,386.7 179.7,386.7 C177.9,386.7 176.2,388 176.2,391.1 L176.2,400.6 L176.1,400.6 Z M195.7,400.9 C192.5,400.9 190.1,399 190.1,396.1 C190.1,393.6 191.8,391.9 194.4,391.6 L200,390.8 L200,389.8 C200,387.4 198.4,386.6 196.4,386.6 C194.6,386.6 193,387.2 191.8,387.8 L190.8,385.7 C192.6,384.7 194.7,384.2 196.7,384.2 C200.6,384.2 202.6,385.9 202.6,389.3 L202.6,396.8 C202.6,397.9 203,398.6 203.9,399 L202.4,400.9 C201.4,400.6 200.6,399.9 200.3,399 C199.4,400 197.9,400.9 195.7,400.9 L195.7,400.9 Z M195.7,393.5 C193.9,393.8 192.8,394.3 192.8,396 C192.8,397.9 194.3,398.9 196.1,398.9 C198.1,398.9 200,397.7 200,395.8 L200,392.9 L195.7,393.5 Z M209.9,378.2 C211,378.2 211.8,379.1 211.8,380.2 C211.8,381.3 210.9,382.2 209.9,382.2 C208.8,382.2 207.9,381.3 207.9,380.2 C207.9,379.1 208.8,378.2 209.9,378.2 Z M211.2,400.6 L208.6,400.6 L208.6,384.6 L211.2,384.6 L211.2,400.6 Z M217,378.2 L219.6,378.2 L219.6,397 C219.6,398.1 219.9,398.6 221.1,398.6 C221.8,398.6 222.3,398.5 222.7,398.5 L223,400.7 C223,400.7 221.5,400.9 220.3,400.9 C218.4,400.9 216.9,400.1 216.9,397.8 L216.9,378.2 L217,378.2 Z M239.4,400.9 C236.2,400.9 233.8,399 233.8,396.1 C233.8,393.6 235.5,391.9 238.1,391.6 L243.7,390.8 L243.7,389.8 C243.7,387.4 242.1,386.6 240.1,386.6 C238.3,386.6 236.7,387.2 235.5,387.8 L234.5,385.7 C236.3,384.7 238.4,384.2 240.4,384.2 C244.3,384.2 246.3,385.9 246.3,389.3 L246.3,396.8 C246.3,397.9 246.7,398.6 247.6,399 L246.1,400.9 C245.1,400.6 244.3,399.9 244,399 C243.1,400 241.5,400.9 239.4,400.9 L239.4,400.9 Z M239.4,393.5 C237.6,393.8 236.5,394.3 236.5,396 C236.5,397.9 238,398.9 239.8,398.9 C241.8,398.9 243.7,397.7 243.7,395.8 L243.7,392.9 L239.4,393.5 Z M262.7,398.7 C261.8,400 260.1,400.8 258,400.8 C253.9,400.8 251.2,397.3 251.2,392.5 C251.2,387.7 253.9,384.2 258,384.2 C260,384.2 261.7,385 262.7,386.3 L262.7,378 L265.3,378 L265.3,400.4 L262.7,400.4 L262.7,398.7 Z M254,392.7 C254,396 255.6,398.6 258.5,398.6 C261.3,398.6 262.7,396.6 262.7,393.9 L262.7,391.3 C262.7,388.6 261.3,386.6 258.5,386.6 C255.6,386.6 254,389.2 254,392.5 L254,392.7 L254,392.7 Z M281.8,398.7 C280.9,400 279.2,400.8 277.1,400.8 C273,400.8 270.3,397.3 270.3,392.5 C270.3,387.7 273,384.2 277.1,384.2 C279.1,384.2 280.8,385 281.8,386.3 L281.8,378 L284.4,378 L284.4,400.4 L281.8,400.4 L281.8,398.7 Z M273.1,392.7 C273.1,396 274.7,398.6 277.6,398.6 C280.4,398.6 281.8,396.6 281.8,393.9 L281.8,391.3 C281.8,388.6 280.4,386.6 277.6,386.6 C274.7,386.6 273.1,389.2 273.1,392.5 L273.1,392.7 L273.1,392.7 Z M298.5,386.9 L298.1,386.9 C295.4,386.9 293,388 293,392.3 L293,400.5 L290.4,400.5 L290.4,384.5 L293,384.5 L293,387 C293.8,385.1 295.8,384.2 297.8,384.2 L298.6,384.2 L298.6,386.9 L298.5,386.9 Z M304.1,393.4 C304.3,396.4 306.2,398.6 309.1,398.6 C310.9,398.6 312.2,397.9 313.3,397 L314.6,398.9 C313.2,400.1 311.3,400.9 308.9,400.9 C304.3,400.9 301.3,397.4 301.3,392.6 C301.3,387.7 304.1,384.3 308.6,384.3 C312.8,384.3 315.4,387.8 315.4,392.6 L315.4,393.4 L304.1,393.4 L304.1,393.4 Z M304.1,391.3 L312.5,391.3 C312.4,388.8 311,386.6 308.5,386.6 C305.9,386.6 304.3,388.8 304.1,391.3 Z M318.8,398.6 L320.4,396.7 C321.4,397.6 323.1,398.7 325.2,398.7 C327,398.7 328.4,397.9 328.4,396.3 C328.4,394.6 326.7,394.2 324.5,393.6 C322.2,393 319.5,392.2 319.5,388.9 C319.5,386.2 322,384.3 325.3,384.3 C327.4,384.3 329.7,385.2 330.8,386.3 L329.3,388.1 C328.4,387.2 327,386.6 325.4,386.6 C323.3,386.6 322.2,387.5 322.2,389 C322.2,390.2 323.1,390.7 324.5,391.1 C325.3,391.3 326.3,391.6 327.1,391.9 C329.2,392.6 331,393.7 331,396.3 C331,399.6 328.1,401.1 325,401.1 C322.9,400.9 320.6,400.1 318.8,398.6 L318.8,398.6 Z M334.7,398.6 L336.3,396.7 C337.3,397.6 339,398.7 341.1,398.7 C342.9,398.7 344.3,397.9 344.3,396.3 C344.3,394.6 342.6,394.2 340.4,393.6 C338.1,393 335.4,392.2 335.4,388.9 C335.4,386.2 337.9,384.3 341.2,384.3 C343.3,384.3 345.6,385.2 346.7,386.3 L345.2,388.1 C344.3,387.2 342.9,386.6 341.3,386.6 C339.2,386.6 338.1,387.5 338.1,389 C338.1,390.2 339,390.7 340.4,391.1 C341.2,391.3 342.2,391.6 343,391.9 C345.1,392.6 346.9,393.7 346.9,396.3 C346.9,399.6 344,401.1 340.9,401.1 C338.8,400.9 336.4,400.1 334.7,398.6 L334.7,398.6 Z M531.5,381.1 L531.5,400.6 L528.8,400.6 L528.8,378.2 L532.8,378.2 L544.4,396.7 L544.4,378.2 L547.1,378.2 L547.1,400.6 L543.7,400.6 L531.5,381.1 Z M558,400.9 C554.8,400.9 552.4,399 552.4,396.1 C552.4,393.6 554.1,391.9 556.7,391.6 L562.3,390.8 L562.3,389.8 C562.3,387.4 560.7,386.6 558.7,386.6 C556.9,386.6 555.3,387.2 554.1,387.8 L553.1,385.7 C554.9,384.7 557,384.2 559,384.2 C562.9,384.2 564.9,385.9 564.9,389.3 L564.9,396.8 C564.9,397.9 565.3,398.6 566.2,399 L564.7,400.9 C563.7,400.6 562.9,399.9 562.6,399 C561.7,400 560.1,400.9 558,400.9 L558,400.9 Z M558,393.5 C556.2,393.8 555.1,394.3 555.1,396 C555.1,397.9 556.6,398.9 558.4,398.9 C560.4,398.9 562.3,397.7 562.3,395.8 L562.3,392.9 L558,393.5 Z M583,400.6 L580.4,400.6 L580.4,390.6 C580.4,387.8 579,386.8 577.2,386.8 C575.4,386.8 573.7,388.1 573.7,391.2 L573.7,400.6 L571,400.6 L571,384.6 L573.6,384.6 L573.6,386.4 C574.7,384.9 576.1,384.3 577.8,384.3 C579.2,384.3 581.3,385 582.1,387 C583.3,385 585.2,384.3 587,384.3 C590.5,384.3 592.4,386.8 592.4,389.6 L592.4,400.5 L589.8,400.5 L589.8,390.5 C589.8,387.7 588.3,386.7 586.5,386.7 C584.7,386.7 583,388 583,391.1 L583,400.6 L583,400.6 Z M600.1,393.4 C600.3,396.4 602.2,398.6 605.1,398.6 C606.9,398.6 608.2,397.9 609.3,397 L610.6,398.9 C609.2,400.1 607.3,400.9 604.9,400.9 C600.3,400.9 597.3,397.4 597.3,392.6 C597.3,387.7 600.1,384.3 604.6,384.3 C608.8,384.3 611.4,387.8 611.4,392.6 L611.4,393.4 L600.1,393.4 L600.1,393.4 Z M600.1,391.3 L608.5,391.3 C608.4,388.8 607,386.6 604.5,386.6 C601.9,386.6 600.3,388.8 600.1,391.3 Z M770.5,377.9 C774.7,377.9 777.5,380.2 778.9,383.7 L776.3,384.6 C775.6,382.6 773.7,380.3 770.6,380.3 C765.9,380.3 763.8,384.6 763.8,389.2 L763.8,389.6 C763.8,394.2 766,398.5 770.6,398.5 C773.7,398.5 775.7,396.3 776.3,394.2 L778.9,395.1 C777.6,398.6 774.7,400.9 770.5,400.9 C764.5,400.9 760.7,395.8 760.7,389.4 C760.7,383 764.4,377.9 770.5,377.9 L770.5,377.9 Z M797.7,392.6 C797.7,397.4 794.8,400.9 790.3,400.9 C785.9,400.9 782.9,397.4 782.9,392.6 C782.9,387.7 785.8,384.3 790.3,384.3 C794.7,384.3 797.7,387.7 797.7,392.6 Z M795,392.7 L795,392.5 C795,389.3 793.4,386.6 790.4,386.6 C787.4,386.6 785.8,389.3 785.8,392.5 L785.8,392.7 C785.8,395.8 787.4,398.6 790.4,398.6 C793.4,398.6 795,395.8 795,392.7 Z M802.7,378.2 L805.3,378.2 L805.3,397 C805.3,398.1 805.6,398.6 806.8,398.6 C807.5,398.6 808,398.5 808.4,398.5 L808.7,400.7 C808.7,400.7 807.2,400.9 806,400.9 C804.1,400.9 802.6,400.1 802.6,397.8 L802.6,378.2 L802.7,378.2 Z M826.3,392.6 C826.3,397.4 823.4,400.9 818.9,400.9 C814.5,400.9 811.5,397.4 811.5,392.6 C811.5,387.7 814.4,384.3 818.9,384.3 C823.4,384.3 826.3,387.7 826.3,392.6 Z M823.6,392.7 L823.6,392.5 C823.6,389.3 822,386.6 819,386.6 C816,386.6 814.4,389.3 814.4,392.5 L814.4,392.7 C814.4,395.8 816,398.6 819,398.6 C822,398.6 823.6,395.8 823.6,392.7 Z M843.9,400.6 L841.3,400.6 L841.3,398.8 C840.2,400.3 838.6,400.9 836.6,400.9 C833,400.9 831.3,398.4 831.3,395.5 L831.3,384.7 L833.9,384.7 L833.9,394.7 C833.9,397.5 835.3,398.6 837.2,398.6 C839.4,398.6 841.3,397.2 841.3,394.2 L841.3,384.7 L843.9,384.7 L843.9,400.6 Z M858.2,386.9 L857.8,386.9 C855.1,386.9 852.7,388 852.7,392.3 L852.7,400.5 L850,400.5 L850,384.5 L852.6,384.5 L852.6,387 C853.4,385.1 855.4,384.2 857.4,384.2 L858.2,384.2 L858.2,386.9 L858.2,386.9 Z" id="Shape" fill="#232323" fill-rule="nonzero"></path>
            <path d="M155.5,330.3 L146.5,330.3 L145,335.4 L142.1,335.4 L149,313 L153,313 L160,335.4 L157,335.4 L155.5,330.3 L155.5,330.3 Z M147.2,328 L154.8,328 L151.1,315.5 L150.8,315.5 L147.2,328 Z M537.6,313 C541.1,313 543.8,315.2 543.8,318.6 C543.8,320.8 542.3,322.9 540.3,323.6 C542.6,323.9 545.1,325.8 545.1,329 C545.1,333.4 541.6,335.3 537.4,335.3 L528.9,335.3 L528.9,313 L537.6,313 Z M541,318.9 C541,316.9 539.8,315.2 536.6,315.2 L531.7,315.2 L531.7,322.6 L536.6,322.6 C539.7,322.7 541,321 541,318.9 Z M537.4,325.1 L531.6,325.1 L531.6,333.1 L537.4,333.1 C540,333.1 542.2,331.9 542.2,329 C542.2,326.1 540,325.1 537.4,325.1 Z M770.5,312.7 C774.7,312.7 777.5,315 778.9,318.5 L776.3,319.4 C775.6,317.4 773.7,315.1 770.6,315.1 C765.9,315.1 763.8,319.4 763.8,324 L763.8,324.4 C763.8,329 766,333.3 770.6,333.3 C773.7,333.3 775.7,331.1 776.3,329 L778.9,329.9 C777.6,333.4 774.7,335.7 770.5,335.7 C764.5,335.7 760.7,330.6 760.7,324.2 C760.7,317.8 764.4,312.7 770.5,312.7 L770.5,312.7 Z" id="Shape" fill="#4B4B4B" fill-rule="nonzero"></path>
            <path d="M143.2,463.2 C143.2,463.2 145,463.8 146.1,463.8 C149.3,463.8 149.6,462.4 149.6,459.4 L149.6,443.4 L152.4,443.4 L152.4,461.2 C152.4,464.9 149.5,466.1 146.4,466.1 C145,466.1 143.6,465.8 142.4,465.5 L143.2,463.2 L143.2,463.2 Z M172.3,457.8 C172.3,462.6 169.4,466.1 164.9,466.1 C160.5,466.1 157.5,462.6 157.5,457.8 C157.5,452.9 160.4,449.5 164.9,449.5 C169.3,449.5 172.3,452.9 172.3,457.8 Z M169.5,457.9 L169.5,457.7 C169.5,454.5 167.9,451.8 164.9,451.8 C161.9,451.8 160.3,454.5 160.3,457.7 L160.3,457.9 C160.3,461 161.9,463.8 164.9,463.8 C167.9,463.8 169.5,461 169.5,457.9 Z M175.8,463.8 L177.4,461.9 C178.4,462.8 180.1,463.9 182.2,463.9 C184,463.9 185.4,463.1 185.4,461.5 C185.4,459.8 183.7,459.4 181.5,458.8 C179.2,458.2 176.5,457.4 176.5,454.1 C176.5,451.4 179,449.5 182.3,449.5 C184.4,449.5 186.7,450.4 187.8,451.5 L186.3,453.3 C185.4,452.4 184,451.8 182.4,451.8 C180.3,451.8 179.2,452.7 179.2,454.2 C179.2,455.4 180.1,455.9 181.5,456.3 C182.3,456.5 183.3,456.8 184.1,457.1 C186.2,457.8 188,458.9 188,461.5 C188,464.8 185.1,466.3 182,466.3 C180,466.1 177.6,465.4 175.8,463.8 L175.8,463.8 Z M193.1,443.4 L195.7,443.4 L195.7,451.7 C196.8,450.2 198.4,449.6 200.4,449.6 C204,449.6 205.7,452.1 205.7,455 L205.7,465.8 L203.1,465.8 L203.1,455.8 C203.1,453 201.7,451.9 199.8,451.9 C197.8,451.9 195.7,453.3 195.7,456.3 L195.7,465.8 L193.1,465.8 L193.1,443.4 Z M228.3,464.2 C227.4,465.3 225.8,466.1 223.7,466.1 C220.5,466.1 218.1,464.2 218.1,461.3 C218.1,458.8 219.8,457.1 222.4,456.8 L228,456 L228,455 C228,452.6 226.4,451.8 224.4,451.8 C222.6,451.8 221,452.4 219.8,453 L218.8,450.9 C220.6,449.9 222.7,449.4 224.7,449.4 C228.6,449.4 230.6,451.1 230.6,454.5 L230.6,462.3 C230.6,463.3 231,464.2 232,464.2 C235.3,464.2 236.2,459.1 236.2,457.5 C236.2,450.7 231.1,446 224.6,446 C218.1,446 212.8,451.3 212.8,457.8 C212.8,464.3 218.1,469.6 224.6,469.6 C226.5,469.6 228.2,469.2 229.8,468.4 L231,469.7 C229.1,470.7 226.8,471.2 224.4,471.2 C216.9,471.2 210.9,465.2 210.9,457.7 C210.9,450.2 217.1,444.2 224.6,444.2 C232.1,444.2 237.8,449.6 237.8,457.4 C237.8,460.8 235.9,465.9 231.8,465.9 C229.3,466.1 228.5,464.9 228.3,464.2 Z M223.6,458.7 C221.8,459 220.7,459.5 220.7,461.2 C220.7,463.1 222.2,464.1 224,464.1 C226,464.1 227.9,462.9 227.9,461 L227.9,458 L223.6,458.7 L223.6,458.7 Z M245.2,458.6 C245.4,461.6 247.3,463.8 250.2,463.8 C252,463.8 253.3,463.1 254.4,462.2 L255.7,464.1 C254.3,465.3 252.4,466.1 250,466.1 C245.4,466.1 242.4,462.6 242.4,457.8 C242.4,452.9 245.2,449.5 249.7,449.5 C253.9,449.5 256.5,453 256.5,457.8 L256.5,458.6 L245.2,458.6 L245.2,458.6 Z M245.2,456.5 L253.6,456.5 C253.5,454 252.1,451.8 249.6,451.8 C247,451.8 245.3,454.1 245.2,456.5 Z M264.7,457.4 L259.8,449.8 L262.8,449.8 L266.2,455.3 L269.5,449.8 L272.5,449.8 L267.6,457.4 L273.1,465.8 L270,465.8 L266,459.6 L262.4,465.8 L259.3,465.8 L264.7,457.4 L264.7,457.4 Z M281.6,466.1 C278.4,466.1 276,464.2 276,461.3 C276,458.8 277.7,457.1 280.3,456.8 L285.9,456 L285.9,455 C285.9,452.6 284.3,451.8 282.3,451.8 C280.5,451.8 278.9,452.4 277.7,453 L276.7,450.9 C278.5,449.9 280.6,449.4 282.6,449.4 C286.5,449.4 288.5,451.1 288.5,454.5 L288.5,462 C288.5,463.1 288.9,463.8 289.8,464.2 L288.3,466.1 C287.3,465.8 286.5,465.1 286.2,464.2 C285.3,465.3 283.7,466.1 281.6,466.1 L281.6,466.1 Z M281.6,458.7 C279.8,459 278.7,459.5 278.7,461.2 C278.7,463.1 280.2,464.1 282,464.1 C284,464.1 285.9,462.9 285.9,461 L285.9,458 L281.6,458.7 L281.6,458.7 Z M306.4,465.8 L303.8,465.8 L303.8,455.8 C303.8,453 302.4,452 300.6,452 C298.8,452 297.1,453.3 297.1,456.4 L297.1,465.8 L294.5,465.8 L294.5,449.8 L297.1,449.8 L297.1,451.6 C298.2,450.1 299.6,449.5 301.3,449.5 C302.7,449.5 304.8,450.2 305.6,452.2 C306.8,450.2 308.7,449.5 310.5,449.5 C314,449.5 315.9,452 315.9,454.8 L315.9,465.7 L313.3,465.7 L313.3,455.7 C313.3,452.9 311.8,451.9 310,451.9 C308.2,451.9 306.5,453.2 306.5,456.3 L306.5,465.8 L306.4,465.8 Z M324.2,449.8 L324.2,451.6 C325.1,450.3 326.8,449.5 328.9,449.5 C333,449.5 335.7,453 335.7,457.8 C335.7,462.6 333,466.1 328.9,466.1 C326.9,466.1 325.2,465.3 324.2,464 L324.2,470.7 L321.6,470.7 L321.6,449.9 L324.2,449.9 L324.2,449.8 Z M333,457.7 C333,454.4 331.4,451.8 328.5,451.8 C325.7,451.8 324.3,453.8 324.3,456.5 L324.3,459.1 C324.3,461.8 325.7,463.8 328.5,463.8 C331.4,463.8 333,461.2 333,457.9 L333,457.7 L333,457.7 Z M340.6,443.4 L343.2,443.4 L343.2,462.2 C343.2,463.3 343.5,463.8 344.7,463.8 C345.4,463.8 345.9,463.7 346.3,463.7 L346.6,465.9 C346.6,465.9 345.1,466.1 343.9,466.1 C342,466.1 340.5,465.3 340.5,463 L340.5,443.4 L340.6,443.4 Z M352,458.6 C352.2,461.6 354.1,463.8 357,463.8 C358.8,463.8 360.1,463.1 361.2,462.2 L362.5,464.1 C361.1,465.3 359.2,466.1 356.8,466.1 C352.2,466.1 349.2,462.6 349.2,457.8 C349.2,452.9 352,449.5 356.5,449.5 C360.7,449.5 363.3,453 363.3,457.8 L363.3,458.6 L352,458.6 L352,458.6 Z M352.1,456.5 L360.5,456.5 C360.4,454 359,451.8 356.5,451.8 C353.9,451.8 352.2,454.1 352.1,456.5 Z M369.9,461.8 C371.1,461.8 372,462.8 372,463.9 C372,465.1 371,466 369.9,466 C368.7,466 367.8,465 367.8,463.9 C367.8,462.8 368.7,461.8 369.9,461.8 Z M379.4,457.9 C379.4,461.1 381,463.8 384,463.8 C386,463.8 387.3,462.6 388.1,461.1 L390.3,462.3 C389.2,464.6 386.9,466 384,466 C379.6,466 376.6,462.5 376.6,457.7 C376.6,452.8 379.5,449.4 384,449.4 C386.9,449.4 389.2,450.9 390.3,453.1 L388.1,454.3 C387.3,452.8 386,451.6 384,451.6 C380.9,451.6 379.4,454.3 379.4,457.5 L379.4,457.9 L379.4,457.9 Z M408.7,457.8 C408.7,462.6 405.8,466.1 401.3,466.1 C396.9,466.1 393.9,462.6 393.9,457.8 C393.9,452.9 396.8,449.5 401.3,449.5 C405.8,449.5 408.7,452.9 408.7,457.8 Z M406,457.9 L406,457.7 C406,454.5 404.4,451.8 401.4,451.8 C398.4,451.8 396.8,454.5 396.8,457.7 L396.8,457.9 C396.8,461 398.4,463.8 401.4,463.8 C404.4,463.8 406,461 406,457.9 Z M425.6,465.8 L423,465.8 L423,455.8 C423,453 421.6,452 419.8,452 C418,452 416.3,453.3 416.3,456.4 L416.3,465.8 L413.7,465.8 L413.7,449.8 L416.3,449.8 L416.3,451.6 C417.4,450.1 418.8,449.5 420.5,449.5 C421.9,449.5 424,450.2 424.8,452.2 C426,450.2 427.9,449.5 429.7,449.5 C433.2,449.5 435.1,452 435.1,454.8 L435.1,465.7 L432.5,465.7 L432.5,455.7 C432.5,452.9 431,451.9 429.2,451.9 C427.4,451.9 425.7,453.2 425.7,456.3 L425.7,465.8 L425.6,465.8 Z M526.8,463.2 C526.8,463.2 528.6,463.8 529.7,463.8 C532.9,463.8 533.2,462.4 533.2,459.4 L533.2,443.4 L536,443.4 L536,461.2 C536,464.9 533.1,466.1 530,466.1 C528.6,466.1 527.2,465.8 526,465.5 L526.8,463.2 L526.8,463.2 Z M556,457.8 C556,462.6 553.1,466.1 548.6,466.1 C544.2,466.1 541.2,462.6 541.2,457.8 C541.2,452.9 544.1,449.5 548.6,449.5 C553.1,449.5 556,452.9 556,457.8 Z M553.3,457.9 L553.3,457.7 C553.3,454.5 551.7,451.8 548.7,451.8 C545.7,451.8 544.1,454.5 544.1,457.7 L544.1,457.9 C544.1,461 545.7,463.8 548.7,463.8 C551.7,463.8 553.3,461 553.3,457.9 Z M559.8,463.8 L561.4,461.9 C562.4,462.8 564.1,463.9 566.2,463.9 C568,463.9 569.4,463.1 569.4,461.5 C569.4,459.8 567.7,459.4 565.5,458.8 C563.2,458.2 560.5,457.4 560.5,454.1 C560.5,451.4 563,449.5 566.3,449.5 C568.4,449.5 570.7,450.4 571.8,451.5 L570.3,453.3 C569.4,452.4 568,451.8 566.4,451.8 C564.3,451.8 563.2,452.7 563.2,454.2 C563.2,455.4 564.1,455.9 565.5,456.3 C566.3,456.5 567.3,456.8 568.1,457.1 C570.2,457.8 572,458.9 572,461.5 C572,464.8 569.1,466.3 566,466.3 C563.9,466.1 561.6,465.4 559.8,463.8 L559.8,463.8 Z M577.2,443.4 L579.8,443.4 L579.8,451.7 C580.9,450.2 582.5,449.6 584.5,449.6 C588.1,449.6 589.8,452.1 589.8,455 L589.8,465.8 L587.2,465.8 L587.2,455.8 C587.2,453 585.8,451.9 583.9,451.9 C581.9,451.9 579.8,453.3 579.8,456.3 L579.8,465.8 L577.2,465.8 L577.2,443.4 Z M762,443.4 L769.6,443.4 C773.8,443.4 777.1,445.4 777.1,450.1 C777.1,452.9 775.5,455.2 772.7,456.3 L777.4,465.8 L774.2,465.8 L769.9,456.8 L764.7,456.8 L764.7,465.8 L762,465.8 L762,443.4 L762,443.4 Z M769.8,454.4 C772.4,454.4 774.2,452.8 774.2,450.1 C774.2,447.3 772.3,445.7 769.8,445.7 L764.7,445.7 L764.7,454.4 L769.8,454.4 Z M783.9,458.6 C784.1,461.6 786,463.8 788.9,463.8 C790.7,463.8 792,463.1 793.1,462.2 L794.4,464.1 C793,465.3 791.1,466.1 788.7,466.1 C784.1,466.1 781.1,462.6 781.1,457.8 C781.1,452.9 783.9,449.5 788.4,449.5 C792.6,449.5 795.2,453 795.2,457.8 L795.2,458.6 L783.9,458.6 L783.9,458.6 Z M783.9,456.5 L792.3,456.5 C792.2,454 790.8,451.8 788.3,451.8 C785.7,451.8 784,454.1 783.9,456.5 Z M810.6,464 C809.7,465.3 808,466.1 805.9,466.1 C801.8,466.1 799.1,462.6 799.1,457.8 C799.1,453 801.8,449.5 805.9,449.5 C807.9,449.5 809.6,450.3 810.6,451.6 L810.6,443.3 L813.2,443.3 L813.2,465.7 L810.6,465.7 L810.6,464 L810.6,464 Z M801.9,457.9 C801.9,461.2 803.5,463.8 806.4,463.8 C809.2,463.8 810.6,461.8 810.6,459.1 L810.6,456.5 C810.6,453.8 809.2,451.8 806.4,451.8 C803.5,451.8 801.9,454.4 801.9,457.7 L801.9,457.9 L801.9,457.9 Z M156.5,525.9 L147.5,525.9 L146,531 L143.1,531 L150,508.6 L154,508.6 L161,531 L158,531 L156.5,525.9 L156.5,525.9 Z M148.2,523.6 L155.8,523.6 L152.1,511.1 L151.8,511.1 L148.2,523.6 Z M177.6,531 L175,531 L175,521 C175,518.2 173.6,517.2 171.8,517.2 C170,517.2 168.3,518.5 168.3,521.6 L168.3,531 L165.7,531 L165.7,515 L168.3,515 L168.3,516.8 C169.4,515.3 170.8,514.7 172.5,514.7 C173.9,514.7 176,515.4 176.8,517.4 C178,515.4 179.9,514.7 181.7,514.7 C185.2,514.7 187.1,517.2 187.1,520 L187.1,531 L184.5,531 L184.5,521 C184.5,518.2 183,517.2 181.2,517.2 C179.4,517.2 177.7,518.5 177.7,521.6 L177.7,531 L177.6,531 Z M197.2,531.3 C194,531.3 191.6,529.4 191.6,526.5 C191.6,524 193.3,522.3 195.9,522 L201.5,521.2 L201.5,520.2 C201.5,517.8 199.9,517 197.9,517 C196.1,517 194.5,517.6 193.3,518.2 L192.3,516.1 C194.1,515.1 196.2,514.6 198.2,514.6 C202.1,514.6 204.1,516.3 204.1,519.7 L204.1,527.2 C204.1,528.3 204.5,529 205.4,529.4 L203.9,531.3 C202.9,531 202.1,530.3 201.8,529.4 C200.9,530.4 199.3,531.3 197.2,531.3 L197.2,531.3 Z M197.2,523.9 C195.4,524.2 194.3,524.7 194.3,526.4 C194.3,528.3 195.8,529.3 197.6,529.3 C199.6,529.3 201.5,528.1 201.5,526.2 L201.5,523.3 L197.2,523.9 Z M209.9,508.6 L212.5,508.6 L212.5,527.4 C212.5,528.5 212.8,529 214,529 C214.7,529 215.2,528.9 215.6,528.9 L215.9,531.1 C215.9,531.1 214.4,531.3 213.2,531.3 C211.3,531.3 209.8,530.5 209.8,528.2 L209.8,508.6 L209.9,508.6 Z M223.9,531.3 C220.7,531.3 218.3,529.4 218.3,526.5 C218.3,524 220,522.3 222.6,522 L228.2,521.2 L228.2,520.2 C228.2,517.8 226.6,517 224.6,517 C222.8,517 221.2,517.6 220,518.2 L219,516.1 C220.8,515.1 222.9,514.6 224.9,514.6 C228.8,514.6 230.8,516.3 230.8,519.7 L230.8,527.2 C230.8,528.3 231.2,529 232.1,529.4 L230.6,531.3 C229.6,531 228.8,530.3 228.5,529.4 C227.6,530.4 226.1,531.3 223.9,531.3 L223.9,531.3 Z M224,523.9 C222.2,524.2 221.1,524.7 221.1,526.4 C221.1,528.3 222.6,529.3 224.4,529.3 C226.4,529.3 228.3,528.1 228.3,526.2 L228.3,523.3 L224,523.9 Z M253.5,529.4 C252.6,530.5 251,531.3 248.9,531.3 C245.7,531.3 243.3,529.4 243.3,526.5 C243.3,524 245,522.3 247.6,522 L253.2,521.2 L253.2,520.2 C253.2,517.8 251.6,517 249.6,517 C247.8,517 246.2,517.6 245,518.2 L244,516.1 C245.8,515.1 247.9,514.6 249.9,514.6 C253.8,514.6 255.8,516.3 255.8,519.7 L255.8,527.5 C255.8,528.5 256.2,529.4 257.2,529.4 C260.5,529.4 261.4,524.3 261.4,522.7 C261.4,515.9 256.3,511.2 249.8,511.2 C243.3,511.2 238,516.5 238,523 C238,529.5 243.3,534.8 249.8,534.8 C251.7,534.8 253.4,534.4 255,533.6 L256.2,534.9 C254.3,535.9 252,536.4 249.6,536.4 C242.1,536.4 236.1,530.4 236.1,522.9 C236.1,515.4 242.3,509.4 249.8,509.4 C257.3,509.4 263,514.8 263,522.6 C263,526 261.1,531.1 257,531.1 C254.6,531.3 253.8,530 253.5,529.4 L253.5,529.4 Z M248.9,523.9 C247.1,524.2 246,524.7 246,526.4 C246,528.3 247.5,529.3 249.3,529.3 C251.3,529.3 253.2,528.1 253.2,526.2 L253.2,523.3 L248.9,523.9 Z M270.5,523.8 C270.7,526.8 272.6,529 275.5,529 C277.3,529 278.6,528.3 279.7,527.4 L281,529.3 C279.6,530.5 277.7,531.3 275.3,531.3 C270.7,531.3 267.7,527.8 267.7,523 C267.7,518.1 270.5,514.7 275,514.7 C279.2,514.7 281.8,518.2 281.8,523 L281.8,523.8 L270.5,523.8 Z M270.5,521.7 L278.9,521.7 C278.8,519.2 277.4,517 274.9,517 C272.3,517 270.6,519.2 270.5,521.7 Z M289.9,522.5 L285,514.9 L288,514.9 L291.4,520.4 L294.7,514.9 L297.7,514.9 L292.8,522.5 L298.3,530.9 L295.2,530.9 L291.2,524.7 L287.6,530.9 L284.5,530.9 L289.9,522.5 L289.9,522.5 Z M306.9,531.3 C303.7,531.3 301.3,529.4 301.3,526.5 C301.3,524 303,522.3 305.6,522 L311.2,521.2 L311.2,520.2 C311.2,517.8 309.6,517 307.6,517 C305.8,517 304.2,517.6 303,518.2 L302,516.1 C303.8,515.1 305.9,514.6 307.9,514.6 C311.8,514.6 313.8,516.3 313.8,519.7 L313.8,527.2 C313.8,528.3 314.2,529 315.1,529.4 L313.6,531.3 C312.6,531 311.8,530.3 311.5,529.4 C310.6,530.4 309,531.3 306.9,531.3 L306.9,531.3 Z M306.9,523.9 C305.1,524.2 304,524.7 304,526.4 C304,528.3 305.5,529.3 307.3,529.3 C309.3,529.3 311.2,528.1 311.2,526.2 L311.2,523.3 L306.9,523.9 Z M331.7,531 L329.1,531 L329.1,521 C329.1,518.2 327.7,517.2 325.9,517.2 C324.1,517.2 322.4,518.5 322.4,521.6 L322.4,531 L319.8,531 L319.8,515 L322.4,515 L322.4,516.8 C323.5,515.3 324.9,514.7 326.6,514.7 C328,514.7 330.1,515.4 330.9,517.4 C332.1,515.4 334,514.7 335.8,514.7 C339.3,514.7 341.2,517.2 341.2,520 L341.2,531 L338.6,531 L338.6,521 C338.6,518.2 337.1,517.2 335.3,517.2 C333.5,517.2 331.8,518.5 331.8,521.6 L331.8,531 L331.7,531 Z M349.5,515 L349.5,516.8 C350.4,515.5 352.1,514.7 354.2,514.7 C358.3,514.7 361,518.2 361,523 C361,527.8 358.3,531.3 354.2,531.3 C352.2,531.3 350.5,530.5 349.5,529.2 L349.5,535.9 L346.9,535.9 L346.9,515 L349.5,515 L349.5,515 Z M358.2,522.9 C358.2,519.6 356.6,517 353.7,517 C350.9,517 349.5,519 349.5,521.7 L349.5,524.3 C349.5,527 350.9,529 353.7,529 C356.6,529 358.2,526.4 358.2,523.1 L358.2,522.9 L358.2,522.9 Z M365.9,508.6 L368.5,508.6 L368.5,527.4 C368.5,528.5 368.8,529 370,529 C370.7,529 371.2,528.9 371.6,528.9 L371.9,531.1 C371.9,531.1 370.4,531.3 369.2,531.3 C367.3,531.3 365.8,530.5 365.8,528.2 L365.8,508.6 L365.9,508.6 Z M377.3,523.8 C377.5,526.8 379.4,529 382.3,529 C384.1,529 385.4,528.3 386.5,527.4 L387.8,529.3 C386.4,530.5 384.5,531.3 382.1,531.3 C377.5,531.3 374.5,527.8 374.5,523 C374.5,518.1 377.3,514.7 381.8,514.7 C386,514.7 388.6,518.2 388.6,523 L388.6,523.8 L377.3,523.8 Z M377.3,521.7 L385.7,521.7 C385.6,519.2 384.2,517 381.7,517 C379.1,517 377.5,519.2 377.3,521.7 Z M395.2,527 C396.4,527 397.3,528 397.3,529.1 C397.3,530.3 396.3,531.2 395.2,531.2 C394,531.2 393.1,530.2 393.1,529.1 C393.1,527.9 394,527 395.2,527 Z M404.7,523.1 C404.7,526.3 406.3,529 409.3,529 C411.3,529 412.6,527.8 413.4,526.3 L415.6,527.5 C414.5,529.8 412.2,531.2 409.3,531.2 C404.9,531.2 401.9,527.7 401.9,522.9 C401.9,518 404.8,514.6 409.3,514.6 C412.2,514.6 414.5,516.1 415.6,518.3 L413.4,519.5 C412.6,518 411.3,516.8 409.3,516.8 C406.2,516.8 404.7,519.5 404.7,522.7 L404.7,523.1 L404.7,523.1 Z M434,523 C434,527.8 431.1,531.3 426.6,531.3 C422.2,531.3 419.2,527.8 419.2,523 C419.2,518.1 422.1,514.7 426.6,514.7 C431,514.7 434,518.1 434,523 Z M431.3,523.1 L431.3,522.9 C431.3,519.7 429.7,517 426.7,517 C423.7,517 422.1,519.7 422.1,522.9 L422.1,523.1 C422.1,526.2 423.7,529 426.7,529 C429.7,529 431.3,526.2 431.3,523.1 Z M450.9,531 L448.3,531 L448.3,521 C448.3,518.2 446.9,517.2 445.1,517.2 C443.3,517.2 441.6,518.5 441.6,521.6 L441.6,531 L439,531 L439,515 L441.6,515 L441.6,516.8 C442.7,515.3 444.1,514.7 445.8,514.7 C447.2,514.7 449.3,515.4 450.1,517.4 C451.3,515.4 453.2,514.7 455,514.7 C458.5,514.7 460.4,517.2 460.4,520 L460.4,531 L457.8,531 L457.8,521 C457.8,518.2 456.3,517.2 454.5,517.2 C452.7,517.2 451,518.5 451,521.6 L451,531 L450.9,531 Z M540.2,525.9 L531.2,525.9 L529.7,531 L526.8,531 L533.7,508.6 L537.7,508.6 L544.7,531 L541.7,531 L540.2,525.9 Z M531.9,523.6 L539.5,523.6 L535.8,511.1 L535.5,511.1 L531.9,523.6 Z M561.4,531 L558.8,531 L558.8,521 C558.8,518.2 557.4,517.2 555.6,517.2 C553.8,517.2 552.1,518.5 552.1,521.6 L552.1,531 L549.5,531 L549.5,515 L552.1,515 L552.1,516.8 C553.2,515.3 554.6,514.7 556.3,514.7 C557.7,514.7 559.8,515.4 560.6,517.4 C561.8,515.4 563.7,514.7 565.5,514.7 C569,514.7 570.9,517.2 570.9,520 L570.9,531 L568.3,531 L568.3,521 C568.3,518.2 566.8,517.2 565,517.2 C563.2,517.2 561.5,518.5 561.5,521.6 L561.5,531 L561.4,531 Z M581.1,531.3 C577.9,531.3 575.5,529.4 575.5,526.5 C575.5,524 577.2,522.3 579.8,522 L585.4,521.2 L585.4,520.2 C585.4,517.8 583.8,517 581.8,517 C580,517 578.4,517.6 577.2,518.2 L576.2,516.1 C578,515.1 580.1,514.6 582.1,514.6 C586,514.6 588,516.3 588,519.7 L588,527.2 C588,528.3 588.4,529 589.3,529.4 L587.8,531.3 C586.8,531 586,530.3 585.7,529.4 C584.8,530.4 583.2,531.3 581.1,531.3 L581.1,531.3 Z M581.1,523.9 C579.3,524.2 578.2,524.7 578.2,526.4 C578.2,528.3 579.7,529.3 581.5,529.3 C583.5,529.3 585.4,528.1 585.4,526.2 L585.4,523.3 L581.1,523.9 Z M594,508.6 L596.6,508.6 L596.6,527.4 C596.6,528.5 596.9,529 598.1,529 C598.8,529 599.3,528.9 599.7,528.9 L600,531.1 C600,531.1 598.5,531.3 597.3,531.3 C595.4,531.3 593.9,530.5 593.9,528.2 L593.9,508.6 L594,508.6 Z M608.2,531.3 C605,531.3 602.6,529.4 602.6,526.5 C602.6,524 604.3,522.3 606.9,522 L612.5,521.2 L612.5,520.2 C612.5,517.8 610.9,517 608.9,517 C607.1,517 605.5,517.6 604.3,518.2 L603.3,516.1 C605.1,515.1 607.2,514.6 609.2,514.6 C613.1,514.6 615.1,516.3 615.1,519.7 L615.1,527.2 C615.1,528.3 615.5,529 616.4,529.4 L614.9,531.3 C613.9,531 613.1,530.3 612.8,529.4 C611.9,530.4 610.3,531.3 608.2,531.3 L608.2,531.3 Z M608.2,523.9 C606.4,524.2 605.3,524.7 605.3,526.4 C605.3,528.3 606.8,529.3 608.6,529.3 C610.6,529.3 612.5,528.1 612.5,526.2 L612.5,523.3 L608.2,523.9 Z M776.6,522.5 L776.6,521.4 L770.3,521.4 L770.3,519.1 L779,519.1 L779,531 L776.5,531 L776.5,528 C775,530.5 772.8,531.3 770.3,531.3 C764.2,531.3 760.7,526.2 760.7,519.8 C760.7,513.4 764.4,508.3 770.5,508.3 C774.2,508.3 777.2,510.2 778.8,512.9 L776.5,514.1 C775.4,512 773.5,510.6 770.6,510.6 C765.9,510.6 763.8,514.9 763.8,519.5 L763.8,519.9 C763.8,524.5 766,528.8 770.7,528.8 C775.4,528.9 776.6,525 776.6,522.5 L776.6,522.5 Z M792.9,517.3 L792.5,517.3 C789.8,517.3 787.4,518.4 787.4,522.7 L787.4,530.9 L784.8,530.9 L784.8,514.9 L787.4,514.9 L787.4,517.4 C788.2,515.5 790.2,514.6 792.2,514.6 L793,514.6 L793,517.3 L792.9,517.3 Z M798.6,523.8 C798.8,526.8 800.7,529 803.6,529 C805.4,529 806.7,528.3 807.8,527.4 L809.1,529.3 C807.7,530.5 805.8,531.3 803.4,531.3 C798.8,531.3 795.8,527.8 795.8,523 C795.8,518.1 798.6,514.7 803.1,514.7 C807.3,514.7 809.9,518.2 809.9,523 L809.9,523.8 L798.6,523.8 L798.6,523.8 Z M798.6,521.7 L807,521.7 C806.9,519.2 805.5,517 803,517 C800.4,517 798.8,519.2 798.6,521.7 Z M816.7,523.8 C816.9,526.8 818.8,529 821.7,529 C823.5,529 824.8,528.3 825.9,527.4 L827.2,529.3 C825.8,530.5 823.9,531.3 821.5,531.3 C816.9,531.3 813.9,527.8 813.9,523 C813.9,518.1 816.7,514.7 821.2,514.7 C825.4,514.7 828,518.2 828,523 L828,523.8 L816.7,523.8 L816.7,523.8 Z M816.7,521.7 L825.1,521.7 C825,519.2 823.6,517 821.1,517 C818.5,517 816.8,519.2 816.7,521.7 Z M832.9,515 L835.5,515 L835.5,516.8 C836.6,515.3 838.2,514.7 840.2,514.7 C843.8,514.7 845.5,517.2 845.5,520.1 L845.5,531 L842.9,531 L842.9,521 C842.9,518.2 841.5,517.1 839.6,517.1 C837.6,517.1 835.5,518.5 835.5,521.5 L835.5,531 L832.9,531 L832.9,515 L832.9,515 Z M145.2,573.8 L152.8,573.8 C157,573.8 160.3,575.8 160.3,580.5 C160.3,583.3 158.7,585.6 155.9,586.7 L160.6,596.2 L157.4,596.2 L153.1,587.2 L148,587.2 L148,596.2 L145.2,596.2 L145.2,573.8 L145.2,573.8 Z M153,584.8 C155.6,584.8 157.4,583.2 157.4,580.5 C157.4,577.7 155.5,576.1 153,576.1 L148,576.1 L148,584.8 L153,584.8 L153,584.8 Z M178.8,588.2 C178.8,593 175.9,596.5 171.4,596.5 C167,596.5 164,593 164,588.2 C164,583.3 166.9,579.9 171.4,579.9 C175.9,579.9 178.8,583.3 178.8,588.2 Z M176.1,588.3 L176.1,588.1 C176.1,584.9 174.5,582.2 171.5,582.2 C168.5,582.2 166.9,584.9 166.9,588.1 L166.9,588.3 C166.9,591.4 168.5,594.2 171.5,594.2 C174.5,594.2 176.1,591.4 176.1,588.3 Z M195.8,596.2 L193.2,596.2 L193.2,586.2 C193.2,583.4 191.8,582.4 190,582.4 C188.2,582.4 186.5,583.7 186.5,586.8 L186.5,596.2 L183.9,596.2 L183.9,580.2 L186.5,580.2 L186.5,582 C187.6,580.5 189,579.9 190.7,579.9 C192.1,579.9 194.2,580.6 195,582.6 C196.2,580.6 198.1,579.9 199.9,579.9 C203.4,579.9 205.3,582.4 205.3,585.2 L205.3,596.1 L202.7,596.1 L202.7,586.1 C202.7,583.3 201.2,582.3 199.4,582.3 C197.6,582.3 195.9,583.6 195.9,586.7 L195.9,596.2 L195.8,596.2 Z M215.4,596.5 C212.2,596.5 209.8,594.6 209.8,591.7 C209.8,589.2 211.5,587.5 214.1,587.2 L219.7,586.4 L219.7,585.4 C219.7,583 218.1,582.2 216.1,582.2 C214.3,582.2 212.7,582.8 211.5,583.4 L210.5,581.3 C212.3,580.3 214.4,579.8 216.4,579.8 C220.3,579.8 222.3,581.5 222.3,584.9 L222.3,592.4 C222.3,593.5 222.7,594.2 223.6,594.6 L222.1,596.5 C221.1,596.2 220.3,595.5 220,594.6 C219.1,595.6 217.5,596.5 215.4,596.5 L215.4,596.5 Z M215.4,589.1 C213.6,589.4 212.5,589.9 212.5,591.6 C212.5,593.5 214,594.5 215.8,594.5 C217.8,594.5 219.7,593.3 219.7,591.4 L219.7,588.5 L215.4,589.1 Z M228.2,580.2 L230.8,580.2 L230.8,582 C231.9,580.5 233.5,579.9 235.5,579.9 C239.1,579.9 240.8,582.4 240.8,585.3 L240.8,596.1 L238.2,596.1 L238.2,586.1 C238.2,583.3 236.8,582.2 234.9,582.2 C232.9,582.2 230.8,583.6 230.8,586.6 L230.8,596.1 L228.2,596.1 L228.2,580.2 L228.2,580.2 Z M263.4,594.6 C262.5,595.7 260.9,596.5 258.8,596.5 C255.6,596.5 253.2,594.6 253.2,591.7 C253.2,589.2 254.9,587.5 257.5,587.2 L263.1,586.4 L263.1,585.4 C263.1,583 261.5,582.2 259.5,582.2 C257.7,582.2 256.1,582.8 254.9,583.4 L253.9,581.3 C255.7,580.3 257.8,579.8 259.8,579.8 C263.7,579.8 265.7,581.5 265.7,584.9 L265.7,592.7 C265.7,593.7 266.1,594.6 267.1,594.6 C270.4,594.6 271.3,589.5 271.3,587.9 C271.3,581.1 266.2,576.4 259.7,576.4 C253.2,576.4 247.9,581.7 247.9,588.2 C247.9,594.7 253.2,600 259.7,600 C261.6,600 263.3,599.6 264.9,598.8 L266.1,600.1 C264.2,601.1 261.9,601.6 259.5,601.6 C252,601.6 246,595.6 246,588.1 C246,580.6 252.2,574.6 259.7,574.6 C267.2,574.6 272.9,580 272.9,587.8 C272.9,591.2 271,596.3 266.9,596.3 C264.4,596.5 263.7,595.2 263.4,594.6 L263.4,594.6 Z M258.8,589.1 C257,589.4 255.9,589.9 255.9,591.6 C255.9,593.5 257.4,594.5 259.2,594.5 C261.2,594.5 263.1,593.3 263.1,591.4 L263.1,588.5 L258.8,589.1 L258.8,589.1 Z M280.3,589 C280.5,592 282.4,594.2 285.3,594.2 C287.1,594.2 288.4,593.5 289.5,592.6 L290.8,594.5 C289.4,595.7 287.5,596.5 285.1,596.5 C280.5,596.5 277.5,593 277.5,588.2 C277.5,583.3 280.3,579.9 284.8,579.9 C289,579.9 291.6,583.4 291.6,588.2 L291.6,589 L280.3,589 Z M280.4,586.9 L288.8,586.9 C288.7,584.4 287.3,582.2 284.8,582.2 C282.1,582.2 280.5,584.4 280.4,586.9 Z M299.8,587.7 L294.9,580.1 L297.9,580.1 L301.3,585.6 L304.6,580.1 L307.6,580.1 L302.7,587.7 L308.2,596.1 L305.1,596.1 L301.1,589.9 L297.5,596.1 L294.4,596.1 L299.8,587.7 L299.8,587.7 Z M316.7,596.5 C313.5,596.5 311.1,594.6 311.1,591.7 C311.1,589.2 312.8,587.5 315.4,587.2 L321,586.4 L321,585.4 C321,583 319.4,582.2 317.4,582.2 C315.6,582.2 314,582.8 312.8,583.4 L311.8,581.3 C313.6,580.3 315.7,579.8 317.7,579.8 C321.6,579.8 323.6,581.5 323.6,584.9 L323.6,592.4 C323.6,593.5 324,594.2 324.9,594.6 L323.4,596.5 C322.4,596.2 321.6,595.5 321.3,594.6 C320.4,595.6 318.9,596.5 316.7,596.5 L316.7,596.5 Z M316.8,589.1 C315,589.4 313.9,589.9 313.9,591.6 C313.9,593.5 315.4,594.5 317.2,594.5 C319.2,594.5 321.1,593.3 321.1,591.4 L321.1,588.5 L316.8,589.1 Z M341.5,596.2 L338.9,596.2 L338.9,586.2 C338.9,583.4 337.5,582.4 335.7,582.4 C333.9,582.4 332.2,583.7 332.2,586.8 L332.2,596.2 L329.6,596.2 L329.6,580.2 L332.2,580.2 L332.2,582 C333.3,580.5 334.7,579.9 336.4,579.9 C337.8,579.9 339.9,580.6 340.7,582.6 C341.9,580.6 343.8,579.9 345.6,579.9 C349.1,579.9 351,582.4 351,585.2 L351,596.1 L348.4,596.1 L348.4,586.1 C348.4,583.3 346.9,582.3 345.1,582.3 C343.3,582.3 341.6,583.6 341.6,586.7 L341.6,596.2 L341.5,596.2 Z M359.4,580.2 L359.4,582 C360.3,580.7 362,579.9 364.1,579.9 C368.2,579.9 370.9,583.4 370.9,588.2 C370.9,593 368.2,596.5 364.1,596.5 C362.1,596.5 360.4,595.7 359.4,594.4 L359.4,601.1 L356.8,601.1 L356.8,580.3 L359.4,580.3 L359.4,580.2 Z M368.1,588.1 C368.1,584.8 366.5,582.2 363.6,582.2 C360.8,582.2 359.4,584.2 359.4,586.9 L359.4,589.5 C359.4,592.2 360.8,594.2 363.6,594.2 C366.5,594.2 368.1,591.6 368.1,588.3 L368.1,588.1 L368.1,588.1 Z M375.7,573.8 L378.3,573.8 L378.3,592.6 C378.3,593.7 378.6,594.2 379.8,594.2 C380.5,594.2 381,594.1 381.4,594.1 L381.7,596.3 C381.7,596.3 380.2,596.5 379,596.5 C377.1,596.5 375.6,595.7 375.6,593.4 L375.6,573.8 L375.7,573.8 Z M387.2,589 C387.4,592 389.3,594.2 392.2,594.2 C394,594.2 395.3,593.5 396.4,592.6 L397.7,594.5 C396.3,595.7 394.4,596.5 392,596.5 C387.4,596.5 384.4,593 384.4,588.2 C384.4,583.3 387.2,579.9 391.7,579.9 C395.9,579.9 398.5,583.4 398.5,588.2 L398.5,589 L387.2,589 Z M387.2,586.9 L395.6,586.9 C395.5,584.4 394.1,582.2 391.6,582.2 C389,582.2 387.3,584.4 387.2,586.9 Z M405.1,592.2 C406.3,592.2 407.2,593.2 407.2,594.3 C407.2,595.5 406.2,596.4 405.1,596.4 C403.9,596.4 403,595.4 403,594.3 C402.9,593.1 403.9,592.2 405.1,592.2 Z M414.5,588.3 C414.5,591.5 416.1,594.2 419.1,594.2 C421.1,594.2 422.4,593 423.2,591.5 L425.4,592.7 C424.3,595 422,596.4 419.1,596.4 C414.7,596.4 411.7,592.9 411.7,588.1 C411.7,583.2 414.6,579.8 419.1,579.8 C422,579.8 424.3,581.3 425.4,583.5 L423.2,584.7 C422.4,583.2 421.1,582 419.1,582 C416,582 414.5,584.7 414.5,587.9 L414.5,588.3 L414.5,588.3 Z M443.8,588.2 C443.8,593 440.9,596.5 436.4,596.5 C432,596.5 429,593 429,588.2 C429,583.3 431.9,579.9 436.4,579.9 C440.9,579.9 443.8,583.3 443.8,588.2 Z M441.1,588.3 L441.1,588.1 C441.1,584.9 439.5,582.2 436.5,582.2 C433.5,582.2 431.9,584.9 431.9,588.1 L431.9,588.3 C431.9,591.4 433.5,594.2 436.5,594.2 C439.5,594.2 441.1,591.4 441.1,588.3 Z M460.8,596.2 L458.2,596.2 L458.2,586.2 C458.2,583.4 456.8,582.4 455,582.4 C453.2,582.4 451.5,583.7 451.5,586.8 L451.5,596.2 L448.9,596.2 L448.9,580.2 L451.5,580.2 L451.5,582 C452.6,580.5 454,579.9 455.7,579.9 C457.1,579.9 459.2,580.6 460,582.6 C461.2,580.6 463.1,579.9 464.9,579.9 C468.4,579.9 470.3,582.4 470.3,585.2 L470.3,596.1 L467.7,596.1 L467.7,586.1 C467.7,583.3 466.2,582.3 464.4,582.3 C462.6,582.3 460.9,583.6 460.9,586.7 L460.9,596.2 L460.8,596.2 Z" id="Shape" fill="#0B0B0B" fill-rule="nonzero"></path>
            <path d="M86.3,378.4 L86.3,378.2 L89,378.2 L89,400.6 L86.2,400.6 L86.2,384.2 L82,384.2 L82,381.8 L82.4,381.8 C85.4,381.8 86.3,380.8 86.3,378.4 L86.3,378.4 Z M79.1,465.8 L79.1,463.1 C80.8,461.6 85.5,457.7 87.2,456.2 C89,454.6 90.6,452.6 90.6,450 C90.6,447.2 88.8,445.6 86.2,445.6 C83.4,445.6 82,447.5 81.8,450.3 L78.9,450.1 C79,445.7 81.9,443.2 86.2,443.2 C90.6,443.2 93.5,445.8 93.5,450.2 C93.5,453.5 91.8,455.6 86.8,459.9 L82.7,463.4 L93.7,463.4 L93.7,465.9 L79.1,465.9 L79.1,465.8 Z M80.9,525.2 C81.7,527.3 83.2,528.8 86.1,528.8 C89.4,528.8 90.9,526.9 90.9,524.6 C90.9,522.1 89,520.7 85.7,520.7 L84.7,520.7 L84.7,518.3 L85.2,518.3 C88.1,518.3 90.5,517.3 90.5,514.4 C90.5,511.8 88.5,510.5 86.1,510.5 C83.6,510.5 82,511.9 81.2,513.9 L78.7,512.9 C79.9,509.6 82.9,508.1 86.2,508.1 C90.1,508.1 93.4,510.6 93.4,514.1 C93.4,516.5 92,518.6 89.2,519.3 C92.4,520 93.8,522.1 93.8,524.7 C93.8,529.1 90.2,531.1 86.1,531.1 C82.5,531.1 79.5,529.4 78.2,525.9 L80.9,525.2 L80.9,525.2 Z M88.4,596.2 L88.4,590.4 L77.1,590.4 L77.1,587.6 L87.2,573.7 L91.1,573.7 L91.1,588 L94.8,588 L94.8,590.3 L91.1,590.3 L91.1,596.1 L88.4,596.1 L88.4,596.2 Z M88.4,588.1 L88.4,576.1 L79.8,588.1 L88.4,588.1 Z" id="Shape" fill="#4B4B4B" fill-rule="nonzero"></path>
            <path d="M528.8,573.8 L536.4,573.8 C540.6,573.8 543.9,575.8 543.9,580.5 C543.9,583.3 542.3,585.6 539.5,586.7 L544.2,596.2 L541,596.2 L536.7,587.2 L531.5,587.2 L531.5,596.2 L528.7,596.2 L528.7,573.8 L528.8,573.8 Z M536.7,584.8 C539.3,584.8 541.1,583.2 541.1,580.5 C541.1,577.7 539.2,576.1 536.7,576.1 L531.6,576.1 L531.6,584.8 L536.7,584.8 L536.7,584.8 Z M562.6,588.2 C562.6,593 559.7,596.5 555.2,596.5 C550.8,596.5 547.8,593 547.8,588.2 C547.8,583.3 550.7,579.9 555.2,579.9 C559.7,579.9 562.6,583.3 562.6,588.2 Z M559.9,588.3 L559.9,588.1 C559.9,584.9 558.3,582.2 555.3,582.2 C552.3,582.2 550.7,584.9 550.7,588.1 L550.7,588.3 C550.7,591.4 552.3,594.2 555.3,594.2 C558.3,594.2 559.9,591.4 559.9,588.3 Z M579.7,596.2 L577.1,596.2 L577.1,586.2 C577.1,583.4 575.7,582.4 573.9,582.4 C572.1,582.4 570.4,583.7 570.4,586.8 L570.4,596.2 L567.8,596.2 L567.8,580.2 L570.4,580.2 L570.4,582 C571.5,580.5 572.9,579.9 574.6,579.9 C576,579.9 578.1,580.6 578.9,582.6 C580.1,580.6 582,579.9 583.8,579.9 C587.3,579.9 589.2,582.4 589.2,585.2 L589.2,596.1 L586.6,596.1 L586.6,586.1 C586.6,583.3 585.1,582.3 583.3,582.3 C581.5,582.3 579.8,583.6 579.8,586.7 L579.8,596.2 L579.7,596.2 Z M599.5,596.5 C596.3,596.5 593.9,594.6 593.9,591.7 C593.9,589.2 595.6,587.5 598.2,587.2 L603.8,586.4 L603.8,585.4 C603.8,583 602.2,582.2 600.2,582.2 C598.4,582.2 596.8,582.8 595.6,583.4 L594.6,581.3 C596.4,580.3 598.5,579.8 600.5,579.8 C604.4,579.8 606.4,581.5 606.4,584.9 L606.4,592.4 C606.4,593.5 606.8,594.2 607.7,594.6 L606.2,596.5 C605.2,596.2 604.4,595.5 604.1,594.6 C603.2,595.6 601.6,596.5 599.5,596.5 L599.5,596.5 Z M599.5,589.1 C597.7,589.4 596.6,589.9 596.6,591.6 C596.6,593.5 598.1,594.5 599.9,594.5 C601.9,594.5 603.8,593.3 603.8,591.4 L603.8,588.5 L599.5,589.1 Z M612.5,580.2 L615.1,580.2 L615.1,582 C616.2,580.5 617.8,579.9 619.8,579.9 C623.4,579.9 625.1,582.4 625.1,585.3 L625.1,596.1 L622.5,596.1 L622.5,586.1 C622.5,583.3 621.1,582.2 619.2,582.2 C617.2,582.2 615.1,583.6 615.1,586.6 L615.1,596.1 L612.5,596.1 L612.5,580.2 L612.5,580.2 Z M770.7,573.8 C774.2,573.8 776.9,576 776.9,579.4 C776.9,581.6 775.4,583.7 773.4,584.4 C775.7,584.7 778.2,586.6 778.2,589.8 C778.2,594.2 774.7,596.1 770.5,596.1 L762,596.1 L762,573.7 L770.7,573.7 L770.7,573.8 Z M774.2,579.7 C774.2,577.7 773,576 769.8,576 L764.9,576 L764.9,583.4 L769.8,583.4 C772.9,583.5 774.2,581.8 774.2,579.7 L774.2,579.7 Z M770.6,585.9 L764.8,585.9 L764.8,593.9 L770.6,593.9 C773.2,593.9 775.4,592.7 775.4,589.8 C775.4,586.9 773.2,585.9 770.6,585.9 Z M783.3,573.8 L785.9,573.8 L785.9,592.6 C785.9,593.7 786.2,594.2 787.4,594.2 C788.1,594.2 788.6,594.1 789,594.1 L789.3,596.3 C789.3,596.3 787.8,596.5 786.6,596.5 C784.7,596.5 783.2,595.7 783.2,593.4 L783.2,573.8 L783.3,573.8 Z M805.6,596.2 L803,596.2 L803,594.4 C801.9,595.9 800.3,596.5 798.3,596.5 C794.7,596.5 793,594 793,591.1 L793,580.3 L795.6,580.3 L795.6,590.3 C795.6,593.1 797,594.2 798.9,594.2 C801.1,594.2 803,592.8 803,589.8 L803,580.3 L805.6,580.3 L805.6,596.2 L805.6,596.2 Z M813.5,589 C813.7,592 815.6,594.2 818.5,594.2 C820.3,594.2 821.6,593.5 822.7,592.6 L824,594.5 C822.6,595.7 820.7,596.5 818.3,596.5 C813.7,596.5 810.7,593 810.7,588.2 C810.7,583.3 813.5,579.9 818,579.9 C822.2,579.9 824.8,583.4 824.8,588.2 L824.8,589 L813.5,589 L813.5,589 Z M813.5,586.9 L821.9,586.9 C821.8,584.4 820.4,582.2 817.9,582.2 C815.3,582.2 813.7,584.4 813.5,586.9 Z" id="Shape" fill="#0B0B0B" fill-rule="nonzero"></path>
            <circle id="Oval" fill="#FFFFFF" fill-rule="nonzero" cx="78.4" cy="270" r="8.5"></circle>
            <circle id="Oval" fill="#FFFFFF" fill-rule="nonzero" cx="102.1" cy="270" r="8.5"></circle>
            <circle id="Oval" fill="#FFFFFF" fill-rule="nonzero" cx="125.9" cy="270" r="8.5"></circle>
            <path d="M956,250 L63,250 C57.5,250 53,254.5 53,260 L53,290 L956,290 L956,250 Z" id="Path" fill="#DADADA" fill-rule="nonzero"></path>
            <circle id="Oval" fill="#FFFFFF" fill-rule="nonzero" cx="78.4" cy="270" r="8.5"></circle>
            <circle id="Oval" fill="#FFFFFF" fill-rule="nonzero" cx="102.1" cy="270" r="8.5"></circle>
            <circle id="Oval" fill="#FFFFFF" fill-rule="nonzero" cx="125.9" cy="270" r="8.5"></circle>
            <polygon id="Path" fill="#C8C8C8" fill-rule="nonzero" points="505.6 290 120.2 290 120.2 357.2 124.2 353.2 124.2 294 501.6 294"></polygon>
            <polygon id="Path" fill="#8C8C8C" fill-rule="nonzero" points="501.6 294 501.6 353.2 124.2 353.2 120.2 357.2 505.6 357.2 505.6 290"></polygon>
            <polygon id="Path" fill="#C8C8C8" fill-rule="nonzero" points="120.2 357.2 53 357.2 53 420.4 57 416.4 57 361.2 116.2 361.2"></polygon>
            <path d="M116.2,361.2 L116.2,416.4 L57,416.4 L53,420.4 L120.2,420.4 L120.2,357.2 L116.2,361.2 Z M61,357.2 L61,294 L120.2,294 L120.2,290 L57,290 L57,357.2 L61,357.2 Z" id="Shape" fill="#8C8C8C" fill-rule="nonzero"></path>
            <polygon id="Path" fill="#C8C8C8" fill-rule="nonzero" points="120.2 420.4 53 420.4 53 485.6 57 481.6 57 424.4 116.2 424.4"></polygon>
            <polygon id="Path" fill="#8C8C8C" fill-rule="nonzero" points="116.2 424.4 116.2 481.6 57 481.6 53 485.6 120.2 485.6 120.2 420.4"></polygon>
            <polygon id="Path" fill="#C8C8C8" fill-rule="nonzero" points="120.2 485.6 53 485.6 53 550.8 57 546.8 57 489.6 116.2 489.6"></polygon>
            <polygon id="Path" fill="#8C8C8C" fill-rule="nonzero" points="116.2 489.6 116.2 546.8 57 546.8 53 550.8 120.2 550.8 120.2 485.6"></polygon>
            <polygon id="Path" fill="#C8C8C8" fill-rule="nonzero" points="120.2 550.8 53 550.8 53 616 57 612 57 554.8 116.2 554.8"></polygon>
            <polygon id="Path" fill="#8C8C8C" fill-rule="nonzero" points="116.2 554.8 116.2 612 57 612 53 616 120.2 616 120.2 550.8"></polygon>
            <polygon id="Path" fill="#C8C8C8" fill-rule="nonzero" points="120.2 616 53 616 53 636 57 636 57 620 116.2 620"></polygon>
            <polygon id="Path" fill="#8C8C8C" fill-rule="nonzero" points="116.2 620 116.2 636 120.2 636 120.2 616"></polygon>
            <polygon id="Path" fill="#C8C8C8" fill-rule="nonzero" points="738.8 290 505.6 290 505.6 357.2 509.6 353.2 509.6 294 734.8 294"></polygon>
            <polygon id="Path" fill="#8C8C8C" fill-rule="nonzero" points="734.8 294 734.8 353.2 509.6 353.2 505.6 357.2 738.8 357.2 738.8 290"></polygon>
            <polygon id="Path" fill="#C8C8C8" fill-rule="nonzero" points="960 290 738.8 290 738.8 357.2 742.8 353.2 742.8 294 956 294"></polygon>
            <polygon id="Path" fill="#8C8C8C" fill-rule="nonzero" points="948 353.2 742.8 353.2 738.8 357.2 957.8 357.2 957.8 353.2"></polygon>
            <polygon id="Path" fill="#DADADA" fill-rule="nonzero" points="0 36 0 587 54.7 587 54.7 583 4 583 4 40 956 40 956 587 960 587 960 36"></polygon>
            <path d="M53,286 L53,640 L960,640 L960,286 L53,286 Z M57,636 L57,290 L956,290 L956,636 L57,636 Z" id="Shape" fill="#DADADA" fill-rule="nonzero"></path>
        </g>
    </g>
</svg>
