<?xml version="1.0" encoding="utf-8"?>
<!-- Generator: Adobe Illustrator 26.1.0, SVG Export Plug-In . SVG Version: 6.00 Build 0)  -->
<svg version="1.1" xmlns="http://www.w3.org/2000/svg" xmlns:xlink="http://www.w3.org/1999/xlink" x="0px" y="0px"
	 viewBox="0 0 960 640" style="enable-background:new 0 0 960 640;" xml:space="preserve">
<style type="text/css">
	.st0{fill:#B4B4B4;}
	.st1{fill:none;stroke:#DADADA;stroke-width:4;stroke-miterlimit:10;}
	.st2{fill:#DADADA;}
	.st3{fill:#FFFFFF;}
	.st4{fill:#1D70B8;}
	.st5{fill:#004A1E;}
	.st6{fill:#00823B;}
	.st7{fill:#0B0B0B;}
	.st8{fill:#4B4B4B;}
	.st9{fill:#C8C8C8;}
	.st10{fill:#8C8C8C;}
	.st11{fill:#03FFE0;}
</style>
<g id="Layer_1">
	<path class="st0" d="M113.6,352.9h6.6v4.3h-6.6V352.9z"/>
	<path class="st0" d="M57,290.2h59.2V636H57V290.2z"/>
	<path class="st0" d="M57,290h899v65.2H57V290z"/>
	<path class="st1" d="M57,420.4h899 M505.6,287.8v350.4 M738.8,287.8v350.4 M57,485.6h899 M956,616H57 M57,550.8h899"/>
	<path class="st2" d="M0,40V10C0,4.5,4.5,0,10,0h940c5.5,0,10,4.5,10,10v30"/>
	<circle class="st3" cx="25.4" cy="20" r="8.5"/>
	<circle class="st3" cx="49.1" cy="20" r="8.5"/>
	<circle class="st3" cx="72.9" cy="20" r="8.5"/>
	<path class="st4" d="M1,40h958v65H1V40z"/>
	<path class="st5" d="M55,154.9h309.9v60.7H55V154.9z"/>
	<path class="st6" d="M55,147.9h309.9v60.7H55V147.9z"/>
	<path class="st3" d="M93.5,182.6v-14.4h2.7v14.7c0,4.9-3.6,8-8.3,8c-4.6,0-8.3-3.1-8.3-8v-14.7h2.7v14.4c0,4.2,2.7,5.9,5.5,5.9
		C90.8,188.5,93.5,186.8,93.5,182.6L93.5,182.6z M105.1,174.6v1.8c0.9-1.3,2.6-2.1,4.7-2.1c4.1,0,6.8,3.5,6.8,8.3s-2.7,8.3-6.8,8.3
		c-2,0-3.7-0.8-4.7-2.1v6.7h-2.6v-20.8L105.1,174.6L105.1,174.6z M113.9,182.5c0-3.3-1.6-5.9-4.5-5.9c-2.8,0-4.2,2-4.2,4.7v2.6
		c0,2.7,1.4,4.7,4.2,4.7c2.9,0,4.5-2.6,4.5-5.9V182.5L113.9,182.5z M121.7,168.2h2.6V187c0,1.1,0.3,1.6,1.5,1.6
		c0.7,0,1.2-0.1,1.6-0.1l0.3,2.2c0,0-1.5,0.2-2.7,0.2c-1.9,0-3.4-0.8-3.4-3.1L121.7,168.2L121.7,168.2z M145.2,182.6
		c0,4.8-2.9,8.3-7.4,8.3c-4.4,0-7.4-3.5-7.4-8.3c0-4.9,2.9-8.3,7.4-8.3S145.2,177.7,145.2,182.6z M142.5,182.7v-0.2
		c0-3.2-1.6-5.9-4.6-5.9s-4.6,2.7-4.6,5.9v0.2c0,3.1,1.6,5.9,4.6,5.9S142.5,185.8,142.5,182.7z M154.7,190.9c-3.2,0-5.6-1.9-5.6-4.8
		c0-2.5,1.7-4.2,4.3-4.5l5.6-0.8v-1c0-2.4-1.6-3.2-3.6-3.2c-1.8,0-3.4,0.6-4.6,1.2l-1-2.1c1.8-1,3.9-1.5,5.9-1.5
		c3.9,0,5.9,1.7,5.9,5.1v7.5c0,1.1,0.4,1.8,1.3,2.2l-1.5,1.9c-1-0.3-1.8-1-2.1-1.9C158.5,190,156.9,190.9,154.7,190.9L154.7,190.9z
		 M154.8,183.5c-1.8,0.3-2.9,0.8-2.9,2.5c0,1.9,1.5,2.9,3.3,2.9c2,0,3.9-1.2,3.9-3.1v-2.9L154.8,183.5z M178.3,188.7
		c-0.9,1.3-2.6,2.1-4.7,2.1c-4.1,0-6.8-3.5-6.8-8.3s2.7-8.3,6.8-8.3c2,0,3.7,0.8,4.7,2.1V168h2.6v22.4h-2.6V188.7z M169.5,182.7
		c0,3.3,1.6,5.9,4.5,5.9c2.8,0,4.2-2,4.2-4.7v-2.6c0-2.7-1.4-4.7-4.2-4.7c-2.9,0-4.5,2.6-4.5,5.9V182.7L169.5,182.7z M204.5,176.9
		h-0.4c-2.7,0-5.1,1.1-5.1,5.4v8.2h-2.6v-16h2.6v2.5c0.8-1.9,2.8-2.8,4.8-2.8h0.8v2.7L204.5,176.9z M210.2,183.4
		c0.2,3,2.1,5.2,5,5.2c1.8,0,3.1-0.7,4.2-1.6l1.3,1.9c-1.4,1.2-3.3,2-5.7,2c-4.6,0-7.6-3.5-7.6-8.3c0-4.9,2.8-8.3,7.3-8.3
		c4.2,0,6.8,3.5,6.8,8.3v0.8L210.2,183.4L210.2,183.4z M210.3,181.3h8.4c-0.1-2.5-1.5-4.7-4-4.7
		C212.1,176.6,210.4,178.8,210.3,181.3z M228.2,182.7c0,3.2,1.6,5.9,4.6,5.9c2,0,3.3-1.2,4.1-2.7l2.2,1.2c-1.1,2.3-3.4,3.7-6.3,3.7
		c-4.4,0-7.4-3.5-7.4-8.3c0-4.9,2.9-8.3,7.4-8.3c2.9,0,5.2,1.5,6.3,3.7l-2.2,1.2c-0.8-1.5-2.1-2.7-4.1-2.7c-3.1,0-4.6,2.7-4.6,5.9
		V182.7L228.2,182.7z M245.5,168.2c1.1,0,1.9,0.9,1.9,2s-0.9,2-1.9,2c-1.1,0-2-0.9-2-2S244.4,168.2,245.5,168.2z M246.7,190.6h-2.6
		v-16h2.6V190.6z M255.4,174.6v1.8c0.9-1.3,2.6-2.1,4.7-2.1c4.1,0,6.8,3.5,6.8,8.3s-2.7,8.3-6.8,8.3c-2,0-3.7-0.8-4.7-2.1v6.7h-2.6
		v-20.8L255.4,174.6L255.4,174.6z M264.2,182.5c0-3.3-1.6-5.9-4.5-5.9c-2.8,0-4.2,2-4.2,4.7v2.6c0,2.7,1.4,4.7,4.2,4.7
		c2.9,0,4.5-2.6,4.5-5.9V182.5L264.2,182.5z M273.4,168.2c1.1,0,1.9,0.9,1.9,2s-0.9,2-1.9,2c-1.1,0-2-0.9-2-2
		S272.3,168.2,273.4,168.2z M274.7,190.6h-2.6v-16h2.6V190.6z M282.5,183.4c0.2,3,2.1,5.2,5,5.2c1.8,0,3.1-0.7,4.2-1.6l1.3,1.9
		c-1.4,1.2-3.3,2-5.7,2c-4.6,0-7.6-3.5-7.6-8.3c0-4.9,2.8-8.3,7.3-8.3c4.2,0,6.8,3.5,6.8,8.3v0.8L282.5,183.4L282.5,183.4z
		 M282.6,181.3h8.4c-0.1-2.5-1.5-4.7-4-4.7C284.4,176.6,282.7,178.8,282.6,181.3z M298.8,174.6h2.6v1.8c1.1-1.5,2.7-2.1,4.7-2.1
		c3.6,0,5.3,2.5,5.3,5.4v10.8h-2.6v-10c0-2.8-1.4-3.9-3.3-3.9c-2,0-4.1,1.4-4.1,4.4v9.5h-2.6V174.6z M321.5,186.6c0,1.1,0.2,2,2,2
		c0.5,0,1.5-0.1,2-0.2l0.3,2.3c0,0-1.5,0.2-2.8,0.2c-2.5,0-4.1-1-4.1-3.7v-10.3h-3v-2.3h3v-5.2l2.6-0.9v6.1h4.4v2.3h-4.4V186.6
		L321.5,186.6z M329.1,188.6l1.6-1.9c1,0.9,2.7,2,4.8,2c1.8,0,3.2-0.8,3.2-2.4c0-1.7-1.7-2.1-3.9-2.7c-2.3-0.6-5-1.4-5-4.7
		c0-2.7,2.5-4.6,5.8-4.6c2.1,0,4.4,0.9,5.5,2l-1.5,1.8c-0.9-0.9-2.3-1.5-3.9-1.5c-2.1,0-3.2,0.9-3.2,2.4c0,1.2,0.9,1.7,2.3,2.1
		c0.8,0.2,1.8,0.5,2.6,0.8c2.1,0.7,3.9,1.8,3.9,4.4c0,3.3-2.9,4.8-6,4.8C333.2,190.9,330.9,190.1,329.1,188.6L329.1,188.6z"/>
	<path class="st7" d="M145.2,378.2h13.4v2.4H148v7.4h9.8v2.4H148v7.9h11.3v2.4h-14v-22.5L145.2,378.2z M176.1,400.6h-2.6v-10
		c0-2.8-1.4-3.8-3.2-3.8s-3.5,1.3-3.5,4.4v9.4h-2.6v-16h2.6v1.8c1.1-1.5,2.5-2.1,4.2-2.1c1.4,0,3.5,0.7,4.3,2.7
		c1.2-2,3.1-2.7,4.9-2.7c3.5,0,5.4,2.5,5.4,5.3v10.9H183v-10c0-2.8-1.5-3.8-3.3-3.8s-3.5,1.3-3.5,4.4v9.5L176.1,400.6z M195.7,400.9
		c-3.2,0-5.6-1.9-5.6-4.8c0-2.5,1.7-4.2,4.3-4.5l5.6-0.8v-1c0-2.4-1.6-3.2-3.6-3.2c-1.8,0-3.4,0.6-4.6,1.2l-1-2.1
		c1.8-1,3.9-1.5,5.9-1.5c3.9,0,5.9,1.7,5.9,5.1v7.5c0,1.1,0.4,1.8,1.3,2.2l-1.5,1.9c-1-0.3-1.8-1-2.1-1.9
		C199.4,400,197.9,400.9,195.7,400.9L195.7,400.9z M195.7,393.5c-1.8,0.3-2.9,0.8-2.9,2.5c0,1.9,1.5,2.9,3.3,2.9
		c2,0,3.9-1.2,3.9-3.1v-2.9L195.7,393.5z M209.9,378.2c1.1,0,1.9,0.9,1.9,2s-0.9,2-1.9,2c-1.1,0-2-0.9-2-2S208.8,378.2,209.9,378.2z
		 M211.2,400.6h-2.6v-16h2.6V400.6z M217,378.2h2.6V397c0,1.1,0.3,1.6,1.5,1.6c0.7,0,1.2-0.1,1.6-0.1l0.3,2.2c0,0-1.5,0.2-2.7,0.2
		c-1.9,0-3.4-0.8-3.4-3.1L217,378.2L217,378.2z M239.4,400.9c-3.2,0-5.6-1.9-5.6-4.8c0-2.5,1.7-4.2,4.3-4.5l5.6-0.8v-1
		c0-2.4-1.6-3.2-3.6-3.2c-1.8,0-3.4,0.6-4.6,1.2l-1-2.1c1.8-1,3.9-1.5,5.9-1.5c3.9,0,5.9,1.7,5.9,5.1v7.5c0,1.1,0.4,1.8,1.3,2.2
		l-1.5,1.9c-1-0.3-1.8-1-2.1-1.9C243.1,400,241.5,400.9,239.4,400.9L239.4,400.9z M239.4,393.5c-1.8,0.3-2.9,0.8-2.9,2.5
		c0,1.9,1.5,2.9,3.3,2.9c2,0,3.9-1.2,3.9-3.1v-2.9L239.4,393.5z M262.7,398.7c-0.9,1.3-2.6,2.1-4.7,2.1c-4.1,0-6.8-3.5-6.8-8.3
		s2.7-8.3,6.8-8.3c2,0,3.7,0.8,4.7,2.1V378h2.6v22.4h-2.6V398.7L262.7,398.7z M254,392.7c0,3.3,1.6,5.9,4.5,5.9c2.8,0,4.2-2,4.2-4.7
		v-2.6c0-2.7-1.4-4.7-4.2-4.7c-2.9,0-4.5,2.6-4.5,5.9L254,392.7L254,392.7z M281.8,398.7c-0.9,1.3-2.6,2.1-4.7,2.1
		c-4.1,0-6.8-3.5-6.8-8.3s2.7-8.3,6.8-8.3c2,0,3.7,0.8,4.7,2.1V378h2.6v22.4h-2.6V398.7L281.8,398.7z M273.1,392.7
		c0,3.3,1.6,5.9,4.5,5.9c2.8,0,4.2-2,4.2-4.7v-2.6c0-2.7-1.4-4.7-4.2-4.7c-2.9,0-4.5,2.6-4.5,5.9V392.7L273.1,392.7z M298.5,386.9
		h-0.4c-2.7,0-5.1,1.1-5.1,5.4v8.2h-2.6v-16h2.6v2.5c0.8-1.9,2.8-2.8,4.8-2.8h0.8L298.5,386.9L298.5,386.9z M304.1,393.4
		c0.2,3,2.1,5.2,5,5.2c1.8,0,3.1-0.7,4.2-1.6l1.3,1.9c-1.4,1.2-3.3,2-5.7,2c-4.6,0-7.6-3.5-7.6-8.3c0-4.9,2.8-8.3,7.3-8.3
		c4.2,0,6.8,3.5,6.8,8.3v0.8H304.1L304.1,393.4z M304.1,391.3h8.4c-0.1-2.5-1.5-4.7-4-4.7C305.9,386.6,304.3,388.8,304.1,391.3z
		 M318.8,398.6l1.6-1.9c1,0.9,2.7,2,4.8,2c1.8,0,3.2-0.8,3.2-2.4c0-1.7-1.7-2.1-3.9-2.7c-2.3-0.6-5-1.4-5-4.7c0-2.7,2.5-4.6,5.8-4.6
		c2.1,0,4.4,0.9,5.5,2l-1.5,1.8c-0.9-0.9-2.3-1.5-3.9-1.5c-2.1,0-3.2,0.9-3.2,2.4c0,1.2,0.9,1.7,2.3,2.1c0.8,0.2,1.8,0.5,2.6,0.8
		c2.1,0.7,3.9,1.8,3.9,4.4c0,3.3-2.9,4.8-6,4.8C322.9,400.9,320.6,400.1,318.8,398.6L318.8,398.6z M334.7,398.6l1.6-1.9
		c1,0.9,2.7,2,4.8,2c1.8,0,3.2-0.8,3.2-2.4c0-1.7-1.7-2.1-3.9-2.7c-2.3-0.6-5-1.4-5-4.7c0-2.7,2.5-4.6,5.8-4.6c2.1,0,4.4,0.9,5.5,2
		l-1.5,1.8c-0.9-0.9-2.3-1.5-3.9-1.5c-2.1,0-3.2,0.9-3.2,2.4c0,1.2,0.9,1.7,2.3,2.1c0.8,0.2,1.8,0.5,2.6,0.8
		c2.1,0.7,3.9,1.8,3.9,4.4c0,3.3-2.9,4.8-6,4.8C338.8,400.9,336.4,400.1,334.7,398.6L334.7,398.6z M531.5,381.1v19.5h-2.7v-22.4h4
		l11.6,18.5v-18.5h2.7v22.4h-3.4L531.5,381.1L531.5,381.1z M558,400.9c-3.2,0-5.6-1.9-5.6-4.8c0-2.5,1.7-4.2,4.3-4.5l5.6-0.8v-1
		c0-2.4-1.6-3.2-3.6-3.2c-1.8,0-3.4,0.6-4.6,1.2l-1-2.1c1.8-1,3.9-1.5,5.9-1.5c3.9,0,5.9,1.7,5.9,5.1v7.5c0,1.1,0.4,1.8,1.3,2.2
		l-1.5,1.9c-1-0.3-1.8-1-2.1-1.9C561.7,400,560.1,400.9,558,400.9L558,400.9z M558,393.5c-1.8,0.3-2.9,0.8-2.9,2.5
		c0,1.9,1.5,2.9,3.3,2.9c2,0,3.9-1.2,3.9-3.1v-2.9L558,393.5z M583,400.6h-2.6v-10c0-2.8-1.4-3.8-3.2-3.8s-3.5,1.3-3.5,4.4v9.4H571
		v-16h2.6v1.8c1.1-1.5,2.5-2.1,4.2-2.1c1.4,0,3.5,0.7,4.3,2.7c1.2-2,3.1-2.7,4.9-2.7c3.5,0,5.4,2.5,5.4,5.3v10.9h-2.6v-10
		c0-2.8-1.5-3.8-3.3-3.8s-3.5,1.3-3.5,4.4L583,400.6L583,400.6z M600.1,393.4c0.2,3,2.1,5.2,5,5.2c1.8,0,3.1-0.7,4.2-1.6l1.3,1.9
		c-1.4,1.2-3.3,2-5.7,2c-4.6,0-7.6-3.5-7.6-8.3c0-4.9,2.8-8.3,7.3-8.3c4.2,0,6.8,3.5,6.8,8.3v0.8H600.1z M600.1,391.3h8.4
		c-0.1-2.5-1.5-4.7-4-4.7C601.9,386.6,600.3,388.8,600.1,391.3z M770.5,377.9c4.2,0,7,2.3,8.4,5.8l-2.6,0.9c-0.7-2-2.6-4.3-5.7-4.3
		c-4.7,0-6.8,4.3-6.8,8.9v0.4c0,4.6,2.2,8.9,6.8,8.9c3.1,0,5.1-2.2,5.7-4.3l2.6,0.9c-1.3,3.5-4.2,5.8-8.4,5.8c-6,0-9.8-5.1-9.8-11.5
		S764.4,377.9,770.5,377.9L770.5,377.9z M797.7,392.6c0,4.8-2.9,8.3-7.4,8.3c-4.4,0-7.4-3.5-7.4-8.3c0-4.9,2.9-8.3,7.4-8.3
		C794.7,384.3,797.7,387.7,797.7,392.6z M795,392.7v-0.2c0-3.2-1.6-5.9-4.6-5.9s-4.6,2.7-4.6,5.9v0.2c0,3.1,1.6,5.9,4.6,5.9
		S795,395.8,795,392.7z M802.7,378.2h2.6V397c0,1.1,0.3,1.6,1.5,1.6c0.7,0,1.2-0.1,1.6-0.1l0.3,2.2c0,0-1.5,0.2-2.7,0.2
		c-1.9,0-3.4-0.8-3.4-3.1v-19.6L802.7,378.2z M826.3,392.6c0,4.8-2.9,8.3-7.4,8.3c-4.4,0-7.4-3.5-7.4-8.3c0-4.9,2.9-8.3,7.4-8.3
		S826.3,387.7,826.3,392.6z M823.6,392.7v-0.2c0-3.2-1.6-5.9-4.6-5.9s-4.6,2.7-4.6,5.9v0.2c0,3.1,1.6,5.9,4.6,5.9
		S823.6,395.8,823.6,392.7z M843.9,400.6h-2.6v-1.8c-1.1,1.5-2.7,2.1-4.7,2.1c-3.6,0-5.3-2.5-5.3-5.4v-10.8h2.6v10
		c0,2.8,1.4,3.9,3.3,3.9c2.2,0,4.1-1.4,4.1-4.4v-9.5h2.6L843.9,400.6L843.9,400.6z M858.2,386.9h-0.4c-2.7,0-5.1,1.1-5.1,5.4v8.2
		H850v-16h2.6v2.5c0.8-1.9,2.8-2.8,4.8-2.8h0.8V386.9L858.2,386.9z"/>
	<path class="st8" d="M155.5,330.3h-9l-1.5,5.1h-2.9L149,313h4l7,22.4h-3L155.5,330.3z M147.2,328h7.6l-3.7-12.5h-0.3L147.2,328z
		 M537.6,313c3.5,0,6.2,2.2,6.2,5.6c0,2.2-1.5,4.3-3.5,5c2.3,0.3,4.8,2.2,4.8,5.4c0,4.4-3.5,6.3-7.7,6.3h-8.5V313H537.6z M541,318.9
		c0-2-1.2-3.7-4.4-3.7h-4.9v7.4h4.9C539.7,322.7,541,321,541,318.9L541,318.9z M537.4,325.1h-5.8v8h5.8c2.6,0,4.8-1.2,4.8-4.1
		S540,325.1,537.4,325.1z M770.5,312.7c4.2,0,7,2.3,8.4,5.8l-2.6,0.9c-0.7-2-2.6-4.3-5.7-4.3c-4.7,0-6.8,4.3-6.8,8.9v0.4
		c0,4.6,2.2,8.9,6.8,8.9c3.1,0,5.1-2.2,5.7-4.3l2.6,0.9c-1.3,3.5-4.2,5.8-8.4,5.8c-6,0-9.8-5.1-9.8-11.5S764.4,312.7,770.5,312.7
		L770.5,312.7z"/>
	<path class="st7" d="M143.2,463.2c0,0,1.8,0.6,2.9,0.6c3.2,0,3.5-1.4,3.5-4.4v-16h2.8v17.8c0,3.7-2.9,4.9-6,4.9
		c-1.4,0-2.8-0.3-4-0.6L143.2,463.2z M172.3,457.8c0,4.8-2.9,8.3-7.4,8.3c-4.4,0-7.4-3.5-7.4-8.3c0-4.9,2.9-8.3,7.4-8.3
		C169.3,449.5,172.3,452.9,172.3,457.8z M169.5,457.9v-0.2c0-3.2-1.6-5.9-4.6-5.9s-4.6,2.7-4.6,5.9v0.2c0,3.1,1.6,5.9,4.6,5.9
		S169.5,461,169.5,457.9z M175.8,463.8l1.6-1.9c1,0.9,2.7,2,4.8,2c1.8,0,3.2-0.8,3.2-2.4c0-1.7-1.7-2.1-3.9-2.7
		c-2.3-0.6-5-1.4-5-4.7c0-2.7,2.5-4.6,5.8-4.6c2.1,0,4.4,0.9,5.5,2l-1.5,1.8c-0.9-0.9-2.3-1.5-3.9-1.5c-2.1,0-3.2,0.9-3.2,2.4
		c0,1.2,0.9,1.7,2.3,2.1c0.8,0.2,1.8,0.5,2.6,0.8c2.1,0.7,3.9,1.8,3.9,4.4c0,3.3-2.9,4.8-6,4.8C180,466.1,177.6,465.4,175.8,463.8
		L175.8,463.8z M193.1,443.4h2.6v8.3c1.1-1.5,2.7-2.1,4.7-2.1c3.6,0,5.3,2.5,5.3,5.4v10.8h-2.6v-10c0-2.8-1.4-3.9-3.3-3.9
		c-2,0-4.1,1.4-4.1,4.4v9.5h-2.6L193.1,443.4L193.1,443.4z M228.3,464.2c-0.9,1.1-2.5,1.9-4.6,1.9c-3.2,0-5.6-1.9-5.6-4.8
		c0-2.5,1.7-4.2,4.3-4.5l5.6-0.8v-1c0-2.4-1.6-3.2-3.6-3.2c-1.8,0-3.4,0.6-4.6,1.2l-1-2.1c1.8-1,3.9-1.5,5.9-1.5
		c3.9,0,5.9,1.7,5.9,5.1v7.8c0,1,0.4,1.9,1.4,1.9c3.3,0,4.2-5.1,4.2-6.7c0-6.8-5.1-11.5-11.6-11.5s-11.8,5.3-11.8,11.8
		s5.3,11.8,11.8,11.8c1.9,0,3.6-0.4,5.2-1.2l1.2,1.3c-1.9,1-4.2,1.5-6.6,1.5c-7.5,0-13.5-6-13.5-13.5s6.2-13.5,13.7-13.5
		s13.2,5.4,13.2,13.2c0,3.4-1.9,8.5-6,8.5C229.3,466.1,228.5,464.9,228.3,464.2L228.3,464.2z M223.6,458.7c-1.8,0.3-2.9,0.8-2.9,2.5
		c0,1.9,1.5,2.9,3.3,2.9c2,0,3.9-1.2,3.9-3.1v-3L223.6,458.7z M245.2,458.6c0.2,3,2.1,5.2,5,5.2c1.8,0,3.1-0.7,4.2-1.6l1.3,1.9
		c-1.4,1.2-3.3,2-5.7,2c-4.6,0-7.6-3.5-7.6-8.3c0-4.9,2.8-8.3,7.3-8.3c4.2,0,6.8,3.5,6.8,8.3v0.8H245.2L245.2,458.6z M245.2,456.5
		h8.4c-0.1-2.5-1.5-4.7-4-4.7C247,451.8,245.3,454.1,245.2,456.5z M264.7,457.4l-4.9-7.6h3l3.4,5.5l3.3-5.5h3l-4.9,7.6l5.5,8.4H270
		l-4-6.2l-3.6,6.2h-3.1L264.7,457.4L264.7,457.4z M281.6,466.1c-3.2,0-5.6-1.9-5.6-4.8c0-2.5,1.7-4.2,4.3-4.5l5.6-0.8v-1
		c0-2.4-1.6-3.2-3.6-3.2c-1.8,0-3.4,0.6-4.6,1.2l-1-2.1c1.8-1,3.9-1.5,5.9-1.5c3.9,0,5.9,1.7,5.9,5.1v7.5c0,1.1,0.4,1.8,1.3,2.2
		l-1.5,1.9c-1-0.3-1.8-1-2.1-1.9C285.3,465.3,283.7,466.1,281.6,466.1L281.6,466.1z M281.6,458.7c-1.8,0.3-2.9,0.8-2.9,2.5
		c0,1.9,1.5,2.9,3.3,2.9c2,0,3.9-1.2,3.9-3.1v-3L281.6,458.7z M306.4,465.8h-2.6v-10c0-2.8-1.4-3.8-3.2-3.8c-1.8,0-3.5,1.3-3.5,4.4
		v9.4h-2.6v-16h2.6v1.8c1.1-1.5,2.5-2.1,4.2-2.1c1.4,0,3.5,0.7,4.3,2.7c1.2-2,3.1-2.7,4.9-2.7c3.5,0,5.4,2.5,5.4,5.3v10.9h-2.6v-10
		c0-2.8-1.5-3.8-3.3-3.8s-3.5,1.3-3.5,4.4L306.4,465.8L306.4,465.8z M324.2,449.8v1.8c0.9-1.3,2.6-2.1,4.7-2.1
		c4.1,0,6.8,3.5,6.8,8.3s-2.7,8.3-6.8,8.3c-2,0-3.7-0.8-4.7-2.1v6.7h-2.6v-20.8L324.2,449.8L324.2,449.8z M333,457.7
		c0-3.3-1.6-5.9-4.5-5.9c-2.8,0-4.2,2-4.2,4.7v2.6c0,2.7,1.4,4.7,4.2,4.7c2.9,0,4.5-2.6,4.5-5.9V457.7L333,457.7z M340.6,443.4h2.6
		v18.8c0,1.1,0.3,1.6,1.5,1.6c0.7,0,1.2-0.1,1.6-0.1l0.3,2.2c0,0-1.5,0.2-2.7,0.2c-1.9,0-3.4-0.8-3.4-3.1v-19.6H340.6z M352,458.6
		c0.2,3,2.1,5.2,5,5.2c1.8,0,3.1-0.7,4.2-1.6l1.3,1.9c-1.4,1.2-3.3,2-5.7,2c-4.6,0-7.6-3.5-7.6-8.3c0-4.9,2.8-8.3,7.3-8.3
		c4.2,0,6.8,3.5,6.8,8.3v0.8H352L352,458.6z M352.1,456.5h8.4c-0.1-2.5-1.5-4.7-4-4.7C353.9,451.8,352.2,454.1,352.1,456.5z
		 M369.9,461.8c1.2,0,2.1,1,2.1,2.1c0,1.2-1,2.1-2.1,2.1c-1.2,0-2.1-1-2.1-2.1S368.7,461.8,369.9,461.8z M379.4,457.9
		c0,3.2,1.6,5.9,4.6,5.9c2,0,3.3-1.2,4.1-2.7l2.2,1.2c-1.1,2.3-3.4,3.7-6.3,3.7c-4.4,0-7.4-3.5-7.4-8.3c0-4.9,2.9-8.3,7.4-8.3
		c2.9,0,5.2,1.5,6.3,3.7l-2.2,1.2c-0.8-1.5-2.1-2.7-4.1-2.7c-3.1,0-4.6,2.7-4.6,5.9V457.9L379.4,457.9z M408.7,457.8
		c0,4.8-2.9,8.3-7.4,8.3c-4.4,0-7.4-3.5-7.4-8.3c0-4.9,2.9-8.3,7.4-8.3S408.7,452.9,408.7,457.8z M406,457.9v-0.2
		c0-3.2-1.6-5.9-4.6-5.9s-4.6,2.7-4.6,5.9v0.2c0,3.1,1.6,5.9,4.6,5.9S406,461,406,457.9z M425.6,465.8H423v-10
		c0-2.8-1.4-3.8-3.2-3.8c-1.8,0-3.5,1.3-3.5,4.4v9.4h-2.6v-16h2.6v1.8c1.1-1.5,2.5-2.1,4.2-2.1c1.4,0,3.5,0.7,4.3,2.7
		c1.2-2,3.1-2.7,4.9-2.7c3.5,0,5.4,2.5,5.4,5.3v10.9h-2.6v-10c0-2.8-1.5-3.8-3.3-3.8s-3.5,1.3-3.5,4.4v9.5L425.6,465.8z
		 M526.8,463.2c0,0,1.8,0.6,2.9,0.6c3.2,0,3.5-1.4,3.5-4.4v-16h2.8v17.8c0,3.7-2.9,4.9-6,4.9c-1.4,0-2.8-0.3-4-0.6L526.8,463.2z
		 M556,457.8c0,4.8-2.9,8.3-7.4,8.3c-4.4,0-7.4-3.5-7.4-8.3c0-4.9,2.9-8.3,7.4-8.3S556,452.9,556,457.8z M553.3,457.9v-0.2
		c0-3.2-1.6-5.9-4.6-5.9s-4.6,2.7-4.6,5.9v0.2c0,3.1,1.6,5.9,4.6,5.9S553.3,461,553.3,457.9z M559.8,463.8l1.6-1.9
		c1,0.9,2.7,2,4.8,2c1.8,0,3.2-0.8,3.2-2.4c0-1.7-1.7-2.1-3.9-2.7c-2.3-0.6-5-1.4-5-4.7c0-2.7,2.5-4.6,5.8-4.6c2.1,0,4.4,0.9,5.5,2
		l-1.5,1.8c-0.9-0.9-2.3-1.5-3.9-1.5c-2.1,0-3.2,0.9-3.2,2.4c0,1.2,0.9,1.7,2.3,2.1c0.8,0.2,1.8,0.5,2.6,0.8
		c2.1,0.7,3.9,1.8,3.9,4.4c0,3.3-2.9,4.8-6,4.8C563.9,466.1,561.6,465.4,559.8,463.8L559.8,463.8z M577.2,443.4h2.6v8.3
		c1.1-1.5,2.7-2.1,4.7-2.1c3.6,0,5.3,2.5,5.3,5.4v10.8h-2.6v-10c0-2.8-1.4-3.9-3.3-3.9c-2,0-4.1,1.4-4.1,4.4v9.5h-2.6L577.2,443.4
		L577.2,443.4z M762,443.4h7.6c4.2,0,7.5,2,7.5,6.7c0,2.8-1.6,5.1-4.4,6.2l4.7,9.5h-3.2l-4.3-9h-5.2v9H762L762,443.4L762,443.4z
		 M769.8,454.4c2.6,0,4.4-1.6,4.4-4.3c0-2.8-1.9-4.4-4.4-4.4h-5.1v8.7L769.8,454.4L769.8,454.4z M783.9,458.6c0.2,3,2.1,5.2,5,5.2
		c1.8,0,3.1-0.7,4.2-1.6l1.3,1.9c-1.4,1.2-3.3,2-5.7,2c-4.6,0-7.6-3.5-7.6-8.3c0-4.9,2.8-8.3,7.3-8.3c4.2,0,6.8,3.5,6.8,8.3v0.8
		H783.9z M783.9,456.5h8.4c-0.1-2.5-1.5-4.7-4-4.7C785.7,451.8,784,454.1,783.9,456.5z M810.6,464c-0.9,1.3-2.6,2.1-4.7,2.1
		c-4.1,0-6.8-3.5-6.8-8.3s2.7-8.3,6.8-8.3c2,0,3.7,0.8,4.7,2.1v-8.3h2.6v22.4h-2.6V464L810.6,464z M801.9,457.9
		c0,3.3,1.6,5.9,4.5,5.9c2.8,0,4.2-2,4.2-4.7v-2.6c0-2.7-1.4-4.7-4.2-4.7c-2.9,0-4.5,2.6-4.5,5.9V457.9L801.9,457.9z M156.5,525.9
		h-9L146,531h-2.9l6.9-22.4h4l7,22.4h-3L156.5,525.9L156.5,525.9z M148.2,523.6h7.6l-3.7-12.5h-0.3L148.2,523.6z M177.6,531H175v-10
		c0-2.8-1.4-3.8-3.2-3.8s-3.5,1.3-3.5,4.4v9.4h-2.6v-16h2.6v1.8c1.1-1.5,2.5-2.1,4.2-2.1c1.4,0,3.5,0.7,4.3,2.7
		c1.2-2,3.1-2.7,4.9-2.7c3.5,0,5.4,2.5,5.4,5.3v11h-2.6v-10c0-2.8-1.5-3.8-3.3-3.8s-3.5,1.3-3.5,4.4v9.4L177.6,531z M197.2,531.3
		c-3.2,0-5.6-1.9-5.6-4.8c0-2.5,1.7-4.2,4.3-4.5l5.6-0.8v-1c0-2.4-1.6-3.2-3.6-3.2c-1.8,0-3.4,0.6-4.6,1.2l-1-2.1
		c1.8-1,3.9-1.5,5.9-1.5c3.9,0,5.9,1.7,5.9,5.1v7.5c0,1.1,0.4,1.8,1.3,2.2l-1.5,1.9c-1-0.3-1.8-1-2.1-1.9
		C200.9,530.4,199.3,531.3,197.2,531.3L197.2,531.3z M197.2,523.9c-1.8,0.3-2.9,0.8-2.9,2.5c0,1.9,1.5,2.9,3.3,2.9
		c2,0,3.9-1.2,3.9-3.1v-2.9L197.2,523.9z M209.9,508.6h2.6v18.8c0,1.1,0.3,1.6,1.5,1.6c0.7,0,1.2-0.1,1.6-0.1l0.3,2.2
		c0,0-1.5,0.2-2.7,0.2c-1.9,0-3.4-0.8-3.4-3.1L209.9,508.6L209.9,508.6z M223.9,531.3c-3.2,0-5.6-1.9-5.6-4.8c0-2.5,1.7-4.2,4.3-4.5
		l5.6-0.8v-1c0-2.4-1.6-3.2-3.6-3.2c-1.8,0-3.4,0.6-4.6,1.2l-1-2.1c1.8-1,3.9-1.5,5.9-1.5c3.9,0,5.9,1.7,5.9,5.1v7.5
		c0,1.1,0.4,1.8,1.3,2.2l-1.5,1.9c-1-0.3-1.8-1-2.1-1.9C227.6,530.4,226.1,531.3,223.9,531.3L223.9,531.3z M224,523.9
		c-1.8,0.3-2.9,0.8-2.9,2.5c0,1.9,1.5,2.9,3.3,2.9c2,0,3.9-1.2,3.9-3.1v-2.9L224,523.9z M253.5,529.4c-0.9,1.1-2.5,1.9-4.6,1.9
		c-3.2,0-5.6-1.9-5.6-4.8c0-2.5,1.7-4.2,4.3-4.5l5.6-0.8v-1c0-2.4-1.6-3.2-3.6-3.2c-1.8,0-3.4,0.6-4.6,1.2l-1-2.1
		c1.8-1,3.9-1.5,5.9-1.5c3.9,0,5.9,1.7,5.9,5.1v7.8c0,1,0.4,1.9,1.4,1.9c3.3,0,4.2-5.1,4.2-6.7c0-6.8-5.1-11.5-11.6-11.5
		S238,516.5,238,523s5.3,11.8,11.8,11.8c1.9,0,3.6-0.4,5.2-1.2l1.2,1.3c-1.9,1-4.2,1.5-6.6,1.5c-7.5,0-13.5-6-13.5-13.5
		s6.2-13.5,13.7-13.5c7.5,0,13.2,5.4,13.2,13.2c0,3.4-1.9,8.5-6,8.5C254.6,531.3,253.8,530,253.5,529.4L253.5,529.4z M248.9,523.9
		c-1.8,0.3-2.9,0.8-2.9,2.5c0,1.9,1.5,2.9,3.3,2.9c2,0,3.9-1.2,3.9-3.1v-2.9L248.9,523.9z M270.5,523.8c0.2,3,2.1,5.2,5,5.2
		c1.8,0,3.1-0.7,4.2-1.6l1.3,1.9c-1.4,1.2-3.3,2-5.7,2c-4.6,0-7.6-3.5-7.6-8.3c0-4.9,2.8-8.3,7.3-8.3c4.2,0,6.8,3.5,6.8,8.3v0.8
		L270.5,523.8L270.5,523.8z M270.5,521.7h8.4c-0.1-2.5-1.5-4.7-4-4.7C272.3,517,270.6,519.2,270.5,521.7z M289.9,522.5l-4.9-7.6h3
		l3.4,5.5l3.3-5.5h3l-4.9,7.6l5.5,8.4h-3.1l-4-6.2l-3.6,6.2h-3.1L289.9,522.5L289.9,522.5z M306.9,531.3c-3.2,0-5.6-1.9-5.6-4.8
		c0-2.5,1.7-4.2,4.3-4.5l5.6-0.8v-1c0-2.4-1.6-3.2-3.6-3.2c-1.8,0-3.4,0.6-4.6,1.2l-1-2.1c1.8-1,3.9-1.5,5.9-1.5
		c3.9,0,5.9,1.7,5.9,5.1v7.5c0,1.1,0.4,1.8,1.3,2.2l-1.5,1.9c-1-0.3-1.8-1-2.1-1.9C310.6,530.4,309,531.3,306.9,531.3L306.9,531.3z
		 M306.9,523.9c-1.8,0.3-2.9,0.8-2.9,2.5c0,1.9,1.5,2.9,3.3,2.9c2,0,3.9-1.2,3.9-3.1v-2.9L306.9,523.9z M331.7,531h-2.6v-10
		c0-2.8-1.4-3.8-3.2-3.8c-1.8,0-3.5,1.3-3.5,4.4v9.4h-2.6v-16h2.6v1.8c1.1-1.5,2.5-2.1,4.2-2.1c1.4,0,3.5,0.7,4.3,2.7
		c1.2-2,3.1-2.7,4.9-2.7c3.5,0,5.4,2.5,5.4,5.3v11h-2.6v-10c0-2.8-1.5-3.8-3.3-3.8s-3.5,1.3-3.5,4.4L331.7,531L331.7,531z
		 M349.5,515v1.8c0.9-1.3,2.6-2.1,4.7-2.1c4.1,0,6.8,3.5,6.8,8.3s-2.7,8.3-6.8,8.3c-2,0-3.7-0.8-4.7-2.1v6.7h-2.6V515H349.5z
		 M358.2,522.9c0-3.3-1.6-5.9-4.5-5.9c-2.8,0-4.2,2-4.2,4.7v2.6c0,2.7,1.4,4.7,4.2,4.7c2.9,0,4.5-2.6,4.5-5.9V522.9L358.2,522.9z
		 M365.9,508.6h2.6v18.8c0,1.1,0.3,1.6,1.5,1.6c0.7,0,1.2-0.1,1.6-0.1l0.3,2.2c0,0-1.5,0.2-2.7,0.2c-1.9,0-3.4-0.8-3.4-3.1v-19.6
		L365.9,508.6z M377.3,523.8c0.2,3,2.1,5.2,5,5.2c1.8,0,3.1-0.7,4.2-1.6l1.3,1.9c-1.4,1.2-3.3,2-5.7,2c-4.6,0-7.6-3.5-7.6-8.3
		c0-4.9,2.8-8.3,7.3-8.3c4.2,0,6.8,3.5,6.8,8.3v0.8L377.3,523.8L377.3,523.8z M377.3,521.7h8.4c-0.1-2.5-1.5-4.7-4-4.7
		C379.1,517,377.5,519.2,377.3,521.7z M395.2,527c1.2,0,2.1,1,2.1,2.1c0,1.2-1,2.1-2.1,2.1c-1.2,0-2.1-1-2.1-2.1
		C393.1,527.9,394,527,395.2,527z M404.7,523.1c0,3.2,1.6,5.9,4.6,5.9c2,0,3.3-1.2,4.1-2.7l2.2,1.2c-1.1,2.3-3.4,3.7-6.3,3.7
		c-4.4,0-7.4-3.5-7.4-8.3c0-4.9,2.9-8.3,7.4-8.3c2.9,0,5.2,1.5,6.3,3.7l-2.2,1.2c-0.8-1.5-2.1-2.7-4.1-2.7c-3.1,0-4.6,2.7-4.6,5.9
		V523.1L404.7,523.1z M434,523c0,4.8-2.9,8.3-7.4,8.3c-4.4,0-7.4-3.5-7.4-8.3c0-4.9,2.9-8.3,7.4-8.3C431,514.7,434,518.1,434,523z
		 M431.3,523.1v-0.2c0-3.2-1.6-5.9-4.6-5.9s-4.6,2.7-4.6,5.9v0.2c0,3.1,1.6,5.9,4.6,5.9S431.3,526.2,431.3,523.1z M450.9,531h-2.6
		v-10c0-2.8-1.4-3.8-3.2-3.8c-1.8,0-3.5,1.3-3.5,4.4v9.4H439v-16h2.6v1.8c1.1-1.5,2.5-2.1,4.2-2.1c1.4,0,3.5,0.7,4.3,2.7
		c1.2-2,3.1-2.7,4.9-2.7c3.5,0,5.4,2.5,5.4,5.3v11h-2.6v-10c0-2.8-1.5-3.8-3.3-3.8s-3.5,1.3-3.5,4.4v9.4L450.9,531z M540.2,525.9h-9
		l-1.5,5.1h-2.9l6.9-22.4h4l7,22.4h-3L540.2,525.9z M531.9,523.6h7.6l-3.7-12.5h-0.3L531.9,523.6z M561.4,531h-2.6v-10
		c0-2.8-1.4-3.8-3.2-3.8s-3.5,1.3-3.5,4.4v9.4h-2.6v-16h2.6v1.8c1.1-1.5,2.5-2.1,4.2-2.1c1.4,0,3.5,0.7,4.3,2.7
		c1.2-2,3.1-2.7,4.9-2.7c3.5,0,5.4,2.5,5.4,5.3v11h-2.6v-10c0-2.8-1.5-3.8-3.3-3.8s-3.5,1.3-3.5,4.4v9.4L561.4,531z M581.1,531.3
		c-3.2,0-5.6-1.9-5.6-4.8c0-2.5,1.7-4.2,4.3-4.5l5.6-0.8v-1c0-2.4-1.6-3.2-3.6-3.2c-1.8,0-3.4,0.6-4.6,1.2l-1-2.1
		c1.8-1,3.9-1.5,5.9-1.5c3.9,0,5.9,1.7,5.9,5.1v7.5c0,1.1,0.4,1.8,1.3,2.2l-1.5,1.9c-1-0.3-1.8-1-2.1-1.9
		C584.8,530.4,583.2,531.3,581.1,531.3L581.1,531.3z M581.1,523.9c-1.8,0.3-2.9,0.8-2.9,2.5c0,1.9,1.5,2.9,3.3,2.9
		c2,0,3.9-1.2,3.9-3.1v-2.9L581.1,523.9z M594,508.6h2.6v18.8c0,1.1,0.3,1.6,1.5,1.6c0.7,0,1.2-0.1,1.6-0.1l0.3,2.2
		c0,0-1.5,0.2-2.7,0.2c-1.9,0-3.4-0.8-3.4-3.1v-19.6L594,508.6z M608.2,531.3c-3.2,0-5.6-1.9-5.6-4.8c0-2.5,1.7-4.2,4.3-4.5l5.6-0.8
		v-1c0-2.4-1.6-3.2-3.6-3.2c-1.8,0-3.4,0.6-4.6,1.2l-1-2.1c1.8-1,3.9-1.5,5.9-1.5c3.9,0,5.9,1.7,5.9,5.1v7.5c0,1.1,0.4,1.8,1.3,2.2
		l-1.5,1.9c-1-0.3-1.8-1-2.1-1.9C611.9,530.4,610.3,531.3,608.2,531.3L608.2,531.3z M608.2,523.9c-1.8,0.3-2.9,0.8-2.9,2.5
		c0,1.9,1.5,2.9,3.3,2.9c2,0,3.9-1.2,3.9-3.1v-2.9L608.2,523.9z M776.6,522.5v-1.1h-6.3v-2.3h8.7V531h-2.5v-3
		c-1.5,2.5-3.7,3.3-6.2,3.3c-6.1,0-9.6-5.1-9.6-11.5s3.7-11.5,9.8-11.5c3.7,0,6.7,1.9,8.3,4.6l-2.3,1.2c-1.1-2.1-3-3.5-5.9-3.5
		c-4.7,0-6.8,4.3-6.8,8.9v0.4c0,4.6,2.2,8.9,6.9,8.9C775.4,528.9,776.6,525,776.6,522.5L776.6,522.5z M792.9,517.3h-0.4
		c-2.7,0-5.1,1.1-5.1,5.4v8.2h-2.6v-16h2.6v2.5c0.8-1.9,2.8-2.8,4.8-2.8h0.8L792.9,517.3L792.9,517.3z M798.6,523.8
		c0.2,3,2.1,5.2,5,5.2c1.8,0,3.1-0.7,4.2-1.6l1.3,1.9c-1.4,1.2-3.3,2-5.7,2c-4.6,0-7.6-3.5-7.6-8.3c0-4.9,2.8-8.3,7.3-8.3
		c4.2,0,6.8,3.5,6.8,8.3v0.8L798.6,523.8L798.6,523.8z M798.6,521.7h8.4c-0.1-2.5-1.5-4.7-4-4.7C800.4,517,798.8,519.2,798.6,521.7z
		 M816.7,523.8c0.2,3,2.1,5.2,5,5.2c1.8,0,3.1-0.7,4.2-1.6l1.3,1.9c-1.4,1.2-3.3,2-5.7,2c-4.6,0-7.6-3.5-7.6-8.3
		c0-4.9,2.8-8.3,7.3-8.3c4.2,0,6.8,3.5,6.8,8.3v0.8L816.7,523.8L816.7,523.8z M816.7,521.7h8.4c-0.1-2.5-1.5-4.7-4-4.7
		C818.5,517,816.8,519.2,816.7,521.7z M832.9,515h2.6v1.8c1.1-1.5,2.7-2.1,4.7-2.1c3.6,0,5.3,2.5,5.3,5.4V531h-2.6v-10
		c0-2.8-1.4-3.9-3.3-3.9c-2,0-4.1,1.4-4.1,4.4v9.5h-2.6L832.9,515L832.9,515z M145.2,573.8h7.6c4.2,0,7.5,2,7.5,6.7
		c0,2.8-1.6,5.1-4.4,6.2l4.7,9.5h-3.2l-4.3-9H148v9h-2.8L145.2,573.8L145.2,573.8z M153,584.8c2.6,0,4.4-1.6,4.4-4.3
		c0-2.8-1.9-4.4-4.4-4.4h-5v8.7H153z M178.8,588.2c0,4.8-2.9,8.3-7.4,8.3c-4.4,0-7.4-3.5-7.4-8.3c0-4.9,2.9-8.3,7.4-8.3
		S178.8,583.3,178.8,588.2z M176.1,588.3v-0.2c0-3.2-1.6-5.9-4.6-5.9s-4.6,2.7-4.6,5.9v0.2c0,3.1,1.6,5.9,4.6,5.9
		S176.1,591.4,176.1,588.3z M195.8,596.2h-2.6v-10c0-2.8-1.4-3.8-3.2-3.8s-3.5,1.3-3.5,4.4v9.4h-2.6v-16h2.6v1.8
		c1.1-1.5,2.5-2.1,4.2-2.1c1.4,0,3.5,0.7,4.3,2.7c1.2-2,3.1-2.7,4.9-2.7c3.5,0,5.4,2.5,5.4,5.3v10.9h-2.6v-10c0-2.8-1.5-3.8-3.3-3.8
		s-3.5,1.3-3.5,4.4L195.8,596.2L195.8,596.2z M215.4,596.5c-3.2,0-5.6-1.9-5.6-4.8c0-2.5,1.7-4.2,4.3-4.5l5.6-0.8v-1
		c0-2.4-1.6-3.2-3.6-3.2c-1.8,0-3.4,0.6-4.6,1.2l-1-2.1c1.8-1,3.9-1.5,5.9-1.5c3.9,0,5.9,1.7,5.9,5.1v7.5c0,1.1,0.4,1.8,1.3,2.2
		l-1.5,1.9c-1-0.3-1.8-1-2.1-1.9C219.1,595.6,217.5,596.5,215.4,596.5L215.4,596.5z M215.4,589.1c-1.8,0.3-2.9,0.8-2.9,2.5
		c0,1.9,1.5,2.9,3.3,2.9c2,0,3.9-1.2,3.9-3.1v-2.9L215.4,589.1z M228.2,580.2h2.6v1.8c1.1-1.5,2.7-2.1,4.7-2.1
		c3.6,0,5.3,2.5,5.3,5.4v10.8h-2.6v-10c0-2.8-1.4-3.9-3.3-3.9c-2,0-4.1,1.4-4.1,4.4v9.5h-2.6L228.2,580.2L228.2,580.2z M263.4,594.6
		c-0.9,1.1-2.5,1.9-4.6,1.9c-3.2,0-5.6-1.9-5.6-4.8c0-2.5,1.7-4.2,4.3-4.5l5.6-0.8v-1c0-2.4-1.6-3.2-3.6-3.2c-1.8,0-3.4,0.6-4.6,1.2
		l-1-2.1c1.8-1,3.9-1.5,5.9-1.5c3.9,0,5.9,1.7,5.9,5.1v7.8c0,1,0.4,1.9,1.4,1.9c3.3,0,4.2-5.1,4.2-6.7c0-6.8-5.1-11.5-11.6-11.5
		s-11.8,5.3-11.8,11.8s5.3,11.8,11.8,11.8c1.9,0,3.6-0.4,5.2-1.2l1.2,1.3c-1.9,1-4.2,1.5-6.6,1.5c-7.5,0-13.5-6-13.5-13.5
		s6.2-13.5,13.7-13.5c7.5,0,13.2,5.4,13.2,13.2c0,3.4-1.9,8.5-6,8.5C264.4,596.5,263.7,595.2,263.4,594.6z M258.8,589.1
		c-1.8,0.3-2.9,0.8-2.9,2.5c0,1.9,1.5,2.9,3.3,2.9c2,0,3.9-1.2,3.9-3.1v-2.9L258.8,589.1z M280.3,589c0.2,3,2.1,5.2,5,5.2
		c1.8,0,3.1-0.7,4.2-1.6l1.3,1.9c-1.4,1.2-3.3,2-5.7,2c-4.6,0-7.6-3.5-7.6-8.3c0-4.9,2.8-8.3,7.3-8.3c4.2,0,6.8,3.5,6.8,8.3v0.8
		L280.3,589L280.3,589z M280.4,586.9h8.4c-0.1-2.5-1.5-4.7-4-4.7C282.1,582.2,280.5,584.4,280.4,586.9z M299.8,587.7l-4.9-7.6h3
		l3.4,5.5l3.3-5.5h3l-4.9,7.6l5.5,8.4h-3.1l-4-6.2l-3.6,6.2h-3.1L299.8,587.7L299.8,587.7z M316.7,596.5c-3.2,0-5.6-1.9-5.6-4.8
		c0-2.5,1.7-4.2,4.3-4.5l5.6-0.8v-1c0-2.4-1.6-3.2-3.6-3.2c-1.8,0-3.4,0.6-4.6,1.2l-1-2.1c1.8-1,3.9-1.5,5.9-1.5
		c3.9,0,5.9,1.7,5.9,5.1v7.5c0,1.1,0.4,1.8,1.3,2.2l-1.5,1.9c-1-0.3-1.8-1-2.1-1.9C320.4,595.6,318.9,596.5,316.7,596.5L316.7,596.5
		z M316.8,589.1c-1.8,0.3-2.9,0.8-2.9,2.5c0,1.9,1.5,2.9,3.3,2.9c2,0,3.9-1.2,3.9-3.1v-2.9L316.8,589.1z M341.5,596.2h-2.6v-10
		c0-2.8-1.4-3.8-3.2-3.8c-1.8,0-3.5,1.3-3.5,4.4v9.4h-2.6v-16h2.6v1.8c1.1-1.5,2.5-2.1,4.2-2.1c1.4,0,3.5,0.7,4.3,2.7
		c1.2-2,3.1-2.7,4.9-2.7c3.5,0,5.4,2.5,5.4,5.3v10.9h-2.6v-10c0-2.8-1.5-3.8-3.3-3.8s-3.5,1.3-3.5,4.4L341.5,596.2L341.5,596.2z
		 M359.4,580.2v1.8c0.9-1.3,2.6-2.1,4.7-2.1c4.1,0,6.8,3.5,6.8,8.3s-2.7,8.3-6.8,8.3c-2,0-3.7-0.8-4.7-2.1v6.7h-2.6v-20.8h2.6V580.2
		z M368.1,588.1c0-3.3-1.6-5.9-4.5-5.9c-2.8,0-4.2,2-4.2,4.7v2.6c0,2.7,1.4,4.7,4.2,4.7c2.9,0,4.5-2.6,4.5-5.9V588.1L368.1,588.1z
		 M375.7,573.8h2.6v18.8c0,1.1,0.3,1.6,1.5,1.6c0.7,0,1.2-0.1,1.6-0.1l0.3,2.2c0,0-1.5,0.2-2.7,0.2c-1.9,0-3.4-0.8-3.4-3.1v-19.6
		L375.7,573.8z M387.2,589c0.2,3,2.1,5.2,5,5.2c1.8,0,3.1-0.7,4.2-1.6l1.3,1.9c-1.4,1.2-3.3,2-5.7,2c-4.6,0-7.6-3.5-7.6-8.3
		c0-4.9,2.8-8.3,7.3-8.3c4.2,0,6.8,3.5,6.8,8.3v0.8L387.2,589L387.2,589z M387.2,586.9h8.4c-0.1-2.5-1.5-4.7-4-4.7
		C389,582.2,387.3,584.4,387.2,586.9z M405.1,592.2c1.2,0,2.1,1,2.1,2.1c0,1.2-1,2.1-2.1,2.1c-1.2,0-2.1-1-2.1-2.1
		C402.9,593.1,403.9,592.2,405.1,592.2z M414.5,588.3c0,3.2,1.6,5.9,4.6,5.9c2,0,3.3-1.2,4.1-2.7l2.2,1.2c-1.1,2.3-3.4,3.7-6.3,3.7
		c-4.4,0-7.4-3.5-7.4-8.3c0-4.9,2.9-8.3,7.4-8.3c2.9,0,5.2,1.5,6.3,3.7l-2.2,1.2c-0.8-1.5-2.1-2.7-4.1-2.7c-3.1,0-4.6,2.7-4.6,5.9
		V588.3L414.5,588.3z M443.8,588.2c0,4.8-2.9,8.3-7.4,8.3c-4.4,0-7.4-3.5-7.4-8.3c0-4.9,2.9-8.3,7.4-8.3S443.8,583.3,443.8,588.2z
		 M441.1,588.3v-0.2c0-3.2-1.6-5.9-4.6-5.9s-4.6,2.7-4.6,5.9v0.2c0,3.1,1.6,5.9,4.6,5.9S441.1,591.4,441.1,588.3z M460.8,596.2h-2.6
		v-10c0-2.8-1.4-3.8-3.2-3.8c-1.8,0-3.5,1.3-3.5,4.4v9.4h-2.6v-16h2.6v1.8c1.1-1.5,2.5-2.1,4.2-2.1c1.4,0,3.5,0.7,4.3,2.7
		c1.2-2,3.1-2.7,4.9-2.7c3.5,0,5.4,2.5,5.4,5.3v10.9h-2.6v-10c0-2.8-1.5-3.8-3.3-3.8s-3.5,1.3-3.5,4.4L460.8,596.2L460.8,596.2z"/>
	<path class="st8" d="M86.3,378.4v-0.2H89v22.4h-2.8v-16.4H82v-2.4h0.4C85.4,381.8,86.3,380.8,86.3,378.4z M79.1,465.8v-2.7
		c1.7-1.5,6.4-5.4,8.1-6.9c1.8-1.6,3.4-3.6,3.4-6.2c0-2.8-1.8-4.4-4.4-4.4c-2.8,0-4.2,1.9-4.4,4.7l-2.9-0.2c0.1-4.4,3-6.9,7.3-6.9
		c4.4,0,7.3,2.6,7.3,7c0,3.3-1.7,5.4-6.7,9.7l-4.1,3.5h11v2.5H79.1L79.1,465.8z M80.9,525.2c0.8,2.1,2.3,3.6,5.2,3.6
		c3.3,0,4.8-1.9,4.8-4.2c0-2.5-1.9-3.9-5.2-3.9h-1v-2.4h0.5c2.9,0,5.3-1,5.3-3.9c0-2.6-2-3.9-4.4-3.9c-2.5,0-4.1,1.4-4.9,3.4l-2.5-1
		c1.2-3.3,4.2-4.8,7.5-4.8c3.9,0,7.2,2.5,7.2,6c0,2.4-1.4,4.5-4.2,5.2c3.2,0.7,4.6,2.8,4.6,5.4c0,4.4-3.6,6.4-7.7,6.4
		c-3.6,0-6.6-1.7-7.9-5.2L80.9,525.2L80.9,525.2z M88.4,596.2v-5.8H77.1v-2.8l10.1-13.9h3.9V588h3.7v2.3h-3.7v5.8h-2.7L88.4,596.2z
		 M88.4,588.1v-12l-8.6,12H88.4z"/>
	<path class="st7" d="M528.8,573.8h7.6c4.2,0,7.5,2,7.5,6.7c0,2.8-1.6,5.1-4.4,6.2l4.7,9.5H541l-4.3-9h-5.2v9h-2.8L528.8,573.8
		L528.8,573.8z M536.7,584.8c2.6,0,4.4-1.6,4.4-4.3c0-2.8-1.9-4.4-4.4-4.4h-5.1v8.7H536.7z M562.6,588.2c0,4.8-2.9,8.3-7.4,8.3
		c-4.4,0-7.4-3.5-7.4-8.3c0-4.9,2.9-8.3,7.4-8.3S562.6,583.3,562.6,588.2z M559.9,588.3v-0.2c0-3.2-1.6-5.9-4.6-5.9
		s-4.6,2.7-4.6,5.9v0.2c0,3.1,1.6,5.9,4.6,5.9S559.9,591.4,559.9,588.3z M579.7,596.2h-2.6v-10c0-2.8-1.4-3.8-3.2-3.8
		s-3.5,1.3-3.5,4.4v9.4h-2.6v-16h2.6v1.8c1.1-1.5,2.5-2.1,4.2-2.1c1.4,0,3.5,0.7,4.3,2.7c1.2-2,3.1-2.7,4.9-2.7
		c3.5,0,5.4,2.5,5.4,5.3v10.9h-2.6v-10c0-2.8-1.5-3.8-3.3-3.8s-3.5,1.3-3.5,4.4v9.5L579.7,596.2z M599.5,596.5
		c-3.2,0-5.6-1.9-5.6-4.8c0-2.5,1.7-4.2,4.3-4.5l5.6-0.8v-1c0-2.4-1.6-3.2-3.6-3.2c-1.8,0-3.4,0.6-4.6,1.2l-1-2.1
		c1.8-1,3.9-1.5,5.9-1.5c3.9,0,5.9,1.7,5.9,5.1v7.5c0,1.1,0.4,1.8,1.3,2.2l-1.5,1.9c-1-0.3-1.8-1-2.1-1.9
		C603.2,595.6,601.6,596.5,599.5,596.5L599.5,596.5z M599.5,589.1c-1.8,0.3-2.9,0.8-2.9,2.5c0,1.9,1.5,2.9,3.3,2.9
		c2,0,3.9-1.2,3.9-3.1v-2.9L599.5,589.1z M612.5,580.2h2.6v1.8c1.1-1.5,2.7-2.1,4.7-2.1c3.6,0,5.3,2.5,5.3,5.4v10.8h-2.6v-10
		c0-2.8-1.4-3.9-3.3-3.9c-2,0-4.1,1.4-4.1,4.4v9.5h-2.6L612.5,580.2L612.5,580.2z M770.7,573.8c3.5,0,6.2,2.2,6.2,5.6
		c0,2.2-1.5,4.3-3.5,5c2.3,0.3,4.8,2.2,4.8,5.4c0,4.4-3.5,6.3-7.7,6.3H762v-22.4h8.7V573.8z M774.2,579.7c0-2-1.2-3.7-4.4-3.7h-4.9
		v7.4h4.9C772.9,583.5,774.2,581.8,774.2,579.7z M770.6,585.9h-5.8v8h5.8c2.6,0,4.8-1.2,4.8-4.1
		C775.4,586.9,773.2,585.9,770.6,585.9z M783.3,573.8h2.6v18.8c0,1.1,0.3,1.6,1.5,1.6c0.7,0,1.2-0.1,1.6-0.1l0.3,2.2
		c0,0-1.5,0.2-2.7,0.2c-1.9,0-3.4-0.8-3.4-3.1v-19.6L783.3,573.8z M805.6,596.2H803v-1.8c-1.1,1.5-2.7,2.1-4.7,2.1
		c-3.6,0-5.3-2.5-5.3-5.4v-10.8h2.6v10c0,2.8,1.4,3.9,3.3,3.9c2.2,0,4.1-1.4,4.1-4.4v-9.5h2.6L805.6,596.2L805.6,596.2z M813.5,589
		c0.2,3,2.1,5.2,5,5.2c1.8,0,3.1-0.7,4.2-1.6l1.3,1.9c-1.4,1.2-3.3,2-5.7,2c-4.6,0-7.6-3.5-7.6-8.3c0-4.9,2.8-8.3,7.3-8.3
		c4.2,0,6.8,3.5,6.8,8.3v0.8L813.5,589L813.5,589z M813.5,586.9h8.4c-0.1-2.5-1.5-4.7-4-4.7C815.3,582.2,813.7,584.4,813.5,586.9z"
		/>
	<circle class="st3" cx="78.4" cy="270" r="8.5"/>
	<circle class="st3" cx="102.1" cy="270" r="8.5"/>
	<circle class="st3" cx="125.9" cy="270" r="8.5"/>
	<path class="st2" d="M956,250H63c-5.5,0-10,4.5-10,10v30h903V250z"/>
	<circle class="st3" cx="78.4" cy="270" r="8.5"/>
	<circle class="st3" cx="102.1" cy="270" r="8.5"/>
	<circle class="st3" cx="125.9" cy="270" r="8.5"/>
	<path class="st9" d="M505.6,290H120.2v67.2l4-4V294h377.4L505.6,290z"/>
	<path class="st10" d="M501.6,294v59.2H124.2l-4,4h385.4V290L501.6,294z"/>
	<path class="st9" d="M120.2,357.2H53v63.2l4-4v-55.2h59.2L120.2,357.2z"/>
	<path class="st10" d="M116.2,361.2v55.2H57l-4,4h67.2v-63.2L116.2,361.2z M61,357.2V294h59.2v-4H57v67.2H61z"/>
	<path class="st9" d="M120.2,420.4H53v65.2l4-4v-57.2h59.2L120.2,420.4z"/>
	<path class="st10" d="M116.2,424.4v57.2H57l-4,4h67.2v-65.2L116.2,424.4z"/>
	<path class="st9" d="M120.2,485.6H53v65.2l4-4v-57.2h59.2L120.2,485.6z"/>
	<path class="st10" d="M116.2,489.6v57.2H57l-4,4h67.2v-65.2L116.2,489.6z"/>
	<path class="st9" d="M120.2,550.8H53V616l4-4v-57.2h59.2L120.2,550.8z"/>
	<path class="st10" d="M116.2,554.8V612H57l-4,4h67.2v-65.2L116.2,554.8z"/>
	<path class="st9" d="M120.2,616H53v20h4v-16h59.2L120.2,616z"/>
	<path class="st10" d="M116.2,620v16h4v-20L116.2,620z"/>
	<path class="st9" d="M738.8,290H505.6v67.2l4-4V294h225.2L738.8,290z"/>
	<path class="st10" d="M734.8,294v59.2H509.6l-4,4h233.2V290L734.8,294z"/>
	<path class="st9" d="M960,290H738.8v67.2l4-4V294H956L960,290z"/>
	<path class="st10" d="M948,353.2H742.8l-4,4h219v-4H948z"/>
	<path class="st2" d="M0,36v551h54.7v-4H4V40h952v547h4V36H0z"/>
	<path class="st2" d="M53,286v354h907V286H53z M57,636V290h899v346H57z"/>
	<g>
		<circle class="st3" cx="66.7" cy="62.2" r="2.5"/>
		<circle class="st3" cx="60.1" cy="66.1" r="2.5"/>
		<circle class="st3" cx="55.7" cy="72.6" r="2.5"/>
		<circle class="st3" cx="74.5" cy="70.9" r="2.5"/>
		<circle class="st3" cx="82.3" cy="62.2" r="2.5"/>
		<circle class="st3" cx="88.9" cy="66.1" r="2.5"/>
		<circle class="st3" cx="93.3" cy="72.6" r="2.5"/>
		<circle class="st3" cx="74.5" cy="70.9" r="2.5"/>
		<path class="st3" d="M75.4,57c0.1-0.1,0.2-0.2,0.3-0.3l3.1,1.6v-4.6l-3.1,1c-0.1-0.1-0.2-0.2-0.3-0.3l1.3-4h-4.5l1.3,4
			c-0.1,0.1-0.2,0.2-0.3,0.3l-3.1-1v4.6l3.1-1.6c0.1,0.1,0.2,0.2,0.3,0.3l-1.7,5.4c-0.6,1.9,0.8,3.8,2.7,3.8l0,0
			c2,0,3.4-1.9,2.7-3.8L75.4,57L75.4,57z M78,75.8c0,0-2.3,2.5-2.7,4.1c1.5,0,2.8-0.3,4.3-1.9l-0.5,5.7c-1.3-1.9-2.9-2.7-3.8-2.5
			c0.1,2.1,0.3,4.5,3.9,4.8c2.5,0.2,4.5-1,4.7-2.5c0.3-1.7-1.3-2.9-2.5-1.1c-0.9-3,1.6-4.1,3.3-2.1c-1.3-3-1.2-5.2,1.6-7.3
			c2,2.7,1.7,4.9-0.8,7.4c1.6-0.9,4.2,0,2.7,3.1c-0.8-1.9-2.5-1.5-2.8,0.1c-0.2,1.1,0.5,2.5,2,2.8c1.3,0.2,3.1-0.6,4.7-4
			c-0.9,0-1.6,0.5-2.6,1.1l1.6-5.4c0.4,1.5,0.9,2.5,1.5,3c0.4-1.1,0.3-1.9,0-3.6l3.3,1.2c-1.7,2.4-3.5,5.8-4.9,11.7
			c-5-0.7-10.5-1.1-16.4-1.1l0,0c-5.9,0-11.5,0.4-16.4,1.1c-1.4-6-3.1-9.3-4.9-11.7l3.3-1.2c-0.3,1.7-0.4,2.5,0,3.6
			c0.5-0.5,1.1-1.5,1.5-3l1.6,5.4c-1-0.7-1.7-1.1-2.6-1.1c1.5,3.3,3.5,4.2,4.7,4c1.5-0.3,2.2-1.6,2-2.8c-0.3-1.6-2-2.1-2.8-0.1
			c-1.5-3.1,1.1-4,2.7-3.1c-2.5-2.5-2.8-4.8-0.8-7.4c2.8,2.1,2.9,4.3,1.6,7.3c1.7-1.9,4.2-0.9,3.3,2.1c-1.2-1.8-2.7-0.7-2.5,1.1
			c0.2,1.5,2.2,2.7,4.7,2.5c3.6-0.3,3.8-2.8,3.9-4.8c-0.9-0.1-2.5,0.7-3.8,2.5L69.5,78c1.5,1.5,2.8,1.8,4.3,1.9
			c-0.5-1.5-2.7-4.1-2.7-4.1h7.1l0,0H78z"/>
	</g>
	<circle class="st11" cx="205.3" cy="74.5" r="4.9"/>
	<path class="st3" d="M116.7,74.6c0,1.3,0.1,2.4,0.5,3.6c0.3,1.1,0.8,2.1,1.4,3c0.6,0.9,1.5,1.6,2.4,2.1c1,0.5,2.1,0.8,3.6,0.8
		s2.4-0.2,3.3-0.6s1.5-0.9,2.1-1.5c0.5-0.6,0.9-1.3,1.1-2c0.2-0.7,0.3-1.4,0.3-2v-0.3h-7.4v-4.4H137v16.1h-5.2v-3.6
		c-0.3,0.5-0.8,1.1-1.3,1.5c-0.5,0.5-1.1,0.9-1.8,1.2s-1.4,0.6-2.2,0.8s-1.7,0.3-2.5,0.3c-2.1,0-4-0.4-5.6-1.1
		c-1.7-0.7-3-1.8-4.2-3.1s-2-2.9-2.5-4.8c-0.6-1.8-0.9-3.8-0.9-5.8c0-2.1,0.3-4,1-5.8c0.7-1.8,1.6-3.4,2.8-4.8
		c1.2-1.3,2.7-2.4,4.4-3.1c1.7-0.7,3.6-1.1,5.8-1.1s2.7,0.1,4,0.5c1.2,0.3,2.3,0.7,3.4,1.3c1,0.6,1.9,1.3,2.7,2.1
		c0.8,0.8,1.4,1.7,1.9,2.7l-5.2,2.9c-0.3-0.6-0.7-1.2-1.1-1.7c-0.4-0.5-0.9-1-1.5-1.4c-0.5-0.4-1.1-0.7-1.9-0.9
		c-0.7-0.2-1.5-0.3-2.3-0.3c-1.3,0-2.5,0.3-3.6,0.8c-1,0.5-1.8,1.3-2.4,2.1c-0.6,0.9-1.1,1.9-1.4,3.1c-0.3,1.2-0.5,2.3-0.5,3.6v0.2
		l0,0L116.7,74.6z M155.7,59.6c2.1,0,4.1,0.4,5.8,1.1c1.7,0.8,3.1,1.8,4.4,3.1c1.2,1.3,2.1,2.9,2.7,4.8s0.9,3.8,0.9,5.8
		c0,2.1-0.3,4-0.9,5.8c-0.6,1.8-1.5,3.4-2.7,4.8c-1.2,1.3-2.7,2.4-4.4,3.1c-1.7,0.7-3.7,1.1-5.8,1.1s-4.1-0.4-5.8-1.1
		c-1.7-0.7-3.1-1.8-4.4-3.1c-1.2-1.3-2.1-2.9-2.7-4.8c-0.6-1.8-0.9-3.8-0.9-5.8c0-2.1,0.3-4,0.9-5.8c0.6-1.8,1.5-3.4,2.7-4.8
		c1.2-1.3,2.7-2.4,4.4-3.1S153.5,59.6,155.7,59.6C155.7,59.6,155.7,59.6,155.7,59.6z M155.7,84.2c1.3,0,2.4-0.3,3.4-0.7
		c0.9-0.5,1.8-1.1,2.4-2c0.7-0.9,1.1-1.9,1.5-3c0.3-1.1,0.5-2.4,0.5-3.8v-0.1c0-1.3-0.2-2.6-0.5-3.8c-0.3-1.1-0.9-2.2-1.5-3
		c-0.7-0.9-1.5-1.5-2.4-2c-0.9-0.5-2.1-0.7-3.4-0.7s-2.4,0.3-3.3,0.7c-1,0.5-1.8,1.1-2.4,2c-0.6,0.9-1.1,1.9-1.5,3
		c-0.3,1.1-0.5,2.4-0.5,3.8v0.1c0,1.4,0.2,2.7,0.5,3.8c0.3,1.1,0.8,2.1,1.5,3s1.5,1.5,2.4,2C153.3,83.9,154.4,84.2,155.7,84.2z
		 M179.9,89.3l-8.2-29.5h6.6l5.6,22h0.2l5.5-22h6.5l-8.2,29.5 M229.4,84.2c0.9,0,1.7-0.1,2.4-0.4c0.7-0.3,1.3-0.6,1.9-1.1
		c0.5-0.5,0.9-1.1,1.3-1.9s0.5-1.7,0.5-2.7V59.8h5.8v19.1c0,1.6-0.3,3.1-0.9,4.4c-0.6,1.3-1.4,2.4-2.5,3.3c-1.1,0.9-2.3,1.6-3.8,2.1
		c-1.5,0.5-3,0.7-4.8,0.7s-3.3-0.3-4.8-0.7c-1.5-0.5-2.7-1.2-3.8-2.1c-1.1-0.9-1.9-2-2.5-3.3c-0.6-1.3-0.9-2.7-0.9-4.4V59.8h5.8V78
		c0,1.1,0.1,1.9,0.5,2.7c0.3,0.8,0.7,1.4,1.3,1.9c0.5,0.5,1.1,0.9,1.9,1.1C227.7,84.1,228.5,84.2,229.4,84.2L229.4,84.2L229.4,84.2z
		 M246.5,59.8h5.8v12.8l10.4-12.8h7.2l-10.1,11.8l10.8,17.7h-6.8l-7.7-13.2l-3.8,4.2v9h-5.8"/>
	<path class="st3" d="M289.1,63.9v25.5h-3.6V60.1h5.2L306,84.2V60.1h3.6v29.3h-4.4L289.1,63.9z M334.6,78.9c0,6.3-3.8,10.8-9.6,10.8
		c-5.8,0-9.6-4.6-9.6-10.8c0-6.4,3.8-10.8,9.6-10.8S334.6,72.5,334.6,78.9z M331,79.1v-0.2c0-4.2-2.1-7.8-6-7.8c-3.9,0-6,3.6-6,7.8
		v0.2c0,4.1,2.1,7.8,6,7.8C328.9,86.8,331,83.1,331,79.1z M345.1,84.1c0,1.4,0.2,2.6,2.7,2.6c0.6,0,2-0.1,2.6-0.2l0.4,3
		c0,0-2,0.2-3.7,0.2c-3.3,0-5.4-1.4-5.4-4.8V71.4h-3.9v-3h3.9v-6.8l3.4-1.2v8h5.8v3h-5.8C345.1,71.4,345.1,84.1,345.1,84.1z
		 M357.3,60.1c1.4,0,2.5,1.2,2.5,2.6c0,1.5-1.1,2.6-2.5,2.6c-1.5,0-2.6-1.1-2.6-2.6S355.8,60.1,357.3,60.1z M358.9,89.4h-3.4V68.5
		h3.4V89.4z M370.6,68.5h4.2v3h-4.2v17.9h-3.4V71.4h-3.4v-3h3.4v-3.9c0-3.6,2.5-4.9,5.8-4.9c1.7,0,2.8,0.2,3.3,0.2l-0.2,3
		c-0.7-0.1-2.3-0.1-3-0.1c-2,0-2.5,1.2-2.5,2.5L370.6,68.5L370.6,68.5z M377.1,68.5h3.9l5.2,17.2l4.9-17.2h3.8l-7.6,24
		c-0.9,3-3,3.7-5.5,3.7c-1.1,0-2.3-0.1-3.7-0.4l0.5-3c0,0,1.5,0.2,2.7,0.2c1.5,0,2.3-0.6,2.6-2.1l0.2-1L377.1,68.5L377.1,68.5z"/>
</g>
<g id="Layer_2">
</g>
</svg>
