<svg id="Layer_1" xmlns="http://www.w3.org/2000/svg" viewBox="0 0 960 640"><style>.st0{fill:#0B0B0B;} .st1{fill:#1E1E1E;} .st2{fill:#DADADA;} .st3{fill:#FFFFFF;} .st4{fill:#FFEE7D;} .st5{fill:#F8F8F8;} .st6{fill:#7DFFEE;} .st7{fill:#6E6E6E;}</style><path class="st0" d="M1 40h958v598H1z"/><path class="st1" d="M1 40h149.5v596H1z"/><path class="st2" d="M0 40V10C0 4.5 4.5 0 10 0h940c5.5 0 10 4.5 10 10v30"/><circle class="st3" cx="25.4" cy="20" r="8.5"/><circle class="st3" cx="49.1" cy="20" r="8.5"/><circle class="st3" cx="72.9" cy="20" r="8.5"/><path class="st4" d="M205.1 100.1h9.7V120h8.3v2.4H204V120h8.3v-17.6h-7.1v-2.3zm8.4-8.4c1.4 0 2.6 1.1 2.6 2.6 0 1.4-1.1 2.5-2.6 2.5-1.4 0-2.5-1.1-2.5-2.5s1.1-2.6 2.5-2.6zm37.9 4.2c-1.2-1.7-3.6-2.4-5.5-2.4-3.4 0-4.8 2.2-4.8 4.4v2.2h8.3v2.4H241v19.9h-2.6v-19.9H232v-2.4h6.5V98c0-3.6 2.2-7 7.4-7 2.7 0 5.9 1.1 7.7 3.5l-2.2 1.4z"/><path class="st5" d="M288.2 122.4v-22.3h2.6v4.9h.4c1.7-3.1 4.6-5.3 8.2-5.3 7.1 0 7.1 5.6 7.1 6.5v.7h-2.6v-.2c0-.5 0-4.5-4.8-4.5-3.8 0-8.3 3.9-8.3 10.6v9.7h-2.6zm27.1-11.2c0-6.9 4.8-11.6 10.5-11.6 5.8 0 10 4.7 10 11.6v.7h-17.7c.1 5 3.8 8.4 8.1 8.4 3.2 0 5.5-1.9 6.8-5l2.3 1.1c-1.7 4-5.3 6.4-9.5 6.4-5.7-.1-10.5-4.7-10.5-11.6zm2.8-1.6h15c-.5-4.5-3.4-7.5-7.3-7.5-4 0-7.2 3-7.7 7.5zm26.1 12.8h-2.6v-22.3h2.6v3.2h.6c1.4-2.4 2.6-3.7 4.7-3.7 3.1 0 4.4 1.9 5.1 3.7h.7c1.4-2.3 2.9-3.7 5-3.7 5.5 0 5.5 5.1 5.5 5.9v16.8h-2.6v-16.5c0-.6 0-3.8-3.1-3.8-2.5 0-5.1 3.7-5.1 7.4v12.8h-2.6v-16.5c0-.6 0-3.8-3.1-3.8-2.5 0-5.1 3.7-5.1 7.4v13.1zm29.9-22.3h9.7V120h8.3v2.4H373V120h8.3v-17.6h-7.1v-2.3zm8.4-8.4c1.4 0 2.6 1.1 2.6 2.6 0 1.4-1.1 2.5-2.6 2.5-1.4 0-2.5-1.1-2.5-2.5s1.1-2.6 2.5-2.6zm18.4 30.7v-22.3h2.6v4.9h.4c1.7-3.1 4.6-5.3 8.2-5.3 7.1 0 7.1 5.6 7.1 6.5v16.3h-2.6v-15.8c0-.5 0-4.5-4.8-4.5-3.8 0-8.3 3.9-8.3 10.6v9.7h-2.6zm47 0h-2.6v-3.9h-.3c-2 2.8-4.6 4.3-7.5 4.3-5.6 0-10-5.2-10-11.5 0-6.4 4.4-11.6 10-11.6 2.9 0 5.5 1.7 7.5 4.5h.3V92h2.6v30.4zm-2.6-11.2c0-5.4-2.8-9.1-7.6-9.1-4.2 0-7.5 4-7.5 9.1s3.3 9.1 7.5 9.1c4.7 0 7.5-3.6 7.6-8.7v-.4zm10.8 0c0-6.9 4.8-11.6 10.5-11.6 5.8 0 10 4.7 10 11.6v.7h-17.7c.1 5 3.8 8.4 8.1 8.4 3.2 0 5.5-1.9 6.8-5l2.3 1.1c-1.7 4-5.3 6.4-9.5 6.4-5.7-.1-10.5-4.7-10.5-11.6zm2.8-1.6h15c-.5-4.5-3.4-7.5-7.3-7.5-4 0-7.2 3-7.7 7.5zm26.4 12.8v-22.3h2.6v4.9h.4c1.7-3.1 4.6-5.3 8.2-5.3 7.1 0 7.1 5.6 7.1 6.5v.7H501v-.2c0-.5 0-4.5-4.8-4.5-3.8 0-8.3 3.9-8.3 10.6v9.7h-2.6zm28.4 0h18v2.4h-18v-2.4zm46.8 0h-2.6v-3.9h-.3c-2 2.8-4.6 4.3-7.5 4.3-5.6 0-10-5.2-10-11.5 0-6.4 4.4-11.6 10-11.6 2.9 0 5.5 1.7 7.5 4.5h.3V92h2.6v30.4zm-2.6-11.2c0-5.4-2.8-9.1-7.6-9.1-4.2 0-7.5 4-7.5 9.1s3.3 9.1 7.5 9.1c4.7 0 7.5-3.6 7.6-8.7v-.4zm30.2-11.1v22.3h-2.6v-5h-.4c-1.7 3.1-4.6 5.4-8.2 5.4-7.1 0-7.1-5.6-7.1-6.5v-16.2h2.6v15.7c0 .5 0 4.5 4.8 4.5 3.8 0 8.3-3.9 8.3-10.6v-9.6h2.6zm8.8 11.1c0-6.9 4.8-11.6 10.5-11.6 5.8 0 10 4.7 10 11.6v.7h-17.7c.1 5 3.8 8.4 8.1 8.4 3.2 0 5.5-1.9 6.8-5l2.3 1.1c-1.7 4-5.3 6.4-9.5 6.4-5.7-.1-10.5-4.7-10.5-11.6zm2.8-1.6h15c-.5-4.5-3.4-7.5-7.3-7.5-4 0-7.2 3-7.7 7.5z"/><path class="st4" d="M665.7 123.1c0 1.7 0 3 1.1 3h1.5v2.5h-1.5c-2.8 0-3.7-2.9-3.7-6.4v-7.7c0-2.3-1.7-3.6-3.3-4.3v-2.8c1.8-.6 3.3-1.7 3.3-4.3V95c0-3.9.8-5.5 3.7-5.5h1.5V92h-1.5c-1.1 0-1.1 1.5-1.1 4v7.7c0 2.9-1.2 4.5-2.7 5.2 1.4.8 2.7 2.3 2.7 5.1v9.1z"/><path class="st5" d="M316.4 271.4v-22.3h2.6v4.9h.4c1.7-3.1 4.6-5.3 8.2-5.3 7.1 0 7.1 5.6 7.1 6.5v16.3H332v-15.8c0-.5 0-4.5-4.8-4.5-3.8 0-8.3 3.9-8.3 10.6v9.7h-2.5zm37.3-22.8c5.7 0 10.4 4.7 10.4 11.6 0 6.9-4.8 11.5-10.4 11.5-5.8 0-10.5-4.7-10.5-11.5 0-6.9 4.8-11.6 10.5-11.6zm0 20.7c4.3 0 7.8-3.7 7.8-9.1 0-5.4-3.5-9.1-7.8-9.1s-7.8 3.7-7.8 9.1c0 5.4 3.5 9.1 7.8 9.1zm26.3-4.5c0 2.2 1.5 4.4 4.9 4.4 1.9 0 4.2-.8 5.3-2.9l2.3 1.1c-1.7 3-4.9 4.2-7.6 4.2-5.2 0-7.5-3.5-7.5-7v-13.2h-6.3V249h6.3v-8h2.6v8.1h10.9v2.4H380v13.3zm22.3-15.7h9.7V269h8.3v2.4h-19.1V269h8.3v-17.6h-7.1v-2.3zm8.4-8.4c1.4 0 2.6 1.1 2.6 2.6 0 1.4-1.1 2.5-2.6 2.5s-2.5-1.1-2.5-2.5 1.1-2.6 2.5-2.6zm37.9 4.2c-1.2-1.7-3.6-2.4-5.5-2.4-3.4 0-4.8 2.2-4.8 4.4v2.2h8.3v2.4h-8.3v19.9h-2.6v-19.9h-6.5v-2.4h6.5V247c0-3.6 2.2-7 7.4-7 2.7 0 5.9 1.1 7.7 3.5l-2.2 1.4zm4.5 31.1c1.5 1.9 3.3 2.8 5 2.8 2.2 0 3.5-1 4-2.3l2.2-6-9.5-21.4h2.9l7.8 17.3h.3l6.6-17.3h2.9l-10.8 28.2c-.9 2.3-2.9 4-6.4 4-2.5 0-5.1-1.1-7.1-3.7l2.1-1.6zm38.7-7c0-1.5 1.2-2.7 2.7-2.7 1.6 0 2.8 1.2 2.8 2.7 0 1.6-1.2 2.8-2.8 2.8-1.5-.1-2.7-1.2-2.7-2.8zm23.3-4.8s.5 1.8 1.9 2.9c1.2 1 3.1 2 6.2 2 3 0 4.8-.8 5.8-1.8s1.3-2 1.3-2.6c0-3.3-4.5-3.2-7.6-3.6-3.1-.4-6.6-.8-8.1-2.8-.9-1.1-1.2-2.2-1.2-3 0-.6.1-2.2 1.4-3.8 1.1-1.5 3.4-2.9 7.6-2.9 4.5 0 6.8 1.8 8.1 3.6 1.1 1.7 1.2 3.5 1.2 3.5h-2.6s0-1.3-.8-2.4c-.8-1.1-2.4-2.2-5.6-2.2-3.2 0-4.7.8-5.5 1.8-.8.9-.9 1.8-.9 2.2 0 2.6 3.2 3.2 7.3 3.6 5.3.6 6.8.8 8.3 2.3.9.9 1.4 2.2 1.4 3.7 0 .9-.4 2.6-1.8 4-1.3 1.5-3.7 2.9-7.8 2.9-4.2 0-6.8-1.4-8.4-3-2-1.9-2.6-4.5-2.6-4.5h2.4zm25.5-4c0-6.9 4.8-11.6 10.5-11.6 5.8 0 10 4.7 10 11.6v.7h-17.7c.1 5 3.8 8.4 8.1 8.4 3.2 0 5.5-1.9 6.8-5l2.3 1.1c-1.7 4-5.3 6.4-9.5 6.4-5.8-.1-10.5-4.7-10.5-11.6zm2.8-1.6h15c-.5-4.5-3.4-7.5-7.3-7.5-4 0-7.2 3-7.7 7.5zm26.4 12.8v-22.3h2.6v4.9h.4c1.7-3.1 4.6-5.3 8.2-5.3 7.1 0 7.1 5.6 7.1 6.5v16.3h-2.6v-15.8c0-.5 0-4.5-4.8-4.5-3.8 0-8.3 3.9-8.3 10.6v9.7h-2.6zm47.1 0h-2.6v-3.9h-.3c-2 2.8-4.6 4.3-7.5 4.3-5.6 0-10-5.2-10-11.5 0-6.4 4.4-11.6 10-11.6 2.9 0 5.5 1.7 7.5 4.5h.3V241h2.6v30.4zm-2.6-11.2c0-5.4-2.8-9.1-7.6-9.1-4.2 0-7.5 4-7.5 9.1s3.3 9.1 7.5 9.1c4.7 0 7.5-3.6 7.6-8.7v-.4zm12 11.2h18v2.4h-18v-2.4zm26.9-11.2c0-6.9 4.8-11.6 10.5-11.6 5.8 0 10 4.7 10 11.6v.7H656c.1 5 3.8 8.4 8.1 8.4 3.2 0 5.5-1.9 6.8-5l2.3 1.1c-1.7 4-5.3 6.4-9.5 6.4-5.7-.1-10.5-4.7-10.5-11.6zm2.8-1.6h15c-.5-4.5-3.4-7.5-7.3-7.5s-7.2 3-7.7 7.5zm26.1 12.8h-2.6v-22.3h2.6v3.2h.6c1.4-2.4 2.6-3.7 4.7-3.7 3.1 0 4.4 1.9 5.1 3.7h.7c1.4-2.3 2.9-3.7 5-3.7 5.5 0 5.5 5.1 5.5 5.9v16.8h-2.6v-16.5c0-.6 0-3.8-3.1-3.8-2.5 0-5.1 3.7-5.1 7.4v12.8h-2.6v-16.5c0-.6 0-3.8-3.1-3.8-2.5 0-5.1 3.7-5.1 7.4v13.1zm27.9-16s.1-6.7 9.1-6.7c7.2 0 7.6 4.4 7.6 6.6v11.6c0 .7.2 2.6 2.4 2.6 1.5 0 2.2-1.3 2.2-1.3l2.2 1.1s-1.4 2.4-4.4 2.4c-3 0-4.1-1.8-4.4-3.3h-.4c-2.6 2.9-6.1 3.3-7.2 3.3-1.5 0-8.1-.1-8.2-7 0-4.2 4.3-6.1 7.7-6.8l7.5-1.6v-1.1c0-1.4-.3-4.2-5.1-4.2-6.3 0-6.4 4.3-6.4 4.3H710zm14.2 3.4l-6.6 1.4c-3.3.7-6.1 1.8-6.1 4.5 0 4.2 4.6 4.5 5.5 4.5 3.3 0 7.1-2.5 7.1-5.5v-4.9zm16-9.7h9.7V269h8.3v2.4H739V269h8.3v-17.6h-7.1v-2.3zm8.4-8.4c1.4 0 2.6 1.1 2.6 2.6 0 1.4-1.1 2.5-2.6 2.5s-2.5-1.1-2.5-2.5 1.1-2.6 2.5-2.6zm19.7.3h9.7v28h8.3v2.4h-19.1V269h8.3v-25.6h-7.1V241z"/><path class="st4" d="M808.6 277.8c-2-2.8-6.9-10.3-6.9-19.5v-.1c0-9.3 5-17.1 6.9-19.8h2.4s-6.5 8.7-6.6 19.8v.1c0 10.9 6.5 19.5 6.5 19.5h-2.3z"/><path class="st6" d="M379.7 317.9c0 1.8-.6 4.1-1.2 6.2-.6 2.1-1.2 3.8-1.2 3.8h-.5s-.6-1.7-1.2-3.8c-.6-2.1-1.2-4.4-1.2-6.2 0-1.5 1.3-2.7 2.7-2.7 1.4 0 2.6 1.2 2.6 2.7zm9.7 0c0 1.8-.6 4.1-1.2 6.2-.6 2.1-1.2 3.8-1.2 3.8h-.5s-.6-1.7-1.2-3.8c-.6-2.1-1.2-4.4-1.2-6.2 0-1.5 1.3-2.7 2.7-2.7 1.3 0 2.6 1.2 2.6 2.7zm12.7 31.9c1.1 2.1 3.4 2.9 5.3 2.9 3.4 0 4.9-2.2 4.9-4.4V326h-7.8v-2.4h10.4v24.6c0 3.6-2.2 7-7.5 7-2.7 0-5.9-1.2-7.6-4.2l2.3-1.2zm11.6-34.6c1.4 0 2.6 1.1 2.6 2.6 0 1.4-1.1 2.5-2.6 2.5-1.4 0-2.5-1.1-2.5-2.5s1-2.6 2.5-2.6zm24.5 7.9c5.7 0 10.4 4.7 10.4 11.6s-4.8 11.5-10.4 11.5c-5.8 0-10.5-4.7-10.5-11.5s4.7-11.6 10.5-11.6zm0 20.7c4.3 0 7.8-3.7 7.8-9.1 0-5.4-3.5-9.1-7.8-9.1s-7.8 3.7-7.8 9.1c0 5.4 3.5 9.1 7.8 9.1zm20.6-5.1s.5 1.8 1.9 2.9c1.2 1 3.1 2 6.2 2 3 0 4.8-.8 5.8-1.8s1.3-2 1.3-2.6c0-3.3-4.5-3.2-7.6-3.6-3.1-.4-6.6-.8-8.1-2.8-.9-1.1-1.2-2.2-1.2-3 0-.6.1-2.2 1.4-3.8 1.1-1.5 3.4-2.9 7.6-2.9 4.5 0 6.8 1.8 8.1 3.6 1.1 1.7 1.2 3.5 1.2 3.5h-2.6s0-1.3-.8-2.4c-.8-1.1-2.4-2.2-5.6-2.2-3.2 0-4.7.8-5.5 1.8-.8.9-.9 1.8-.9 2.2 0 2.6 3.2 3.2 7.3 3.6 5.3.6 6.8.8 8.3 2.3.9.9 1.4 2.2 1.4 3.7 0 .9-.4 2.6-1.8 4-1.3 1.5-3.7 2.9-7.8 2.9-4.2 0-6.8-1.4-8.4-3-2-1.9-2.6-4.5-2.6-4.5h2.4zm26.5 7.2v-30.4h2.6v12.9h.4c1.7-3.1 4.6-5.3 8.2-5.3 7.1 0 7.1 5.6 7.1 6.5v16.3H501v-15.8c0-.5 0-4.5-4.8-4.5-3.8 0-8.3 3.9-8.3 10.6v9.7h-2.6zm46.8-1.8c-1.8 1.8-4.1 3.7-9.7 3.7-3 0-5.9-1.2-8.2-3.3-3.1-2.9-3.1-5.8-3.1-13 0-7.3 0-10.1 3.1-13.1 2.2-2.1 5.2-3.3 8.2-3.3 3.2 0 6.1 1.2 8.4 3.3 3.1 2.9 3.1 5.8 3.1 13.1v7.9h-3.7c-1.6 0-3.3-.6-3.7-2.1-1.2 1.8-3.1 2.3-5 2.3-.9 0-5.4-.2-5.4-5 0-3 2.7-4 5.4-4.8l4.4-1.1v-.5c0-.8-.3-2.4-3-2.4-3.6 0-3.7 2.5-3.7 2.5h-2.4s0-4.8 6.1-4.8c4.9 0 5.3 3.3 5.3 4.9v7.3c0 1.1.6 1.4 1.6 1.4h1.6v-5.5c0-6.5 0-9-2.3-11.3-1.7-1.7-4.2-2.6-6.6-2.6-2.4 0-4.8.9-6.6 2.6-2.3 2.3-2.3 4.8-2.3 11.3 0 6.3 0 8.8 2.3 11.2 1.7 1.7 4.2 2.6 6.6 2.6 4.6 0 6.3-1.6 7.9-3.1l1.7 1.8zM522 331.9c-2 .5-3.6 1.1-3.6 2.7 0 2.6 2.6 2.7 3.2 2.7 1.1 0 4.3-.7 4.3-3.7v-2.7l-3.9 1zm18.6 2.8c0-6.9 4.8-11.6 10.5-11.6 5.8 0 10 4.7 10 11.6v.7h-17.7c.1 5 3.8 8.4 8.1 8.4 3.2 0 5.5-1.9 6.8-5l2.3 1.1c-1.7 4-5.3 6.4-9.5 6.4-5.8-.1-10.5-4.7-10.5-11.6zm2.8-1.6h15c-.5-4.5-3.4-7.5-7.3-7.5-4 0-7.2 3-7.7 7.5zm35.7 3.2l-6.7 9.6h-3.2l8.1-11.4v-.5l-7.6-10.4h3.2l6.1 8.7h.1l6.1-8.7h3.2l-7.6 10.4v.5l8.1 11.4h-3.2l-6.6-9.6zm18.3-6.4s.1-6.7 9.1-6.7c7.2 0 7.6 4.4 7.6 6.6v11.6c0 .7.2 2.6 2.4 2.6 1.5 0 2.2-1.3 2.2-1.3l2.2 1.1s-1.4 2.4-4.4 2.4c-3 0-4.1-1.8-4.4-3.3h-.4c-2.6 2.9-6.1 3.3-7.2 3.3-1.5 0-8.1-.1-8.2-7 0-4.2 4.3-6.1 7.7-6.8l7.5-1.6v-1.1c0-1.4-.3-4.2-5.1-4.2-6.3 0-6.4 4.3-6.4 4.3h-2.6zm14.2 3.4l-6.6 1.4c-3.3.7-6.1 1.8-6.1 4.5 0 4.2 4.6 4.5 5.5 4.5 3.3 0 7.1-2.5 7.1-5.5v-4.9zm14.2 12.6h-2.6v-22.3h2.6v3.2h.6c1.4-2.4 2.6-3.7 4.7-3.7 3.1 0 4.4 1.9 5.1 3.7h.7c1.4-2.3 2.9-3.7 5-3.7 5.5 0 5.5 5.1 5.5 5.9v16.8h-2.6v-16.5c0-.6 0-3.8-3.1-3.8-2.5 0-5.1 3.7-5.1 7.4v12.8H634v-16.5c0-.6 0-3.8-3.1-3.8-2.5 0-5.1 3.7-5.1 7.4v13.1zm27.9-22.3h2.6v4.1h.3c2-2.8 4.6-4.5 7.5-4.5 5.6 0 10 5.2 10 11.6 0 6.3-4.4 11.5-10 11.5-2.9 0-5.5-1.5-7.5-4.3h-.3v12.1h-2.6v-30.5zm2.6 11.5c.1 5.1 2.9 8.7 7.6 8.7 4.2 0 7.5-4 7.5-9.1s-3.3-9.1-7.5-9.1c-4.8 0-7.6 3.7-7.6 9.1v.4zm27.6-19.6h9.7v28h8.3v2.4h-19.1v-2.4h8.3v-25.6H684v-2.4zm25.7 19.2c0-6.9 4.8-11.6 10.5-11.6 5.8 0 10 4.7 10 11.6v.7h-17.7c.1 5 3.8 8.4 8.1 8.4 3.2 0 5.5-1.9 6.8-5l2.3 1.1c-1.7 4-5.3 6.4-9.5 6.4-5.8-.1-10.5-4.7-10.5-11.6zm2.7-1.6h15c-.5-4.5-3.4-7.5-7.3-7.5s-7.1 3-7.7 7.5zm32.9 10.4c0-1.5 1.2-2.7 2.7-2.7 1.6 0 2.8 1.2 2.8 2.7 0 1.6-1.2 2.8-2.8 2.8-1.5-.1-2.7-1.2-2.7-2.8zm30.8.3c3.1 0 5.8-1.9 7-5.2h2.8c-1.4 4.7-5.3 7.7-9.8 7.7-5.7 0-10.3-4.7-10.3-11.5s4.7-11.6 10.3-11.6c4.8 0 9 3.5 10 8.8h-2.8c-1-3.9-3.9-6.4-7.3-6.4-4.2 0-7.7 3.7-7.7 9.1.1 5.4 3.5 9.1 7.8 9.1zm28.3-20.7c5.7 0 10.4 4.7 10.4 11.6s-4.8 11.5-10.4 11.5c-5.8 0-10.5-4.7-10.5-11.5s4.7-11.6 10.5-11.6zm-.1 20.7c4.3 0 7.8-3.7 7.8-9.1 0-5.4-3.5-9.1-7.8-9.1s-7.8 3.7-7.8 9.1c.1 5.4 3.6 9.1 7.8 9.1zm18.7 2.1h-2.6v-22.3h2.6v3.2h.6c1.4-2.4 2.6-3.7 4.7-3.7 3.1 0 4.4 1.9 5.1 3.7h.7c1.4-2.3 2.9-3.7 5-3.7 5.5 0 5.5 5.1 5.5 5.9v16.8h-2.6v-16.5c0-.6 0-3.8-3.1-3.8-2.5 0-5.1 3.7-5.1 7.4v12.8h-2.6v-16.5c0-.6 0-3.8-3.1-3.8-2.5 0-5.1 3.7-5.1 7.4v13.1zm35.6-28c0 1.8-.6 4.1-1.2 6.2-.6 2.1-1.2 3.8-1.2 3.8h-.5s-.6-1.7-1.2-3.8c-.6-2.1-1.2-4.4-1.2-6.2 0-1.5 1.3-2.7 2.7-2.7 1.3 0 2.6 1.2 2.6 2.7zm9.6 0c0 1.8-.6 4.1-1.2 6.2-.6 2.1-1.2 3.8-1.2 3.8h-.5s-.6-1.7-1.2-3.8c-.6-2.1-1.2-4.4-1.2-6.2 0-1.5 1.3-2.7 2.7-2.7 1.4 0 2.6 1.2 2.6 2.7z"/><path class="st4" d="M318.7 426.8s6.5-8.6 6.5-19.5v-.1c-.1-11-6.6-19.8-6.6-19.8h2.4c1.9 2.7 6.9 10.4 6.9 19.8v.1c0 9.1-4.8 16.7-6.9 19.5h-2.3zM210.6 561c0-2.7 1.3-4.3 2.7-5.1-1.5-.7-2.7-2.3-2.7-5.2V543c0-2.6 0-4-1.1-4H208v-2.5h1.5c2.9 0 3.7 1.6 3.7 5.5v8.1c0 2.6 1.5 3.7 3.3 4.3v2.8c-1.6.7-3.3 1.9-3.3 4.3v7.7c0 3.5-.9 6.4-3.7 6.4H208v-2.5h1.5c1 0 1.1-1.4 1.1-3V561z"/><path class="st7" d="M53.2 100.5v-.4c0-2.1 2.3-8.4 9.2-8.4 6.2 0 9.4 5.5 9.4 8.4v.1c0 2.7-.4 6.6-6.4 10.3-3.7 2.2-6.2 3.9-7.8 5.6-.7.7-1.2 1.5-1.5 2.4v1.6H73v2.4H52.9v-.3c0-3.7 1-5.8 2.8-7.7 1.8-2 4.9-4 8.5-6.3 4.8-3.1 4.9-5.5 4.9-7.3v-.3c0-2.2-2.3-6.4-6.6-6.4-5 0-6.6 4.8-6.6 6.4h-2.7zm46.1-4.3c1.8 2.8 2.6 6.6 2.6 10.9 0 4.4-.9 8.2-2.6 11.1-1.7 2.8-4.1 4.5-7.2 4.5-3.2 0-5.6-1.7-7.3-4.5-1.8-2.9-2.6-6.7-2.6-11.1 0-4.3.9-8.1 2.6-10.9 1.7-2.8 4.1-4.5 7.3-4.5 3.1 0 5.5 1.7 7.2 4.5zM86.7 98c-1.2 2.3-1.9 5.5-1.9 9.2 0 3.7.7 7 1.9 9.3 1.3 2.4 3.1 3.9 5.4 3.9 2.3 0 4-1.5 5.3-3.9 1.2-2.3 1.9-5.6 1.9-9.3 0-3.6-.7-6.9-1.9-9.2-1.3-2.4-3-3.8-5.3-3.8-2.3-.1-4.1 1.4-5.4 3.8zm-33.5 77v-.4c0-2.1 2.3-8.4 9.2-8.4 6.2 0 9.4 5.5 9.4 8.4v.1c0 2.7-.4 6.6-6.4 10.3-3.7 2.2-6.2 3.9-7.8 5.6-.7.7-1.2 1.5-1.5 2.4v1.6H73v2.4H52.9v-.3c0-3.7 1-5.8 2.8-7.7 1.8-2 4.9-4 8.5-6.3 4.8-3.1 4.9-5.5 4.9-7.3v-.4c0-2.2-2.3-6.4-6.6-6.4-5 0-6.6 4.8-6.6 6.4h-2.7zm43.5-8.5v30.4h-2.6v-25.7h-.3c-2.3 1.7-4.8 1.9-7.5 1.9v-2.4c3.6 0 7.8-.9 7.8-4.2h2.6zm-43.5 83v-.4c0-2.1 2.3-8.4 9.2-8.4 6.2 0 9.4 5.5 9.4 8.4v.1c0 2.7-.4 6.6-6.4 10.3-3.7 2.2-6.2 3.9-7.8 5.6-.7.7-1.2 1.5-1.5 2.4v1.6H73v2.4H52.9v-.3c0-3.7 1-5.8 2.8-7.7 1.8-2 4.9-4 8.5-6.3 4.8-3.1 4.9-5.5 4.9-7.3v-.3c0-2.2-2.3-6.4-6.6-6.4-5 0-6.6 4.8-6.6 6.4h-2.7zm28.2 0v-.4c0-2.1 2.3-8.4 9.2-8.4 6.2 0 9.4 5.5 9.4 8.4v.1c0 2.7-.4 6.6-6.4 10.3-3.7 2.2-6.2 3.9-7.8 5.6-.7.7-1.2 1.5-1.5 2.4v1.6h16.9v2.4H81.1v-.3c0-3.7 1-5.8 2.8-7.7 1.8-2 4.9-4 8.5-6.3 4.8-3.1 4.9-5.5 4.9-7.3v-.3c0-2.2-2.3-6.4-6.6-6.4-5 0-6.6 4.8-6.6 6.4h-2.7zM53.2 324v-.4c0-2.1 2.3-8.4 9.2-8.4 6.2 0 9.4 5.5 9.4 8.4v.1c0 2.7-.4 6.6-6.4 10.3-3.7 2.2-6.2 3.9-7.8 5.6-.7.7-1.2 1.5-1.5 2.4v1.6H73v2.4H52.9v-.3c0-3.7 1-5.8 2.8-7.7 1.8-2 4.9-4 8.5-6.3 4.8-3.1 4.9-5.5 4.9-7.3v-.4c0-2.2-2.3-6.4-6.6-6.4-5 0-6.6 4.8-6.6 6.4h-2.7zm28.9 14.4h2.7c.5 3.1 3.4 5.4 6.9 5.4 3.9 0 7-2.9 7-6.5 0-3.5-3-6.5-6.7-6.5h-3v-2.4h2.7c3.4 0 6.2-2.4 6.2-5.4 0-3-2.8-5.5-6.2-5.5-3.4 0-6.1 2.4-6.2 5.4l-2.6-.8c.5-4 4.3-7 8.8-7 4.9 0 8.9 3.5 8.9 7.8 0 2.6-2.1 5-4.4 6.4v.4c2.9 1.6 5.3 4.4 5.3 7.6 0 4.9-4.4 8.9-9.7 8.9-5.1 0-9.2-3.3-9.7-7.8zm-28.9 60.1v-.4c0-2.1 2.3-8.4 9.2-8.4 6.2 0 9.4 5.5 9.4 8.4v.1c0 2.7-.4 6.6-6.4 10.3-3.7 2.2-6.2 3.9-7.8 5.6-.7.7-1.2 1.5-1.5 2.4v1.6H73v2.4H52.9v-.3c0-3.7 1-5.8 2.8-7.7 1.8-2 4.9-4 8.5-6.3 4.8-3.1 4.9-5.5 4.9-7.3v-.3c0-2.2-2.3-6.4-6.6-6.4-5 0-6.6 4.8-6.6 6.4h-2.7zm27.1 11.6L94.9 390h3.3v19.5h5.5v2.4h-5.5v8.5h-2.6v-8.5H80.3v-1.8zm3.2-.6h12.1v-16.2h-.1c-4.6 6.5-7.4 9.8-12 16.2zM53.2 473v-.4c0-2.1 2.3-8.4 9.2-8.4 6.2 0 9.4 5.5 9.4 8.4v.1c0 2.7-.4 6.6-6.4 10.3-3.7 2.2-6.2 3.9-7.8 5.6-.7.7-1.2 1.5-1.5 2.4v1.6H73v2.4H52.9v-.3c0-3.7 1-5.8 2.8-7.7 1.8-2 4.9-4 8.5-6.3 4.8-3.1 4.9-5.5 4.9-7.3v-.4c0-2.2-2.3-6.4-6.6-6.4-5 0-6.6 4.8-6.6 6.4h-2.7zM86 486.2s.5 6.6 6.8 6.6c6.4 0 6.9-6.6 6.9-8.6 0-2.5-1.1-7.6-5.9-7.6-3.6 0-6 3.8-6.1 4.3l-3.1-.4 1.5-16.1h15v2.4H88.5c-.4 3.3-.8 6.9-1.1 10.3h.1c1.3-1.5 3.5-3.2 6.3-3.2 7 0 8.5 6.7 8.5 10.1 0 2.6-.8 11.2-9.6 11.2-7.8 0-9.3-7.3-9.5-8.7l2.8-.3zm-32.8 61.3v-.4c0-2.1 2.3-8.4 9.2-8.4 6.2 0 9.4 5.5 9.4 8.4v.1c0 2.7-.4 6.6-6.4 10.3-3.7 2.2-6.2 3.9-7.8 5.6-.7.7-1.2 1.5-1.5 2.4v1.6H73v2.4H52.9v-.3c0-3.7 1-5.8 2.8-7.7 1.8-2 4.9-4 8.5-6.3 4.8-3.1 4.9-5.5 4.9-7.3v-.3c0-2.2-2.3-6.4-6.6-6.4-5 0-6.6 4.8-6.6 6.4h-2.7zm46.4-1.2c-1.1-3-3.1-5.1-6.9-5.1-5 0-8 5.7-8 13.5h.2c1.5-3.1 4.3-5.5 7.5-5.5 5.6 0 9.9 4.7 9.9 10.5 0 5.6-4.3 10.2-9.7 10.2-4.4 0-7.6-2.6-9.3-7-.9-2.4-1.3-5.2-1.3-8.5 0-8.5 4-15.6 10.6-15.6 5 0 7.8 2.7 9.3 6.8l-2.3.7zm-14 13.2c0 4.4 3.1 7.8 7 7.8s7-3.5 7-7.8c0-4.4-3.1-7.9-7-7.9s-7 3.5-7 7.9zm-23.1 56.2c4.4 0 6.6 4.1 6.6 6.4v.3c0 1.7-.1 4.1-4.9 7.3-3.6 2.3-6.6 4.4-8.5 6.3-.6.6-1.1 1.3-1.5 2h3.1c.1-.1.2-.2.2-.3 1.6-1.7 4.1-3.4 7.8-5.6 6-3.6 6.4-7.6 6.4-10.3v-.1c0-2.9-3.2-8.4-9.4-8.4-6.9 0-9.2 6.3-9.2 8.4v.4h2.7c.1-1.7 1.8-6.4 6.7-6.4zm21-2.2v2.4h14.3v.7c-2.9 3.4-7.8 10.5-9.1 21.3h2.7c1.9-14.7 10.4-21.9 10.4-21.9v-2.5H83.5z"/><path class="st2" d="M0 36v604h960V36H0zm4 600V40h952v596H4z"/></svg>