<?xml version="1.0" encoding="utf-8"?><!DOCTYPE svg PUBLIC "-//W3C//DTD SVG 1.1//EN" "http://www.w3.org/Graphics/SVG/1.1/DTD/svg11.dtd"><svg version="1.1" id="Layer_1" xmlns="http://www.w3.org/2000/svg" xmlns:xlink="http://www.w3.org/1999/xlink" x="0px" y="0px"width="290px" height="290px" viewBox="0 0 290 290" enable-background="new 0 0 290 290" xml:space="preserve"><rect x="0" y="0" width="290" height="290" fill="rgb(255,255,255)" /><g transform="translate(0,0)"><g transform="translate(80,0) scale(0.1,0.1)"><g transform="" style="fill: rgb(0, 0, 0);"><rect width="100" height="100"/></g></g><g transform="translate(100,0) scale(0.1,0.1)"><g transform="" style="fill: rgb(0, 0, 0);"><rect width="100" height="100"/></g></g><g transform="translate(120,0) scale(0.1,0.1)"><g transform="" style="fill: rgb(0, 0, 0);"><rect width="100" height="100"/></g></g><g transform="translate(140,0) scale(0.1,0.1)"><g transform="" style="fill: rgb(0, 0, 0);"><rect width="100" height="100"/></g></g><g transform="translate(80,10) scale(0.1,0.1)"><g transform="" style="fill: rgb(0, 0, 0);"><rect width="100" height="100"/></g></g><g transform="translate(140,10) scale(0.1,0.1)"><g transform="" style="fill: rgb(0, 0, 0);"><rect width="100" height="100"/></g></g><g transform="translate(160,10) scale(0.1,0.1)"><g transform="" style="fill: rgb(0, 0, 0);"><rect width="100" height="100"/></g></g><g transform="translate(80,20) scale(0.1,0.1)"><g transform="" style="fill: rgb(0, 0, 0);"><rect width="100" height="100"/></g></g><g transform="translate(100,20) scale(0.1,0.1)"><g transform="" style="fill: rgb(0, 0, 0);"><rect width="100" height="100"/></g></g><g transform="translate(120,20) scale(0.1,0.1)"><g transform="" style="fill: rgb(0, 0, 0);"><rect width="100" height="100"/></g></g><g transform="translate(130,20) scale(0.1,0.1)"><g transform="" style="fill: rgb(0, 0, 0);"><rect width="100" height="100"/></g></g><g transform="translate(140,20) scale(0.1,0.1)"><g transform="" style="fill: rgb(0, 0, 0);"><rect width="100" height="100"/></g></g><g transform="translate(150,20) scale(0.1,0.1)"><g transform="" style="fill: rgb(0, 0, 0);"><rect width="100" height="100"/></g></g><g transform="translate(100,30) scale(0.1,0.1)"><g transform="" style="fill: rgb(0, 0, 0);"><rect width="100" height="100"/></g></g><g transform="translate(140,30) scale(0.1,0.1)"><g transform="" style="fill: rgb(0, 0, 0);"><rect width="100" height="100"/></g></g><g transform="translate(80,40) scale(0.1,0.1)"><g transform="" style="fill: rgb(0, 0, 0);"><rect width="100" height="100"/></g></g><g transform="translate(90,40) scale(0.1,0.1)"><g transform="" style="fill: rgb(0, 0, 0);"><rect width="100" height="100"/></g></g><g transform="translate(110,40) scale(0.1,0.1)"><g transform="" style="fill: rgb(0, 0, 0);"><rect width="100" height="100"/></g></g><g transform="translate(120,40) scale(0.1,0.1)"><g transform="" style="fill: rgb(0, 0, 0);"><rect width="100" height="100"/></g></g><g transform="translate(130,40) scale(0.1,0.1)"><g transform="" style="fill: rgb(0, 0, 0);"><rect width="100" height="100"/></g></g><g transform="translate(140,40) scale(0.1,0.1)"><g transform="" style="fill: rgb(0, 0, 0);"><rect width="100" height="100"/></g></g><g transform="translate(160,40) scale(0.1,0.1)"><g transform="" style="fill: rgb(0, 0, 0);"><rect width="100" height="100"/></g></g><g transform="translate(90,50) scale(0.1,0.1)"><g transform="" style="fill: rgb(0, 0, 0);"><rect width="100" height="100"/></g></g><g transform="translate(100,50) scale(0.1,0.1)"><g transform="" style="fill: rgb(0, 0, 0);"><rect width="100" height="100"/></g></g><g transform="translate(130,50) scale(0.1,0.1)"><g transform="" style="fill: rgb(0, 0, 0);"><rect width="100" height="100"/></g></g><g transform="translate(140,50) scale(0.1,0.1)"><g transform="" style="fill: rgb(0, 0, 0);"><rect width="100" height="100"/></g></g><g transform="translate(160,50) scale(0.1,0.1)"><g transform="" style="fill: rgb(0, 0, 0);"><rect width="100" height="100"/></g></g><g transform="translate(80,60) scale(0.1,0.1)"><g transform="" style="fill: rgb(0, 0, 0);"><rect width="100" height="100"/></g></g><g transform="translate(100,60) scale(0.1,0.1)"><g transform="" style="fill: rgb(0, 0, 0);"><rect width="100" height="100"/></g></g><g transform="translate(120,60) scale(0.1,0.1)"><g transform="" style="fill: rgb(0, 0, 0);"><rect width="100" height="100"/></g></g><g transform="translate(140,60) scale(0.1,0.1)"><g transform="" style="fill: rgb(0, 0, 0);"><rect width="100" height="100"/></g></g><g transform="translate(160,60) scale(0.1,0.1)"><g transform="" style="fill: rgb(0, 0, 0);"><rect width="100" height="100"/></g></g><g transform="translate(120,70) scale(0.1,0.1)"><g transform="" style="fill: rgb(0, 0, 0);"><rect width="100" height="100"/></g></g><g transform="translate(140,70) scale(0.1,0.1)"><g transform="" style="fill: rgb(0, 0, 0);"><rect width="100" height="100"/></g></g><g transform="translate(150,70) scale(0.1,0.1)"><g transform="" style="fill: rgb(0, 0, 0);"><rect width="100" height="100"/></g></g><g transform="translate(160,70) scale(0.1,0.1)"><g transform="" style="fill: rgb(0, 0, 0);"><rect width="100" height="100"/></g></g><g transform="translate(0,80) scale(0.1,0.1)"><g transform="" style="fill: rgb(0, 0, 0);"><rect width="100" height="100"/></g></g><g transform="translate(30,80) scale(0.1,0.1)"><g transform="" style="fill: rgb(0, 0, 0);"><rect width="100" height="100"/></g></g><g transform="translate(40,80) scale(0.1,0.1)"><g transform="" style="fill: rgb(0, 0, 0);"><rect width="100" height="100"/></g></g><g transform="translate(50,80) scale(0.1,0.1)"><g transform="" style="fill: rgb(0, 0, 0);"><rect width="100" height="100"/></g></g><g transform="translate(60,80) scale(0.1,0.1)"><g transform="" style="fill: rgb(0, 0, 0);"><rect width="100" height="100"/></g></g><g transform="translate(70,80) scale(0.1,0.1)"><g transform="" style="fill: rgb(0, 0, 0);"><rect width="100" height="100"/></g></g><g transform="translate(80,80) scale(0.1,0.1)"><g transform="" style="fill: rgb(0, 0, 0);"><rect width="100" height="100"/></g></g><g transform="translate(130,80) scale(0.1,0.1)"><g transform="" style="fill: rgb(0, 0, 0);"><rect width="100" height="100"/></g></g><g transform="translate(140,80) scale(0.1,0.1)"><g transform="" style="fill: rgb(0, 0, 0);"><rect width="100" height="100"/></g></g><g transform="translate(160,80) scale(0.1,0.1)"><g transform="" style="fill: rgb(0, 0, 0);"><rect width="100" height="100"/></g></g><g transform="translate(170,80) scale(0.1,0.1)"><g transform="" style="fill: rgb(0, 0, 0);"><rect width="100" height="100"/></g></g><g transform="translate(200,80) scale(0.1,0.1)"><g transform="" style="fill: rgb(0, 0, 0);"><rect width="100" height="100"/></g></g><g transform="translate(220,80) scale(0.1,0.1)"><g transform="" style="fill: rgb(0, 0, 0);"><rect width="100" height="100"/></g></g><g transform="translate(230,80) scale(0.1,0.1)"><g transform="" style="fill: rgb(0, 0, 0);"><rect width="100" height="100"/></g></g><g transform="translate(240,80) scale(0.1,0.1)"><g transform="" style="fill: rgb(0, 0, 0);"><rect width="100" height="100"/></g></g><g transform="translate(0,90) scale(0.1,0.1)"><g transform="" style="fill: rgb(0, 0, 0);"><rect width="100" height="100"/></g></g><g transform="translate(10,90) scale(0.1,0.1)"><g transform="" style="fill: rgb(0, 0, 0);"><rect width="100" height="100"/></g></g><g transform="translate(30,90) scale(0.1,0.1)"><g transform="" style="fill: rgb(0, 0, 0);"><rect width="100" height="100"/></g></g><g transform="translate(40,90) scale(0.1,0.1)"><g transform="" style="fill: rgb(0, 0, 0);"><rect width="100" height="100"/></g></g><g transform="translate(50,90) scale(0.1,0.1)"><g transform="" style="fill: rgb(0, 0, 0);"><rect width="100" height="100"/></g></g><g transform="translate(80,90) scale(0.1,0.1)"><g transform="" style="fill: rgb(0, 0, 0);"><rect width="100" height="100"/></g></g><g transform="translate(110,90) scale(0.1,0.1)"><g transform="" style="fill: rgb(0, 0, 0);"><rect width="100" height="100"/></g></g><g transform="translate(140,90) scale(0.1,0.1)"><g transform="" style="fill: rgb(0, 0, 0);"><rect width="100" height="100"/></g></g><g transform="translate(150,90) scale(0.1,0.1)"><g transform="" style="fill: rgb(0, 0, 0);"><rect width="100" height="100"/></g></g><g transform="translate(160,90) scale(0.1,0.1)"><g transform="" style="fill: rgb(0, 0, 0);"><rect width="100" height="100"/></g></g><g transform="translate(170,90) scale(0.1,0.1)"><g transform="" style="fill: rgb(0, 0, 0);"><rect width="100" height="100"/></g></g><g transform="translate(190,90) scale(0.1,0.1)"><g transform="" style="fill: rgb(0, 0, 0);"><rect width="100" height="100"/></g></g><g transform="translate(200,90) scale(0.1,0.1)"><g transform="" style="fill: rgb(0, 0, 0);"><rect width="100" height="100"/></g></g><g transform="translate(210,90) scale(0.1,0.1)"><g transform="" style="fill: rgb(0, 0, 0);"><rect width="100" height="100"/></g></g><g transform="translate(220,90) scale(0.1,0.1)"><g transform="" style="fill: rgb(0, 0, 0);"><rect width="100" height="100"/></g></g><g transform="translate(230,90) scale(0.1,0.1)"><g transform="" style="fill: rgb(0, 0, 0);"><rect width="100" height="100"/></g></g><g transform="translate(0,100) scale(0.1,0.1)"><g transform="" style="fill: rgb(0, 0, 0);"><rect width="100" height="100"/></g></g><g transform="translate(20,100) scale(0.1,0.1)"><g transform="" style="fill: rgb(0, 0, 0);"><rect width="100" height="100"/></g></g><g transform="translate(30,100) scale(0.1,0.1)"><g transform="" style="fill: rgb(0, 0, 0);"><rect width="100" height="100"/></g></g><g transform="translate(40,100) scale(0.1,0.1)"><g transform="" style="fill: rgb(0, 0, 0);"><rect width="100" height="100"/></g></g><g transform="translate(50,100) scale(0.1,0.1)"><g transform="" style="fill: rgb(0, 0, 0);"><rect width="100" height="100"/></g></g><g transform="translate(60,100) scale(0.1,0.1)"><g transform="" style="fill: rgb(0, 0, 0);"><rect width="100" height="100"/></g></g><g transform="translate(70,100) scale(0.1,0.1)"><g transform="" style="fill: rgb(0, 0, 0);"><rect width="100" height="100"/></g></g><g transform="translate(90,100) scale(0.1,0.1)"><g transform="" style="fill: rgb(0, 0, 0);"><rect width="100" height="100"/></g></g><g transform="translate(100,100) scale(0.1,0.1)"><g transform="" style="fill: rgb(0, 0, 0);"><rect width="100" height="100"/></g></g><g transform="translate(120,100) scale(0.1,0.1)"><g transform="" style="fill: rgb(0, 0, 0);"><rect width="100" height="100"/></g></g><g transform="translate(140,100) scale(0.1,0.1)"><g transform="" style="fill: rgb(0, 0, 0);"><rect width="100" height="100"/></g></g><g transform="translate(150,100) scale(0.1,0.1)"><g transform="" style="fill: rgb(0, 0, 0);"><rect width="100" height="100"/></g></g><g transform="translate(180,100) scale(0.1,0.1)"><g transform="" style="fill: rgb(0, 0, 0);"><rect width="100" height="100"/></g></g><g transform="translate(190,100) scale(0.1,0.1)"><g transform="" style="fill: rgb(0, 0, 0);"><rect width="100" height="100"/></g></g><g transform="translate(210,100) scale(0.1,0.1)"><g transform="" style="fill: rgb(0, 0, 0);"><rect width="100" height="100"/></g></g><g transform="translate(240,100) scale(0.1,0.1)"><g transform="" style="fill: rgb(0, 0, 0);"><rect width="100" height="100"/></g></g><g transform="translate(0,110) scale(0.1,0.1)"><g transform="" style="fill: rgb(0, 0, 0);"><rect width="100" height="100"/></g></g><g transform="translate(40,110) scale(0.1,0.1)"><g transform="" style="fill: rgb(0, 0, 0);"><rect width="100" height="100"/></g></g><g transform="translate(140,110) scale(0.1,0.1)"><g transform="" style="fill: rgb(0, 0, 0);"><rect width="100" height="100"/></g></g><g transform="translate(150,110) scale(0.1,0.1)"><g transform="" style="fill: rgb(0, 0, 0);"><rect width="100" height="100"/></g></g><g transform="translate(190,110) scale(0.1,0.1)"><g transform="" style="fill: rgb(0, 0, 0);"><rect width="100" height="100"/></g></g><g transform="translate(210,110) scale(0.1,0.1)"><g transform="" style="fill: rgb(0, 0, 0);"><rect width="100" height="100"/></g></g><g transform="translate(220,110) scale(0.1,0.1)"><g transform="" style="fill: rgb(0, 0, 0);"><rect width="100" height="100"/></g></g><g transform="translate(230,110) scale(0.1,0.1)"><g transform="" style="fill: rgb(0, 0, 0);"><rect width="100" height="100"/></g></g><g transform="translate(240,110) scale(0.1,0.1)"><g transform="" style="fill: rgb(0, 0, 0);"><rect width="100" height="100"/></g></g><g transform="translate(0,120) scale(0.1,0.1)"><g transform="" style="fill: rgb(0, 0, 0);"><rect width="100" height="100"/></g></g><g transform="translate(20,120) scale(0.1,0.1)"><g transform="" style="fill: rgb(0, 0, 0);"><rect width="100" height="100"/></g></g><g transform="translate(40,120) scale(0.1,0.1)"><g transform="" style="fill: rgb(0, 0, 0);"><rect width="100" height="100"/></g></g><g transform="translate(50,120) scale(0.1,0.1)"><g transform="" style="fill: rgb(0, 0, 0);"><rect width="100" height="100"/></g></g><g transform="translate(60,120) scale(0.1,0.1)"><g transform="" style="fill: rgb(0, 0, 0);"><rect width="100" height="100"/></g></g><g transform="translate(70,120) scale(0.1,0.1)"><g transform="" style="fill: rgb(0, 0, 0);"><rect width="100" height="100"/></g></g><g transform="translate(80,120) scale(0.1,0.1)"><g transform="" style="fill: rgb(0, 0, 0);"><rect width="100" height="100"/></g></g><g transform="translate(90,120) scale(0.1,0.1)"><g transform="" style="fill: rgb(0, 0, 0);"><rect width="100" height="100"/></g></g><g transform="translate(100,120) scale(0.1,0.1)"><g transform="" style="fill: rgb(0, 0, 0);"><rect width="100" height="100"/></g></g><g transform="translate(130,120) scale(0.1,0.1)"><g transform="" style="fill: rgb(0, 0, 0);"><rect width="100" height="100"/></g></g><g transform="translate(140,120) scale(0.1,0.1)"><g transform="" style="fill: rgb(0, 0, 0);"><rect width="100" height="100"/></g></g><g transform="translate(150,120) scale(0.1,0.1)"><g transform="" style="fill: rgb(0, 0, 0);"><rect width="100" height="100"/></g></g><g transform="translate(180,120) scale(0.1,0.1)"><g transform="" style="fill: rgb(0, 0, 0);"><rect width="100" height="100"/></g></g><g transform="translate(240,120) scale(0.1,0.1)"><g transform="" style="fill: rgb(0, 0, 0);"><rect width="100" height="100"/></g></g><g transform="translate(0,130) scale(0.1,0.1)"><g transform="" style="fill: rgb(0, 0, 0);"><rect width="100" height="100"/></g></g><g transform="translate(20,130) scale(0.1,0.1)"><g transform="" style="fill: rgb(0, 0, 0);"><rect width="100" height="100"/></g></g><g transform="translate(50,130) scale(0.1,0.1)"><g transform="" style="fill: rgb(0, 0, 0);"><rect width="100" height="100"/></g></g><g transform="translate(80,130) scale(0.1,0.1)"><g transform="" style="fill: rgb(0, 0, 0);"><rect width="100" height="100"/></g></g><g transform="translate(90,130) scale(0.1,0.1)"><g transform="" style="fill: rgb(0, 0, 0);"><rect width="100" height="100"/></g></g><g transform="translate(120,130) scale(0.1,0.1)"><g transform="" style="fill: rgb(0, 0, 0);"><rect width="100" height="100"/></g></g><g transform="translate(150,130) scale(0.1,0.1)"><g transform="" style="fill: rgb(0, 0, 0);"><rect width="100" height="100"/></g></g><g transform="translate(160,130) scale(0.1,0.1)"><g transform="" style="fill: rgb(0, 0, 0);"><rect width="100" height="100"/></g></g><g transform="translate(170,130) scale(0.1,0.1)"><g transform="" style="fill: rgb(0, 0, 0);"><rect width="100" height="100"/></g></g><g transform="translate(200,130) scale(0.1,0.1)"><g transform="" style="fill: rgb(0, 0, 0);"><rect width="100" height="100"/></g></g><g transform="translate(230,130) scale(0.1,0.1)"><g transform="" style="fill: rgb(0, 0, 0);"><rect width="100" height="100"/></g></g><g transform="translate(0,140) scale(0.1,0.1)"><g transform="" style="fill: rgb(0, 0, 0);"><rect width="100" height="100"/></g></g><g transform="translate(10,140) scale(0.1,0.1)"><g transform="" style="fill: rgb(0, 0, 0);"><rect width="100" height="100"/></g></g><g transform="translate(40,140) scale(0.1,0.1)"><g transform="" style="fill: rgb(0, 0, 0);"><rect width="100" height="100"/></g></g><g transform="translate(60,140) scale(0.1,0.1)"><g transform="" style="fill: rgb(0, 0, 0);"><rect width="100" height="100"/></g></g><g transform="translate(80,140) scale(0.1,0.1)"><g transform="" style="fill: rgb(0, 0, 0);"><rect width="100" height="100"/></g></g><g transform="translate(100,140) scale(0.1,0.1)"><g transform="" style="fill: rgb(0, 0, 0);"><rect width="100" height="100"/></g></g><g transform="translate(140,140) scale(0.1,0.1)"><g transform="" style="fill: rgb(0, 0, 0);"><rect width="100" height="100"/></g></g><g transform="translate(150,140) scale(0.1,0.1)"><g transform="" style="fill: rgb(0, 0, 0);"><rect width="100" height="100"/></g></g><g transform="translate(170,140) scale(0.1,0.1)"><g transform="" style="fill: rgb(0, 0, 0);"><rect width="100" height="100"/></g></g><g transform="translate(180,140) scale(0.1,0.1)"><g transform="" style="fill: rgb(0, 0, 0);"><rect width="100" height="100"/></g></g><g transform="translate(200,140) scale(0.1,0.1)"><g transform="" style="fill: rgb(0, 0, 0);"><rect width="100" height="100"/></g></g><g transform="translate(210,140) scale(0.1,0.1)"><g transform="" style="fill: rgb(0, 0, 0);"><rect width="100" height="100"/></g></g><g transform="translate(220,140) scale(0.1,0.1)"><g transform="" style="fill: rgb(0, 0, 0);"><rect width="100" height="100"/></g></g><g transform="translate(230,140) scale(0.1,0.1)"><g transform="" style="fill: rgb(0, 0, 0);"><rect width="100" height="100"/></g></g><g transform="translate(240,140) scale(0.1,0.1)"><g transform="" style="fill: rgb(0, 0, 0);"><rect width="100" height="100"/></g></g><g transform="translate(0,150) scale(0.1,0.1)"><g transform="" style="fill: rgb(0, 0, 0);"><rect width="100" height="100"/></g></g><g transform="translate(50,150) scale(0.1,0.1)"><g transform="" style="fill: rgb(0, 0, 0);"><rect width="100" height="100"/></g></g><g transform="translate(90,150) scale(0.1,0.1)"><g transform="" style="fill: rgb(0, 0, 0);"><rect width="100" height="100"/></g></g><g transform="translate(100,150) scale(0.1,0.1)"><g transform="" style="fill: rgb(0, 0, 0);"><rect width="100" height="100"/></g></g><g transform="translate(120,150) scale(0.1,0.1)"><g transform="" style="fill: rgb(0, 0, 0);"><rect width="100" height="100"/></g></g><g transform="translate(130,150) scale(0.1,0.1)"><g transform="" style="fill: rgb(0, 0, 0);"><rect width="100" height="100"/></g></g><g transform="translate(140,150) scale(0.1,0.1)"><g transform="" style="fill: rgb(0, 0, 0);"><rect width="100" height="100"/></g></g><g transform="translate(150,150) scale(0.1,0.1)"><g transform="" style="fill: rgb(0, 0, 0);"><rect width="100" height="100"/></g></g><g transform="translate(170,150) scale(0.1,0.1)"><g transform="" style="fill: rgb(0, 0, 0);"><rect width="100" height="100"/></g></g><g transform="translate(190,150) scale(0.1,0.1)"><g transform="" style="fill: rgb(0, 0, 0);"><rect width="100" height="100"/></g></g><g transform="translate(210,150) scale(0.1,0.1)"><g transform="" style="fill: rgb(0, 0, 0);"><rect width="100" height="100"/></g></g><g transform="translate(220,150) scale(0.1,0.1)"><g transform="" style="fill: rgb(0, 0, 0);"><rect width="100" height="100"/></g></g><g transform="translate(240,150) scale(0.1,0.1)"><g transform="" style="fill: rgb(0, 0, 0);"><rect width="100" height="100"/></g></g><g transform="translate(0,160) scale(0.1,0.1)"><g transform="" style="fill: rgb(0, 0, 0);"><rect width="100" height="100"/></g></g><g transform="translate(20,160) scale(0.1,0.1)"><g transform="" style="fill: rgb(0, 0, 0);"><rect width="100" height="100"/></g></g><g transform="translate(40,160) scale(0.1,0.1)"><g transform="" style="fill: rgb(0, 0, 0);"><rect width="100" height="100"/></g></g><g transform="translate(50,160) scale(0.1,0.1)"><g transform="" style="fill: rgb(0, 0, 0);"><rect width="100" height="100"/></g></g><g transform="translate(60,160) scale(0.1,0.1)"><g transform="" style="fill: rgb(0, 0, 0);"><rect width="100" height="100"/></g></g><g transform="translate(70,160) scale(0.1,0.1)"><g transform="" style="fill: rgb(0, 0, 0);"><rect width="100" height="100"/></g></g><g transform="translate(80,160) scale(0.1,0.1)"><g transform="" style="fill: rgb(0, 0, 0);"><rect width="100" height="100"/></g></g><g transform="translate(90,160) scale(0.1,0.1)"><g transform="" style="fill: rgb(0, 0, 0);"><rect width="100" height="100"/></g></g><g transform="translate(110,160) scale(0.1,0.1)"><g transform="" style="fill: rgb(0, 0, 0);"><rect width="100" height="100"/></g></g><g transform="translate(120,160) scale(0.1,0.1)"><g transform="" style="fill: rgb(0, 0, 0);"><rect width="100" height="100"/></g></g><g transform="translate(160,160) scale(0.1,0.1)"><g transform="" style="fill: rgb(0, 0, 0);"><rect width="100" height="100"/></g></g><g transform="translate(170,160) scale(0.1,0.1)"><g transform="" style="fill: rgb(0, 0, 0);"><rect width="100" height="100"/></g></g><g transform="translate(180,160) scale(0.1,0.1)"><g transform="" style="fill: rgb(0, 0, 0);"><rect width="100" height="100"/></g></g><g transform="translate(190,160) scale(0.1,0.1)"><g transform="" style="fill: rgb(0, 0, 0);"><rect width="100" height="100"/></g></g><g transform="translate(200,160) scale(0.1,0.1)"><g transform="" style="fill: rgb(0, 0, 0);"><rect width="100" height="100"/></g></g><g transform="translate(220,160) scale(0.1,0.1)"><g transform="" style="fill: rgb(0, 0, 0);"><rect width="100" height="100"/></g></g><g transform="translate(230,160) scale(0.1,0.1)"><g transform="" style="fill: rgb(0, 0, 0);"><rect width="100" height="100"/></g></g><g transform="translate(80,170) scale(0.1,0.1)"><g transform="" style="fill: rgb(0, 0, 0);"><rect width="100" height="100"/></g></g><g transform="translate(90,170) scale(0.1,0.1)"><g transform="" style="fill: rgb(0, 0, 0);"><rect width="100" height="100"/></g></g><g transform="translate(100,170) scale(0.1,0.1)"><g transform="" style="fill: rgb(0, 0, 0);"><rect width="100" height="100"/></g></g><g transform="translate(110,170) scale(0.1,0.1)"><g transform="" style="fill: rgb(0, 0, 0);"><rect width="100" height="100"/></g></g><g transform="translate(160,170) scale(0.1,0.1)"><g transform="" style="fill: rgb(0, 0, 0);"><rect width="100" height="100"/></g></g><g transform="translate(200,170) scale(0.1,0.1)"><g transform="" style="fill: rgb(0, 0, 0);"><rect width="100" height="100"/></g></g><g transform="translate(220,170) scale(0.1,0.1)"><g transform="" style="fill: rgb(0, 0, 0);"><rect width="100" height="100"/></g></g><g transform="translate(230,170) scale(0.1,0.1)"><g transform="" style="fill: rgb(0, 0, 0);"><rect width="100" height="100"/></g></g><g transform="translate(80,180) scale(0.1,0.1)"><g transform="" style="fill: rgb(0, 0, 0);"><rect width="100" height="100"/></g></g><g transform="translate(100,180) scale(0.1,0.1)"><g transform="" style="fill: rgb(0, 0, 0);"><rect width="100" height="100"/></g></g><g transform="translate(120,180) scale(0.1,0.1)"><g transform="" style="fill: rgb(0, 0, 0);"><rect width="100" height="100"/></g></g><g transform="translate(130,180) scale(0.1,0.1)"><g transform="" style="fill: rgb(0, 0, 0);"><rect width="100" height="100"/></g></g><g transform="translate(140,180) scale(0.1,0.1)"><g transform="" style="fill: rgb(0, 0, 0);"><rect width="100" height="100"/></g></g><g transform="translate(160,180) scale(0.1,0.1)"><g transform="" style="fill: rgb(0, 0, 0);"><rect width="100" height="100"/></g></g><g transform="translate(180,180) scale(0.1,0.1)"><g transform="" style="fill: rgb(0, 0, 0);"><rect width="100" height="100"/></g></g><g transform="translate(200,180) scale(0.1,0.1)"><g transform="" style="fill: rgb(0, 0, 0);"><rect width="100" height="100"/></g></g><g transform="translate(240,180) scale(0.1,0.1)"><g transform="" style="fill: rgb(0, 0, 0);"><rect width="100" height="100"/></g></g><g transform="translate(80,190) scale(0.1,0.1)"><g transform="" style="fill: rgb(0, 0, 0);"><rect width="100" height="100"/></g></g><g transform="translate(100,190) scale(0.1,0.1)"><g transform="" style="fill: rgb(0, 0, 0);"><rect width="100" height="100"/></g></g><g transform="translate(110,190) scale(0.1,0.1)"><g transform="" style="fill: rgb(0, 0, 0);"><rect width="100" height="100"/></g></g><g transform="translate(130,190) scale(0.1,0.1)"><g transform="" style="fill: rgb(0, 0, 0);"><rect width="100" height="100"/></g></g><g transform="translate(150,190) scale(0.1,0.1)"><g transform="" style="fill: rgb(0, 0, 0);"><rect width="100" height="100"/></g></g><g transform="translate(160,190) scale(0.1,0.1)"><g transform="" style="fill: rgb(0, 0, 0);"><rect width="100" height="100"/></g></g><g transform="translate(200,190) scale(0.1,0.1)"><g transform="" style="fill: rgb(0, 0, 0);"><rect width="100" height="100"/></g></g><g transform="translate(80,200) scale(0.1,0.1)"><g transform="" style="fill: rgb(0, 0, 0);"><rect width="100" height="100"/></g></g><g transform="translate(90,200) scale(0.1,0.1)"><g transform="" style="fill: rgb(0, 0, 0);"><rect width="100" height="100"/></g></g><g transform="translate(100,200) scale(0.1,0.1)"><g transform="" style="fill: rgb(0, 0, 0);"><rect width="100" height="100"/></g></g><g transform="translate(110,200) scale(0.1,0.1)"><g transform="" style="fill: rgb(0, 0, 0);"><rect width="100" height="100"/></g></g><g transform="translate(130,200) scale(0.1,0.1)"><g transform="" style="fill: rgb(0, 0, 0);"><rect width="100" height="100"/></g></g><g transform="translate(150,200) scale(0.1,0.1)"><g transform="" style="fill: rgb(0, 0, 0);"><rect width="100" height="100"/></g></g><g transform="translate(160,200) scale(0.1,0.1)"><g transform="" style="fill: rgb(0, 0, 0);"><rect width="100" height="100"/></g></g><g transform="translate(170,200) scale(0.1,0.1)"><g transform="" style="fill: rgb(0, 0, 0);"><rect width="100" height="100"/></g></g><g transform="translate(180,200) scale(0.1,0.1)"><g transform="" style="fill: rgb(0, 0, 0);"><rect width="100" height="100"/></g></g><g transform="translate(190,200) scale(0.1,0.1)"><g transform="" style="fill: rgb(0, 0, 0);"><rect width="100" height="100"/></g></g><g transform="translate(200,200) scale(0.1,0.1)"><g transform="" style="fill: rgb(0, 0, 0);"><rect width="100" height="100"/></g></g><g transform="translate(240,200) scale(0.1,0.1)"><g transform="" style="fill: rgb(0, 0, 0);"><rect width="100" height="100"/></g></g><g transform="translate(80,210) scale(0.1,0.1)"><g transform="" style="fill: rgb(0, 0, 0);"><rect width="100" height="100"/></g></g><g transform="translate(90,210) scale(0.1,0.1)"><g transform="" style="fill: rgb(0, 0, 0);"><rect width="100" height="100"/></g></g><g transform="translate(100,210) scale(0.1,0.1)"><g transform="" style="fill: rgb(0, 0, 0);"><rect width="100" height="100"/></g></g><g transform="translate(120,210) scale(0.1,0.1)"><g transform="" style="fill: rgb(0, 0, 0);"><rect width="100" height="100"/></g></g><g transform="translate(130,210) scale(0.1,0.1)"><g transform="" style="fill: rgb(0, 0, 0);"><rect width="100" height="100"/></g></g><g transform="translate(150,210) scale(0.1,0.1)"><g transform="" style="fill: rgb(0, 0, 0);"><rect width="100" height="100"/></g></g><g transform="translate(180,210) scale(0.1,0.1)"><g transform="" style="fill: rgb(0, 0, 0);"><rect width="100" height="100"/></g></g><g transform="translate(230,210) scale(0.1,0.1)"><g transform="" style="fill: rgb(0, 0, 0);"><rect width="100" height="100"/></g></g><g transform="translate(240,210) scale(0.1,0.1)"><g transform="" style="fill: rgb(0, 0, 0);"><rect width="100" height="100"/></g></g><g transform="translate(90,220) scale(0.1,0.1)"><g transform="" style="fill: rgb(0, 0, 0);"><rect width="100" height="100"/></g></g><g transform="translate(100,220) scale(0.1,0.1)"><g transform="" style="fill: rgb(0, 0, 0);"><rect width="100" height="100"/></g></g><g transform="translate(110,220) scale(0.1,0.1)"><g transform="" style="fill: rgb(0, 0, 0);"><rect width="100" height="100"/></g></g><g transform="translate(130,220) scale(0.1,0.1)"><g transform="" style="fill: rgb(0, 0, 0);"><rect width="100" height="100"/></g></g><g transform="translate(170,220) scale(0.1,0.1)"><g transform="" style="fill: rgb(0, 0, 0);"><rect width="100" height="100"/></g></g><g transform="translate(200,220) scale(0.1,0.1)"><g transform="" style="fill: rgb(0, 0, 0);"><rect width="100" height="100"/></g></g><g transform="translate(210,220) scale(0.1,0.1)"><g transform="" style="fill: rgb(0, 0, 0);"><rect width="100" height="100"/></g></g><g transform="translate(220,220) scale(0.1,0.1)"><g transform="" style="fill: rgb(0, 0, 0);"><rect width="100" height="100"/></g></g><g transform="translate(230,220) scale(0.1,0.1)"><g transform="" style="fill: rgb(0, 0, 0);"><rect width="100" height="100"/></g></g><g transform="translate(240,220) scale(0.1,0.1)"><g transform="" style="fill: rgb(0, 0, 0);"><rect width="100" height="100"/></g></g><g transform="translate(90,230) scale(0.1,0.1)"><g transform="" style="fill: rgb(0, 0, 0);"><rect width="100" height="100"/></g></g><g transform="translate(110,230) scale(0.1,0.1)"><g transform="" style="fill: rgb(0, 0, 0);"><rect width="100" height="100"/></g></g><g transform="translate(120,230) scale(0.1,0.1)"><g transform="" style="fill: rgb(0, 0, 0);"><rect width="100" height="100"/></g></g><g transform="translate(130,230) scale(0.1,0.1)"><g transform="" style="fill: rgb(0, 0, 0);"><rect width="100" height="100"/></g></g><g transform="translate(190,230) scale(0.1,0.1)"><g transform="" style="fill: rgb(0, 0, 0);"><rect width="100" height="100"/></g></g><g transform="translate(200,230) scale(0.1,0.1)"><g transform="" style="fill: rgb(0, 0, 0);"><rect width="100" height="100"/></g></g><g transform="translate(220,230) scale(0.1,0.1)"><g transform="" style="fill: rgb(0, 0, 0);"><rect width="100" height="100"/></g></g><g transform="translate(230,230) scale(0.1,0.1)"><g transform="" style="fill: rgb(0, 0, 0);"><rect width="100" height="100"/></g></g><g transform="translate(240,230) scale(0.1,0.1)"><g transform="" style="fill: rgb(0, 0, 0);"><rect width="100" height="100"/></g></g><g transform="translate(80,240) scale(0.1,0.1)"><g transform="" style="fill: rgb(0, 0, 0);"><rect width="100" height="100"/></g></g><g transform="translate(90,240) scale(0.1,0.1)"><g transform="" style="fill: rgb(0, 0, 0);"><rect width="100" height="100"/></g></g><g transform="translate(110,240) scale(0.1,0.1)"><g transform="" style="fill: rgb(0, 0, 0);"><rect width="100" height="100"/></g></g><g transform="translate(120,240) scale(0.1,0.1)"><g transform="" style="fill: rgb(0, 0, 0);"><rect width="100" height="100"/></g></g><g transform="translate(130,240) scale(0.1,0.1)"><g transform="" style="fill: rgb(0, 0, 0);"><rect width="100" height="100"/></g></g><g transform="translate(160,240) scale(0.1,0.1)"><g transform="" style="fill: rgb(0, 0, 0);"><rect width="100" height="100"/></g></g><g transform="translate(170,240) scale(0.1,0.1)"><g transform="" style="fill: rgb(0, 0, 0);"><rect width="100" height="100"/></g></g><g transform="translate(210,240) scale(0.1,0.1)"><g transform="" style="fill: rgb(0, 0, 0);"><rect width="100" height="100"/></g></g><g transform="translate(240,240) scale(0.1,0.1)"><g transform="" style="fill: rgb(0, 0, 0);"><rect width="100" height="100"/></g></g><g transform="translate(0,0) scale(0.7, 0.7)"><g transform="" style="fill: rgb(0, 0, 0);"><g>	<rect x="15" y="15" style="fill:none;" width="70" height="70"/>	<path d="M85,0H15H0v15v70v15h15h70h15V85V15V0H85z M85,85H15V15h70V85z"/></g></g></g><g transform="translate(180,0) scale(0.7, 0.7)"><g transform="" style="fill: rgb(0, 0, 0);"><g>	<rect x="15" y="15" style="fill:none;" width="70" height="70"/>	<path d="M85,0H15H0v15v70v15h15h70h15V85V15V0H85z M85,85H15V15h70V85z"/></g></g></g><g transform="translate(0,180) scale(0.7, 0.7)"><g transform="" style="fill: rgb(0, 0, 0);"><g>	<rect x="15" y="15" style="fill:none;" width="70" height="70"/>	<path d="M85,0H15H0v15v70v15h15h70h15V85V15V0H85z M85,85H15V15h70V85z"/></g></g></g><g transform="translate(20,20) scale(0.3, 0.3)"><g transform="" style="fill: rgb(0, 0, 0);"><rect width="100" height="100"/></g></g><g transform="translate(200,20) scale(0.3, 0.3)"><g transform="" style="fill: rgb(0, 0, 0);"><rect width="100" height="100"/></g></g><g transform="translate(20,200) scale(0.3, 0.3)"><g transform="" style="fill: rgb(0, 0, 0);"><rect width="100" height="100"/></g></g></g></svg>